M48
; DRILL file KiCad 10.0.1 date 2026-07-25T14:26:42
; FORMAT={-:-/ absolute / metric / decimal}
; #@! TF.CreationDate,2026-07-25T14:26:42-06:00
; #@! TF.GenerationSoftware,Kicad,Pcbnew,10.0.1
; #@! TF.FileFunction,MixedPlating,1,2
FMAT,2
METRIC
; #@! TA.AperFunction,Plated,PTH,ViaDrill
T1C0.300
; #@! TA.AperFunction,Plated,PTH,ComponentDrill
T2C0.700
; #@! TA.AperFunction,Plated,PTH,ComponentDrill
T3C0.800
; #@! TA.AperFunction,Plated,PTH,ComponentDrill
T4C1.000
; #@! TA.AperFunction,Plated,PTH,ComponentDrill
T5C3.200
%
G90
G05
T1
X39.558Y-31.458
T2
X44.0Y-44.0
T3
X29.329Y-48.4
X30.0Y-50.0
X32.5Y-50.0
X33.171Y-51.6
X50.0Y-40.0
X52.5Y-40.0
T4
X14.0Y-63.0
X14.0Y-65.5
X15.0Y-8.0
X15.0Y-10.54
X15.0Y-13.08
X15.0Y-15.62
X15.0Y-18.16
X15.0Y-20.7
X15.0Y-23.24
X15.0Y-25.78
X15.0Y-28.32
X15.0Y-30.86
X15.0Y-33.4
X15.0Y-35.94
X28.0Y-63.0
X28.0Y-65.5
X30.24Y-8.0
X30.24Y-10.54
X30.24Y-13.08
X30.24Y-15.62
X30.24Y-18.16
X30.24Y-20.7
X30.24Y-23.24
X30.24Y-25.78
X30.24Y-28.32
X30.24Y-30.86
X30.24Y-33.4
X30.24Y-35.94
X45.0Y-50.0
X47.54Y-50.0
X50.08Y-50.0
X55.0Y-5.0
X55.0Y-7.5
X55.0Y-10.0
X55.0Y-12.5
X55.0Y-15.0
X55.0Y-17.5
X55.0Y-20.0
X55.0Y-22.5
X55.0Y-25.0
X55.0Y-50.0
X57.54Y-50.0
X60.08Y-50.0
X65.0Y-50.0
X67.54Y-50.0
X70.08Y-50.0
X74.0Y-63.0
X74.0Y-65.5
X75.5Y-5.0
X75.5Y-7.5
X75.5Y-10.0
X75.5Y-12.5
X75.5Y-15.0
X75.5Y-17.5
X75.5Y-20.0
X75.5Y-22.5
X75.5Y-25.0
T5
X5.0Y-5.0
X5.0Y-65.0
X85.0Y-5.0
X85.0Y-65.0
M30
