%TF.GenerationSoftware,KiCad,Pcbnew,10.0.1*%
%TF.CreationDate,2026-07-25T14:26:42-06:00*%
%TF.ProjectId,ahmygroin,61686d79-6772-46f6-996e-2e6b69636164,rev?*%
%TF.SameCoordinates,Original*%
%TF.FileFunction,Copper,L2,Bot*%
%TF.FilePolarity,Positive*%
%FSLAX46Y46*%
G04 Gerber Fmt 4.6, Leading zero omitted, Abs format (unit mm)*
G04 Created by KiCad (PCBNEW 10.0.1) date 2026-07-25 14:26:42*
%MOMM*%
%LPD*%
G01*
G04 APERTURE LIST*
G04 Aperture macros list*
%AMRoundRect*
0 Rectangle with rounded corners*
0 $1 Rounding radius*
0 $2 $3 $4 $5 $6 $7 $8 $9 X,Y pos of 4 corners*
0 Add a 4 corners polygon primitive as box body*
4,1,4,$2,$3,$4,$5,$6,$7,$8,$9,$2,$3,0*
0 Add four circle primitives for the rounded corners*
1,1,$1+$1,$2,$3*
1,1,$1+$1,$4,$5*
1,1,$1+$1,$6,$7*
1,1,$1+$1,$8,$9*
0 Add four rect primitives between the rounded corners*
20,1,$1+$1,$2,$3,$4,$5,0*
20,1,$1+$1,$4,$5,$6,$7,0*
20,1,$1+$1,$6,$7,$8,$9,0*
20,1,$1+$1,$8,$9,$2,$3,0*%
G04 Aperture macros list end*
%TA.AperFunction,ComponentPad*%
%ADD10C,3.600000*%
%TD*%
%TA.AperFunction,ConnectorPad*%
%ADD11C,6.400000*%
%TD*%
%TA.AperFunction,ComponentPad*%
%ADD12R,1.700000X1.700000*%
%TD*%
%TA.AperFunction,ComponentPad*%
%ADD13C,1.700000*%
%TD*%
%TA.AperFunction,ComponentPad*%
%ADD14RoundRect,0.250000X-0.550000X-0.550000X0.550000X-0.550000X0.550000X0.550000X-0.550000X0.550000X0*%
%TD*%
%TA.AperFunction,ComponentPad*%
%ADD15C,1.600000*%
%TD*%
%TA.AperFunction,ComponentPad*%
%ADD16C,1.500000*%
%TD*%
%TA.AperFunction,ComponentPad*%
%ADD17RoundRect,0.250000X-0.750000X0.600000X-0.750000X-0.600000X0.750000X-0.600000X0.750000X0.600000X0*%
%TD*%
%TA.AperFunction,ComponentPad*%
%ADD18O,2.000000X1.700000*%
%TD*%
%TA.AperFunction,ViaPad*%
%ADD19C,0.600000*%
%TD*%
%TA.AperFunction,Conductor*%
%ADD20C,0.200000*%
%TD*%
G04 APERTURE END LIST*
D10*
%TO.P,H3,1*%
%TO.N,/GND*%
X5000000Y-65000000D03*
D11*
X5000000Y-65000000D03*
%TD*%
D12*
%TO.P,J7,1*%
%TO.N,/TRIG_OUT*%
X75500000Y-5000000D03*
D13*
%TO.P,J7,2*%
%TO.N,N/C*%
X75500000Y-7500000D03*
%TO.P,J7,3*%
X75500000Y-10000000D03*
%TO.P,J7,4*%
X75500000Y-12500000D03*
%TO.P,J7,5*%
X75500000Y-15000000D03*
%TO.P,J7,6*%
X75500000Y-17500000D03*
%TO.P,J7,7*%
X75500000Y-20000000D03*
%TO.P,J7,8*%
X75500000Y-22500000D03*
%TO.P,J7,9*%
%TO.N,/GND*%
X75500000Y-25000000D03*
%TD*%
D12*
%TO.P,J10,1*%
%TO.N,/GND*%
X65000000Y-50000000D03*
D13*
%TO.P,J10,2*%
%TO.N,/BUSY_IN*%
X67540000Y-50000000D03*
%TO.P,J10,3*%
%TO.N,/V33*%
X70080000Y-50000000D03*
%TD*%
D14*
%TO.P,C4,1*%
%TO.N,/VDFP*%
X50000000Y-40000000D03*
D15*
%TO.P,C4,2*%
%TO.N,/GND*%
X52500000Y-40000000D03*
%TD*%
D12*
%TO.P,J4,1*%
%TO.N,N/C*%
X15000000Y-8000000D03*
D13*
%TO.P,J4,2*%
X15000000Y-10540000D03*
%TO.P,J4,3*%
X15000000Y-13080000D03*
%TO.P,J4,4*%
%TO.N,/GND*%
X15000000Y-15620000D03*
%TO.P,J4,5*%
%TO.N,/BTN_IN*%
X15000000Y-18160000D03*
%TO.P,J4,6*%
%TO.N,N/C*%
X15000000Y-20700000D03*
%TO.P,J4,7*%
X15000000Y-23240000D03*
%TO.P,J4,8*%
%TO.N,/GATE_CTRL*%
X15000000Y-25780000D03*
%TO.P,J4,9*%
%TO.N,/TRIG_OUT*%
X15000000Y-28320000D03*
%TO.P,J4,10*%
%TO.N,/BUSY_IN*%
X15000000Y-30860000D03*
%TO.P,J4,11*%
%TO.N,N/C*%
X15000000Y-33400000D03*
%TO.P,J4,12*%
X15000000Y-35940000D03*
%TD*%
D16*
%TO.P,TP1,1*%
%TO.N,/V33*%
X44000000Y-44000000D03*
%TD*%
D10*
%TO.P,H4,1*%
%TO.N,/GND*%
X85000000Y-65000000D03*
D11*
X85000000Y-65000000D03*
%TD*%
D10*
%TO.P,H1,1*%
%TO.N,/GND*%
X5000000Y-5000000D03*
D11*
X5000000Y-5000000D03*
%TD*%
D12*
%TO.P,J8,1*%
%TO.N,/GND*%
X45000000Y-50000000D03*
D13*
%TO.P,J8,2*%
%TO.N,/CON1*%
X47540000Y-50000000D03*
%TO.P,J8,3*%
%TO.N,/V33*%
X50080000Y-50000000D03*
%TD*%
D12*
%TO.P,J5,1*%
%TO.N,/VSYS*%
X30240000Y-8000000D03*
D13*
%TO.P,J5,2*%
%TO.N,/GND*%
X30240000Y-10540000D03*
%TO.P,J5,3*%
%TO.N,N/C*%
X30240000Y-13080000D03*
%TO.P,J5,4*%
X30240000Y-15620000D03*
%TO.P,J5,5*%
X30240000Y-18160000D03*
%TO.P,J5,6*%
X30240000Y-20700000D03*
%TO.P,J5,7*%
X30240000Y-23240000D03*
%TO.P,J5,8*%
X30240000Y-25780000D03*
%TO.P,J5,9*%
X30240000Y-28320000D03*
%TO.P,J5,10*%
X30240000Y-30860000D03*
%TO.P,J5,11*%
X30240000Y-33400000D03*
%TO.P,J5,12*%
X30240000Y-35940000D03*
%TD*%
D12*
%TO.P,J6,1*%
%TO.N,/SPK_P*%
X55000000Y-5000000D03*
D13*
%TO.P,J6,2*%
%TO.N,/SPK_N*%
X55000000Y-7500000D03*
%TO.P,J6,3*%
%TO.N,N/C*%
X55000000Y-10000000D03*
%TO.P,J6,4*%
X55000000Y-12500000D03*
%TO.P,J6,5*%
%TO.N,/V33*%
X55000000Y-15000000D03*
%TO.P,J6,6*%
%TO.N,/VDFP*%
X55000000Y-17500000D03*
%TO.P,J6,7*%
%TO.N,/BUSY_IN*%
X55000000Y-20000000D03*
%TO.P,J6,8*%
%TO.N,/CON2*%
X55000000Y-22500000D03*
%TO.P,J6,9*%
%TO.N,/CON1*%
X55000000Y-25000000D03*
%TD*%
D14*
%TO.P,C1,1*%
%TO.N,/VSYS*%
X29329063Y-48400000D03*
X30000000Y-50000000D03*
D15*
%TO.P,C1,2*%
%TO.N,/GND*%
X32500000Y-50000000D03*
X33170937Y-51600000D03*
%TD*%
D17*
%TO.P,J1,1*%
%TO.N,/VBATT*%
X14000000Y-63000000D03*
D18*
%TO.P,J1,2*%
%TO.N,/GND*%
X14000000Y-65500000D03*
%TD*%
D17*
%TO.P,J3,1*%
%TO.N,/SPK_P*%
X74000000Y-63000000D03*
D18*
%TO.P,J3,2*%
%TO.N,/SPK_N*%
X74000000Y-65500000D03*
%TD*%
D10*
%TO.P,H2,1*%
%TO.N,/GND*%
X85000000Y-5000000D03*
D11*
X85000000Y-5000000D03*
%TD*%
D12*
%TO.P,J9,1*%
%TO.N,/GND*%
X55000000Y-50000000D03*
D13*
%TO.P,J9,2*%
%TO.N,/CON2*%
X57540000Y-50000000D03*
%TO.P,J9,3*%
%TO.N,/V33*%
X60080000Y-50000000D03*
%TD*%
D17*
%TO.P,J2,1*%
%TO.N,/BTN_IN*%
X28000000Y-63000000D03*
D18*
%TO.P,J2,2*%
%TO.N,/GND*%
X28000000Y-65500000D03*
%TD*%
D19*
%TO.N,/GND*%
X39558000Y-31458300D03*
%TD*%
%TO.N,/VSYS*%
D20*
X30240000Y-9101700D02*
X30102300Y-9101700D01*
X30102300Y-9101700D02*
X29130000Y-10074000D01*
X30240000Y-8000000D02*
X30240000Y-9101700D01*
X29130000Y-10074000D02*
X29130000Y-48200900D01*
X29130000Y-48200900D02*
X29329100Y-48400000D01*
X30000000Y-50000000D02*
X29329100Y-49329100D01*
X29329100Y-49329100D02*
X29329100Y-48400000D01*
%TO.N,/GND*%
X32500000Y-31458300D02*
X32500000Y-50000000D01*
X85000000Y-15500000D02*
X75500000Y-25000000D01*
X85000000Y-65000000D02*
X85000000Y-34500000D01*
X32500000Y-12800000D02*
X32500000Y-31458300D01*
X32500000Y-50929100D02*
X32500000Y-50000000D01*
X33170900Y-51600000D02*
X32500000Y-50929100D01*
X52500000Y-40000000D02*
X55000000Y-42500000D01*
X55000000Y-42500000D02*
X55000000Y-50000000D01*
X85000000Y-34500000D02*
X75500000Y-25000000D01*
X30240000Y-10540000D02*
X32500000Y-12800000D01*
X28000000Y-64398300D02*
X28688600Y-64398300D01*
X32500000Y-31458300D02*
X39558000Y-31458300D01*
X33170900Y-59916000D02*
X33170900Y-51600000D01*
X28000000Y-65500000D02*
X28000000Y-64398300D01*
X28688600Y-64398300D02*
X33170900Y-59916000D01*
X85000000Y-5000000D02*
X85000000Y-15500000D01*
%TO.N,/VDFP*%
X50000000Y-22500000D02*
X50000000Y-40000000D01*
X55000000Y-17500000D02*
X50000000Y-22500000D01*
%TO.N,/BUSY_IN*%
X67540000Y-50000000D02*
X67540000Y-32540000D01*
X67540000Y-32540000D02*
X55000000Y-20000000D01*
%TO.N,/V33*%
X44080000Y-44000000D02*
X44080000Y-25920000D01*
X44080000Y-25920000D02*
X55000000Y-15000000D01*
X44080000Y-44000000D02*
X50080000Y-50000000D01*
X44000000Y-44000000D02*
X44080000Y-44000000D01*
%TO.N,/BTN_IN*%
X28000000Y-63000000D02*
X28000000Y-31160000D01*
X28000000Y-31160000D02*
X15000000Y-18160000D01*
%TO.N,/CON1*%
X47540000Y-50000000D02*
X48662900Y-51122900D01*
X50615500Y-51122900D02*
X51411800Y-50326600D01*
X51411800Y-50326600D02*
X51411800Y-28588200D01*
X51411800Y-28588200D02*
X55000000Y-25000000D01*
X48662900Y-51122900D02*
X50615500Y-51122900D01*
%TO.N,/SPK_P*%
X74000000Y-63000000D02*
X74000000Y-24826300D01*
X55275400Y-6101700D02*
X55000000Y-6101700D01*
X55000000Y-5000000D02*
X55000000Y-6101700D01*
X74000000Y-24826300D02*
X55275400Y-6101700D01*
%TO.N,/SPK_N*%
X73311400Y-64398300D02*
X74000000Y-64398300D01*
X68810000Y-21310000D02*
X68810000Y-59896900D01*
X68810000Y-59896900D02*
X73311400Y-64398300D01*
X55000000Y-7500000D02*
X68810000Y-21310000D01*
X74000000Y-65500000D02*
X74000000Y-64398300D01*
%TO.N,/CON2*%
X57540000Y-25040000D02*
X55000000Y-22500000D01*
X57540000Y-50000000D02*
X57540000Y-25040000D01*
%TD*%
%TA.AperFunction,Conductor*%
%TO.N,/GND*%
G36*
X87003736Y-500726D02*
G01*
X87293796Y-518271D01*
X87308659Y-520076D01*
X87590797Y-571780D01*
X87605334Y-575363D01*
X87879182Y-660698D01*
X87893163Y-666000D01*
X88154734Y-783724D01*
X88167987Y-790680D01*
X88413458Y-939071D01*
X88425776Y-947573D01*
X88651573Y-1124474D01*
X88662781Y-1134404D01*
X88865595Y-1337218D01*
X88875525Y-1348426D01*
X89052422Y-1574217D01*
X89060928Y-1586541D01*
X89209319Y-1832012D01*
X89216277Y-1845269D01*
X89333994Y-2106823D01*
X89339304Y-2120825D01*
X89424635Y-2394664D01*
X89428219Y-2409202D01*
X89479923Y-2691340D01*
X89481728Y-2706205D01*
X89499274Y-2996263D01*
X89499500Y-3003750D01*
X89499500Y-66996249D01*
X89499274Y-67003736D01*
X89481728Y-67293794D01*
X89479923Y-67308659D01*
X89428219Y-67590797D01*
X89424635Y-67605335D01*
X89339304Y-67879174D01*
X89333994Y-67893176D01*
X89216277Y-68154730D01*
X89209319Y-68167987D01*
X89060928Y-68413458D01*
X89052422Y-68425782D01*
X88875525Y-68651573D01*
X88865595Y-68662781D01*
X88662781Y-68865595D01*
X88651573Y-68875525D01*
X88425782Y-69052422D01*
X88413458Y-69060928D01*
X88167987Y-69209319D01*
X88154730Y-69216277D01*
X87893176Y-69333994D01*
X87879174Y-69339304D01*
X87605335Y-69424635D01*
X87590797Y-69428219D01*
X87308659Y-69479923D01*
X87293794Y-69481728D01*
X87003736Y-69499274D01*
X86996249Y-69499500D01*
X3003751Y-69499500D01*
X2996264Y-69499274D01*
X2706205Y-69481728D01*
X2691340Y-69479923D01*
X2409202Y-69428219D01*
X2394664Y-69424635D01*
X2120825Y-69339304D01*
X2106827Y-69333995D01*
X1954096Y-69265256D01*
X1845269Y-69216277D01*
X1832012Y-69209319D01*
X1586541Y-69060928D01*
X1574217Y-69052422D01*
X1348426Y-68875525D01*
X1337218Y-68865595D01*
X1134404Y-68662781D01*
X1124474Y-68651573D01*
X947573Y-68425776D01*
X939071Y-68413458D01*
X790680Y-68167987D01*
X783722Y-68154730D01*
X666000Y-67893163D01*
X660698Y-67879182D01*
X575363Y-67605334D01*
X571780Y-67590797D01*
X520076Y-67308659D01*
X518271Y-67293794D01*
X500726Y-67003736D01*
X500500Y-66996249D01*
X500500Y-65299999D01*
X12767965Y-65299999D01*
X12767965Y-65300000D01*
X13538120Y-65300000D01*
X13534075Y-65307007D01*
X13500000Y-65434174D01*
X13500000Y-65565826D01*
X13534075Y-65692993D01*
X13538120Y-65700000D01*
X12767965Y-65700000D01*
X12777085Y-65757580D01*
X12830591Y-65922255D01*
X12909195Y-66076524D01*
X13010967Y-66216602D01*
X13133397Y-66339032D01*
X13273475Y-66440804D01*
X13427742Y-66519408D01*
X13592415Y-66572914D01*
X13763429Y-66600000D01*
X13800000Y-66600000D01*
X13800000Y-65961879D01*
X13807007Y-65965925D01*
X13934174Y-66000000D01*
X14065826Y-66000000D01*
X14192993Y-65965925D01*
X14200000Y-65961879D01*
X14200000Y-66600000D01*
X14236571Y-66600000D01*
X14407584Y-66572914D01*
X14572257Y-66519408D01*
X14726524Y-66440804D01*
X14866602Y-66339032D01*
X14989032Y-66216602D01*
X15090804Y-66076524D01*
X15169408Y-65922255D01*
X15222914Y-65757580D01*
X15232034Y-65700000D01*
X14461880Y-65700000D01*
X14465925Y-65692993D01*
X14500000Y-65565826D01*
X14500000Y-65434174D01*
X14465925Y-65307007D01*
X14461880Y-65300000D01*
X15232035Y-65300000D01*
X15232034Y-65299999D01*
X26767965Y-65299999D01*
X26767965Y-65300000D01*
X27538120Y-65300000D01*
X27534075Y-65307007D01*
X27500000Y-65434174D01*
X27500000Y-65565826D01*
X27534075Y-65692993D01*
X27538120Y-65700000D01*
X26767965Y-65700000D01*
X26777085Y-65757580D01*
X26830591Y-65922255D01*
X26909195Y-66076524D01*
X27010967Y-66216602D01*
X27133397Y-66339032D01*
X27273475Y-66440804D01*
X27427742Y-66519408D01*
X27592415Y-66572914D01*
X27763429Y-66600000D01*
X27800000Y-66600000D01*
X27800000Y-65961879D01*
X27807007Y-65965925D01*
X27934174Y-66000000D01*
X28065826Y-66000000D01*
X28192993Y-65965925D01*
X28200000Y-65961879D01*
X28200000Y-66600000D01*
X28236571Y-66600000D01*
X28407584Y-66572914D01*
X28572257Y-66519408D01*
X28726524Y-66440804D01*
X28866602Y-66339032D01*
X28989032Y-66216602D01*
X29090804Y-66076524D01*
X29169408Y-65922255D01*
X29222914Y-65757580D01*
X29232034Y-65700000D01*
X28461880Y-65700000D01*
X28465925Y-65692993D01*
X28500000Y-65565826D01*
X28500000Y-65434174D01*
X28465925Y-65307007D01*
X28461880Y-65300000D01*
X29232035Y-65300000D01*
X29232034Y-65299999D01*
X29222914Y-65242419D01*
X29169408Y-65077744D01*
X29090804Y-64923475D01*
X28989032Y-64783397D01*
X28866602Y-64660967D01*
X28726524Y-64559195D01*
X28572257Y-64480591D01*
X28407584Y-64427085D01*
X28236571Y-64400000D01*
X28200000Y-64400000D01*
X28200000Y-65038120D01*
X28192993Y-65034075D01*
X28065826Y-65000000D01*
X27934174Y-65000000D01*
X27807007Y-65034075D01*
X27800000Y-65038120D01*
X27800000Y-64400000D01*
X27763429Y-64400000D01*
X27592415Y-64427085D01*
X27427742Y-64480591D01*
X27273475Y-64559195D01*
X27133397Y-64660967D01*
X27010967Y-64783397D01*
X26909195Y-64923475D01*
X26830591Y-65077744D01*
X26777085Y-65242419D01*
X26767965Y-65299999D01*
X15232034Y-65299999D01*
X15222914Y-65242419D01*
X15169408Y-65077744D01*
X15090804Y-64923475D01*
X14989032Y-64783397D01*
X14866602Y-64660967D01*
X14726524Y-64559195D01*
X14572257Y-64480591D01*
X14407584Y-64427085D01*
X14236571Y-64400000D01*
X14200000Y-64400000D01*
X14200000Y-65038120D01*
X14192993Y-65034075D01*
X14065826Y-65000000D01*
X13934174Y-65000000D01*
X13807007Y-65034075D01*
X13800000Y-65038120D01*
X13800000Y-64400000D01*
X13763429Y-64400000D01*
X13592415Y-64427085D01*
X13427742Y-64480591D01*
X13273475Y-64559195D01*
X13133397Y-64660967D01*
X13010967Y-64783397D01*
X12909195Y-64923475D01*
X12830591Y-65077744D01*
X12777085Y-65242419D01*
X12767965Y-65299999D01*
X500500Y-65299999D01*
X500500Y-62352135D01*
X12749500Y-62352135D01*
X12749500Y-63647870D01*
X12749501Y-63647876D01*
X12755908Y-63707483D01*
X12806202Y-63842328D01*
X12806206Y-63842335D01*
X12892452Y-63957544D01*
X12892455Y-63957547D01*
X13007664Y-64043793D01*
X13007671Y-64043797D01*
X13142517Y-64094091D01*
X13142516Y-64094091D01*
X13149444Y-64094835D01*
X13202127Y-64100500D01*
X14797872Y-64100499D01*
X14857483Y-64094091D01*
X14992331Y-64043796D01*
X15107546Y-63957546D01*
X15193796Y-63842331D01*
X15244091Y-63707483D01*
X15250500Y-63647873D01*
X15250499Y-62352128D01*
X15244091Y-62292517D01*
X15193796Y-62157669D01*
X15193795Y-62157668D01*
X15193793Y-62157664D01*
X15107547Y-62042455D01*
X15107544Y-62042452D01*
X14992335Y-61956206D01*
X14992328Y-61956202D01*
X14857482Y-61905908D01*
X14857483Y-61905908D01*
X14797883Y-61899501D01*
X14797881Y-61899500D01*
X14797873Y-61899500D01*
X14797864Y-61899500D01*
X13202129Y-61899500D01*
X13202123Y-61899501D01*
X13142516Y-61905908D01*
X13007671Y-61956202D01*
X13007664Y-61956206D01*
X12892455Y-62042452D01*
X12892452Y-62042455D01*
X12806206Y-62157664D01*
X12806202Y-62157671D01*
X12755908Y-62292517D01*
X12749501Y-62352116D01*
X12749501Y-62352123D01*
X12749500Y-62352135D01*
X500500Y-62352135D01*
X500500Y-35853389D01*
X13899500Y-35853389D01*
X13899500Y-36026611D01*
X13926598Y-36197701D01*
X13980127Y-36362445D01*
X14058768Y-36516788D01*
X14160586Y-36656928D01*
X14283072Y-36779414D01*
X14423212Y-36881232D01*
X14577555Y-36959873D01*
X14742299Y-37013402D01*
X14913389Y-37040500D01*
X14913390Y-37040500D01*
X15086610Y-37040500D01*
X15086611Y-37040500D01*
X15257701Y-37013402D01*
X15422445Y-36959873D01*
X15576788Y-36881232D01*
X15716928Y-36779414D01*
X15839414Y-36656928D01*
X15941232Y-36516788D01*
X16019873Y-36362445D01*
X16073402Y-36197701D01*
X16100500Y-36026611D01*
X16100500Y-35853389D01*
X16073402Y-35682299D01*
X16019873Y-35517555D01*
X15941232Y-35363212D01*
X15839414Y-35223072D01*
X15716928Y-35100586D01*
X15576788Y-34998768D01*
X15422445Y-34920127D01*
X15257701Y-34866598D01*
X15257699Y-34866597D01*
X15257698Y-34866597D01*
X15126271Y-34845781D01*
X15086611Y-34839500D01*
X14913389Y-34839500D01*
X14873728Y-34845781D01*
X14742302Y-34866597D01*
X14577552Y-34920128D01*
X14423211Y-34998768D01*
X14343256Y-35056859D01*
X14283072Y-35100586D01*
X14283070Y-35100588D01*
X14283069Y-35100588D01*
X14160588Y-35223069D01*
X14160588Y-35223070D01*
X14160586Y-35223072D01*
X14116859Y-35283256D01*
X14058768Y-35363211D01*
X13980128Y-35517552D01*
X13926597Y-35682302D01*
X13899500Y-35853389D01*
X500500Y-35853389D01*
X500500Y-33313389D01*
X13899500Y-33313389D01*
X13899500Y-33486611D01*
X13926598Y-33657701D01*
X13980127Y-33822445D01*
X14058768Y-33976788D01*
X14160586Y-34116928D01*
X14283072Y-34239414D01*
X14423212Y-34341232D01*
X14577555Y-34419873D01*
X14742299Y-34473402D01*
X14913389Y-34500500D01*
X14913390Y-34500500D01*
X15086610Y-34500500D01*
X15086611Y-34500500D01*
X15257701Y-34473402D01*
X15422445Y-34419873D01*
X15576788Y-34341232D01*
X15716928Y-34239414D01*
X15839414Y-34116928D01*
X15941232Y-33976788D01*
X16019873Y-33822445D01*
X16073402Y-33657701D01*
X16100500Y-33486611D01*
X16100500Y-33313389D01*
X16073402Y-33142299D01*
X16019873Y-32977555D01*
X15941232Y-32823212D01*
X15839414Y-32683072D01*
X15716928Y-32560586D01*
X15576788Y-32458768D01*
X15422445Y-32380127D01*
X15257701Y-32326598D01*
X15257699Y-32326597D01*
X15257698Y-32326597D01*
X15126271Y-32305781D01*
X15086611Y-32299500D01*
X14913389Y-32299500D01*
X14873728Y-32305781D01*
X14742302Y-32326597D01*
X14577552Y-32380128D01*
X14423211Y-32458768D01*
X14374915Y-32493858D01*
X14283072Y-32560586D01*
X14283070Y-32560588D01*
X14283069Y-32560588D01*
X14160588Y-32683069D01*
X14160588Y-32683070D01*
X14160586Y-32683072D01*
X14121736Y-32736544D01*
X14058768Y-32823211D01*
X13980128Y-32977552D01*
X13926597Y-33142302D01*
X13899500Y-33313389D01*
X500500Y-33313389D01*
X500500Y-30773389D01*
X13899500Y-30773389D01*
X13899500Y-30946610D01*
X13911869Y-31024709D01*
X13926598Y-31117701D01*
X13980127Y-31282445D01*
X14058768Y-31436788D01*
X14160586Y-31576928D01*
X14283072Y-31699414D01*
X14423212Y-31801232D01*
X14577555Y-31879873D01*
X14742299Y-31933402D01*
X14913389Y-31960500D01*
X14913390Y-31960500D01*
X15086610Y-31960500D01*
X15086611Y-31960500D01*
X15257701Y-31933402D01*
X15422445Y-31879873D01*
X15576788Y-31801232D01*
X15716928Y-31699414D01*
X15839414Y-31576928D01*
X15941232Y-31436788D01*
X16019873Y-31282445D01*
X16073402Y-31117701D01*
X16100500Y-30946611D01*
X16100500Y-30773389D01*
X16073402Y-30602299D01*
X16019873Y-30437555D01*
X15941232Y-30283212D01*
X15839414Y-30143072D01*
X15716928Y-30020586D01*
X15576788Y-29918768D01*
X15422445Y-29840127D01*
X15257701Y-29786598D01*
X15257699Y-29786597D01*
X15257698Y-29786597D01*
X15126271Y-29765781D01*
X15086611Y-29759500D01*
X14913389Y-29759500D01*
X14873728Y-29765781D01*
X14742302Y-29786597D01*
X14577552Y-29840128D01*
X14423211Y-29918768D01*
X14343256Y-29976859D01*
X14283072Y-30020586D01*
X14283070Y-30020588D01*
X14283069Y-30020588D01*
X14160588Y-30143069D01*
X14160588Y-30143070D01*
X14160586Y-30143072D01*
X14116859Y-30203256D01*
X14058768Y-30283211D01*
X13980128Y-30437552D01*
X13926597Y-30602302D01*
X13899500Y-30773389D01*
X500500Y-30773389D01*
X500500Y-28233389D01*
X13899500Y-28233389D01*
X13899500Y-28406611D01*
X13926598Y-28577701D01*
X13980127Y-28742445D01*
X14058768Y-28896788D01*
X14160586Y-29036928D01*
X14283072Y-29159414D01*
X14423212Y-29261232D01*
X14577555Y-29339873D01*
X14742299Y-29393402D01*
X14913389Y-29420500D01*
X14913390Y-29420500D01*
X15086610Y-29420500D01*
X15086611Y-29420500D01*
X15257701Y-29393402D01*
X15422445Y-29339873D01*
X15576788Y-29261232D01*
X15716928Y-29159414D01*
X15839414Y-29036928D01*
X15941232Y-28896788D01*
X16019873Y-28742445D01*
X16073402Y-28577701D01*
X16100500Y-28406611D01*
X16100500Y-28233389D01*
X16073402Y-28062299D01*
X16019873Y-27897555D01*
X15941232Y-27743212D01*
X15839414Y-27603072D01*
X15716928Y-27480586D01*
X15576788Y-27378768D01*
X15422445Y-27300127D01*
X15257701Y-27246598D01*
X15257699Y-27246597D01*
X15257698Y-27246597D01*
X15126271Y-27225781D01*
X15086611Y-27219500D01*
X14913389Y-27219500D01*
X14873728Y-27225781D01*
X14742302Y-27246597D01*
X14577552Y-27300128D01*
X14423211Y-27378768D01*
X14343256Y-27436859D01*
X14283072Y-27480586D01*
X14283070Y-27480588D01*
X14283069Y-27480588D01*
X14160588Y-27603069D01*
X14160588Y-27603070D01*
X14160586Y-27603072D01*
X14116859Y-27663256D01*
X14058768Y-27743211D01*
X13980128Y-27897552D01*
X13926597Y-28062302D01*
X13899500Y-28233389D01*
X500500Y-28233389D01*
X500500Y-25693389D01*
X13899500Y-25693389D01*
X13899500Y-25866611D01*
X13905823Y-25906533D01*
X13923700Y-26019408D01*
X13926598Y-26037701D01*
X13980127Y-26202445D01*
X14058768Y-26356788D01*
X14160586Y-26496928D01*
X14283072Y-26619414D01*
X14423212Y-26721232D01*
X14577555Y-26799873D01*
X14742299Y-26853402D01*
X14913389Y-26880500D01*
X14913390Y-26880500D01*
X15086610Y-26880500D01*
X15086611Y-26880500D01*
X15257701Y-26853402D01*
X15422445Y-26799873D01*
X15576788Y-26721232D01*
X15716928Y-26619414D01*
X15839414Y-26496928D01*
X15941232Y-26356788D01*
X16019873Y-26202445D01*
X16073402Y-26037701D01*
X16100500Y-25866611D01*
X16100500Y-25693389D01*
X16073402Y-25522299D01*
X16019873Y-25357555D01*
X15941232Y-25203212D01*
X15839414Y-25063072D01*
X15716928Y-24940586D01*
X15576788Y-24838768D01*
X15422445Y-24760127D01*
X15257701Y-24706598D01*
X15257699Y-24706597D01*
X15257698Y-24706597D01*
X15126271Y-24685781D01*
X15086611Y-24679500D01*
X14913389Y-24679500D01*
X14873728Y-24685781D01*
X14742302Y-24706597D01*
X14742299Y-24706598D01*
X14632067Y-24742415D01*
X14577552Y-24760128D01*
X14423211Y-24838768D01*
X14343256Y-24896859D01*
X14283072Y-24940586D01*
X14283070Y-24940588D01*
X14283069Y-24940588D01*
X14160588Y-25063069D01*
X14160588Y-25063070D01*
X14160586Y-25063072D01*
X14143513Y-25086571D01*
X14058768Y-25203211D01*
X13980128Y-25357552D01*
X13926597Y-25522302D01*
X13913678Y-25603873D01*
X13899500Y-25693389D01*
X500500Y-25693389D01*
X500500Y-23153389D01*
X13899500Y-23153389D01*
X13899500Y-23326611D01*
X13926598Y-23497701D01*
X13980127Y-23662445D01*
X14058768Y-23816788D01*
X14160586Y-23956928D01*
X14283072Y-24079414D01*
X14423212Y-24181232D01*
X14577555Y-24259873D01*
X14742299Y-24313402D01*
X14913389Y-24340500D01*
X14913390Y-24340500D01*
X15086610Y-24340500D01*
X15086611Y-24340500D01*
X15257701Y-24313402D01*
X15422445Y-24259873D01*
X15576788Y-24181232D01*
X15716928Y-24079414D01*
X15839414Y-23956928D01*
X15941232Y-23816788D01*
X16019873Y-23662445D01*
X16073402Y-23497701D01*
X16100500Y-23326611D01*
X16100500Y-23153389D01*
X16073402Y-22982299D01*
X16019873Y-22817555D01*
X15941232Y-22663212D01*
X15839414Y-22523072D01*
X15716928Y-22400586D01*
X15576788Y-22298768D01*
X15422445Y-22220127D01*
X15257701Y-22166598D01*
X15257699Y-22166597D01*
X15257698Y-22166597D01*
X15126271Y-22145781D01*
X15086611Y-22139500D01*
X14913389Y-22139500D01*
X14873728Y-22145781D01*
X14742302Y-22166597D01*
X14577552Y-22220128D01*
X14423211Y-22298768D01*
X14343256Y-22356859D01*
X14283072Y-22400586D01*
X14283070Y-22400588D01*
X14283069Y-22400588D01*
X14160588Y-22523069D01*
X14160588Y-22523070D01*
X14160586Y-22523072D01*
X14116859Y-22583256D01*
X14058768Y-22663211D01*
X13980128Y-22817552D01*
X13926597Y-22982302D01*
X13925117Y-22991647D01*
X13899500Y-23153389D01*
X500500Y-23153389D01*
X500500Y-20613389D01*
X13899500Y-20613389D01*
X13899500Y-20786610D01*
X13923989Y-20941232D01*
X13926598Y-20957701D01*
X13980127Y-21122445D01*
X14058768Y-21276788D01*
X14160586Y-21416928D01*
X14283072Y-21539414D01*
X14423212Y-21641232D01*
X14577555Y-21719873D01*
X14742299Y-21773402D01*
X14913389Y-21800500D01*
X14913390Y-21800500D01*
X15086610Y-21800500D01*
X15086611Y-21800500D01*
X15257701Y-21773402D01*
X15422445Y-21719873D01*
X15576788Y-21641232D01*
X15716928Y-21539414D01*
X15839414Y-21416928D01*
X15941232Y-21276788D01*
X16019873Y-21122445D01*
X16073402Y-20957701D01*
X16100500Y-20786611D01*
X16100500Y-20613389D01*
X16073402Y-20442299D01*
X16019873Y-20277555D01*
X15941232Y-20123212D01*
X15839414Y-19983072D01*
X15716928Y-19860586D01*
X15576788Y-19758768D01*
X15422445Y-19680127D01*
X15257701Y-19626598D01*
X15257699Y-19626597D01*
X15257698Y-19626597D01*
X15126271Y-19605781D01*
X15086611Y-19599500D01*
X14913389Y-19599500D01*
X14873728Y-19605781D01*
X14742302Y-19626597D01*
X14577552Y-19680128D01*
X14423211Y-19758768D01*
X14343256Y-19816859D01*
X14283072Y-19860586D01*
X14283070Y-19860588D01*
X14283069Y-19860588D01*
X14160588Y-19983069D01*
X14160588Y-19983070D01*
X14160586Y-19983072D01*
X14116859Y-20043256D01*
X14058768Y-20123211D01*
X13980128Y-20277552D01*
X13926597Y-20442302D01*
X13899500Y-20613389D01*
X500500Y-20613389D01*
X500500Y-18073389D01*
X13899500Y-18073389D01*
X13899500Y-18246610D01*
X13914198Y-18339414D01*
X13926598Y-18417701D01*
X13980127Y-18582445D01*
X14058768Y-18736788D01*
X14160586Y-18876928D01*
X14283072Y-18999414D01*
X14423212Y-19101232D01*
X14577555Y-19179873D01*
X14742299Y-19233402D01*
X14913389Y-19260500D01*
X14913390Y-19260500D01*
X15086610Y-19260500D01*
X15086611Y-19260500D01*
X15257701Y-19233402D01*
X15422445Y-19179873D01*
X15422447Y-19179871D01*
X15426971Y-19178402D01*
X15496812Y-19176407D01*
X15552970Y-19208652D01*
X27613181Y-31268862D01*
X27646666Y-31330185D01*
X27649500Y-31356543D01*
X27649500Y-61775500D01*
X27629815Y-61842539D01*
X27577011Y-61888294D01*
X27525500Y-61899500D01*
X27202130Y-61899500D01*
X27202123Y-61899501D01*
X27142516Y-61905908D01*
X27007671Y-61956202D01*
X27007664Y-61956206D01*
X26892455Y-62042452D01*
X26892452Y-62042455D01*
X26806206Y-62157664D01*
X26806202Y-62157671D01*
X26755908Y-62292517D01*
X26749501Y-62352116D01*
X26749501Y-62352123D01*
X26749500Y-62352135D01*
X26749500Y-63647870D01*
X26749501Y-63647876D01*
X26755908Y-63707483D01*
X26806202Y-63842328D01*
X26806206Y-63842335D01*
X26892452Y-63957544D01*
X26892455Y-63957547D01*
X27007664Y-64043793D01*
X27007671Y-64043797D01*
X27142517Y-64094091D01*
X27142516Y-64094091D01*
X27149444Y-64094835D01*
X27202127Y-64100500D01*
X28797872Y-64100499D01*
X28857483Y-64094091D01*
X28992331Y-64043796D01*
X29107546Y-63957546D01*
X29193796Y-63842331D01*
X29244091Y-63707483D01*
X29250500Y-63647873D01*
X29250499Y-62352128D01*
X29244091Y-62292517D01*
X29193796Y-62157669D01*
X29193795Y-62157668D01*
X29193793Y-62157664D01*
X29107547Y-62042455D01*
X29107544Y-62042452D01*
X28992335Y-61956206D01*
X28992328Y-61956202D01*
X28857482Y-61905908D01*
X28857483Y-61905908D01*
X28797883Y-61899501D01*
X28797881Y-61899500D01*
X28797873Y-61899500D01*
X28797865Y-61899500D01*
X28474500Y-61899500D01*
X28407461Y-61879815D01*
X28361706Y-61827011D01*
X28350500Y-61775500D01*
X28350500Y-49501096D01*
X28370185Y-49434057D01*
X28422989Y-49388302D01*
X28492147Y-49378358D01*
X28533935Y-49392268D01*
X28536728Y-49393793D01*
X28536732Y-49393796D01*
X28671580Y-49444091D01*
X28731190Y-49450500D01*
X28825500Y-49450499D01*
X28892538Y-49470183D01*
X28938294Y-49522986D01*
X28949500Y-49574499D01*
X28949500Y-50597870D01*
X28949501Y-50597876D01*
X28955908Y-50657483D01*
X29006202Y-50792328D01*
X29006206Y-50792335D01*
X29092452Y-50907544D01*
X29092455Y-50907547D01*
X29207664Y-50993793D01*
X29207671Y-50993797D01*
X29342517Y-51044091D01*
X29342516Y-51044091D01*
X29349444Y-51044835D01*
X29402127Y-51050500D01*
X30597872Y-51050499D01*
X30657483Y-51044091D01*
X30792331Y-50993796D01*
X30907546Y-50907546D01*
X30993796Y-50792331D01*
X31044091Y-50657483D01*
X31050500Y-50597873D01*
X31050499Y-49896579D01*
X31450000Y-49896579D01*
X31450000Y-50103420D01*
X31490348Y-50306266D01*
X31490350Y-50306274D01*
X31569500Y-50497358D01*
X31569505Y-50497367D01*
X31629701Y-50587455D01*
X32113629Y-50103528D01*
X32127259Y-50154394D01*
X32179920Y-50245606D01*
X32254394Y-50320080D01*
X32345606Y-50372741D01*
X32396471Y-50386370D01*
X31912542Y-50870298D01*
X32002640Y-50930499D01*
X32151913Y-50992330D01*
X32206316Y-51036171D01*
X32228381Y-51102465D01*
X32219021Y-51154344D01*
X32161287Y-51293725D01*
X32161285Y-51293733D01*
X32120937Y-51496579D01*
X32120937Y-51703420D01*
X32161285Y-51906266D01*
X32161287Y-51906274D01*
X32240437Y-52097358D01*
X32240442Y-52097367D01*
X32300638Y-52187455D01*
X32784566Y-51703527D01*
X32798196Y-51754394D01*
X32850857Y-51845606D01*
X32925331Y-51920080D01*
X33016543Y-51972741D01*
X33067408Y-51986370D01*
X32583479Y-52470298D01*
X32673577Y-52530499D01*
X32864662Y-52609649D01*
X32864670Y-52609651D01*
X33067516Y-52649999D01*
X33067520Y-52650000D01*
X33274354Y-52650000D01*
X33274357Y-52649999D01*
X33477203Y-52609651D01*
X33477211Y-52609649D01*
X33668296Y-52530499D01*
X33758393Y-52470298D01*
X33274465Y-51986370D01*
X33325331Y-51972741D01*
X33416543Y-51920080D01*
X33491017Y-51845606D01*
X33543678Y-51754394D01*
X33557307Y-51703528D01*
X34041235Y-52187456D01*
X34101436Y-52097359D01*
X34180586Y-51906274D01*
X34180588Y-51906266D01*
X34220936Y-51703420D01*
X34220937Y-51703417D01*
X34220937Y-51496583D01*
X34220936Y-51496579D01*
X34180588Y-51293733D01*
X34180586Y-51293725D01*
X34101436Y-51102640D01*
X34041235Y-51012542D01*
X33557307Y-51496470D01*
X33543678Y-51445606D01*
X33491017Y-51354394D01*
X33416543Y-51279920D01*
X33325331Y-51227259D01*
X33274464Y-51213629D01*
X33758392Y-50729701D01*
X33758392Y-50729700D01*
X33668304Y-50669505D01*
X33668295Y-50669500D01*
X33519023Y-50607669D01*
X33464620Y-50563828D01*
X33442555Y-50497533D01*
X33451915Y-50445654D01*
X33509649Y-50306272D01*
X33545816Y-50124448D01*
X33545816Y-50124446D01*
X33549999Y-50103417D01*
X33550000Y-50103417D01*
X33550000Y-49896583D01*
X33549999Y-49896579D01*
X33509651Y-49693733D01*
X33509649Y-49693725D01*
X33430499Y-49502640D01*
X33370298Y-49412542D01*
X32886370Y-49896471D01*
X32872741Y-49845606D01*
X32820080Y-49754394D01*
X32745606Y-49679920D01*
X32654394Y-49627259D01*
X32603528Y-49613629D01*
X33087455Y-49129701D01*
X33080975Y-49125371D01*
X43900000Y-49125371D01*
X43900000Y-49800000D01*
X44538120Y-49800000D01*
X44534075Y-49807007D01*
X44500000Y-49934174D01*
X44500000Y-50065826D01*
X44534075Y-50192993D01*
X44538120Y-50200000D01*
X43900000Y-50200000D01*
X43900000Y-50874628D01*
X43914503Y-50947540D01*
X43914505Y-50947544D01*
X43969760Y-51030239D01*
X44052455Y-51085494D01*
X44052459Y-51085496D01*
X44125371Y-51099999D01*
X44125374Y-51100000D01*
X44800000Y-51100000D01*
X44800000Y-50461879D01*
X44807007Y-50465925D01*
X44934174Y-50500000D01*
X45065826Y-50500000D01*
X45192993Y-50465925D01*
X45200000Y-50461879D01*
X45200000Y-51100000D01*
X45874626Y-51100000D01*
X45874628Y-51099999D01*
X45947540Y-51085496D01*
X45947544Y-51085494D01*
X46030239Y-51030239D01*
X46085494Y-50947544D01*
X46085496Y-50947540D01*
X46099999Y-50874628D01*
X46100000Y-50874626D01*
X46100000Y-50200000D01*
X45461880Y-50200000D01*
X45465925Y-50192993D01*
X45500000Y-50065826D01*
X45500000Y-49934174D01*
X45465925Y-49807007D01*
X45461880Y-49800000D01*
X46100000Y-49800000D01*
X46100000Y-49125373D01*
X46099999Y-49125371D01*
X46085496Y-49052459D01*
X46085494Y-49052455D01*
X46030239Y-48969760D01*
X45947544Y-48914505D01*
X45947540Y-48914503D01*
X45874627Y-48900000D01*
X45200000Y-48900000D01*
X45200000Y-49538120D01*
X45192993Y-49534075D01*
X45065826Y-49500000D01*
X44934174Y-49500000D01*
X44807007Y-49534075D01*
X44800000Y-49538120D01*
X44800000Y-48900000D01*
X44125373Y-48900000D01*
X44052459Y-48914503D01*
X44052455Y-48914505D01*
X43969760Y-48969760D01*
X43914505Y-49052455D01*
X43914503Y-49052459D01*
X43900000Y-49125371D01*
X33080975Y-49125371D01*
X32997367Y-49069505D01*
X32997358Y-49069500D01*
X32806274Y-48990350D01*
X32806266Y-48990348D01*
X32603420Y-48950000D01*
X32396579Y-48950000D01*
X32193733Y-48990348D01*
X32193725Y-48990350D01*
X32002639Y-49069500D01*
X31912543Y-49129700D01*
X31912543Y-49129701D01*
X32396471Y-49613629D01*
X32345606Y-49627259D01*
X32254394Y-49679920D01*
X32179920Y-49754394D01*
X32127259Y-49845606D01*
X32113629Y-49896471D01*
X31629701Y-49412543D01*
X31629700Y-49412543D01*
X31569500Y-49502639D01*
X31490350Y-49693725D01*
X31490348Y-49693733D01*
X31450000Y-49896579D01*
X31050499Y-49896579D01*
X31050499Y-49402128D01*
X31044091Y-49342517D01*
X31031048Y-49307546D01*
X30998114Y-49219245D01*
X30993797Y-49207671D01*
X30993793Y-49207664D01*
X30907547Y-49092455D01*
X30907544Y-49092452D01*
X30792335Y-49006206D01*
X30792328Y-49006202D01*
X30657482Y-48955908D01*
X30657483Y-48955908D01*
X30597883Y-48949501D01*
X30597881Y-48949500D01*
X30597873Y-48949500D01*
X30597865Y-48949500D01*
X30503562Y-48949500D01*
X30436523Y-48929815D01*
X30390768Y-48877011D01*
X30379562Y-48825500D01*
X30379562Y-47802129D01*
X30379561Y-47802123D01*
X30373154Y-47742516D01*
X30322860Y-47607671D01*
X30322856Y-47607664D01*
X30236610Y-47492455D01*
X30236607Y-47492452D01*
X30121398Y-47406206D01*
X30121391Y-47406202D01*
X29986545Y-47355908D01*
X29986546Y-47355908D01*
X29926946Y-47349501D01*
X29926944Y-47349500D01*
X29926936Y-47349500D01*
X29926928Y-47349500D01*
X29604500Y-47349500D01*
X29537461Y-47329815D01*
X29491706Y-47277011D01*
X29480500Y-47225500D01*
X29480500Y-44098543D01*
X42999499Y-44098543D01*
X43037947Y-44291829D01*
X43037950Y-44291839D01*
X43113364Y-44473907D01*
X43113371Y-44473920D01*
X43222860Y-44637781D01*
X43222863Y-44637785D01*
X43362214Y-44777136D01*
X43362218Y-44777139D01*
X43526079Y-44886628D01*
X43526092Y-44886635D01*
X43708160Y-44962049D01*
X43708165Y-44962051D01*
X43708169Y-44962051D01*
X43708170Y-44962052D01*
X43901456Y-45000500D01*
X43901459Y-45000500D01*
X44098543Y-45000500D01*
X44228582Y-44974632D01*
X44291835Y-44962051D01*
X44395273Y-44919205D01*
X44464739Y-44911737D01*
X44527218Y-44943012D01*
X44530404Y-44946086D01*
X49031347Y-49447028D01*
X49064832Y-49508351D01*
X49061597Y-49573026D01*
X49006598Y-49742297D01*
X49006597Y-49742301D01*
X49004682Y-49754394D01*
X48979500Y-49913389D01*
X48979500Y-50086611D01*
X48985493Y-50124448D01*
X49006597Y-50257697D01*
X49006597Y-50257699D01*
X49006598Y-50257701D01*
X49052866Y-50400099D01*
X49060128Y-50422447D01*
X49138772Y-50576796D01*
X49141314Y-50580944D01*
X49140057Y-50581714D01*
X49142078Y-50587379D01*
X49150318Y-50596889D01*
X49153592Y-50619662D01*
X49161322Y-50641334D01*
X49158470Y-50653589D01*
X49160262Y-50666047D01*
X49150703Y-50686978D01*
X49145490Y-50709386D01*
X49136465Y-50718155D01*
X49131237Y-50729603D01*
X49111882Y-50742041D01*
X49095380Y-50758076D01*
X49081637Y-50761478D01*
X49072459Y-50767377D01*
X49037524Y-50772400D01*
X48859443Y-50772400D01*
X48792404Y-50752715D01*
X48771762Y-50736081D01*
X48588651Y-50552970D01*
X48555166Y-50491647D01*
X48558401Y-50426970D01*
X48559868Y-50422454D01*
X48559873Y-50422445D01*
X48613402Y-50257701D01*
X48640500Y-50086611D01*
X48640500Y-49913389D01*
X48613402Y-49742299D01*
X48559873Y-49577555D01*
X48481232Y-49423212D01*
X48379414Y-49283072D01*
X48256928Y-49160586D01*
X48116788Y-49058768D01*
X47962445Y-48980127D01*
X47797701Y-48926598D01*
X47797699Y-48926597D01*
X47797698Y-48926597D01*
X47666271Y-48905781D01*
X47626611Y-48899500D01*
X47453389Y-48899500D01*
X47413728Y-48905781D01*
X47282302Y-48926597D01*
X47117552Y-48980128D01*
X46963211Y-49058768D01*
X46916850Y-49092452D01*
X46823072Y-49160586D01*
X46823070Y-49160588D01*
X46823069Y-49160588D01*
X46700588Y-49283069D01*
X46700588Y-49283070D01*
X46700586Y-49283072D01*
X46682805Y-49307546D01*
X46598768Y-49423211D01*
X46520128Y-49577552D01*
X46466597Y-49742302D01*
X46464682Y-49754394D01*
X46439500Y-49913389D01*
X46439500Y-50086611D01*
X46445493Y-50124448D01*
X46466597Y-50257697D01*
X46466597Y-50257699D01*
X46466598Y-50257701D01*
X46520127Y-50422445D01*
X46598768Y-50576788D01*
X46700586Y-50716928D01*
X46823072Y-50839414D01*
X46963212Y-50941232D01*
X47117555Y-51019873D01*
X47282299Y-51073402D01*
X47453389Y-51100500D01*
X47453390Y-51100500D01*
X47626610Y-51100500D01*
X47626611Y-51100500D01*
X47797701Y-51073402D01*
X47962445Y-51019873D01*
X47962454Y-51019868D01*
X47966970Y-51018401D01*
X48036811Y-51016406D01*
X48092970Y-51048651D01*
X48382431Y-51338112D01*
X48447688Y-51403369D01*
X48447691Y-51403370D01*
X48447694Y-51403373D01*
X48527606Y-51449511D01*
X48527607Y-51449511D01*
X48527612Y-51449514D01*
X48616756Y-51473400D01*
X48616758Y-51473400D01*
X50661642Y-51473400D01*
X50661644Y-51473400D01*
X50750788Y-51449514D01*
X50830712Y-51403370D01*
X51692269Y-50541812D01*
X51738414Y-50461888D01*
X51762300Y-50372744D01*
X51762300Y-49125371D01*
X53900000Y-49125371D01*
X53900000Y-49800000D01*
X54538120Y-49800000D01*
X54534075Y-49807007D01*
X54500000Y-49934174D01*
X54500000Y-50065826D01*
X54534075Y-50192993D01*
X54538120Y-50200000D01*
X53900000Y-50200000D01*
X53900000Y-50874628D01*
X53914503Y-50947540D01*
X53914505Y-50947544D01*
X53969760Y-51030239D01*
X54052455Y-51085494D01*
X54052459Y-51085496D01*
X54125371Y-51099999D01*
X54125374Y-51100000D01*
X54800000Y-51100000D01*
X54800000Y-50461879D01*
X54807007Y-50465925D01*
X54934174Y-50500000D01*
X55065826Y-50500000D01*
X55192993Y-50465925D01*
X55200000Y-50461879D01*
X55200000Y-51100000D01*
X55874626Y-51100000D01*
X55874628Y-51099999D01*
X55947540Y-51085496D01*
X55947544Y-51085494D01*
X56030239Y-51030239D01*
X56085494Y-50947544D01*
X56085496Y-50947540D01*
X56099999Y-50874628D01*
X56100000Y-50874626D01*
X56100000Y-50200000D01*
X55461880Y-50200000D01*
X55465925Y-50192993D01*
X55500000Y-50065826D01*
X55500000Y-49934174D01*
X55465925Y-49807007D01*
X55461880Y-49800000D01*
X56100000Y-49800000D01*
X56100000Y-49125373D01*
X56099999Y-49125371D01*
X56085496Y-49052459D01*
X56085494Y-49052455D01*
X56030239Y-48969760D01*
X55947544Y-48914505D01*
X55947540Y-48914503D01*
X55874627Y-48900000D01*
X55200000Y-48900000D01*
X55200000Y-49538120D01*
X55192993Y-49534075D01*
X55065826Y-49500000D01*
X54934174Y-49500000D01*
X54807007Y-49534075D01*
X54800000Y-49538120D01*
X54800000Y-48900000D01*
X54125373Y-48900000D01*
X54052459Y-48914503D01*
X54052455Y-48914505D01*
X53969760Y-48969760D01*
X53914505Y-49052455D01*
X53914503Y-49052459D01*
X53900000Y-49125371D01*
X51762300Y-49125371D01*
X51762300Y-41001897D01*
X51781985Y-40934858D01*
X51834789Y-40889103D01*
X51903947Y-40879159D01*
X51955192Y-40898795D01*
X52002637Y-40930497D01*
X52002641Y-40930499D01*
X52193725Y-41009649D01*
X52193733Y-41009651D01*
X52396579Y-41049999D01*
X52396583Y-41050000D01*
X52603417Y-41050000D01*
X52603420Y-41049999D01*
X52806266Y-41009651D01*
X52806274Y-41009649D01*
X52997359Y-40930499D01*
X53087456Y-40870298D01*
X52603528Y-40386370D01*
X52654394Y-40372741D01*
X52745606Y-40320080D01*
X52820080Y-40245606D01*
X52872741Y-40154394D01*
X52886370Y-40103528D01*
X53370298Y-40587456D01*
X53430499Y-40497359D01*
X53509649Y-40306274D01*
X53509651Y-40306266D01*
X53549999Y-40103420D01*
X53550000Y-40103417D01*
X53550000Y-39896583D01*
X53549999Y-39896579D01*
X53509651Y-39693733D01*
X53509649Y-39693725D01*
X53430499Y-39502640D01*
X53370298Y-39412542D01*
X52886370Y-39896470D01*
X52872741Y-39845606D01*
X52820080Y-39754394D01*
X52745606Y-39679920D01*
X52654394Y-39627259D01*
X52603526Y-39613629D01*
X53087455Y-39129701D01*
X53087455Y-39129700D01*
X52997367Y-39069505D01*
X52997358Y-39069500D01*
X52806274Y-38990350D01*
X52806266Y-38990348D01*
X52603420Y-38950000D01*
X52396579Y-38950000D01*
X52193733Y-38990348D01*
X52193725Y-38990350D01*
X52002641Y-39069500D01*
X52002633Y-39069504D01*
X51955190Y-39101205D01*
X51888513Y-39122082D01*
X51821133Y-39103597D01*
X51774443Y-39051618D01*
X51762300Y-38998102D01*
X51762300Y-28784743D01*
X51781985Y-28717704D01*
X51798614Y-28697067D01*
X54447031Y-26048649D01*
X54508352Y-26015166D01*
X54573029Y-26018401D01*
X54577547Y-26019869D01*
X54577555Y-26019873D01*
X54742299Y-26073402D01*
X54913389Y-26100500D01*
X54913390Y-26100500D01*
X55086610Y-26100500D01*
X55086611Y-26100500D01*
X55257701Y-26073402D01*
X55422445Y-26019873D01*
X55576788Y-25941232D01*
X55716928Y-25839414D01*
X55839414Y-25716928D01*
X55941232Y-25576788D01*
X56019873Y-25422445D01*
X56073402Y-25257701D01*
X56100500Y-25086611D01*
X56100500Y-24913389D01*
X56073402Y-24742299D01*
X56019873Y-24577555D01*
X55941232Y-24423212D01*
X55839414Y-24283072D01*
X55716928Y-24160586D01*
X55576788Y-24058768D01*
X55422445Y-23980127D01*
X55257701Y-23926598D01*
X55257699Y-23926597D01*
X55257698Y-23926597D01*
X55126271Y-23905781D01*
X55086611Y-23899500D01*
X54913389Y-23899500D01*
X54873728Y-23905781D01*
X54742302Y-23926597D01*
X54577552Y-23980128D01*
X54423211Y-24058768D01*
X54375457Y-24093464D01*
X54283072Y-24160586D01*
X54283070Y-24160588D01*
X54283069Y-24160588D01*
X54160588Y-24283069D01*
X54160588Y-24283070D01*
X54160586Y-24283072D01*
X54138550Y-24313402D01*
X54058768Y-24423211D01*
X53980128Y-24577552D01*
X53926597Y-24742302D01*
X53899500Y-24913389D01*
X53899500Y-25086610D01*
X53926597Y-25257698D01*
X53981597Y-25426970D01*
X53983592Y-25496811D01*
X53951347Y-25552969D01*
X51131331Y-28372986D01*
X51131329Y-28372988D01*
X51117685Y-28396621D01*
X51111918Y-28406611D01*
X51098552Y-28429761D01*
X51085186Y-28452911D01*
X51061300Y-28542056D01*
X51061300Y-38959832D01*
X51041615Y-39026871D01*
X50988811Y-39072626D01*
X50919653Y-39082570D01*
X50862989Y-39059098D01*
X50792335Y-39006206D01*
X50792328Y-39006202D01*
X50657482Y-38955908D01*
X50657483Y-38955908D01*
X50597883Y-38949501D01*
X50597881Y-38949500D01*
X50597873Y-38949500D01*
X50597865Y-38949500D01*
X50474500Y-38949500D01*
X50407461Y-38929815D01*
X50361706Y-38877011D01*
X50350500Y-38825500D01*
X50350500Y-22696543D01*
X50370185Y-22629504D01*
X50386814Y-22608867D01*
X50582292Y-22413389D01*
X53899500Y-22413389D01*
X53899500Y-22586610D01*
X53916911Y-22696543D01*
X53926598Y-22757701D01*
X53980127Y-22922445D01*
X54058768Y-23076788D01*
X54160586Y-23216928D01*
X54283072Y-23339414D01*
X54423212Y-23441232D01*
X54577555Y-23519873D01*
X54742299Y-23573402D01*
X54913389Y-23600500D01*
X54913390Y-23600500D01*
X55086610Y-23600500D01*
X55086611Y-23600500D01*
X55257701Y-23573402D01*
X55422445Y-23519873D01*
X55422447Y-23519871D01*
X55426971Y-23518402D01*
X55496812Y-23516407D01*
X55552970Y-23548652D01*
X57153181Y-25148863D01*
X57186666Y-25210186D01*
X57189500Y-25236544D01*
X57189500Y-48867481D01*
X57169815Y-48934520D01*
X57121795Y-48977966D01*
X56963211Y-49058768D01*
X56916850Y-49092452D01*
X56823072Y-49160586D01*
X56823070Y-49160588D01*
X56823069Y-49160588D01*
X56700588Y-49283069D01*
X56700588Y-49283070D01*
X56700586Y-49283072D01*
X56682805Y-49307546D01*
X56598768Y-49423211D01*
X56520128Y-49577552D01*
X56466597Y-49742302D01*
X56464682Y-49754394D01*
X56439500Y-49913389D01*
X56439500Y-50086611D01*
X56445493Y-50124448D01*
X56466597Y-50257697D01*
X56466597Y-50257699D01*
X56466598Y-50257701D01*
X56520127Y-50422445D01*
X56598768Y-50576788D01*
X56700586Y-50716928D01*
X56823072Y-50839414D01*
X56963212Y-50941232D01*
X57117555Y-51019873D01*
X57282299Y-51073402D01*
X57453389Y-51100500D01*
X57453390Y-51100500D01*
X57626610Y-51100500D01*
X57626611Y-51100500D01*
X57797701Y-51073402D01*
X57962445Y-51019873D01*
X58116788Y-50941232D01*
X58256928Y-50839414D01*
X58379414Y-50716928D01*
X58481232Y-50576788D01*
X58559873Y-50422445D01*
X58613402Y-50257701D01*
X58640500Y-50086611D01*
X58640500Y-49913389D01*
X58979500Y-49913389D01*
X58979500Y-50086611D01*
X58985493Y-50124448D01*
X59006597Y-50257697D01*
X59006597Y-50257699D01*
X59006598Y-50257701D01*
X59060127Y-50422445D01*
X59138768Y-50576788D01*
X59240586Y-50716928D01*
X59363072Y-50839414D01*
X59503212Y-50941232D01*
X59657555Y-51019873D01*
X59822299Y-51073402D01*
X59993389Y-51100500D01*
X59993390Y-51100500D01*
X60166610Y-51100500D01*
X60166611Y-51100500D01*
X60337701Y-51073402D01*
X60502445Y-51019873D01*
X60656788Y-50941232D01*
X60796928Y-50839414D01*
X60919414Y-50716928D01*
X61021232Y-50576788D01*
X61099873Y-50422445D01*
X61153402Y-50257701D01*
X61180500Y-50086611D01*
X61180500Y-49913389D01*
X61153402Y-49742299D01*
X61099873Y-49577555D01*
X61021232Y-49423212D01*
X60919414Y-49283072D01*
X60796928Y-49160586D01*
X60748459Y-49125371D01*
X63900000Y-49125371D01*
X63900000Y-49800000D01*
X64538120Y-49800000D01*
X64534075Y-49807007D01*
X64500000Y-49934174D01*
X64500000Y-50065826D01*
X64534075Y-50192993D01*
X64538120Y-50200000D01*
X63900000Y-50200000D01*
X63900000Y-50874628D01*
X63914503Y-50947540D01*
X63914505Y-50947544D01*
X63969760Y-51030239D01*
X64052455Y-51085494D01*
X64052459Y-51085496D01*
X64125371Y-51099999D01*
X64125374Y-51100000D01*
X64800000Y-51100000D01*
X64800000Y-50461879D01*
X64807007Y-50465925D01*
X64934174Y-50500000D01*
X65065826Y-50500000D01*
X65192993Y-50465925D01*
X65200000Y-50461879D01*
X65200000Y-51100000D01*
X65874626Y-51100000D01*
X65874628Y-51099999D01*
X65947540Y-51085496D01*
X65947544Y-51085494D01*
X66030239Y-51030239D01*
X66085494Y-50947544D01*
X66085496Y-50947540D01*
X66099999Y-50874628D01*
X66100000Y-50874626D01*
X66100000Y-50200000D01*
X65461880Y-50200000D01*
X65465925Y-50192993D01*
X65500000Y-50065826D01*
X65500000Y-49934174D01*
X65465925Y-49807007D01*
X65461880Y-49800000D01*
X66100000Y-49800000D01*
X66100000Y-49125373D01*
X66099999Y-49125371D01*
X66085496Y-49052459D01*
X66085494Y-49052455D01*
X66030239Y-48969760D01*
X65947544Y-48914505D01*
X65947540Y-48914503D01*
X65874627Y-48900000D01*
X65200000Y-48900000D01*
X65200000Y-49538120D01*
X65192993Y-49534075D01*
X65065826Y-49500000D01*
X64934174Y-49500000D01*
X64807007Y-49534075D01*
X64800000Y-49538120D01*
X64800000Y-48900000D01*
X64125373Y-48900000D01*
X64052459Y-48914503D01*
X64052455Y-48914505D01*
X63969760Y-48969760D01*
X63914505Y-49052455D01*
X63914503Y-49052459D01*
X63900000Y-49125371D01*
X60748459Y-49125371D01*
X60656788Y-49058768D01*
X60502445Y-48980127D01*
X60337701Y-48926598D01*
X60337699Y-48926597D01*
X60337698Y-48926597D01*
X60206271Y-48905781D01*
X60166611Y-48899500D01*
X59993389Y-48899500D01*
X59953728Y-48905781D01*
X59822302Y-48926597D01*
X59657552Y-48980128D01*
X59503211Y-49058768D01*
X59456850Y-49092452D01*
X59363072Y-49160586D01*
X59363070Y-49160588D01*
X59363069Y-49160588D01*
X59240588Y-49283069D01*
X59240588Y-49283070D01*
X59240586Y-49283072D01*
X59222805Y-49307546D01*
X59138768Y-49423211D01*
X59060128Y-49577552D01*
X59006597Y-49742302D01*
X59004682Y-49754394D01*
X58979500Y-49913389D01*
X58640500Y-49913389D01*
X58613402Y-49742299D01*
X58559873Y-49577555D01*
X58481232Y-49423212D01*
X58379414Y-49283072D01*
X58256928Y-49160586D01*
X58116788Y-49058768D01*
X58029848Y-49014470D01*
X57958205Y-48977966D01*
X57907409Y-48929991D01*
X57890500Y-48867481D01*
X57890500Y-24993858D01*
X57890500Y-24993856D01*
X57866614Y-24904712D01*
X57828541Y-24838768D01*
X57820469Y-24824787D01*
X56048652Y-23052970D01*
X56015167Y-22991647D01*
X56018402Y-22926971D01*
X56019873Y-22922445D01*
X56073402Y-22757701D01*
X56100500Y-22586611D01*
X56100500Y-22413389D01*
X56073402Y-22242299D01*
X56019873Y-22077555D01*
X55941232Y-21923212D01*
X55839414Y-21783072D01*
X55716928Y-21660586D01*
X55576788Y-21558768D01*
X55422445Y-21480127D01*
X55257701Y-21426598D01*
X55257699Y-21426597D01*
X55257698Y-21426597D01*
X55126271Y-21405781D01*
X55086611Y-21399500D01*
X54913389Y-21399500D01*
X54873728Y-21405781D01*
X54742302Y-21426597D01*
X54577552Y-21480128D01*
X54423211Y-21558768D01*
X54343256Y-21616859D01*
X54283072Y-21660586D01*
X54283070Y-21660588D01*
X54283069Y-21660588D01*
X54160588Y-21783069D01*
X54160588Y-21783070D01*
X54160586Y-21783072D01*
X54147924Y-21800500D01*
X54058768Y-21923211D01*
X53980128Y-22077552D01*
X53926597Y-22242302D01*
X53899500Y-22413389D01*
X50582292Y-22413389D01*
X54447031Y-18548649D01*
X54508352Y-18515166D01*
X54573029Y-18518401D01*
X54577547Y-18519869D01*
X54577555Y-18519873D01*
X54742299Y-18573402D01*
X54913389Y-18600500D01*
X54913390Y-18600500D01*
X55086610Y-18600500D01*
X55086611Y-18600500D01*
X55257701Y-18573402D01*
X55422445Y-18519873D01*
X55576788Y-18441232D01*
X55716928Y-18339414D01*
X55839414Y-18216928D01*
X55941232Y-18076788D01*
X56019873Y-17922445D01*
X56073402Y-17757701D01*
X56100500Y-17586611D01*
X56100500Y-17413389D01*
X56073402Y-17242299D01*
X56019873Y-17077555D01*
X55941232Y-16923212D01*
X55839414Y-16783072D01*
X55716928Y-16660586D01*
X55576788Y-16558768D01*
X55422445Y-16480127D01*
X55257701Y-16426598D01*
X55257699Y-16426597D01*
X55257698Y-16426597D01*
X55126271Y-16405781D01*
X55086611Y-16399500D01*
X54913389Y-16399500D01*
X54873728Y-16405781D01*
X54742302Y-16426597D01*
X54577552Y-16480128D01*
X54423211Y-16558768D01*
X54361718Y-16603446D01*
X54283072Y-16660586D01*
X54283070Y-16660588D01*
X54283069Y-16660588D01*
X54160588Y-16783069D01*
X54160588Y-16783070D01*
X54160586Y-16783072D01*
X54116859Y-16843256D01*
X54058768Y-16923211D01*
X53980128Y-17077552D01*
X53926597Y-17242302D01*
X53899500Y-17413389D01*
X53899500Y-17586610D01*
X53926597Y-17757698D01*
X53981597Y-17926970D01*
X53983592Y-17996811D01*
X53951347Y-18052969D01*
X49719532Y-22284784D01*
X49719530Y-22284788D01*
X49711459Y-22298768D01*
X49703303Y-22312895D01*
X49673386Y-22364711D01*
X49649500Y-22453856D01*
X49649500Y-38825500D01*
X49629815Y-38892539D01*
X49577011Y-38938294D01*
X49525501Y-38949500D01*
X49402130Y-38949500D01*
X49402123Y-38949501D01*
X49342516Y-38955908D01*
X49207671Y-39006202D01*
X49207664Y-39006206D01*
X49092455Y-39092452D01*
X49092452Y-39092455D01*
X49006206Y-39207664D01*
X49006202Y-39207671D01*
X48955908Y-39342517D01*
X48949501Y-39402116D01*
X48949500Y-39402135D01*
X48949500Y-40597870D01*
X48949501Y-40597876D01*
X48955908Y-40657483D01*
X49006202Y-40792328D01*
X49006206Y-40792335D01*
X49092452Y-40907544D01*
X49092455Y-40907547D01*
X49207664Y-40993793D01*
X49207671Y-40993797D01*
X49342517Y-41044091D01*
X49342516Y-41044091D01*
X49349444Y-41044835D01*
X49402127Y-41050500D01*
X50597872Y-41050499D01*
X50657483Y-41044091D01*
X50792331Y-40993796D01*
X50862991Y-40940899D01*
X50928452Y-40916483D01*
X50996725Y-40931334D01*
X51046131Y-40980738D01*
X51061300Y-41040167D01*
X51061300Y-49125596D01*
X51041615Y-49192635D01*
X50988811Y-49238390D01*
X50919653Y-49248334D01*
X50856097Y-49219309D01*
X50849619Y-49213277D01*
X50796930Y-49160588D01*
X50796928Y-49160586D01*
X50656788Y-49058768D01*
X50502445Y-48980127D01*
X50337701Y-48926598D01*
X50337699Y-48926597D01*
X50337698Y-48926597D01*
X50206271Y-48905781D01*
X50166611Y-48899500D01*
X49993389Y-48899500D01*
X49961192Y-48904599D01*
X49822301Y-48926597D01*
X49822297Y-48926598D01*
X49653026Y-48981597D01*
X49583185Y-48983592D01*
X49527028Y-48951347D01*
X44992603Y-44416921D01*
X44959118Y-44355598D01*
X44961435Y-44297922D01*
X44960863Y-44297809D01*
X44961586Y-44294170D01*
X44961624Y-44293244D01*
X44962051Y-44291836D01*
X45000500Y-44098543D01*
X45000500Y-43901456D01*
X44962052Y-43708170D01*
X44962051Y-43708169D01*
X44962051Y-43708165D01*
X44962049Y-43708160D01*
X44886635Y-43526092D01*
X44886628Y-43526079D01*
X44777139Y-43362218D01*
X44777136Y-43362214D01*
X44637785Y-43222863D01*
X44637781Y-43222860D01*
X44485609Y-43121181D01*
X44440804Y-43067569D01*
X44430500Y-43018079D01*
X44430500Y-26116543D01*
X44450185Y-26049504D01*
X44466814Y-26028867D01*
X54447031Y-16048649D01*
X54508352Y-16015166D01*
X54573029Y-16018401D01*
X54577547Y-16019869D01*
X54577555Y-16019873D01*
X54742299Y-16073402D01*
X54913389Y-16100500D01*
X54913390Y-16100500D01*
X55086610Y-16100500D01*
X55086611Y-16100500D01*
X55257701Y-16073402D01*
X55422445Y-16019873D01*
X55576788Y-15941232D01*
X55716928Y-15839414D01*
X55839414Y-15716928D01*
X55941232Y-15576788D01*
X56019873Y-15422445D01*
X56073402Y-15257701D01*
X56100500Y-15086611D01*
X56100500Y-14913389D01*
X56073402Y-14742299D01*
X56019873Y-14577555D01*
X55941232Y-14423212D01*
X55839414Y-14283072D01*
X55716928Y-14160586D01*
X55576788Y-14058768D01*
X55422445Y-13980127D01*
X55257701Y-13926598D01*
X55257699Y-13926597D01*
X55257698Y-13926597D01*
X55126271Y-13905781D01*
X55086611Y-13899500D01*
X54913389Y-13899500D01*
X54873728Y-13905781D01*
X54742302Y-13926597D01*
X54577552Y-13980128D01*
X54423211Y-14058768D01*
X54366636Y-14099873D01*
X54283072Y-14160586D01*
X54283070Y-14160588D01*
X54283069Y-14160588D01*
X54160588Y-14283069D01*
X54160588Y-14283070D01*
X54160586Y-14283072D01*
X54116859Y-14343256D01*
X54058768Y-14423211D01*
X53980128Y-14577552D01*
X53926597Y-14742302D01*
X53899500Y-14913389D01*
X53899500Y-15086610D01*
X53926597Y-15257698D01*
X53981597Y-15426970D01*
X53983592Y-15496811D01*
X53951347Y-15552969D01*
X43799531Y-25704786D01*
X43799527Y-25704791D01*
X43753387Y-25784709D01*
X43753386Y-25784712D01*
X43729500Y-25873856D01*
X43729500Y-42946257D01*
X43709815Y-43013296D01*
X43657011Y-43059051D01*
X43652953Y-43060818D01*
X43526088Y-43113366D01*
X43526079Y-43113371D01*
X43362218Y-43222860D01*
X43362214Y-43222863D01*
X43222863Y-43362214D01*
X43222860Y-43362218D01*
X43113371Y-43526079D01*
X43113364Y-43526092D01*
X43037950Y-43708160D01*
X43037947Y-43708170D01*
X42999500Y-43901456D01*
X42999500Y-43901459D01*
X42999500Y-44098541D01*
X42999500Y-44098543D01*
X42999499Y-44098543D01*
X29480500Y-44098543D01*
X29480500Y-36990485D01*
X29500185Y-36923446D01*
X29552989Y-36877691D01*
X29622147Y-36867747D01*
X29660795Y-36880000D01*
X29663209Y-36881230D01*
X29663212Y-36881232D01*
X29817555Y-36959873D01*
X29982299Y-37013402D01*
X30153389Y-37040500D01*
X30153390Y-37040500D01*
X30326610Y-37040500D01*
X30326611Y-37040500D01*
X30497701Y-37013402D01*
X30662445Y-36959873D01*
X30816788Y-36881232D01*
X30956928Y-36779414D01*
X31079414Y-36656928D01*
X31181232Y-36516788D01*
X31259873Y-36362445D01*
X31313402Y-36197701D01*
X31340500Y-36026611D01*
X31340500Y-35853389D01*
X31313402Y-35682299D01*
X31259873Y-35517555D01*
X31181232Y-35363212D01*
X31079414Y-35223072D01*
X30956928Y-35100586D01*
X30816788Y-34998768D01*
X30662445Y-34920127D01*
X30497701Y-34866598D01*
X30497699Y-34866597D01*
X30497698Y-34866597D01*
X30366271Y-34845781D01*
X30326611Y-34839500D01*
X30153389Y-34839500D01*
X30113728Y-34845781D01*
X29982302Y-34866597D01*
X29817549Y-34920129D01*
X29660794Y-34999999D01*
X29592125Y-35012895D01*
X29527385Y-34986618D01*
X29487128Y-34929512D01*
X29480500Y-34889514D01*
X29480500Y-34450485D01*
X29500185Y-34383446D01*
X29552989Y-34337691D01*
X29622147Y-34327747D01*
X29660795Y-34340000D01*
X29663209Y-34341230D01*
X29663212Y-34341232D01*
X29817555Y-34419873D01*
X29982299Y-34473402D01*
X30153389Y-34500500D01*
X30153390Y-34500500D01*
X30326610Y-34500500D01*
X30326611Y-34500500D01*
X30497701Y-34473402D01*
X30662445Y-34419873D01*
X30816788Y-34341232D01*
X30956928Y-34239414D01*
X31079414Y-34116928D01*
X31181232Y-33976788D01*
X31259873Y-33822445D01*
X31313402Y-33657701D01*
X31340500Y-33486611D01*
X31340500Y-33313389D01*
X31313402Y-33142299D01*
X31259873Y-32977555D01*
X31181232Y-32823212D01*
X31079414Y-32683072D01*
X30956928Y-32560586D01*
X30816788Y-32458768D01*
X30662445Y-32380127D01*
X30497701Y-32326598D01*
X30497699Y-32326597D01*
X30497698Y-32326597D01*
X30366271Y-32305781D01*
X30326611Y-32299500D01*
X30153389Y-32299500D01*
X30113728Y-32305781D01*
X29982302Y-32326597D01*
X29817549Y-32380129D01*
X29660794Y-32459999D01*
X29592125Y-32472895D01*
X29527385Y-32446618D01*
X29487128Y-32389512D01*
X29480500Y-32349514D01*
X29480500Y-31910485D01*
X29500185Y-31843446D01*
X29552989Y-31797691D01*
X29622147Y-31787747D01*
X29660795Y-31800000D01*
X29663209Y-31801230D01*
X29663212Y-31801232D01*
X29817555Y-31879873D01*
X29982299Y-31933402D01*
X30153389Y-31960500D01*
X30153390Y-31960500D01*
X30326610Y-31960500D01*
X30326611Y-31960500D01*
X30497701Y-31933402D01*
X30662445Y-31879873D01*
X30816788Y-31801232D01*
X30956928Y-31699414D01*
X31079414Y-31576928D01*
X31181232Y-31436788D01*
X31259873Y-31282445D01*
X31313402Y-31117701D01*
X31340500Y-30946611D01*
X31340500Y-30773389D01*
X31313402Y-30602299D01*
X31259873Y-30437555D01*
X31181232Y-30283212D01*
X31079414Y-30143072D01*
X30956928Y-30020586D01*
X30816788Y-29918768D01*
X30662445Y-29840127D01*
X30497701Y-29786598D01*
X30497699Y-29786597D01*
X30497698Y-29786597D01*
X30366271Y-29765781D01*
X30326611Y-29759500D01*
X30153389Y-29759500D01*
X30113728Y-29765781D01*
X29982302Y-29786597D01*
X29817549Y-29840129D01*
X29660794Y-29919999D01*
X29592125Y-29932895D01*
X29527385Y-29906618D01*
X29487128Y-29849512D01*
X29480500Y-29809514D01*
X29480500Y-29370485D01*
X29500185Y-29303446D01*
X29552989Y-29257691D01*
X29622147Y-29247747D01*
X29660795Y-29260000D01*
X29663209Y-29261230D01*
X29663212Y-29261232D01*
X29817555Y-29339873D01*
X29982299Y-29393402D01*
X30153389Y-29420500D01*
X30153390Y-29420500D01*
X30326610Y-29420500D01*
X30326611Y-29420500D01*
X30497701Y-29393402D01*
X30662445Y-29339873D01*
X30816788Y-29261232D01*
X30956928Y-29159414D01*
X31079414Y-29036928D01*
X31181232Y-28896788D01*
X31259873Y-28742445D01*
X31313402Y-28577701D01*
X31340500Y-28406611D01*
X31340500Y-28233389D01*
X31313402Y-28062299D01*
X31259873Y-27897555D01*
X31181232Y-27743212D01*
X31079414Y-27603072D01*
X30956928Y-27480586D01*
X30816788Y-27378768D01*
X30662445Y-27300127D01*
X30497701Y-27246598D01*
X30497699Y-27246597D01*
X30497698Y-27246597D01*
X30366271Y-27225781D01*
X30326611Y-27219500D01*
X30153389Y-27219500D01*
X30113728Y-27225781D01*
X29982302Y-27246597D01*
X29817549Y-27300129D01*
X29660794Y-27379999D01*
X29592125Y-27392895D01*
X29527385Y-27366618D01*
X29487128Y-27309512D01*
X29480500Y-27269514D01*
X29480500Y-26830485D01*
X29500185Y-26763446D01*
X29552989Y-26717691D01*
X29622147Y-26707747D01*
X29660795Y-26720000D01*
X29663209Y-26721230D01*
X29663212Y-26721232D01*
X29817555Y-26799873D01*
X29982299Y-26853402D01*
X30153389Y-26880500D01*
X30153390Y-26880500D01*
X30326610Y-26880500D01*
X30326611Y-26880500D01*
X30497701Y-26853402D01*
X30662445Y-26799873D01*
X30816788Y-26721232D01*
X30956928Y-26619414D01*
X31079414Y-26496928D01*
X31181232Y-26356788D01*
X31259873Y-26202445D01*
X31313402Y-26037701D01*
X31340500Y-25866611D01*
X31340500Y-25693389D01*
X31313402Y-25522299D01*
X31259873Y-25357555D01*
X31181232Y-25203212D01*
X31079414Y-25063072D01*
X30956928Y-24940586D01*
X30816788Y-24838768D01*
X30662445Y-24760127D01*
X30497701Y-24706598D01*
X30497699Y-24706597D01*
X30497698Y-24706597D01*
X30366271Y-24685781D01*
X30326611Y-24679500D01*
X30153389Y-24679500D01*
X30113728Y-24685781D01*
X29982302Y-24706597D01*
X29982299Y-24706598D01*
X29872067Y-24742415D01*
X29817549Y-24760129D01*
X29660794Y-24839999D01*
X29592125Y-24852895D01*
X29527385Y-24826618D01*
X29487128Y-24769512D01*
X29480500Y-24729514D01*
X29480500Y-24290485D01*
X29500185Y-24223446D01*
X29552989Y-24177691D01*
X29622147Y-24167747D01*
X29660795Y-24180000D01*
X29663209Y-24181230D01*
X29663212Y-24181232D01*
X29817555Y-24259873D01*
X29982299Y-24313402D01*
X30153389Y-24340500D01*
X30153390Y-24340500D01*
X30326610Y-24340500D01*
X30326611Y-24340500D01*
X30497701Y-24313402D01*
X30662445Y-24259873D01*
X30816788Y-24181232D01*
X30956928Y-24079414D01*
X31079414Y-23956928D01*
X31181232Y-23816788D01*
X31259873Y-23662445D01*
X31313402Y-23497701D01*
X31340500Y-23326611D01*
X31340500Y-23153389D01*
X31313402Y-22982299D01*
X31259873Y-22817555D01*
X31181232Y-22663212D01*
X31079414Y-22523072D01*
X30956928Y-22400586D01*
X30816788Y-22298768D01*
X30662445Y-22220127D01*
X30497701Y-22166598D01*
X30497699Y-22166597D01*
X30497698Y-22166597D01*
X30366271Y-22145781D01*
X30326611Y-22139500D01*
X30153389Y-22139500D01*
X30113728Y-22145781D01*
X29982302Y-22166597D01*
X29817549Y-22220129D01*
X29660794Y-22299999D01*
X29592125Y-22312895D01*
X29527385Y-22286618D01*
X29487128Y-22229512D01*
X29480500Y-22189514D01*
X29480500Y-21750485D01*
X29500185Y-21683446D01*
X29552989Y-21637691D01*
X29622147Y-21627747D01*
X29660795Y-21640000D01*
X29663209Y-21641230D01*
X29663212Y-21641232D01*
X29817555Y-21719873D01*
X29982299Y-21773402D01*
X30153389Y-21800500D01*
X30153390Y-21800500D01*
X30326610Y-21800500D01*
X30326611Y-21800500D01*
X30497701Y-21773402D01*
X30662445Y-21719873D01*
X30816788Y-21641232D01*
X30956928Y-21539414D01*
X31079414Y-21416928D01*
X31181232Y-21276788D01*
X31259873Y-21122445D01*
X31313402Y-20957701D01*
X31340500Y-20786611D01*
X31340500Y-20613389D01*
X31313402Y-20442299D01*
X31259873Y-20277555D01*
X31181232Y-20123212D01*
X31079414Y-19983072D01*
X30956928Y-19860586D01*
X30816788Y-19758768D01*
X30662445Y-19680127D01*
X30497701Y-19626598D01*
X30497699Y-19626597D01*
X30497698Y-19626597D01*
X30366271Y-19605781D01*
X30326611Y-19599500D01*
X30153389Y-19599500D01*
X30113728Y-19605781D01*
X29982302Y-19626597D01*
X29817549Y-19680129D01*
X29660794Y-19759999D01*
X29592125Y-19772895D01*
X29527385Y-19746618D01*
X29487128Y-19689512D01*
X29480500Y-19649514D01*
X29480500Y-19210485D01*
X29500185Y-19143446D01*
X29552989Y-19097691D01*
X29622147Y-19087747D01*
X29660795Y-19100000D01*
X29663209Y-19101230D01*
X29663212Y-19101232D01*
X29817555Y-19179873D01*
X29982299Y-19233402D01*
X30153389Y-19260500D01*
X30153390Y-19260500D01*
X30326610Y-19260500D01*
X30326611Y-19260500D01*
X30497701Y-19233402D01*
X30662445Y-19179873D01*
X30816788Y-19101232D01*
X30956928Y-18999414D01*
X31079414Y-18876928D01*
X31181232Y-18736788D01*
X31259873Y-18582445D01*
X31313402Y-18417701D01*
X31340500Y-18246611D01*
X31340500Y-18073389D01*
X31313402Y-17902299D01*
X31259873Y-17737555D01*
X31181232Y-17583212D01*
X31079414Y-17443072D01*
X30956928Y-17320586D01*
X30816788Y-17218768D01*
X30662445Y-17140127D01*
X30497701Y-17086598D01*
X30497699Y-17086597D01*
X30497698Y-17086597D01*
X30366271Y-17065781D01*
X30326611Y-17059500D01*
X30153389Y-17059500D01*
X30113728Y-17065781D01*
X29982302Y-17086597D01*
X29817549Y-17140129D01*
X29660794Y-17219999D01*
X29592125Y-17232895D01*
X29527385Y-17206618D01*
X29487128Y-17149512D01*
X29480500Y-17109514D01*
X29480500Y-16670485D01*
X29500185Y-16603446D01*
X29552989Y-16557691D01*
X29622147Y-16547747D01*
X29660795Y-16560000D01*
X29663209Y-16561230D01*
X29663212Y-16561232D01*
X29817555Y-16639873D01*
X29982299Y-16693402D01*
X30153389Y-16720500D01*
X30153390Y-16720500D01*
X30326610Y-16720500D01*
X30326611Y-16720500D01*
X30497701Y-16693402D01*
X30662445Y-16639873D01*
X30816788Y-16561232D01*
X30956928Y-16459414D01*
X31079414Y-16336928D01*
X31181232Y-16196788D01*
X31259873Y-16042445D01*
X31313402Y-15877701D01*
X31340500Y-15706611D01*
X31340500Y-15533389D01*
X31313402Y-15362299D01*
X31259873Y-15197555D01*
X31181232Y-15043212D01*
X31079414Y-14903072D01*
X30956928Y-14780586D01*
X30816788Y-14678768D01*
X30662445Y-14600127D01*
X30497701Y-14546598D01*
X30497699Y-14546597D01*
X30497698Y-14546597D01*
X30366271Y-14525781D01*
X30326611Y-14519500D01*
X30153389Y-14519500D01*
X30113728Y-14525781D01*
X29982302Y-14546597D01*
X29817549Y-14600129D01*
X29660794Y-14679999D01*
X29592125Y-14692895D01*
X29527385Y-14666618D01*
X29487128Y-14609512D01*
X29480500Y-14569514D01*
X29480500Y-14130485D01*
X29500185Y-14063446D01*
X29552989Y-14017691D01*
X29622147Y-14007747D01*
X29660795Y-14020000D01*
X29663209Y-14021230D01*
X29663212Y-14021232D01*
X29817555Y-14099873D01*
X29982299Y-14153402D01*
X30153389Y-14180500D01*
X30153390Y-14180500D01*
X30326610Y-14180500D01*
X30326611Y-14180500D01*
X30497701Y-14153402D01*
X30662445Y-14099873D01*
X30816788Y-14021232D01*
X30956928Y-13919414D01*
X31079414Y-13796928D01*
X31181232Y-13656788D01*
X31259873Y-13502445D01*
X31313402Y-13337701D01*
X31340500Y-13166611D01*
X31340500Y-12993389D01*
X31313402Y-12822299D01*
X31259873Y-12657555D01*
X31181232Y-12503212D01*
X31181230Y-12503209D01*
X31181229Y-12503207D01*
X31165389Y-12481405D01*
X31165387Y-12481403D01*
X31140934Y-12447747D01*
X31115971Y-12413389D01*
X53899500Y-12413389D01*
X53899500Y-12586611D01*
X53926598Y-12757701D01*
X53980127Y-12922445D01*
X54058768Y-13076788D01*
X54160586Y-13216928D01*
X54283072Y-13339414D01*
X54423212Y-13441232D01*
X54577555Y-13519873D01*
X54742299Y-13573402D01*
X54913389Y-13600500D01*
X54913390Y-13600500D01*
X55086610Y-13600500D01*
X55086611Y-13600500D01*
X55257701Y-13573402D01*
X55422445Y-13519873D01*
X55576788Y-13441232D01*
X55716928Y-13339414D01*
X55839414Y-13216928D01*
X55941232Y-13076788D01*
X56019873Y-12922445D01*
X56073402Y-12757701D01*
X56100500Y-12586611D01*
X56100500Y-12413389D01*
X56073402Y-12242299D01*
X56019873Y-12077555D01*
X55941232Y-11923212D01*
X55839414Y-11783072D01*
X55716928Y-11660586D01*
X55576788Y-11558768D01*
X55422445Y-11480127D01*
X55257701Y-11426598D01*
X55257699Y-11426597D01*
X55257698Y-11426597D01*
X55126271Y-11405781D01*
X55086611Y-11399500D01*
X54913389Y-11399500D01*
X54873728Y-11405781D01*
X54742302Y-11426597D01*
X54577552Y-11480128D01*
X54423211Y-11558768D01*
X54348687Y-11612914D01*
X54283072Y-11660586D01*
X54283070Y-11660588D01*
X54283069Y-11660588D01*
X54160588Y-11783069D01*
X54160588Y-11783070D01*
X54160586Y-11783072D01*
X54116859Y-11843256D01*
X54058768Y-11923211D01*
X53980128Y-12077552D01*
X53926597Y-12242302D01*
X53907470Y-12363069D01*
X53899500Y-12413389D01*
X31115971Y-12413389D01*
X31079414Y-12363072D01*
X30956928Y-12240586D01*
X30816788Y-12138768D01*
X30662445Y-12060127D01*
X30497701Y-12006598D01*
X30497699Y-12006597D01*
X30497698Y-12006597D01*
X30366271Y-11985781D01*
X30326611Y-11979500D01*
X30153389Y-11979500D01*
X30113728Y-11985781D01*
X29982302Y-12006597D01*
X29817549Y-12060129D01*
X29660794Y-12139999D01*
X29592125Y-12152895D01*
X29527385Y-12126618D01*
X29487128Y-12069512D01*
X29480500Y-12029514D01*
X29480500Y-11589923D01*
X29500185Y-11522884D01*
X29552989Y-11477129D01*
X29622147Y-11467185D01*
X29660795Y-11479438D01*
X29817742Y-11559408D01*
X29982415Y-11612914D01*
X30153429Y-11640000D01*
X30326571Y-11640000D01*
X30497584Y-11612914D01*
X30662257Y-11559408D01*
X30816525Y-11480803D01*
X30863691Y-11446534D01*
X30863692Y-11446534D01*
X30425177Y-11008019D01*
X30432993Y-11005925D01*
X30547007Y-10940099D01*
X30640099Y-10847007D01*
X30705925Y-10732993D01*
X30708019Y-10725177D01*
X31146533Y-11163692D01*
X31146534Y-11163691D01*
X31180803Y-11116525D01*
X31259408Y-10962257D01*
X31312914Y-10797584D01*
X31340000Y-10626571D01*
X31340000Y-10453428D01*
X31312914Y-10282415D01*
X31259408Y-10117742D01*
X31181485Y-9964812D01*
X31181484Y-9964810D01*
X31180807Y-9963480D01*
X31146534Y-9916307D01*
X30708019Y-10354822D01*
X30705925Y-10347007D01*
X30640099Y-10232993D01*
X30547007Y-10139901D01*
X30432993Y-10074075D01*
X30425175Y-10071980D01*
X30583766Y-9913389D01*
X53899500Y-9913389D01*
X53899500Y-10086610D01*
X53922684Y-10232993D01*
X53926598Y-10257701D01*
X53980127Y-10422445D01*
X54058768Y-10576788D01*
X54160586Y-10716928D01*
X54283072Y-10839414D01*
X54423212Y-10941232D01*
X54577555Y-11019873D01*
X54742299Y-11073402D01*
X54913389Y-11100500D01*
X54913390Y-11100500D01*
X55086610Y-11100500D01*
X55086611Y-11100500D01*
X55257701Y-11073402D01*
X55422445Y-11019873D01*
X55576788Y-10941232D01*
X55716928Y-10839414D01*
X55839414Y-10716928D01*
X55941232Y-10576788D01*
X56019873Y-10422445D01*
X56073402Y-10257701D01*
X56100500Y-10086611D01*
X56100500Y-9913389D01*
X56073402Y-9742299D01*
X56019873Y-9577555D01*
X55941232Y-9423212D01*
X55839414Y-9283072D01*
X55716928Y-9160586D01*
X55576788Y-9058768D01*
X55422445Y-8980127D01*
X55257701Y-8926598D01*
X55257699Y-8926597D01*
X55257698Y-8926597D01*
X55126271Y-8905781D01*
X55086611Y-8899500D01*
X54913389Y-8899500D01*
X54873728Y-8905781D01*
X54742302Y-8926597D01*
X54577552Y-8980128D01*
X54423211Y-9058768D01*
X54365770Y-9100502D01*
X54283072Y-9160586D01*
X54283070Y-9160588D01*
X54283069Y-9160588D01*
X54160588Y-9283069D01*
X54160588Y-9283070D01*
X54160586Y-9283072D01*
X54144820Y-9304772D01*
X54058768Y-9423211D01*
X53980128Y-9577552D01*
X53926597Y-9742302D01*
X53899500Y-9913389D01*
X30583766Y-9913389D01*
X30863691Y-9633464D01*
X30863691Y-9633463D01*
X30816525Y-9599196D01*
X30816523Y-9599195D01*
X30662257Y-9520591D01*
X30589478Y-9496944D01*
X30576202Y-9487866D01*
X30560772Y-9483338D01*
X30547955Y-9468550D01*
X30531803Y-9457506D01*
X30525543Y-9442693D01*
X30515010Y-9430541D01*
X30512222Y-9411172D01*
X30504605Y-9393147D01*
X30507236Y-9376526D01*
X30505057Y-9361384D01*
X30513493Y-9337002D01*
X30514995Y-9327518D01*
X30519305Y-9318075D01*
X30520469Y-9316912D01*
X30566614Y-9236988D01*
X30581237Y-9182412D01*
X30585532Y-9173005D01*
X30601907Y-9154101D01*
X30614924Y-9132746D01*
X30624390Y-9128147D01*
X30631280Y-9120194D01*
X30655275Y-9113144D01*
X30677771Y-9102217D01*
X30698308Y-9100502D01*
X30698316Y-9100500D01*
X30698319Y-9100501D01*
X30698334Y-9100500D01*
X31114676Y-9100500D01*
X31114677Y-9100499D01*
X31187740Y-9085966D01*
X31270601Y-9030601D01*
X31325966Y-8947740D01*
X31340500Y-8874674D01*
X31340500Y-7125326D01*
X31340500Y-7125323D01*
X31340499Y-7125321D01*
X31325967Y-7052264D01*
X31325966Y-7052260D01*
X31270601Y-6969399D01*
X31187740Y-6914034D01*
X31187739Y-6914033D01*
X31187735Y-6914032D01*
X31114677Y-6899500D01*
X31114674Y-6899500D01*
X29365326Y-6899500D01*
X29365323Y-6899500D01*
X29292264Y-6914032D01*
X29292260Y-6914033D01*
X29209399Y-6969399D01*
X29154033Y-7052260D01*
X29154032Y-7052264D01*
X29139500Y-7125321D01*
X29139500Y-8874678D01*
X29154032Y-8947735D01*
X29154033Y-8947739D01*
X29154034Y-8947740D01*
X29209399Y-9030601D01*
X29251555Y-9058768D01*
X29292260Y-9085966D01*
X29292263Y-9085967D01*
X29340056Y-9095474D01*
X29401967Y-9127859D01*
X29436541Y-9188575D01*
X29432801Y-9258344D01*
X29403545Y-9304772D01*
X28849531Y-9858786D01*
X28849530Y-9858788D01*
X28810678Y-9926082D01*
X28803386Y-9938712D01*
X28779500Y-10027856D01*
X28779500Y-47232922D01*
X28759815Y-47299961D01*
X28707011Y-47345716D01*
X28697969Y-47349423D01*
X28683771Y-47354598D01*
X28671580Y-47355909D01*
X28536732Y-47406204D01*
X28531535Y-47410093D01*
X28516969Y-47415404D01*
X28491038Y-47417064D01*
X28465654Y-47422587D01*
X28456738Y-47419261D01*
X28447242Y-47419870D01*
X28424531Y-47407249D01*
X28400189Y-47398170D01*
X28394486Y-47390552D01*
X28386169Y-47385930D01*
X28373886Y-47363033D01*
X28358318Y-47342236D01*
X28356082Y-47329842D01*
X28353141Y-47324360D01*
X28353735Y-47316836D01*
X28350500Y-47298903D01*
X28350500Y-31113858D01*
X28350500Y-31113856D01*
X28326614Y-31024712D01*
X28281521Y-30946610D01*
X28280473Y-30944794D01*
X28280470Y-30944791D01*
X28280469Y-30944788D01*
X28215212Y-30879531D01*
X22142688Y-24807007D01*
X16048652Y-18712970D01*
X16015167Y-18651647D01*
X16018402Y-18586971D01*
X16030853Y-18548651D01*
X16073402Y-18417701D01*
X16100500Y-18246611D01*
X16100500Y-18073389D01*
X16073402Y-17902299D01*
X16019873Y-17737555D01*
X15941232Y-17583212D01*
X15839414Y-17443072D01*
X15716928Y-17320586D01*
X15576788Y-17218768D01*
X15422445Y-17140127D01*
X15257701Y-17086598D01*
X15257699Y-17086597D01*
X15257698Y-17086597D01*
X15126271Y-17065781D01*
X15086611Y-17059500D01*
X14913389Y-17059500D01*
X14873728Y-17065781D01*
X14742302Y-17086597D01*
X14577552Y-17140128D01*
X14423211Y-17218768D01*
X14390824Y-17242299D01*
X14283072Y-17320586D01*
X14283070Y-17320588D01*
X14283069Y-17320588D01*
X14160588Y-17443069D01*
X14160588Y-17443070D01*
X14160586Y-17443072D01*
X14116859Y-17503256D01*
X14058768Y-17583211D01*
X13980128Y-17737552D01*
X13926597Y-17902302D01*
X13899500Y-18073389D01*
X500500Y-18073389D01*
X500500Y-15533428D01*
X13900000Y-15533428D01*
X13900000Y-15706571D01*
X13927085Y-15877584D01*
X13980591Y-16042257D01*
X14059195Y-16196523D01*
X14059196Y-16196525D01*
X14093463Y-16243691D01*
X14093464Y-16243691D01*
X14531980Y-15805176D01*
X14534075Y-15812993D01*
X14599901Y-15927007D01*
X14692993Y-16020099D01*
X14807007Y-16085925D01*
X14814822Y-16088019D01*
X14376307Y-16526534D01*
X14423478Y-16560805D01*
X14577742Y-16639408D01*
X14742415Y-16692914D01*
X14913429Y-16720000D01*
X15086571Y-16720000D01*
X15257584Y-16692914D01*
X15422257Y-16639408D01*
X15576525Y-16560803D01*
X15623691Y-16526534D01*
X15623692Y-16526533D01*
X15185178Y-16088019D01*
X15192993Y-16085925D01*
X15307007Y-16020099D01*
X15400099Y-15927007D01*
X15465925Y-15812993D01*
X15468019Y-15805177D01*
X15906533Y-16243692D01*
X15906534Y-16243691D01*
X15940803Y-16196525D01*
X16019408Y-16042257D01*
X16072914Y-15877584D01*
X16100000Y-15706571D01*
X16100000Y-15533428D01*
X16072914Y-15362415D01*
X16019408Y-15197742D01*
X15940805Y-15043478D01*
X15906534Y-14996307D01*
X15468019Y-15434822D01*
X15465925Y-15427007D01*
X15400099Y-15312993D01*
X15307007Y-15219901D01*
X15192993Y-15154075D01*
X15185176Y-15151980D01*
X15623691Y-14713464D01*
X15623691Y-14713463D01*
X15576525Y-14679196D01*
X15576523Y-14679195D01*
X15422257Y-14600591D01*
X15257584Y-14547085D01*
X15086571Y-14520000D01*
X14913429Y-14520000D01*
X14742415Y-14547085D01*
X14577740Y-14600592D01*
X14423475Y-14679196D01*
X14376307Y-14713463D01*
X14376307Y-14713464D01*
X14814823Y-15151980D01*
X14807007Y-15154075D01*
X14692993Y-15219901D01*
X14599901Y-15312993D01*
X14534075Y-15427007D01*
X14531980Y-15434823D01*
X14093464Y-14996307D01*
X14093463Y-14996307D01*
X14059196Y-15043475D01*
X13980592Y-15197740D01*
X13927085Y-15362415D01*
X13900000Y-15533428D01*
X500500Y-15533428D01*
X500500Y-12993389D01*
X13899500Y-12993389D01*
X13899500Y-13166611D01*
X13926598Y-13337701D01*
X13980127Y-13502445D01*
X14058768Y-13656788D01*
X14160586Y-13796928D01*
X14283072Y-13919414D01*
X14423212Y-14021232D01*
X14577555Y-14099873D01*
X14742299Y-14153402D01*
X14913389Y-14180500D01*
X14913390Y-14180500D01*
X15086610Y-14180500D01*
X15086611Y-14180500D01*
X15257701Y-14153402D01*
X15422445Y-14099873D01*
X15576788Y-14021232D01*
X15716928Y-13919414D01*
X15839414Y-13796928D01*
X15941232Y-13656788D01*
X16019873Y-13502445D01*
X16073402Y-13337701D01*
X16100500Y-13166611D01*
X16100500Y-12993389D01*
X16073402Y-12822299D01*
X16019873Y-12657555D01*
X15941232Y-12503212D01*
X15839414Y-12363072D01*
X15716928Y-12240586D01*
X15576788Y-12138768D01*
X15422445Y-12060127D01*
X15257701Y-12006598D01*
X15257699Y-12006597D01*
X15257698Y-12006597D01*
X15126271Y-11985781D01*
X15086611Y-11979500D01*
X14913389Y-11979500D01*
X14873728Y-11985781D01*
X14742302Y-12006597D01*
X14577552Y-12060128D01*
X14423211Y-12138768D01*
X14343256Y-12196859D01*
X14283072Y-12240586D01*
X14283070Y-12240588D01*
X14283069Y-12240588D01*
X14160588Y-12363069D01*
X14160588Y-12363070D01*
X14160586Y-12363072D01*
X14116859Y-12423256D01*
X14058768Y-12503211D01*
X13980128Y-12657552D01*
X13926597Y-12822302D01*
X13910736Y-12922445D01*
X13899500Y-12993389D01*
X500500Y-12993389D01*
X500500Y-10453389D01*
X13899500Y-10453389D01*
X13899500Y-10626611D01*
X13926598Y-10797701D01*
X13980127Y-10962445D01*
X14058768Y-11116788D01*
X14160586Y-11256928D01*
X14283072Y-11379414D01*
X14423212Y-11481232D01*
X14577555Y-11559873D01*
X14742299Y-11613402D01*
X14913389Y-11640500D01*
X14913390Y-11640500D01*
X15086610Y-11640500D01*
X15086611Y-11640500D01*
X15257701Y-11613402D01*
X15422445Y-11559873D01*
X15576788Y-11481232D01*
X15716928Y-11379414D01*
X15839414Y-11256928D01*
X15941232Y-11116788D01*
X16019873Y-10962445D01*
X16073402Y-10797701D01*
X16100500Y-10626611D01*
X16100500Y-10453389D01*
X16073402Y-10282299D01*
X16019873Y-10117555D01*
X15941232Y-9963212D01*
X15839414Y-9823072D01*
X15716928Y-9700586D01*
X15576788Y-9598768D01*
X15422445Y-9520127D01*
X15257701Y-9466598D01*
X15257699Y-9466597D01*
X15257698Y-9466597D01*
X15126271Y-9445781D01*
X15086611Y-9439500D01*
X14913389Y-9439500D01*
X14873728Y-9445781D01*
X14742302Y-9466597D01*
X14577552Y-9520128D01*
X14423211Y-9598768D01*
X14375457Y-9633464D01*
X14283072Y-9700586D01*
X14283070Y-9700588D01*
X14283069Y-9700588D01*
X14160588Y-9823069D01*
X14160588Y-9823070D01*
X14160586Y-9823072D01*
X14134638Y-9858786D01*
X14058768Y-9963211D01*
X13980128Y-10117552D01*
X13926597Y-10282302D01*
X13899500Y-10453389D01*
X500500Y-10453389D01*
X500500Y-7125321D01*
X13899500Y-7125321D01*
X13899500Y-8874678D01*
X13914032Y-8947735D01*
X13914033Y-8947739D01*
X13914034Y-8947740D01*
X13969399Y-9030601D01*
X14011555Y-9058768D01*
X14052260Y-9085966D01*
X14052264Y-9085967D01*
X14125321Y-9100499D01*
X14125324Y-9100500D01*
X14125326Y-9100500D01*
X15874676Y-9100500D01*
X15874677Y-9100499D01*
X15947740Y-9085966D01*
X16030601Y-9030601D01*
X16085966Y-8947740D01*
X16100500Y-8874674D01*
X16100500Y-7125326D01*
X16100500Y-7125323D01*
X16100499Y-7125321D01*
X16085967Y-7052264D01*
X16085966Y-7052260D01*
X16030601Y-6969399D01*
X15947740Y-6914034D01*
X15947739Y-6914033D01*
X15947735Y-6914032D01*
X15874677Y-6899500D01*
X15874674Y-6899500D01*
X14125326Y-6899500D01*
X14125323Y-6899500D01*
X14052264Y-6914032D01*
X14052260Y-6914033D01*
X13969399Y-6969399D01*
X13914033Y-7052260D01*
X13914032Y-7052264D01*
X13899500Y-7125321D01*
X500500Y-7125321D01*
X500500Y-4125321D01*
X53899500Y-4125321D01*
X53899500Y-5874678D01*
X53914032Y-5947735D01*
X53914033Y-5947739D01*
X53914034Y-5947740D01*
X53969399Y-6030601D01*
X54041959Y-6079083D01*
X54052260Y-6085966D01*
X54052264Y-6085967D01*
X54125321Y-6100499D01*
X54125324Y-6100500D01*
X54125326Y-6100500D01*
X54541666Y-6100500D01*
X54560450Y-6106015D01*
X54580020Y-6106581D01*
X54593285Y-6115657D01*
X54608705Y-6120185D01*
X54621523Y-6134978D01*
X54637683Y-6146035D01*
X54647199Y-6164610D01*
X54654460Y-6172989D01*
X54655900Y-6176265D01*
X54659225Y-6184141D01*
X54673386Y-6236988D01*
X54703737Y-6289557D01*
X54706734Y-6296654D01*
X54709864Y-6324015D01*
X54716360Y-6350788D01*
X54713780Y-6358239D01*
X54714677Y-6366071D01*
X54702517Y-6390784D01*
X54693508Y-6416815D01*
X54687311Y-6421687D01*
X54683831Y-6428762D01*
X54660236Y-6442980D01*
X54638587Y-6460006D01*
X54630820Y-6462819D01*
X54577554Y-6480126D01*
X54423211Y-6558768D01*
X54343256Y-6616859D01*
X54283072Y-6660586D01*
X54283070Y-6660588D01*
X54283069Y-6660588D01*
X54160588Y-6783069D01*
X54160588Y-6783070D01*
X54160586Y-6783072D01*
X54116859Y-6843256D01*
X54058768Y-6923211D01*
X53980128Y-7077552D01*
X53926597Y-7242302D01*
X53899500Y-7413389D01*
X53899500Y-7586611D01*
X53926598Y-7757701D01*
X53980127Y-7922445D01*
X54058768Y-8076788D01*
X54160586Y-8216928D01*
X54283072Y-8339414D01*
X54423212Y-8441232D01*
X54577555Y-8519873D01*
X54742299Y-8573402D01*
X54913389Y-8600500D01*
X54913390Y-8600500D01*
X55086610Y-8600500D01*
X55086611Y-8600500D01*
X55257701Y-8573402D01*
X55422445Y-8519873D01*
X55422447Y-8519871D01*
X55426971Y-8518402D01*
X55496812Y-8516407D01*
X55552970Y-8548652D01*
X68423181Y-21418862D01*
X68456666Y-21480185D01*
X68459500Y-21506543D01*
X68459500Y-49064622D01*
X68439815Y-49131661D01*
X68387011Y-49177416D01*
X68317853Y-49187360D01*
X68261888Y-49162046D01*
X68260869Y-49163450D01*
X68256930Y-49160588D01*
X68256928Y-49160586D01*
X68116788Y-49058768D01*
X68029848Y-49014470D01*
X67958205Y-48977966D01*
X67907409Y-48929991D01*
X67890500Y-48867481D01*
X67890500Y-32493858D01*
X67890500Y-32493856D01*
X67866614Y-32404712D01*
X67852420Y-32380127D01*
X67820470Y-32324788D01*
X56048652Y-20552970D01*
X56015167Y-20491647D01*
X56018402Y-20426971D01*
X56019873Y-20422445D01*
X56073402Y-20257701D01*
X56100500Y-20086611D01*
X56100500Y-19913389D01*
X56073402Y-19742299D01*
X56019873Y-19577555D01*
X55941232Y-19423212D01*
X55839414Y-19283072D01*
X55716928Y-19160586D01*
X55576788Y-19058768D01*
X55422445Y-18980127D01*
X55257701Y-18926598D01*
X55257699Y-18926597D01*
X55257698Y-18926597D01*
X55126271Y-18905781D01*
X55086611Y-18899500D01*
X54913389Y-18899500D01*
X54873728Y-18905781D01*
X54742302Y-18926597D01*
X54577552Y-18980128D01*
X54423211Y-19058768D01*
X54343256Y-19116859D01*
X54283072Y-19160586D01*
X54283070Y-19160588D01*
X54283069Y-19160588D01*
X54160588Y-19283069D01*
X54160588Y-19283070D01*
X54160586Y-19283072D01*
X54116859Y-19343256D01*
X54058768Y-19423211D01*
X53980128Y-19577552D01*
X53926597Y-19742302D01*
X53921752Y-19772895D01*
X53899500Y-19913389D01*
X53899500Y-20086611D01*
X53926598Y-20257701D01*
X53980127Y-20422445D01*
X54058768Y-20576788D01*
X54160586Y-20716928D01*
X54283072Y-20839414D01*
X54423212Y-20941232D01*
X54577555Y-21019873D01*
X54742299Y-21073402D01*
X54913389Y-21100500D01*
X54913390Y-21100500D01*
X55086610Y-21100500D01*
X55086611Y-21100500D01*
X55257701Y-21073402D01*
X55422445Y-21019873D01*
X55422447Y-21019871D01*
X55426971Y-21018402D01*
X55496812Y-21016407D01*
X55552970Y-21048652D01*
X67153181Y-32648863D01*
X67186666Y-32710186D01*
X67189500Y-32736544D01*
X67189500Y-48867481D01*
X67169815Y-48934520D01*
X67121795Y-48977966D01*
X66963211Y-49058768D01*
X66916850Y-49092452D01*
X66823072Y-49160586D01*
X66823070Y-49160588D01*
X66823069Y-49160588D01*
X66700588Y-49283069D01*
X66700588Y-49283070D01*
X66700586Y-49283072D01*
X66682805Y-49307546D01*
X66598768Y-49423211D01*
X66520128Y-49577552D01*
X66466597Y-49742302D01*
X66464682Y-49754394D01*
X66439500Y-49913389D01*
X66439500Y-50086611D01*
X66445493Y-50124448D01*
X66466597Y-50257697D01*
X66466597Y-50257699D01*
X66466598Y-50257701D01*
X66520127Y-50422445D01*
X66598768Y-50576788D01*
X66700586Y-50716928D01*
X66823072Y-50839414D01*
X66963212Y-50941232D01*
X67117555Y-51019873D01*
X67282299Y-51073402D01*
X67453389Y-51100500D01*
X67453390Y-51100500D01*
X67626610Y-51100500D01*
X67626611Y-51100500D01*
X67797701Y-51073402D01*
X67962445Y-51019873D01*
X68116788Y-50941232D01*
X68256928Y-50839414D01*
X68256930Y-50839411D01*
X68260869Y-50836550D01*
X68261909Y-50837982D01*
X68318704Y-50812520D01*
X68387792Y-50822942D01*
X68440278Y-50869062D01*
X68459500Y-50935377D01*
X68459500Y-59943043D01*
X68483386Y-60032187D01*
X68483387Y-60032190D01*
X68529527Y-60112108D01*
X68529531Y-60112113D01*
X73017855Y-64600438D01*
X73051340Y-64661761D01*
X73046356Y-64731453D01*
X73017863Y-64775792D01*
X73010595Y-64783061D01*
X73010590Y-64783066D01*
X72908768Y-64923211D01*
X72830128Y-65077552D01*
X72776597Y-65242302D01*
X72749500Y-65413389D01*
X72749500Y-65586610D01*
X72776578Y-65757580D01*
X72776598Y-65757701D01*
X72830127Y-65922445D01*
X72908768Y-66076788D01*
X73010586Y-66216928D01*
X73133072Y-66339414D01*
X73273212Y-66441232D01*
X73427555Y-66519873D01*
X73592299Y-66573402D01*
X73763389Y-66600500D01*
X73763390Y-66600500D01*
X74236610Y-66600500D01*
X74236611Y-66600500D01*
X74407701Y-66573402D01*
X74572445Y-66519873D01*
X74726788Y-66441232D01*
X74866928Y-66339414D01*
X74989414Y-66216928D01*
X75091232Y-66076788D01*
X75169873Y-65922445D01*
X75223402Y-65757701D01*
X75250500Y-65586611D01*
X75250500Y-65413389D01*
X75223402Y-65242299D01*
X75169873Y-65077555D01*
X75091232Y-64923212D01*
X74989414Y-64783072D01*
X74866928Y-64660586D01*
X74726788Y-64558768D01*
X74572445Y-64480127D01*
X74430923Y-64434143D01*
X74423696Y-64429201D01*
X74415062Y-64427750D01*
X74395297Y-64409782D01*
X74373249Y-64394706D01*
X74368482Y-64385405D01*
X74363362Y-64380751D01*
X74349469Y-64348311D01*
X74326614Y-64263012D01*
X74326612Y-64263008D01*
X74324893Y-64256593D01*
X74326556Y-64186743D01*
X74365718Y-64128880D01*
X74429946Y-64101376D01*
X74444668Y-64100499D01*
X74797871Y-64100499D01*
X74797872Y-64100499D01*
X74857483Y-64094091D01*
X74992331Y-64043796D01*
X75107546Y-63957546D01*
X75193796Y-63842331D01*
X75244091Y-63707483D01*
X75250500Y-63647873D01*
X75250499Y-62352128D01*
X75244091Y-62292517D01*
X75193796Y-62157669D01*
X75193795Y-62157668D01*
X75193793Y-62157664D01*
X75107547Y-62042455D01*
X75107544Y-62042452D01*
X74992335Y-61956206D01*
X74992328Y-61956202D01*
X74857482Y-61905908D01*
X74857483Y-61905908D01*
X74797883Y-61899501D01*
X74797881Y-61899500D01*
X74797873Y-61899500D01*
X74797865Y-61899500D01*
X74474500Y-61899500D01*
X74407461Y-61879815D01*
X74361706Y-61827011D01*
X74350500Y-61775500D01*
X74350500Y-25670912D01*
X74370185Y-25603873D01*
X74422989Y-25558118D01*
X74492147Y-25548174D01*
X74555703Y-25577199D01*
X74574820Y-25598029D01*
X74593464Y-25623691D01*
X75031980Y-25185176D01*
X75034075Y-25192993D01*
X75099901Y-25307007D01*
X75192993Y-25400099D01*
X75307007Y-25465925D01*
X75314822Y-25468019D01*
X74876307Y-25906534D01*
X74923478Y-25940805D01*
X75077742Y-26019408D01*
X75242415Y-26072914D01*
X75413429Y-26100000D01*
X75586571Y-26100000D01*
X75757584Y-26072914D01*
X75922257Y-26019408D01*
X76076525Y-25940803D01*
X76123691Y-25906534D01*
X76123692Y-25906533D01*
X75685178Y-25468019D01*
X75692993Y-25465925D01*
X75807007Y-25400099D01*
X75900099Y-25307007D01*
X75965925Y-25192993D01*
X75968019Y-25185177D01*
X76406533Y-25623692D01*
X76406534Y-25623691D01*
X76440803Y-25576525D01*
X76519408Y-25422257D01*
X76572914Y-25257584D01*
X76600000Y-25086571D01*
X76600000Y-24913428D01*
X76572914Y-24742415D01*
X76519408Y-24577742D01*
X76440805Y-24423478D01*
X76406534Y-24376307D01*
X75968019Y-24814822D01*
X75965925Y-24807007D01*
X75900099Y-24692993D01*
X75807007Y-24599901D01*
X75692993Y-24534075D01*
X75685176Y-24531980D01*
X76123691Y-24093464D01*
X76123691Y-24093463D01*
X76076525Y-24059196D01*
X76076523Y-24059195D01*
X75922257Y-23980591D01*
X75757584Y-23927085D01*
X75586571Y-23900000D01*
X75413429Y-23900000D01*
X75242415Y-23927085D01*
X75077740Y-23980592D01*
X74923475Y-24059196D01*
X74876307Y-24093463D01*
X74876307Y-24093464D01*
X75314823Y-24531980D01*
X75307007Y-24534075D01*
X75192993Y-24599901D01*
X75099901Y-24692993D01*
X75034075Y-24807007D01*
X75031980Y-24814823D01*
X74593464Y-24376307D01*
X74593463Y-24376307D01*
X74559196Y-24423475D01*
X74479269Y-24580338D01*
X74431295Y-24631133D01*
X74363474Y-24647928D01*
X74297339Y-24625390D01*
X74281104Y-24611723D01*
X72165579Y-22496198D01*
X72082770Y-22413389D01*
X74399500Y-22413389D01*
X74399500Y-22586610D01*
X74416911Y-22696543D01*
X74426598Y-22757701D01*
X74480127Y-22922445D01*
X74558768Y-23076788D01*
X74660586Y-23216928D01*
X74783072Y-23339414D01*
X74923212Y-23441232D01*
X75077555Y-23519873D01*
X75242299Y-23573402D01*
X75413389Y-23600500D01*
X75413390Y-23600500D01*
X75586610Y-23600500D01*
X75586611Y-23600500D01*
X75757701Y-23573402D01*
X75922445Y-23519873D01*
X76076788Y-23441232D01*
X76216928Y-23339414D01*
X76339414Y-23216928D01*
X76441232Y-23076788D01*
X76519873Y-22922445D01*
X76573402Y-22757701D01*
X76600500Y-22586611D01*
X76600500Y-22413389D01*
X76573402Y-22242299D01*
X76519873Y-22077555D01*
X76441232Y-21923212D01*
X76339414Y-21783072D01*
X76216928Y-21660586D01*
X76076788Y-21558768D01*
X75922445Y-21480127D01*
X75757701Y-21426598D01*
X75757699Y-21426597D01*
X75757698Y-21426597D01*
X75626271Y-21405781D01*
X75586611Y-21399500D01*
X75413389Y-21399500D01*
X75373728Y-21405781D01*
X75242302Y-21426597D01*
X75077552Y-21480128D01*
X74923211Y-21558768D01*
X74843256Y-21616859D01*
X74783072Y-21660586D01*
X74783070Y-21660588D01*
X74783069Y-21660588D01*
X74660588Y-21783069D01*
X74660588Y-21783070D01*
X74660586Y-21783072D01*
X74647924Y-21800500D01*
X74558768Y-21923211D01*
X74480128Y-22077552D01*
X74426597Y-22242302D01*
X74399500Y-22413389D01*
X72082770Y-22413389D01*
X69665580Y-19996198D01*
X69582771Y-19913389D01*
X74399500Y-19913389D01*
X74399500Y-20086611D01*
X74426598Y-20257701D01*
X74480127Y-20422445D01*
X74558768Y-20576788D01*
X74660586Y-20716928D01*
X74783072Y-20839414D01*
X74923212Y-20941232D01*
X75077555Y-21019873D01*
X75242299Y-21073402D01*
X75413389Y-21100500D01*
X75413390Y-21100500D01*
X75586610Y-21100500D01*
X75586611Y-21100500D01*
X75757701Y-21073402D01*
X75922445Y-21019873D01*
X76076788Y-20941232D01*
X76216928Y-20839414D01*
X76339414Y-20716928D01*
X76441232Y-20576788D01*
X76519873Y-20422445D01*
X76573402Y-20257701D01*
X76600500Y-20086611D01*
X76600500Y-19913389D01*
X76573402Y-19742299D01*
X76519873Y-19577555D01*
X76441232Y-19423212D01*
X76339414Y-19283072D01*
X76216928Y-19160586D01*
X76076788Y-19058768D01*
X75922445Y-18980127D01*
X75757701Y-18926598D01*
X75757699Y-18926597D01*
X75757698Y-18926597D01*
X75626271Y-18905781D01*
X75586611Y-18899500D01*
X75413389Y-18899500D01*
X75373728Y-18905781D01*
X75242302Y-18926597D01*
X75077552Y-18980128D01*
X74923211Y-19058768D01*
X74843256Y-19116859D01*
X74783072Y-19160586D01*
X74783070Y-19160588D01*
X74783069Y-19160588D01*
X74660588Y-19283069D01*
X74660588Y-19283070D01*
X74660586Y-19283072D01*
X74616859Y-19343256D01*
X74558768Y-19423211D01*
X74480128Y-19577552D01*
X74426597Y-19742302D01*
X74421752Y-19772895D01*
X74399500Y-19913389D01*
X69582771Y-19913389D01*
X67082771Y-17413389D01*
X74399500Y-17413389D01*
X74399500Y-17586610D01*
X74426597Y-17757697D01*
X74426597Y-17757699D01*
X74426598Y-17757701D01*
X74480127Y-17922445D01*
X74558768Y-18076788D01*
X74660586Y-18216928D01*
X74783072Y-18339414D01*
X74923212Y-18441232D01*
X75077555Y-18519873D01*
X75242299Y-18573402D01*
X75413389Y-18600500D01*
X75413390Y-18600500D01*
X75586610Y-18600500D01*
X75586611Y-18600500D01*
X75757701Y-18573402D01*
X75922445Y-18519873D01*
X76076788Y-18441232D01*
X76216928Y-18339414D01*
X76339414Y-18216928D01*
X76441232Y-18076788D01*
X76519873Y-17922445D01*
X76573402Y-17757701D01*
X76600500Y-17586611D01*
X76600500Y-17413389D01*
X76573402Y-17242299D01*
X76519873Y-17077555D01*
X76441232Y-16923212D01*
X76339414Y-16783072D01*
X76216928Y-16660586D01*
X76076788Y-16558768D01*
X75922445Y-16480127D01*
X75757701Y-16426598D01*
X75757699Y-16426597D01*
X75757698Y-16426597D01*
X75626271Y-16405781D01*
X75586611Y-16399500D01*
X75413389Y-16399500D01*
X75373728Y-16405781D01*
X75242302Y-16426597D01*
X75077552Y-16480128D01*
X74923211Y-16558768D01*
X74861718Y-16603446D01*
X74783072Y-16660586D01*
X74783070Y-16660588D01*
X74783069Y-16660588D01*
X74660588Y-16783069D01*
X74660588Y-16783070D01*
X74660586Y-16783072D01*
X74616859Y-16843256D01*
X74558768Y-16923211D01*
X74480128Y-17077552D01*
X74426597Y-17242302D01*
X74399500Y-17413389D01*
X67082771Y-17413389D01*
X64582771Y-14913389D01*
X74399500Y-14913389D01*
X74399500Y-15086610D01*
X74426597Y-15257697D01*
X74426597Y-15257699D01*
X74426598Y-15257701D01*
X74480127Y-15422445D01*
X74558768Y-15576788D01*
X74660586Y-15716928D01*
X74783072Y-15839414D01*
X74923212Y-15941232D01*
X75077555Y-16019873D01*
X75242299Y-16073402D01*
X75413389Y-16100500D01*
X75413390Y-16100500D01*
X75586610Y-16100500D01*
X75586611Y-16100500D01*
X75757701Y-16073402D01*
X75922445Y-16019873D01*
X76076788Y-15941232D01*
X76216928Y-15839414D01*
X76339414Y-15716928D01*
X76441232Y-15576788D01*
X76519873Y-15422445D01*
X76573402Y-15257701D01*
X76600500Y-15086611D01*
X76600500Y-14913389D01*
X76573402Y-14742299D01*
X76519873Y-14577555D01*
X76441232Y-14423212D01*
X76339414Y-14283072D01*
X76216928Y-14160586D01*
X76076788Y-14058768D01*
X75922445Y-13980127D01*
X75757701Y-13926598D01*
X75757699Y-13926597D01*
X75757698Y-13926597D01*
X75626271Y-13905781D01*
X75586611Y-13899500D01*
X75413389Y-13899500D01*
X75373728Y-13905781D01*
X75242302Y-13926597D01*
X75077552Y-13980128D01*
X74923211Y-14058768D01*
X74866636Y-14099873D01*
X74783072Y-14160586D01*
X74783070Y-14160588D01*
X74783069Y-14160588D01*
X74660588Y-14283069D01*
X74660588Y-14283070D01*
X74660586Y-14283072D01*
X74616859Y-14343256D01*
X74558768Y-14423211D01*
X74480128Y-14577552D01*
X74426597Y-14742302D01*
X74399500Y-14913389D01*
X64582771Y-14913389D01*
X62082771Y-12413389D01*
X74399500Y-12413389D01*
X74399500Y-12586611D01*
X74426598Y-12757701D01*
X74480127Y-12922445D01*
X74558768Y-13076788D01*
X74660586Y-13216928D01*
X74783072Y-13339414D01*
X74923212Y-13441232D01*
X75077555Y-13519873D01*
X75242299Y-13573402D01*
X75413389Y-13600500D01*
X75413390Y-13600500D01*
X75586610Y-13600500D01*
X75586611Y-13600500D01*
X75757701Y-13573402D01*
X75922445Y-13519873D01*
X76076788Y-13441232D01*
X76216928Y-13339414D01*
X76339414Y-13216928D01*
X76441232Y-13076788D01*
X76519873Y-12922445D01*
X76573402Y-12757701D01*
X76600500Y-12586611D01*
X76600500Y-12413389D01*
X76573402Y-12242299D01*
X76519873Y-12077555D01*
X76441232Y-11923212D01*
X76339414Y-11783072D01*
X76216928Y-11660586D01*
X76076788Y-11558768D01*
X75922445Y-11480127D01*
X75757701Y-11426598D01*
X75757699Y-11426597D01*
X75757698Y-11426597D01*
X75626271Y-11405781D01*
X75586611Y-11399500D01*
X75413389Y-11399500D01*
X75373728Y-11405781D01*
X75242302Y-11426597D01*
X75077552Y-11480128D01*
X74923211Y-11558768D01*
X74848687Y-11612914D01*
X74783072Y-11660586D01*
X74783070Y-11660588D01*
X74783069Y-11660588D01*
X74660588Y-11783069D01*
X74660588Y-11783070D01*
X74660586Y-11783072D01*
X74616859Y-11843256D01*
X74558768Y-11923211D01*
X74480128Y-12077552D01*
X74426597Y-12242302D01*
X74407470Y-12363069D01*
X74399500Y-12413389D01*
X62082771Y-12413389D01*
X59582771Y-9913389D01*
X74399500Y-9913389D01*
X74399500Y-10086610D01*
X74422684Y-10232993D01*
X74426598Y-10257701D01*
X74480127Y-10422445D01*
X74558768Y-10576788D01*
X74660586Y-10716928D01*
X74783072Y-10839414D01*
X74923212Y-10941232D01*
X75077555Y-11019873D01*
X75242299Y-11073402D01*
X75413389Y-11100500D01*
X75413390Y-11100500D01*
X75586610Y-11100500D01*
X75586611Y-11100500D01*
X75757701Y-11073402D01*
X75922445Y-11019873D01*
X76076788Y-10941232D01*
X76216928Y-10839414D01*
X76339414Y-10716928D01*
X76441232Y-10576788D01*
X76519873Y-10422445D01*
X76573402Y-10257701D01*
X76600500Y-10086611D01*
X76600500Y-9913389D01*
X76573402Y-9742299D01*
X76519873Y-9577555D01*
X76441232Y-9423212D01*
X76339414Y-9283072D01*
X76216928Y-9160586D01*
X76076788Y-9058768D01*
X75922445Y-8980127D01*
X75757701Y-8926598D01*
X75757699Y-8926597D01*
X75757698Y-8926597D01*
X75626271Y-8905781D01*
X75586611Y-8899500D01*
X75413389Y-8899500D01*
X75373728Y-8905781D01*
X75242302Y-8926597D01*
X75077552Y-8980128D01*
X74923211Y-9058768D01*
X74865770Y-9100502D01*
X74783072Y-9160586D01*
X74783070Y-9160588D01*
X74783069Y-9160588D01*
X74660588Y-9283069D01*
X74660588Y-9283070D01*
X74660586Y-9283072D01*
X74644820Y-9304772D01*
X74558768Y-9423211D01*
X74480128Y-9577552D01*
X74426597Y-9742302D01*
X74399500Y-9913389D01*
X59582771Y-9913389D01*
X57082771Y-7413389D01*
X74399500Y-7413389D01*
X74399500Y-7586611D01*
X74426598Y-7757701D01*
X74480127Y-7922445D01*
X74558768Y-8076788D01*
X74660586Y-8216928D01*
X74783072Y-8339414D01*
X74923212Y-8441232D01*
X75077555Y-8519873D01*
X75242299Y-8573402D01*
X75413389Y-8600500D01*
X75413390Y-8600500D01*
X75586610Y-8600500D01*
X75586611Y-8600500D01*
X75757701Y-8573402D01*
X75922445Y-8519873D01*
X76076788Y-8441232D01*
X76216928Y-8339414D01*
X76339414Y-8216928D01*
X76441232Y-8076788D01*
X76519873Y-7922445D01*
X76573402Y-7757701D01*
X76600500Y-7586611D01*
X76600500Y-7413389D01*
X76573402Y-7242299D01*
X76519873Y-7077555D01*
X76441232Y-6923212D01*
X76339414Y-6783072D01*
X76216928Y-6660586D01*
X76076788Y-6558768D01*
X75922445Y-6480127D01*
X75757701Y-6426598D01*
X75757699Y-6426597D01*
X75757698Y-6426597D01*
X75626271Y-6405781D01*
X75586611Y-6399500D01*
X75413389Y-6399500D01*
X75373728Y-6405781D01*
X75242302Y-6426597D01*
X75077552Y-6480128D01*
X74923211Y-6558768D01*
X74843256Y-6616859D01*
X74783072Y-6660586D01*
X74783070Y-6660588D01*
X74783069Y-6660588D01*
X74660588Y-6783069D01*
X74660588Y-6783070D01*
X74660586Y-6783072D01*
X74616859Y-6843256D01*
X74558768Y-6923211D01*
X74480128Y-7077552D01*
X74426597Y-7242302D01*
X74399500Y-7413389D01*
X57082771Y-7413389D01*
X55939249Y-6269867D01*
X55905764Y-6208544D01*
X55910748Y-6138852D01*
X55952620Y-6082919D01*
X55958017Y-6079098D01*
X56030601Y-6030601D01*
X56085966Y-5947740D01*
X56100500Y-5874674D01*
X56100500Y-4125326D01*
X56100500Y-4125323D01*
X56100499Y-4125321D01*
X74399500Y-4125321D01*
X74399500Y-5874678D01*
X74414032Y-5947735D01*
X74414033Y-5947739D01*
X74414034Y-5947740D01*
X74469399Y-6030601D01*
X74541959Y-6079083D01*
X74552260Y-6085966D01*
X74552264Y-6085967D01*
X74625321Y-6100499D01*
X74625324Y-6100500D01*
X74625326Y-6100500D01*
X76374676Y-6100500D01*
X76374677Y-6100499D01*
X76447740Y-6085966D01*
X76530601Y-6030601D01*
X76585966Y-5947740D01*
X76600500Y-5874674D01*
X76600500Y-4125326D01*
X76600500Y-4125323D01*
X76600499Y-4125321D01*
X76585967Y-4052264D01*
X76585966Y-4052260D01*
X76530601Y-3969399D01*
X76447740Y-3914034D01*
X76447739Y-3914033D01*
X76447735Y-3914032D01*
X76374677Y-3899500D01*
X76374674Y-3899500D01*
X74625326Y-3899500D01*
X74625323Y-3899500D01*
X74552264Y-3914032D01*
X74552260Y-3914033D01*
X74469399Y-3969399D01*
X74414033Y-4052260D01*
X74414032Y-4052264D01*
X74399500Y-4125321D01*
X56100499Y-4125321D01*
X56085967Y-4052264D01*
X56085966Y-4052260D01*
X56030601Y-3969399D01*
X55947740Y-3914034D01*
X55947739Y-3914033D01*
X55947735Y-3914032D01*
X55874677Y-3899500D01*
X55874674Y-3899500D01*
X54125326Y-3899500D01*
X54125323Y-3899500D01*
X54052264Y-3914032D01*
X54052260Y-3914033D01*
X53969399Y-3969399D01*
X53914033Y-4052260D01*
X53914032Y-4052264D01*
X53899500Y-4125321D01*
X500500Y-4125321D01*
X500500Y-3003750D01*
X500726Y-2996263D01*
X518271Y-2706205D01*
X520076Y-2691340D01*
X571780Y-2409202D01*
X575364Y-2394664D01*
X660699Y-2120812D01*
X665997Y-2106842D01*
X783727Y-1845258D01*
X790680Y-1832012D01*
X830959Y-1765381D01*
X939075Y-1586534D01*
X947567Y-1574230D01*
X1124481Y-1348417D01*
X1134396Y-1337226D01*
X1337226Y-1134396D01*
X1348417Y-1124481D01*
X1574230Y-947567D01*
X1586534Y-939075D01*
X1832012Y-790680D01*
X1845258Y-783727D01*
X2106842Y-665997D01*
X2120812Y-660699D01*
X2394668Y-575362D01*
X2409198Y-571780D01*
X2691344Y-520075D01*
X2706201Y-518271D01*
X2996264Y-500726D01*
X3003751Y-500500D01*
X3065892Y-500500D01*
X86934108Y-500500D01*
X86996249Y-500500D01*
X87003736Y-500726D01*
G37*
%TD.AperFunction*%
%TD*%
M02*
