%TF.GenerationSoftware,KiCad,Pcbnew,10.0.1*%
%TF.CreationDate,2026-07-25T14:26:42-06:00*%
%TF.ProjectId,ahmygroin,61686d79-6772-46f6-996e-2e6b69636164,rev?*%
%TF.SameCoordinates,Original*%
%TF.FileFunction,Copper,L1,Top*%
%TF.FilePolarity,Positive*%
%FSLAX46Y46*%
G04 Gerber Fmt 4.6, Leading zero omitted, Abs format (unit mm)*
G04 Created by KiCad (PCBNEW 10.0.1) date 2026-07-25 14:26:42*
%MOMM*%
%LPD*%
G01*
G04 APERTURE LIST*
G04 Aperture macros list*
%AMRoundRect*
0 Rectangle with rounded corners*
0 $1 Rounding radius*
0 $2 $3 $4 $5 $6 $7 $8 $9 X,Y pos of 4 corners*
0 Add a 4 corners polygon primitive as box body*
4,1,4,$2,$3,$4,$5,$6,$7,$8,$9,$2,$3,0*
0 Add four circle primitives for the rounded corners*
1,1,$1+$1,$2,$3*
1,1,$1+$1,$4,$5*
1,1,$1+$1,$6,$7*
1,1,$1+$1,$8,$9*
0 Add four rect primitives between the rounded corners*
20,1,$1+$1,$2,$3,$4,$5,0*
20,1,$1+$1,$4,$5,$6,$7,0*
20,1,$1+$1,$6,$7,$8,$9,0*
20,1,$1+$1,$8,$9,$2,$3,0*%
G04 Aperture macros list end*
%TA.AperFunction,SMDPad,CuDef*%
%ADD10RoundRect,0.250000X-0.350000X-0.450000X0.350000X-0.450000X0.350000X0.450000X-0.350000X0.450000X0*%
%TD*%
%TA.AperFunction,ComponentPad*%
%ADD11C,3.600000*%
%TD*%
%TA.AperFunction,ConnectorPad*%
%ADD12C,6.400000*%
%TD*%
%TA.AperFunction,SMDPad,CuDef*%
%ADD13RoundRect,0.150000X-0.587500X-0.150000X0.587500X-0.150000X0.587500X0.150000X-0.587500X0.150000X0*%
%TD*%
%TA.AperFunction,ComponentPad*%
%ADD14R,1.700000X1.700000*%
%TD*%
%TA.AperFunction,ComponentPad*%
%ADD15C,1.700000*%
%TD*%
%TA.AperFunction,ComponentPad*%
%ADD16RoundRect,0.250000X-0.550000X-0.550000X0.550000X-0.550000X0.550000X0.550000X-0.550000X0.550000X0*%
%TD*%
%TA.AperFunction,ComponentPad*%
%ADD17C,1.600000*%
%TD*%
%TA.AperFunction,SMDPad,CuDef*%
%ADD18RoundRect,0.250000X-0.337500X-0.475000X0.337500X-0.475000X0.337500X0.475000X-0.337500X0.475000X0*%
%TD*%
%TA.AperFunction,ComponentPad*%
%ADD19C,1.500000*%
%TD*%
%TA.AperFunction,SMDPad,CuDef*%
%ADD20RoundRect,0.250000X-0.262500X-0.450000X0.262500X-0.450000X0.262500X0.450000X-0.262500X0.450000X0*%
%TD*%
%TA.AperFunction,ComponentPad*%
%ADD21RoundRect,0.250000X-0.750000X0.600000X-0.750000X-0.600000X0.750000X-0.600000X0.750000X0.600000X0*%
%TD*%
%TA.AperFunction,ComponentPad*%
%ADD22O,2.000000X1.700000*%
%TD*%
%TA.AperFunction,ViaPad*%
%ADD23C,0.600000*%
%TD*%
%TA.AperFunction,Conductor*%
%ADD24C,0.200000*%
%TD*%
G04 APERTURE END LIST*
D10*
%TO.P,R2,1*%
%TO.N,/VSYS*%
X44000000Y-34000000D03*
%TO.P,R2,2*%
%TO.N,/Q1_GATE*%
X46000000Y-34000000D03*
%TD*%
D11*
%TO.P,H3,1*%
%TO.N,/GND*%
X5000000Y-65000000D03*
D12*
X5000000Y-65000000D03*
%TD*%
D13*
%TO.P,Q1,1*%
%TO.N,/Q1_GATE*%
X49062500Y-29050000D03*
%TO.P,Q1,2*%
%TO.N,/VSYS*%
X49062500Y-30950000D03*
%TO.P,Q1,3*%
%TO.N,/VDFP*%
X50937500Y-30000000D03*
%TD*%
D14*
%TO.P,J7,1*%
%TO.N,/TRIG_OUT*%
X75500000Y-5000000D03*
D15*
%TO.P,J7,2*%
%TO.N,N/C*%
X75500000Y-7500000D03*
%TO.P,J7,3*%
X75500000Y-10000000D03*
%TO.P,J7,4*%
X75500000Y-12500000D03*
%TO.P,J7,5*%
X75500000Y-15000000D03*
%TO.P,J7,6*%
X75500000Y-17500000D03*
%TO.P,J7,7*%
X75500000Y-20000000D03*
%TO.P,J7,8*%
X75500000Y-22500000D03*
%TO.P,J7,9*%
%TO.N,/GND*%
X75500000Y-25000000D03*
%TD*%
D14*
%TO.P,J10,1*%
%TO.N,/GND*%
X65000000Y-50000000D03*
D15*
%TO.P,J10,2*%
%TO.N,/BUSY_IN*%
X67540000Y-50000000D03*
%TO.P,J10,3*%
%TO.N,/V33*%
X70080000Y-50000000D03*
%TD*%
D13*
%TO.P,Q4,1*%
%TO.N,/Q4_BASE*%
X41062500Y-29050000D03*
%TO.P,Q4,2*%
%TO.N,/GND*%
X41062500Y-30950000D03*
%TO.P,Q4,3*%
%TO.N,/Q1_GATE*%
X42937500Y-30000000D03*
%TD*%
D16*
%TO.P,C4,1*%
%TO.N,/VDFP*%
X50000000Y-40000000D03*
D17*
%TO.P,C4,2*%
%TO.N,/GND*%
X52500000Y-40000000D03*
%TD*%
D13*
%TO.P,Q3,1*%
%TO.N,/GND*%
X14062500Y-54050000D03*
%TO.P,Q3,2*%
%TO.N,/VSYS*%
X14062500Y-55950000D03*
%TO.P,Q3,3*%
%TO.N,/VBATT*%
X15937500Y-55000000D03*
%TD*%
D14*
%TO.P,J4,1*%
%TO.N,N/C*%
X15000000Y-8000000D03*
D15*
%TO.P,J4,2*%
X15000000Y-10540000D03*
%TO.P,J4,3*%
X15000000Y-13080000D03*
%TO.P,J4,4*%
%TO.N,/GND*%
X15000000Y-15620000D03*
%TO.P,J4,5*%
%TO.N,/BTN_IN*%
X15000000Y-18160000D03*
%TO.P,J4,6*%
%TO.N,N/C*%
X15000000Y-20700000D03*
%TO.P,J4,7*%
X15000000Y-23240000D03*
%TO.P,J4,8*%
%TO.N,/GATE_CTRL*%
X15000000Y-25780000D03*
%TO.P,J4,9*%
%TO.N,/TRIG_OUT*%
X15000000Y-28320000D03*
%TO.P,J4,10*%
%TO.N,/BUSY_IN*%
X15000000Y-30860000D03*
%TO.P,J4,11*%
%TO.N,N/C*%
X15000000Y-33400000D03*
%TO.P,J4,12*%
X15000000Y-35940000D03*
%TD*%
D18*
%TO.P,C5,1*%
%TO.N,/VDFP*%
X55962500Y-33000000D03*
%TO.P,C5,2*%
%TO.N,/GND*%
X58037500Y-33000000D03*
%TD*%
%TO.P,C2,1*%
%TO.N,/VSYS*%
X18962500Y-43000000D03*
%TO.P,C2,2*%
%TO.N,/GND*%
X21037500Y-43000000D03*
%TD*%
D19*
%TO.P,TP1,1*%
%TO.N,/V33*%
X44000000Y-44000000D03*
%TD*%
D20*
%TO.P,R3,1*%
%TO.N,/BUSY_IN*%
X61087500Y-41000000D03*
%TO.P,R3,2*%
%TO.N,/GND*%
X62912500Y-41000000D03*
%TD*%
D11*
%TO.P,H4,1*%
%TO.N,/GND*%
X85000000Y-65000000D03*
D12*
X85000000Y-65000000D03*
%TD*%
D11*
%TO.P,H1,1*%
%TO.N,/GND*%
X5000000Y-5000000D03*
D12*
X5000000Y-5000000D03*
%TD*%
D14*
%TO.P,J8,1*%
%TO.N,/GND*%
X45000000Y-50000000D03*
D15*
%TO.P,J8,2*%
%TO.N,/CON1*%
X47540000Y-50000000D03*
%TO.P,J8,3*%
%TO.N,/V33*%
X50080000Y-50000000D03*
%TD*%
D14*
%TO.P,J5,1*%
%TO.N,/VSYS*%
X30240000Y-8000000D03*
D15*
%TO.P,J5,2*%
%TO.N,/GND*%
X30240000Y-10540000D03*
%TO.P,J5,3*%
%TO.N,N/C*%
X30240000Y-13080000D03*
%TO.P,J5,4*%
X30240000Y-15620000D03*
%TO.P,J5,5*%
X30240000Y-18160000D03*
%TO.P,J5,6*%
X30240000Y-20700000D03*
%TO.P,J5,7*%
X30240000Y-23240000D03*
%TO.P,J5,8*%
X30240000Y-25780000D03*
%TO.P,J5,9*%
X30240000Y-28320000D03*
%TO.P,J5,10*%
X30240000Y-30860000D03*
%TO.P,J5,11*%
X30240000Y-33400000D03*
%TO.P,J5,12*%
X30240000Y-35940000D03*
%TD*%
D14*
%TO.P,J6,1*%
%TO.N,/SPK_P*%
X55000000Y-5000000D03*
D15*
%TO.P,J6,2*%
%TO.N,/SPK_N*%
X55000000Y-7500000D03*
%TO.P,J6,3*%
%TO.N,N/C*%
X55000000Y-10000000D03*
%TO.P,J6,4*%
X55000000Y-12500000D03*
%TO.P,J6,5*%
%TO.N,/V33*%
X55000000Y-15000000D03*
%TO.P,J6,6*%
%TO.N,/VDFP*%
X55000000Y-17500000D03*
%TO.P,J6,7*%
%TO.N,/BUSY_IN*%
X55000000Y-20000000D03*
%TO.P,J6,8*%
%TO.N,/CON2*%
X55000000Y-22500000D03*
%TO.P,J6,9*%
%TO.N,/CON1*%
X55000000Y-25000000D03*
%TD*%
D18*
%TO.P,C3,1*%
%TO.N,/VSYS*%
X22962500Y-43000000D03*
%TO.P,C3,2*%
%TO.N,/GND*%
X25037500Y-43000000D03*
%TD*%
D16*
%TO.P,C1,1*%
%TO.N,/VSYS*%
X29329063Y-48400000D03*
X30000000Y-50000000D03*
D17*
%TO.P,C1,2*%
%TO.N,/GND*%
X32500000Y-50000000D03*
X33170937Y-51600000D03*
%TD*%
D21*
%TO.P,J1,1*%
%TO.N,/VBATT*%
X14000000Y-63000000D03*
D22*
%TO.P,J1,2*%
%TO.N,/GND*%
X14000000Y-65500000D03*
%TD*%
D21*
%TO.P,J3,1*%
%TO.N,/SPK_P*%
X74000000Y-63000000D03*
D22*
%TO.P,J3,2*%
%TO.N,/SPK_N*%
X74000000Y-65500000D03*
%TD*%
D11*
%TO.P,H2,1*%
%TO.N,/GND*%
X85000000Y-5000000D03*
D12*
X85000000Y-5000000D03*
%TD*%
D18*
%TO.P,C6,1*%
%TO.N,/VDFP*%
X60962500Y-33000000D03*
%TO.P,C6,2*%
%TO.N,/GND*%
X63037500Y-33000000D03*
%TD*%
D14*
%TO.P,J9,1*%
%TO.N,/GND*%
X55000000Y-50000000D03*
D15*
%TO.P,J9,2*%
%TO.N,/CON2*%
X57540000Y-50000000D03*
%TO.P,J9,3*%
%TO.N,/V33*%
X60080000Y-50000000D03*
%TD*%
D21*
%TO.P,J2,1*%
%TO.N,/BTN_IN*%
X28000000Y-63000000D03*
D22*
%TO.P,J2,2*%
%TO.N,/GND*%
X28000000Y-65500000D03*
%TD*%
D10*
%TO.P,R1,1*%
%TO.N,/GATE_CTRL*%
X37000000Y-34000000D03*
%TO.P,R1,2*%
%TO.N,/Q4_BASE*%
X39000000Y-34000000D03*
%TD*%
D23*
%TO.N,/GND*%
X39558000Y-31458300D03*
%TD*%
%TO.N,/VSYS*%
D24*
X49062500Y-30950000D02*
X47050000Y-30950000D01*
X18962500Y-43000000D02*
X19940200Y-43977700D01*
X14062500Y-55565600D02*
X19628100Y-50000000D01*
X14062500Y-55950000D02*
X14062500Y-55565600D01*
X29329100Y-48400000D02*
X28362500Y-48400000D01*
X20994300Y-40968200D02*
X18962500Y-43000000D01*
X44000000Y-34000000D02*
X37031800Y-40968200D01*
X37031800Y-40968200D02*
X20994300Y-40968200D01*
X19940200Y-43977700D02*
X21984800Y-43977700D01*
X28362500Y-48400000D02*
X22962500Y-43000000D01*
X47050000Y-30950000D02*
X44000000Y-34000000D01*
X19628100Y-50000000D02*
X30000000Y-50000000D01*
X21984800Y-43977700D02*
X22962500Y-43000000D01*
%TO.N,/Q1_GATE*%
X49062500Y-29562400D02*
X50068900Y-30568800D01*
X49062500Y-29050000D02*
X43887500Y-29050000D01*
X49062500Y-29050000D02*
X49062500Y-29562400D01*
X47384000Y-34000000D02*
X46000000Y-34000000D01*
X50068900Y-30568800D02*
X50068900Y-31315100D01*
X43887500Y-29050000D02*
X42937500Y-30000000D01*
X50068900Y-31315100D02*
X47384000Y-34000000D01*
%TO.N,/GND*%
X71037500Y-25000000D02*
X63037500Y-33000000D01*
X25037500Y-43000000D02*
X24057800Y-42020300D01*
X25037500Y-43000000D02*
X25813900Y-43000000D01*
X59015200Y-33977700D02*
X58037500Y-33000000D01*
X61912500Y-40000000D02*
X61260900Y-40000000D01*
X45000000Y-50000000D02*
X46101700Y-50000000D01*
X15310000Y-15310000D02*
X15000000Y-15620000D01*
X12741000Y-55371500D02*
X12741000Y-63827900D01*
X14062500Y-54050000D02*
X12741000Y-55371500D01*
X57065600Y-48898300D02*
X56101700Y-49862200D01*
X12741000Y-63827900D02*
X13311400Y-64398300D01*
X61260900Y-33977700D02*
X61260900Y-40000000D01*
X25813900Y-43000000D02*
X32500000Y-49686100D01*
X33170900Y-51600000D02*
X42298300Y-51600000D01*
X75500000Y-25000000D02*
X71037500Y-25000000D01*
X63898300Y-50000000D02*
X62796600Y-48898300D01*
X52796600Y-48898300D02*
X47065600Y-48898300D01*
X28000000Y-65500000D02*
X14000000Y-65500000D01*
X47065600Y-48898300D02*
X46101700Y-49862200D01*
X63037500Y-33000000D02*
X62059800Y-33977700D01*
X22017200Y-42020300D02*
X21037500Y-43000000D01*
X61260900Y-33977700D02*
X59015200Y-33977700D01*
X5500000Y-65500000D02*
X5000000Y-65000000D01*
X55000000Y-50000000D02*
X56101700Y-50000000D01*
X15310000Y-15310000D02*
X5000000Y-5000000D01*
X62912500Y-41000000D02*
X61912500Y-40000000D01*
X53898300Y-50000000D02*
X52796600Y-48898300D01*
X13311400Y-64398300D02*
X14000000Y-64398300D01*
X46101700Y-49862200D02*
X46101700Y-50000000D01*
X41062500Y-30950000D02*
X40554200Y-31458300D01*
X45000000Y-50000000D02*
X43898300Y-50000000D01*
X62796600Y-48898300D02*
X57065600Y-48898300D01*
X62059800Y-33977700D02*
X61260900Y-33977700D01*
X14000000Y-65500000D02*
X5500000Y-65500000D01*
X40554200Y-31458300D02*
X39558000Y-31458300D01*
X30240000Y-10540000D02*
X20080000Y-10540000D01*
X24057800Y-42020300D02*
X22017200Y-42020300D01*
X20080000Y-10540000D02*
X15310000Y-15310000D01*
X65000000Y-50000000D02*
X63898300Y-50000000D01*
X55000000Y-50000000D02*
X53898300Y-50000000D01*
X14000000Y-65500000D02*
X14000000Y-64398300D01*
X32500000Y-49686100D02*
X32500000Y-50000000D01*
X56101700Y-49862200D02*
X56101700Y-50000000D01*
X61260900Y-40000000D02*
X52500000Y-40000000D01*
X42298300Y-51600000D02*
X43898300Y-50000000D01*
%TO.N,/VDFP*%
X59933200Y-31970700D02*
X55962500Y-31970700D01*
X55962500Y-31970700D02*
X52908200Y-31970700D01*
X55962500Y-31970700D02*
X55962500Y-33000000D01*
X52908200Y-31970700D02*
X50937500Y-30000000D01*
X50000000Y-40000000D02*
X50000000Y-38962500D01*
X50000000Y-38962500D02*
X55962500Y-33000000D01*
X60962500Y-33000000D02*
X59933200Y-31970700D01*
%TO.N,/TRIG_OUT*%
X73296600Y-6101700D02*
X74398300Y-5000000D01*
X21350000Y-21970000D02*
X31994900Y-21970000D01*
X47863200Y-6101700D02*
X73296600Y-6101700D01*
X75500000Y-5000000D02*
X74398300Y-5000000D01*
X15000000Y-28320000D02*
X21350000Y-21970000D01*
X31994900Y-21970000D02*
X47863200Y-6101700D01*
%TO.N,/BUSY_IN*%
X61087500Y-43547500D02*
X67540000Y-50000000D01*
X61087500Y-41000000D02*
X61087500Y-43547500D01*
X15000000Y-30860000D02*
X18810000Y-27050000D01*
X47950000Y-27050000D02*
X55000000Y-20000000D01*
X18810000Y-27050000D02*
X47950000Y-27050000D01*
%TO.N,/V33*%
X58913800Y-51166200D02*
X60080000Y-50000000D01*
X51246200Y-51166200D02*
X58913800Y-51166200D01*
X60080000Y-50000000D02*
X61182100Y-51102100D01*
X61182100Y-51102100D02*
X68977900Y-51102100D01*
X50080000Y-50000000D02*
X51246200Y-51166200D01*
X68977900Y-51102100D02*
X70080000Y-50000000D01*
%TO.N,/Q4_BASE*%
X39000000Y-31112500D02*
X39000000Y-34000000D01*
X41062500Y-29050000D02*
X39000000Y-31112500D01*
%TO.N,/VBATT*%
X14000000Y-63000000D02*
X15937500Y-61062500D01*
X15937500Y-61062500D02*
X15937500Y-55000000D01*
%TO.N,/GATE_CTRL*%
X13858100Y-31307700D02*
X14680400Y-32130000D01*
X13858100Y-26921900D02*
X13858100Y-31307700D01*
X15000000Y-25780000D02*
X13858100Y-26921900D01*
X14680400Y-32130000D02*
X35130000Y-32130000D01*
X35130000Y-32130000D02*
X37000000Y-34000000D01*
%TD*%
%TA.AperFunction,Conductor*%
%TO.N,/GND*%
G36*
X66305203Y-49261331D02*
G01*
X66311681Y-49267363D01*
X66491347Y-49447029D01*
X66524832Y-49508352D01*
X66521597Y-49573028D01*
X66466597Y-49742301D01*
X66464682Y-49754394D01*
X66439500Y-49913389D01*
X66439500Y-50086611D01*
X66445493Y-50124448D01*
X66466597Y-50257697D01*
X66466597Y-50257699D01*
X66466598Y-50257701D01*
X66512866Y-50400099D01*
X66520129Y-50422450D01*
X66595974Y-50571306D01*
X66608870Y-50639975D01*
X66582593Y-50704715D01*
X66525487Y-50744972D01*
X66485489Y-50751600D01*
X66224000Y-50751600D01*
X66156961Y-50731915D01*
X66111206Y-50679111D01*
X66100000Y-50627600D01*
X66100000Y-50200000D01*
X65461880Y-50200000D01*
X65465925Y-50192993D01*
X65500000Y-50065826D01*
X65500000Y-49934174D01*
X65465925Y-49807007D01*
X65461880Y-49800000D01*
X66100000Y-49800000D01*
X66100000Y-49355044D01*
X66119685Y-49288005D01*
X66172489Y-49242250D01*
X66241647Y-49232306D01*
X66305203Y-49261331D01*
G37*
%TD.AperFunction*%
%TA.AperFunction,Conductor*%
G36*
X87003736Y-500726D02*
G01*
X87293796Y-518271D01*
X87308659Y-520076D01*
X87590797Y-571780D01*
X87605334Y-575363D01*
X87879182Y-660698D01*
X87893163Y-666000D01*
X88154734Y-783724D01*
X88167987Y-790680D01*
X88413458Y-939071D01*
X88425776Y-947573D01*
X88651573Y-1124474D01*
X88662781Y-1134404D01*
X88865595Y-1337218D01*
X88875525Y-1348426D01*
X89052422Y-1574217D01*
X89060928Y-1586541D01*
X89209319Y-1832012D01*
X89216277Y-1845269D01*
X89333994Y-2106823D01*
X89339304Y-2120825D01*
X89424635Y-2394664D01*
X89428219Y-2409202D01*
X89479923Y-2691340D01*
X89481728Y-2706205D01*
X89499274Y-2996263D01*
X89499500Y-3003750D01*
X89499500Y-66996249D01*
X89499274Y-67003736D01*
X89481728Y-67293794D01*
X89479923Y-67308659D01*
X89428219Y-67590797D01*
X89424635Y-67605335D01*
X89339304Y-67879174D01*
X89333994Y-67893176D01*
X89216277Y-68154730D01*
X89209319Y-68167987D01*
X89060928Y-68413458D01*
X89052422Y-68425782D01*
X88875525Y-68651573D01*
X88865595Y-68662781D01*
X88662781Y-68865595D01*
X88651573Y-68875525D01*
X88425782Y-69052422D01*
X88413458Y-69060928D01*
X88167987Y-69209319D01*
X88154730Y-69216277D01*
X87893176Y-69333994D01*
X87879174Y-69339304D01*
X87605335Y-69424635D01*
X87590797Y-69428219D01*
X87308659Y-69479923D01*
X87293794Y-69481728D01*
X87003736Y-69499274D01*
X86996249Y-69499500D01*
X3003751Y-69499500D01*
X2996264Y-69499274D01*
X2706205Y-69481728D01*
X2691340Y-69479923D01*
X2409202Y-69428219D01*
X2394664Y-69424635D01*
X2120825Y-69339304D01*
X2106827Y-69333995D01*
X1954096Y-69265256D01*
X1845269Y-69216277D01*
X1832012Y-69209319D01*
X1586541Y-69060928D01*
X1574217Y-69052422D01*
X1348426Y-68875525D01*
X1337218Y-68865595D01*
X1134404Y-68662781D01*
X1124474Y-68651573D01*
X947573Y-68425776D01*
X939071Y-68413458D01*
X790680Y-68167987D01*
X783722Y-68154730D01*
X666000Y-67893163D01*
X660698Y-67879182D01*
X575363Y-67605334D01*
X571780Y-67590797D01*
X520076Y-67308659D01*
X518271Y-67293794D01*
X500726Y-67003736D01*
X500500Y-66996249D01*
X500500Y-65299999D01*
X12767965Y-65299999D01*
X12767965Y-65300000D01*
X13538120Y-65300000D01*
X13534075Y-65307007D01*
X13500000Y-65434174D01*
X13500000Y-65565826D01*
X13534075Y-65692993D01*
X13538120Y-65700000D01*
X12767965Y-65700000D01*
X12777085Y-65757580D01*
X12830591Y-65922255D01*
X12909195Y-66076524D01*
X13010967Y-66216602D01*
X13133397Y-66339032D01*
X13273475Y-66440804D01*
X13427742Y-66519408D01*
X13592415Y-66572914D01*
X13763429Y-66600000D01*
X13800000Y-66600000D01*
X13800000Y-65961879D01*
X13807007Y-65965925D01*
X13934174Y-66000000D01*
X14065826Y-66000000D01*
X14192993Y-65965925D01*
X14200000Y-65961879D01*
X14200000Y-66600000D01*
X14236571Y-66600000D01*
X14407584Y-66572914D01*
X14572257Y-66519408D01*
X14726524Y-66440804D01*
X14866602Y-66339032D01*
X14989032Y-66216602D01*
X15090804Y-66076524D01*
X15169408Y-65922255D01*
X15222914Y-65757580D01*
X15232034Y-65700000D01*
X14461880Y-65700000D01*
X14465925Y-65692993D01*
X14500000Y-65565826D01*
X14500000Y-65434174D01*
X14465925Y-65307007D01*
X14461880Y-65300000D01*
X15232035Y-65300000D01*
X15232034Y-65299999D01*
X26767965Y-65299999D01*
X26767965Y-65300000D01*
X27538120Y-65300000D01*
X27534075Y-65307007D01*
X27500000Y-65434174D01*
X27500000Y-65565826D01*
X27534075Y-65692993D01*
X27538120Y-65700000D01*
X26767965Y-65700000D01*
X26777085Y-65757580D01*
X26830591Y-65922255D01*
X26909195Y-66076524D01*
X27010967Y-66216602D01*
X27133397Y-66339032D01*
X27273475Y-66440804D01*
X27427742Y-66519408D01*
X27592415Y-66572914D01*
X27763429Y-66600000D01*
X27800000Y-66600000D01*
X27800000Y-65961879D01*
X27807007Y-65965925D01*
X27934174Y-66000000D01*
X28065826Y-66000000D01*
X28192993Y-65965925D01*
X28200000Y-65961879D01*
X28200000Y-66600000D01*
X28236571Y-66600000D01*
X28407584Y-66572914D01*
X28572257Y-66519408D01*
X28726524Y-66440804D01*
X28866602Y-66339032D01*
X28989032Y-66216602D01*
X29090804Y-66076524D01*
X29169408Y-65922255D01*
X29222914Y-65757580D01*
X29232034Y-65700000D01*
X28461880Y-65700000D01*
X28465925Y-65692993D01*
X28500000Y-65565826D01*
X28500000Y-65434174D01*
X28494431Y-65413389D01*
X72749500Y-65413389D01*
X72749500Y-65586610D01*
X72776578Y-65757580D01*
X72776598Y-65757701D01*
X72830127Y-65922445D01*
X72908768Y-66076788D01*
X73010586Y-66216928D01*
X73133072Y-66339414D01*
X73273212Y-66441232D01*
X73427555Y-66519873D01*
X73592299Y-66573402D01*
X73763389Y-66600500D01*
X73763390Y-66600500D01*
X74236610Y-66600500D01*
X74236611Y-66600500D01*
X74407701Y-66573402D01*
X74572445Y-66519873D01*
X74726788Y-66441232D01*
X74866928Y-66339414D01*
X74989414Y-66216928D01*
X75091232Y-66076788D01*
X75169873Y-65922445D01*
X75223402Y-65757701D01*
X75250500Y-65586611D01*
X75250500Y-65413389D01*
X75223402Y-65242299D01*
X75169873Y-65077555D01*
X75091232Y-64923212D01*
X74989414Y-64783072D01*
X74866928Y-64660586D01*
X74726788Y-64558768D01*
X74572445Y-64480127D01*
X74407701Y-64426598D01*
X74407699Y-64426597D01*
X74407698Y-64426597D01*
X74276271Y-64405781D01*
X74236611Y-64399500D01*
X73763389Y-64399500D01*
X73723728Y-64405781D01*
X73592302Y-64426597D01*
X73427552Y-64480128D01*
X73273211Y-64558768D01*
X73193256Y-64616859D01*
X73133072Y-64660586D01*
X73133070Y-64660588D01*
X73133069Y-64660588D01*
X73010588Y-64783069D01*
X73010588Y-64783070D01*
X73010586Y-64783072D01*
X73010350Y-64783397D01*
X72908768Y-64923211D01*
X72830128Y-65077552D01*
X72776597Y-65242302D01*
X72749500Y-65413389D01*
X28494431Y-65413389D01*
X28465925Y-65307007D01*
X28461880Y-65300000D01*
X29232035Y-65300000D01*
X29232034Y-65299999D01*
X29222914Y-65242419D01*
X29169408Y-65077744D01*
X29090804Y-64923475D01*
X28989032Y-64783397D01*
X28866602Y-64660967D01*
X28726524Y-64559195D01*
X28572257Y-64480591D01*
X28407584Y-64427085D01*
X28236571Y-64400000D01*
X28200000Y-64400000D01*
X28200000Y-65038120D01*
X28192993Y-65034075D01*
X28065826Y-65000000D01*
X27934174Y-65000000D01*
X27807007Y-65034075D01*
X27800000Y-65038120D01*
X27800000Y-64400000D01*
X27763429Y-64400000D01*
X27592415Y-64427085D01*
X27427742Y-64480591D01*
X27273475Y-64559195D01*
X27133397Y-64660967D01*
X27010967Y-64783397D01*
X26909195Y-64923475D01*
X26830591Y-65077744D01*
X26777085Y-65242419D01*
X26767965Y-65299999D01*
X15232034Y-65299999D01*
X15222914Y-65242419D01*
X15169408Y-65077744D01*
X15090804Y-64923475D01*
X14989032Y-64783397D01*
X14866602Y-64660967D01*
X14726524Y-64559195D01*
X14572257Y-64480591D01*
X14407584Y-64427085D01*
X14236571Y-64400000D01*
X14200000Y-64400000D01*
X14200000Y-65038120D01*
X14192993Y-65034075D01*
X14065826Y-65000000D01*
X13934174Y-65000000D01*
X13807007Y-65034075D01*
X13800000Y-65038120D01*
X13800000Y-64400000D01*
X13763429Y-64400000D01*
X13592415Y-64427085D01*
X13427742Y-64480591D01*
X13273475Y-64559195D01*
X13133397Y-64660967D01*
X13010967Y-64783397D01*
X12909195Y-64923475D01*
X12830591Y-65077744D01*
X12777085Y-65242419D01*
X12767965Y-65299999D01*
X500500Y-65299999D01*
X500500Y-62352135D01*
X12749500Y-62352135D01*
X12749500Y-63647870D01*
X12749501Y-63647876D01*
X12755908Y-63707483D01*
X12806202Y-63842328D01*
X12806206Y-63842335D01*
X12892452Y-63957544D01*
X12892455Y-63957547D01*
X13007664Y-64043793D01*
X13007671Y-64043797D01*
X13142517Y-64094091D01*
X13142516Y-64094091D01*
X13149444Y-64094835D01*
X13202127Y-64100500D01*
X14797872Y-64100499D01*
X14857483Y-64094091D01*
X14992331Y-64043796D01*
X15107546Y-63957546D01*
X15193796Y-63842331D01*
X15244091Y-63707483D01*
X15250500Y-63647873D01*
X15250499Y-62352135D01*
X26749500Y-62352135D01*
X26749500Y-63647870D01*
X26749501Y-63647876D01*
X26755908Y-63707483D01*
X26806202Y-63842328D01*
X26806206Y-63842335D01*
X26892452Y-63957544D01*
X26892455Y-63957547D01*
X27007664Y-64043793D01*
X27007671Y-64043797D01*
X27142517Y-64094091D01*
X27142516Y-64094091D01*
X27149444Y-64094835D01*
X27202127Y-64100500D01*
X28797872Y-64100499D01*
X28857483Y-64094091D01*
X28992331Y-64043796D01*
X29107546Y-63957546D01*
X29193796Y-63842331D01*
X29244091Y-63707483D01*
X29250500Y-63647873D01*
X29250499Y-62352135D01*
X72749500Y-62352135D01*
X72749500Y-63647870D01*
X72749501Y-63647876D01*
X72755908Y-63707483D01*
X72806202Y-63842328D01*
X72806206Y-63842335D01*
X72892452Y-63957544D01*
X72892455Y-63957547D01*
X73007664Y-64043793D01*
X73007671Y-64043797D01*
X73142517Y-64094091D01*
X73142516Y-64094091D01*
X73149444Y-64094835D01*
X73202127Y-64100500D01*
X74797872Y-64100499D01*
X74857483Y-64094091D01*
X74992331Y-64043796D01*
X75107546Y-63957546D01*
X75193796Y-63842331D01*
X75244091Y-63707483D01*
X75250500Y-63647873D01*
X75250499Y-62352128D01*
X75244091Y-62292517D01*
X75214661Y-62213612D01*
X75193797Y-62157671D01*
X75193793Y-62157664D01*
X75107547Y-62042455D01*
X75107544Y-62042452D01*
X74992335Y-61956206D01*
X74992328Y-61956202D01*
X74857482Y-61905908D01*
X74857483Y-61905908D01*
X74797883Y-61899501D01*
X74797881Y-61899500D01*
X74797873Y-61899500D01*
X74797864Y-61899500D01*
X73202129Y-61899500D01*
X73202123Y-61899501D01*
X73142516Y-61905908D01*
X73007671Y-61956202D01*
X73007664Y-61956206D01*
X72892455Y-62042452D01*
X72892452Y-62042455D01*
X72806206Y-62157664D01*
X72806202Y-62157671D01*
X72755908Y-62292517D01*
X72753540Y-62314547D01*
X72749501Y-62352125D01*
X72749500Y-62352135D01*
X29250499Y-62352135D01*
X29250499Y-62352128D01*
X29244091Y-62292517D01*
X29214661Y-62213612D01*
X29193797Y-62157671D01*
X29193793Y-62157664D01*
X29107547Y-62042455D01*
X29107544Y-62042452D01*
X28992335Y-61956206D01*
X28992328Y-61956202D01*
X28857482Y-61905908D01*
X28857483Y-61905908D01*
X28797883Y-61899501D01*
X28797881Y-61899500D01*
X28797873Y-61899500D01*
X28797864Y-61899500D01*
X27202129Y-61899500D01*
X27202123Y-61899501D01*
X27142516Y-61905908D01*
X27007671Y-61956202D01*
X27007664Y-61956206D01*
X26892455Y-62042452D01*
X26892452Y-62042455D01*
X26806206Y-62157664D01*
X26806202Y-62157671D01*
X26755908Y-62292517D01*
X26753540Y-62314547D01*
X26749501Y-62352125D01*
X26749500Y-62352135D01*
X15250499Y-62352135D01*
X15250499Y-62352128D01*
X15246459Y-62314546D01*
X15258866Y-62245787D01*
X15282065Y-62213615D01*
X16217970Y-61277712D01*
X16264114Y-61197788D01*
X16288000Y-61108644D01*
X16288000Y-61016356D01*
X16288000Y-55674499D01*
X16307685Y-55607460D01*
X16360489Y-55561705D01*
X16412000Y-55550499D01*
X16556517Y-55550499D01*
X16556518Y-55550499D01*
X16650304Y-55535646D01*
X16763342Y-55478050D01*
X16853050Y-55388342D01*
X16910646Y-55275304D01*
X16910646Y-55275302D01*
X16910647Y-55275301D01*
X16925499Y-55181524D01*
X16925500Y-55181519D01*
X16925499Y-54818482D01*
X16910646Y-54724696D01*
X16853050Y-54611658D01*
X16853046Y-54611654D01*
X16853045Y-54611652D01*
X16763347Y-54521954D01*
X16763344Y-54521952D01*
X16763342Y-54521950D01*
X16686517Y-54482805D01*
X16650301Y-54464352D01*
X16556524Y-54449500D01*
X16556519Y-54449500D01*
X15973643Y-54449500D01*
X15906604Y-54429815D01*
X15860849Y-54377011D01*
X15850905Y-54307853D01*
X15879930Y-54244297D01*
X15885962Y-54237819D01*
X17653483Y-52470298D01*
X19736963Y-50386819D01*
X19798286Y-50353334D01*
X19824644Y-50350500D01*
X28825501Y-50350500D01*
X28892540Y-50370185D01*
X28938295Y-50422989D01*
X28949501Y-50474500D01*
X28949501Y-50597876D01*
X28955908Y-50657483D01*
X29006202Y-50792328D01*
X29006206Y-50792335D01*
X29092452Y-50907544D01*
X29092455Y-50907547D01*
X29207664Y-50993793D01*
X29207671Y-50993797D01*
X29342517Y-51044091D01*
X29342516Y-51044091D01*
X29349444Y-51044835D01*
X29402127Y-51050500D01*
X30597872Y-51050499D01*
X30657483Y-51044091D01*
X30792331Y-50993796D01*
X30907546Y-50907546D01*
X30993796Y-50792331D01*
X31044091Y-50657483D01*
X31050500Y-50597873D01*
X31050499Y-49896579D01*
X31450000Y-49896579D01*
X31450000Y-50103420D01*
X31490348Y-50306266D01*
X31490350Y-50306274D01*
X31569500Y-50497358D01*
X31569505Y-50497367D01*
X31629701Y-50587455D01*
X32113629Y-50103528D01*
X32127259Y-50154394D01*
X32179920Y-50245606D01*
X32254394Y-50320080D01*
X32345606Y-50372741D01*
X32396471Y-50386370D01*
X31912542Y-50870298D01*
X32002640Y-50930499D01*
X32151913Y-50992330D01*
X32206316Y-51036171D01*
X32228381Y-51102465D01*
X32219021Y-51154344D01*
X32161287Y-51293725D01*
X32161285Y-51293733D01*
X32120937Y-51496579D01*
X32120937Y-51703420D01*
X32161285Y-51906266D01*
X32161287Y-51906274D01*
X32240437Y-52097358D01*
X32240442Y-52097367D01*
X32300638Y-52187455D01*
X32784566Y-51703527D01*
X32798196Y-51754394D01*
X32850857Y-51845606D01*
X32925331Y-51920080D01*
X33016543Y-51972741D01*
X33067408Y-51986370D01*
X32583479Y-52470298D01*
X32673577Y-52530499D01*
X32864662Y-52609649D01*
X32864670Y-52609651D01*
X33067516Y-52649999D01*
X33067520Y-52650000D01*
X33274354Y-52650000D01*
X33274357Y-52649999D01*
X33477203Y-52609651D01*
X33477211Y-52609649D01*
X33668296Y-52530499D01*
X33758393Y-52470298D01*
X33274465Y-51986370D01*
X33325331Y-51972741D01*
X33416543Y-51920080D01*
X33491017Y-51845606D01*
X33543678Y-51754394D01*
X33557307Y-51703528D01*
X34041235Y-52187456D01*
X34101436Y-52097359D01*
X34180586Y-51906274D01*
X34180588Y-51906266D01*
X34220936Y-51703420D01*
X34220937Y-51703417D01*
X34220937Y-51496583D01*
X34220936Y-51496579D01*
X34180588Y-51293733D01*
X34180586Y-51293725D01*
X34101436Y-51102640D01*
X34041235Y-51012542D01*
X33557307Y-51496470D01*
X33543678Y-51445606D01*
X33491017Y-51354394D01*
X33416543Y-51279920D01*
X33325331Y-51227259D01*
X33274464Y-51213629D01*
X33758392Y-50729701D01*
X33758392Y-50729700D01*
X33668304Y-50669505D01*
X33668295Y-50669500D01*
X33519023Y-50607669D01*
X33464620Y-50563828D01*
X33442555Y-50497533D01*
X33451915Y-50445654D01*
X33509649Y-50306272D01*
X33545816Y-50124448D01*
X33545816Y-50124446D01*
X33549999Y-50103417D01*
X33550000Y-50103417D01*
X33550000Y-49896583D01*
X33549999Y-49896579D01*
X33509651Y-49693733D01*
X33509649Y-49693725D01*
X33430499Y-49502640D01*
X33370298Y-49412542D01*
X32886370Y-49896471D01*
X32872741Y-49845606D01*
X32820080Y-49754394D01*
X32745606Y-49679920D01*
X32654394Y-49627259D01*
X32603528Y-49613629D01*
X33087455Y-49129701D01*
X33080975Y-49125371D01*
X43900000Y-49125371D01*
X43900000Y-49800000D01*
X44538120Y-49800000D01*
X44534075Y-49807007D01*
X44500000Y-49934174D01*
X44500000Y-50065826D01*
X44534075Y-50192993D01*
X44538120Y-50200000D01*
X43900000Y-50200000D01*
X43900000Y-50874628D01*
X43914503Y-50947540D01*
X43914505Y-50947544D01*
X43969760Y-51030239D01*
X44052455Y-51085494D01*
X44052459Y-51085496D01*
X44125371Y-51099999D01*
X44125374Y-51100000D01*
X44800000Y-51100000D01*
X44800000Y-50461879D01*
X44807007Y-50465925D01*
X44934174Y-50500000D01*
X45065826Y-50500000D01*
X45192993Y-50465925D01*
X45200000Y-50461879D01*
X45200000Y-51100000D01*
X45874626Y-51100000D01*
X45874628Y-51099999D01*
X45947540Y-51085496D01*
X45947544Y-51085494D01*
X46030239Y-51030239D01*
X46085494Y-50947544D01*
X46085496Y-50947540D01*
X46099999Y-50874628D01*
X46100000Y-50874626D01*
X46100000Y-50200000D01*
X45461880Y-50200000D01*
X45465925Y-50192993D01*
X45500000Y-50065826D01*
X45500000Y-49934174D01*
X45494431Y-49913389D01*
X46439500Y-49913389D01*
X46439500Y-50086611D01*
X46445493Y-50124448D01*
X46466597Y-50257697D01*
X46466597Y-50257699D01*
X46466598Y-50257701D01*
X46520127Y-50422445D01*
X46598768Y-50576788D01*
X46700586Y-50716928D01*
X46823072Y-50839414D01*
X46963212Y-50941232D01*
X47117555Y-51019873D01*
X47282299Y-51073402D01*
X47453389Y-51100500D01*
X47453390Y-51100500D01*
X47626610Y-51100500D01*
X47626611Y-51100500D01*
X47797701Y-51073402D01*
X47962445Y-51019873D01*
X48116788Y-50941232D01*
X48256928Y-50839414D01*
X48379414Y-50716928D01*
X48481232Y-50576788D01*
X48559873Y-50422445D01*
X48613402Y-50257701D01*
X48640500Y-50086611D01*
X48640500Y-49913389D01*
X48979500Y-49913389D01*
X48979500Y-50086611D01*
X48985493Y-50124448D01*
X49006597Y-50257697D01*
X49006597Y-50257699D01*
X49006598Y-50257701D01*
X49060127Y-50422445D01*
X49138768Y-50576788D01*
X49240586Y-50716928D01*
X49363072Y-50839414D01*
X49503212Y-50941232D01*
X49657555Y-51019873D01*
X49822299Y-51073402D01*
X49993389Y-51100500D01*
X49993390Y-51100500D01*
X50166610Y-51100500D01*
X50166611Y-51100500D01*
X50337701Y-51073402D01*
X50502445Y-51019873D01*
X50502447Y-51019871D01*
X50506971Y-51018402D01*
X50576812Y-51016407D01*
X50632970Y-51048652D01*
X51030988Y-51446670D01*
X51110912Y-51492814D01*
X51200056Y-51516700D01*
X51200058Y-51516700D01*
X58959942Y-51516700D01*
X58959944Y-51516700D01*
X59049088Y-51492814D01*
X59129012Y-51446670D01*
X59527031Y-51048649D01*
X59588352Y-51015166D01*
X59653029Y-51018401D01*
X59657547Y-51019869D01*
X59657555Y-51019873D01*
X59822299Y-51073402D01*
X59993389Y-51100500D01*
X59993390Y-51100500D01*
X60166610Y-51100500D01*
X60166611Y-51100500D01*
X60337701Y-51073402D01*
X60502445Y-51019873D01*
X60502447Y-51019871D01*
X60506971Y-51018402D01*
X60576812Y-51016407D01*
X60632970Y-51048652D01*
X60966888Y-51382570D01*
X61046812Y-51428714D01*
X61135956Y-51452600D01*
X61135958Y-51452600D01*
X69024042Y-51452600D01*
X69024044Y-51452600D01*
X69113188Y-51428714D01*
X69193112Y-51382570D01*
X69527031Y-51048649D01*
X69588352Y-51015166D01*
X69653029Y-51018401D01*
X69657547Y-51019869D01*
X69657555Y-51019873D01*
X69822299Y-51073402D01*
X69993389Y-51100500D01*
X69993390Y-51100500D01*
X70166610Y-51100500D01*
X70166611Y-51100500D01*
X70337701Y-51073402D01*
X70502445Y-51019873D01*
X70656788Y-50941232D01*
X70796928Y-50839414D01*
X70919414Y-50716928D01*
X71021232Y-50576788D01*
X71099873Y-50422445D01*
X71153402Y-50257701D01*
X71180500Y-50086611D01*
X71180500Y-49913389D01*
X71153402Y-49742299D01*
X71099873Y-49577555D01*
X71021232Y-49423212D01*
X70919414Y-49283072D01*
X70796928Y-49160586D01*
X70656788Y-49058768D01*
X70502445Y-48980127D01*
X70337701Y-48926598D01*
X70337699Y-48926597D01*
X70337698Y-48926597D01*
X70206271Y-48905781D01*
X70166611Y-48899500D01*
X69993389Y-48899500D01*
X69953728Y-48905781D01*
X69822302Y-48926597D01*
X69657552Y-48980128D01*
X69503211Y-49058768D01*
X69456850Y-49092452D01*
X69363072Y-49160586D01*
X69363070Y-49160588D01*
X69363069Y-49160588D01*
X69240588Y-49283069D01*
X69240588Y-49283070D01*
X69240586Y-49283072D01*
X69237002Y-49288005D01*
X69138768Y-49423211D01*
X69060128Y-49577552D01*
X69006597Y-49742302D01*
X68979500Y-49913389D01*
X68979500Y-50086610D01*
X69006597Y-50257698D01*
X69061597Y-50426970D01*
X69062031Y-50442181D01*
X69067350Y-50456441D01*
X69063008Y-50476397D01*
X69063592Y-50496811D01*
X69055504Y-50510896D01*
X69052499Y-50524714D01*
X69031347Y-50552969D01*
X68869035Y-50715282D01*
X68807715Y-50748766D01*
X68781356Y-50751600D01*
X68594511Y-50751600D01*
X68527472Y-50731915D01*
X68481717Y-50679111D01*
X68471773Y-50609953D01*
X68484026Y-50571306D01*
X68542551Y-50456441D01*
X68559873Y-50422445D01*
X68613402Y-50257701D01*
X68640500Y-50086611D01*
X68640500Y-49913389D01*
X68613402Y-49742299D01*
X68559873Y-49577555D01*
X68481232Y-49423212D01*
X68379414Y-49283072D01*
X68256928Y-49160586D01*
X68116788Y-49058768D01*
X67962445Y-48980127D01*
X67797701Y-48926598D01*
X67797699Y-48926597D01*
X67797698Y-48926597D01*
X67666271Y-48905781D01*
X67626611Y-48899500D01*
X67453389Y-48899500D01*
X67421192Y-48904599D01*
X67282301Y-48926597D01*
X67113028Y-48981597D01*
X67043186Y-48983592D01*
X66987029Y-48951347D01*
X61474319Y-43438637D01*
X61440834Y-43377314D01*
X61438000Y-43350956D01*
X61438000Y-42037452D01*
X61457685Y-41970413D01*
X61510489Y-41924658D01*
X61518641Y-41921280D01*
X61592331Y-41893796D01*
X61707546Y-41807546D01*
X61793796Y-41692331D01*
X61844091Y-41557483D01*
X61850500Y-41497873D01*
X61850500Y-41497844D01*
X62150000Y-41497844D01*
X62156401Y-41557372D01*
X62156403Y-41557379D01*
X62206645Y-41692086D01*
X62206649Y-41692093D01*
X62292809Y-41807187D01*
X62292812Y-41807190D01*
X62407906Y-41893350D01*
X62407913Y-41893354D01*
X62542620Y-41943596D01*
X62542627Y-41943598D01*
X62602155Y-41949999D01*
X62602172Y-41950000D01*
X62712500Y-41950000D01*
X63112500Y-41950000D01*
X63222828Y-41950000D01*
X63222844Y-41949999D01*
X63282372Y-41943598D01*
X63282379Y-41943596D01*
X63417086Y-41893354D01*
X63417093Y-41893350D01*
X63532187Y-41807190D01*
X63532190Y-41807187D01*
X63618350Y-41692093D01*
X63618354Y-41692086D01*
X63668596Y-41557379D01*
X63668598Y-41557372D01*
X63674999Y-41497844D01*
X63675000Y-41497827D01*
X63675000Y-41200000D01*
X63112500Y-41200000D01*
X63112500Y-41950000D01*
X62712500Y-41950000D01*
X62712500Y-41200000D01*
X62150000Y-41200000D01*
X62150000Y-41497844D01*
X61850500Y-41497844D01*
X61850499Y-40993797D01*
X61850499Y-40502155D01*
X62150000Y-40502155D01*
X62150000Y-40800000D01*
X62712500Y-40800000D01*
X63112500Y-40800000D01*
X63675000Y-40800000D01*
X63675000Y-40502172D01*
X63674999Y-40502155D01*
X63668598Y-40442627D01*
X63668596Y-40442620D01*
X63618354Y-40307913D01*
X63618350Y-40307906D01*
X63532190Y-40192812D01*
X63532187Y-40192809D01*
X63417093Y-40106649D01*
X63417086Y-40106645D01*
X63282379Y-40056403D01*
X63282372Y-40056401D01*
X63222844Y-40050000D01*
X63112500Y-40050000D01*
X63112500Y-40800000D01*
X62712500Y-40800000D01*
X62712500Y-40050000D01*
X62602155Y-40050000D01*
X62542627Y-40056401D01*
X62542620Y-40056403D01*
X62407913Y-40106645D01*
X62407906Y-40106649D01*
X62292812Y-40192809D01*
X62292809Y-40192812D01*
X62206649Y-40307906D01*
X62206645Y-40307913D01*
X62156403Y-40442620D01*
X62156401Y-40442627D01*
X62150000Y-40502155D01*
X61850499Y-40502155D01*
X61850499Y-40502129D01*
X61850498Y-40502123D01*
X61850497Y-40502116D01*
X61844091Y-40442517D01*
X61828233Y-40400000D01*
X61793797Y-40307671D01*
X61793793Y-40307664D01*
X61707547Y-40192455D01*
X61707544Y-40192452D01*
X61592335Y-40106206D01*
X61592328Y-40106202D01*
X61457486Y-40055910D01*
X61457485Y-40055909D01*
X61457483Y-40055909D01*
X61397873Y-40049500D01*
X61397863Y-40049500D01*
X60777129Y-40049500D01*
X60777123Y-40049501D01*
X60717516Y-40055908D01*
X60582671Y-40106202D01*
X60582664Y-40106206D01*
X60467455Y-40192452D01*
X60467452Y-40192455D01*
X60381206Y-40307664D01*
X60381202Y-40307671D01*
X60330908Y-40442517D01*
X60325012Y-40497367D01*
X60324501Y-40502123D01*
X60324500Y-40502135D01*
X60324500Y-41497870D01*
X60324501Y-41497876D01*
X60330908Y-41557483D01*
X60381202Y-41692328D01*
X60381206Y-41692335D01*
X60467452Y-41807544D01*
X60467455Y-41807547D01*
X60582664Y-41893793D01*
X60582669Y-41893796D01*
X60656333Y-41921271D01*
X60712266Y-41963140D01*
X60736684Y-42028604D01*
X60737000Y-42037452D01*
X60737000Y-43593644D01*
X60745992Y-43627200D01*
X60760886Y-43682787D01*
X60760887Y-43682790D01*
X60807027Y-43762708D01*
X60807031Y-43762713D01*
X65732637Y-48688319D01*
X65766122Y-48749642D01*
X65761138Y-48819334D01*
X65719266Y-48875267D01*
X65653802Y-48899684D01*
X65644956Y-48900000D01*
X65200000Y-48900000D01*
X65200000Y-49538120D01*
X65192993Y-49534075D01*
X65065826Y-49500000D01*
X64934174Y-49500000D01*
X64807007Y-49534075D01*
X64800000Y-49538120D01*
X64800000Y-48900000D01*
X64125373Y-48900000D01*
X64052459Y-48914503D01*
X64052455Y-48914505D01*
X63969760Y-48969760D01*
X63914505Y-49052455D01*
X63914503Y-49052459D01*
X63900000Y-49125371D01*
X63900000Y-49800000D01*
X64538120Y-49800000D01*
X64534075Y-49807007D01*
X64500000Y-49934174D01*
X64500000Y-50065826D01*
X64534075Y-50192993D01*
X64538120Y-50200000D01*
X63900000Y-50200000D01*
X63900000Y-50627600D01*
X63880315Y-50694639D01*
X63827511Y-50740394D01*
X63776000Y-50751600D01*
X61378644Y-50751600D01*
X61349203Y-50742955D01*
X61319217Y-50736432D01*
X61314201Y-50732677D01*
X61311605Y-50731915D01*
X61290963Y-50715281D01*
X61128652Y-50552970D01*
X61095167Y-50491647D01*
X61098402Y-50426971D01*
X61099873Y-50422445D01*
X61153402Y-50257701D01*
X61180500Y-50086611D01*
X61180500Y-49913389D01*
X61153402Y-49742299D01*
X61099873Y-49577555D01*
X61021232Y-49423212D01*
X60919414Y-49283072D01*
X60796928Y-49160586D01*
X60656788Y-49058768D01*
X60502445Y-48980127D01*
X60337701Y-48926598D01*
X60337699Y-48926597D01*
X60337698Y-48926597D01*
X60206271Y-48905781D01*
X60166611Y-48899500D01*
X59993389Y-48899500D01*
X59953728Y-48905781D01*
X59822302Y-48926597D01*
X59657552Y-48980128D01*
X59503211Y-49058768D01*
X59456850Y-49092452D01*
X59363072Y-49160586D01*
X59363070Y-49160588D01*
X59363069Y-49160588D01*
X59240588Y-49283069D01*
X59240588Y-49283070D01*
X59240586Y-49283072D01*
X59237002Y-49288005D01*
X59138768Y-49423211D01*
X59060128Y-49577552D01*
X59006597Y-49742302D01*
X58979500Y-49913389D01*
X58979500Y-50086610D01*
X59006597Y-50257698D01*
X59061597Y-50426970D01*
X59063592Y-50496811D01*
X59031347Y-50552969D01*
X58804935Y-50779382D01*
X58778004Y-50794088D01*
X58752191Y-50810677D01*
X58745991Y-50811568D01*
X58743615Y-50812866D01*
X58717256Y-50815700D01*
X58551016Y-50815700D01*
X58483977Y-50796015D01*
X58438222Y-50743211D01*
X58428278Y-50674053D01*
X58450698Y-50618814D01*
X58457136Y-50609953D01*
X58481232Y-50576788D01*
X58559873Y-50422445D01*
X58613402Y-50257701D01*
X58640500Y-50086611D01*
X58640500Y-49913389D01*
X58613402Y-49742299D01*
X58559873Y-49577555D01*
X58481232Y-49423212D01*
X58379414Y-49283072D01*
X58256928Y-49160586D01*
X58116788Y-49058768D01*
X57962445Y-48980127D01*
X57797701Y-48926598D01*
X57797699Y-48926597D01*
X57797698Y-48926597D01*
X57666271Y-48905781D01*
X57626611Y-48899500D01*
X57453389Y-48899500D01*
X57413728Y-48905781D01*
X57282302Y-48926597D01*
X57117552Y-48980128D01*
X56963211Y-49058768D01*
X56916850Y-49092452D01*
X56823072Y-49160586D01*
X56823070Y-49160588D01*
X56823069Y-49160588D01*
X56700588Y-49283069D01*
X56700588Y-49283070D01*
X56700586Y-49283072D01*
X56697002Y-49288005D01*
X56598768Y-49423211D01*
X56520128Y-49577552D01*
X56466597Y-49742302D01*
X56464682Y-49754394D01*
X56439500Y-49913389D01*
X56439500Y-50086611D01*
X56445493Y-50124448D01*
X56466597Y-50257697D01*
X56466597Y-50257699D01*
X56466598Y-50257701D01*
X56520127Y-50422445D01*
X56598768Y-50576788D01*
X56621204Y-50607669D01*
X56629302Y-50618814D01*
X56652782Y-50684620D01*
X56636957Y-50752674D01*
X56586851Y-50801369D01*
X56528984Y-50815700D01*
X56224000Y-50815700D01*
X56156961Y-50796015D01*
X56111206Y-50743211D01*
X56100000Y-50691700D01*
X56100000Y-50200000D01*
X55461880Y-50200000D01*
X55465925Y-50192993D01*
X55500000Y-50065826D01*
X55500000Y-49934174D01*
X55465925Y-49807007D01*
X55461880Y-49800000D01*
X56100000Y-49800000D01*
X56100000Y-49125373D01*
X56099999Y-49125371D01*
X56085496Y-49052459D01*
X56085494Y-49052455D01*
X56030239Y-48969760D01*
X55947544Y-48914505D01*
X55947540Y-48914503D01*
X55874627Y-48900000D01*
X55200000Y-48900000D01*
X55200000Y-49538120D01*
X55192993Y-49534075D01*
X55065826Y-49500000D01*
X54934174Y-49500000D01*
X54807007Y-49534075D01*
X54800000Y-49538120D01*
X54800000Y-48900000D01*
X54125373Y-48900000D01*
X54052459Y-48914503D01*
X54052455Y-48914505D01*
X53969760Y-48969760D01*
X53914505Y-49052455D01*
X53914503Y-49052459D01*
X53900000Y-49125371D01*
X53900000Y-49800000D01*
X54538120Y-49800000D01*
X54534075Y-49807007D01*
X54500000Y-49934174D01*
X54500000Y-50065826D01*
X54534075Y-50192993D01*
X54538120Y-50200000D01*
X53900000Y-50200000D01*
X53900000Y-50691700D01*
X53880315Y-50758739D01*
X53827511Y-50804494D01*
X53776000Y-50815700D01*
X51442744Y-50815700D01*
X51375705Y-50796015D01*
X51355063Y-50779381D01*
X51128652Y-50552970D01*
X51095167Y-50491647D01*
X51098402Y-50426971D01*
X51099873Y-50422445D01*
X51153402Y-50257701D01*
X51180500Y-50086611D01*
X51180500Y-49913389D01*
X51153402Y-49742299D01*
X51099873Y-49577555D01*
X51021232Y-49423212D01*
X50919414Y-49283072D01*
X50796928Y-49160586D01*
X50656788Y-49058768D01*
X50502445Y-48980127D01*
X50337701Y-48926598D01*
X50337699Y-48926597D01*
X50337698Y-48926597D01*
X50206271Y-48905781D01*
X50166611Y-48899500D01*
X49993389Y-48899500D01*
X49953728Y-48905781D01*
X49822302Y-48926597D01*
X49657552Y-48980128D01*
X49503211Y-49058768D01*
X49456850Y-49092452D01*
X49363072Y-49160586D01*
X49363070Y-49160588D01*
X49363069Y-49160588D01*
X49240588Y-49283069D01*
X49240588Y-49283070D01*
X49240586Y-49283072D01*
X49237002Y-49288005D01*
X49138768Y-49423211D01*
X49060128Y-49577552D01*
X49006597Y-49742302D01*
X49004682Y-49754394D01*
X48979500Y-49913389D01*
X48640500Y-49913389D01*
X48613402Y-49742299D01*
X48559873Y-49577555D01*
X48481232Y-49423212D01*
X48379414Y-49283072D01*
X48256928Y-49160586D01*
X48116788Y-49058768D01*
X47962445Y-48980127D01*
X47797701Y-48926598D01*
X47797699Y-48926597D01*
X47797698Y-48926597D01*
X47666271Y-48905781D01*
X47626611Y-48899500D01*
X47453389Y-48899500D01*
X47413728Y-48905781D01*
X47282302Y-48926597D01*
X47117552Y-48980128D01*
X46963211Y-49058768D01*
X46916850Y-49092452D01*
X46823072Y-49160586D01*
X46823070Y-49160588D01*
X46823069Y-49160588D01*
X46700588Y-49283069D01*
X46700588Y-49283070D01*
X46700586Y-49283072D01*
X46697002Y-49288005D01*
X46598768Y-49423211D01*
X46520128Y-49577552D01*
X46466597Y-49742302D01*
X46464682Y-49754394D01*
X46439500Y-49913389D01*
X45494431Y-49913389D01*
X45465925Y-49807007D01*
X45461880Y-49800000D01*
X46100000Y-49800000D01*
X46100000Y-49125373D01*
X46099999Y-49125371D01*
X46085496Y-49052459D01*
X46085494Y-49052455D01*
X46030239Y-48969760D01*
X45947544Y-48914505D01*
X45947540Y-48914503D01*
X45874627Y-48900000D01*
X45200000Y-48900000D01*
X45200000Y-49538120D01*
X45192993Y-49534075D01*
X45065826Y-49500000D01*
X44934174Y-49500000D01*
X44807007Y-49534075D01*
X44800000Y-49538120D01*
X44800000Y-48900000D01*
X44125373Y-48900000D01*
X44052459Y-48914503D01*
X44052455Y-48914505D01*
X43969760Y-48969760D01*
X43914505Y-49052455D01*
X43914503Y-49052459D01*
X43900000Y-49125371D01*
X33080975Y-49125371D01*
X32997367Y-49069505D01*
X32997358Y-49069500D01*
X32806274Y-48990350D01*
X32806266Y-48990348D01*
X32603420Y-48950000D01*
X32396579Y-48950000D01*
X32193733Y-48990348D01*
X32193725Y-48990350D01*
X32002639Y-49069500D01*
X31912543Y-49129700D01*
X31912543Y-49129701D01*
X32396471Y-49613629D01*
X32345606Y-49627259D01*
X32254394Y-49679920D01*
X32179920Y-49754394D01*
X32127259Y-49845606D01*
X32113629Y-49896471D01*
X31629701Y-49412543D01*
X31629700Y-49412543D01*
X31569500Y-49502639D01*
X31490350Y-49693725D01*
X31490348Y-49693733D01*
X31450000Y-49896579D01*
X31050499Y-49896579D01*
X31050499Y-49402128D01*
X31044091Y-49342517D01*
X31031047Y-49307544D01*
X30998114Y-49219245D01*
X30993797Y-49207671D01*
X30993793Y-49207664D01*
X30907547Y-49092455D01*
X30907544Y-49092452D01*
X30792335Y-49006206D01*
X30792328Y-49006202D01*
X30657482Y-48955908D01*
X30657483Y-48955908D01*
X30597883Y-48949501D01*
X30597881Y-48949500D01*
X30597873Y-48949500D01*
X30597865Y-48949500D01*
X30503562Y-48949500D01*
X30436523Y-48929815D01*
X30390768Y-48877011D01*
X30379562Y-48825500D01*
X30379562Y-47802129D01*
X30379561Y-47802123D01*
X30373154Y-47742516D01*
X30322860Y-47607671D01*
X30322856Y-47607664D01*
X30236610Y-47492455D01*
X30236607Y-47492452D01*
X30121398Y-47406206D01*
X30121391Y-47406202D01*
X29986545Y-47355908D01*
X29986546Y-47355908D01*
X29926946Y-47349501D01*
X29926944Y-47349500D01*
X29926936Y-47349500D01*
X29926927Y-47349500D01*
X28731192Y-47349500D01*
X28731186Y-47349501D01*
X28671579Y-47355908D01*
X28536734Y-47406202D01*
X28536727Y-47406206D01*
X28421518Y-47492452D01*
X28421515Y-47492455D01*
X28335269Y-47607664D01*
X28335263Y-47607676D01*
X28329505Y-47623114D01*
X28287634Y-47679048D01*
X28222169Y-47703464D01*
X28153896Y-47688612D01*
X28125643Y-47667461D01*
X24644863Y-44186681D01*
X24611378Y-44125358D01*
X24613296Y-44098543D01*
X42999499Y-44098543D01*
X43037947Y-44291829D01*
X43037949Y-44291835D01*
X43113364Y-44473907D01*
X43113371Y-44473920D01*
X43222860Y-44637781D01*
X43222863Y-44637785D01*
X43362214Y-44777136D01*
X43362218Y-44777139D01*
X43526079Y-44886628D01*
X43526092Y-44886635D01*
X43708160Y-44962049D01*
X43708165Y-44962051D01*
X43708169Y-44962051D01*
X43708170Y-44962052D01*
X43901456Y-45000500D01*
X43901459Y-45000500D01*
X44098543Y-45000500D01*
X44228582Y-44974632D01*
X44291835Y-44962051D01*
X44473914Y-44886632D01*
X44637782Y-44777139D01*
X44777139Y-44637782D01*
X44886632Y-44473914D01*
X44962051Y-44291835D01*
X45000500Y-44098541D01*
X45000500Y-43901459D01*
X45000500Y-43901456D01*
X44962052Y-43708170D01*
X44962051Y-43708169D01*
X44962051Y-43708165D01*
X44962049Y-43708160D01*
X44886635Y-43526092D01*
X44886628Y-43526079D01*
X44777139Y-43362218D01*
X44777136Y-43362214D01*
X44637785Y-43222863D01*
X44637781Y-43222860D01*
X44473920Y-43113371D01*
X44473907Y-43113364D01*
X44291839Y-43037950D01*
X44291829Y-43037947D01*
X44098543Y-42999500D01*
X44098541Y-42999500D01*
X43901459Y-42999500D01*
X43901457Y-42999500D01*
X43708170Y-43037947D01*
X43708160Y-43037950D01*
X43526092Y-43113364D01*
X43526079Y-43113371D01*
X43362218Y-43222860D01*
X43362214Y-43222863D01*
X43222863Y-43362214D01*
X43222860Y-43362218D01*
X43113371Y-43526079D01*
X43113364Y-43526092D01*
X43037950Y-43708160D01*
X43037947Y-43708170D01*
X42999500Y-43901456D01*
X42999500Y-43901459D01*
X42999500Y-44098541D01*
X42999500Y-44098543D01*
X42999499Y-44098543D01*
X24613296Y-44098543D01*
X24616362Y-44055666D01*
X24658234Y-43999733D01*
X24723698Y-43975316D01*
X24732544Y-43975000D01*
X24837500Y-43975000D01*
X25237500Y-43975000D01*
X25422828Y-43975000D01*
X25422844Y-43974999D01*
X25482372Y-43968598D01*
X25482379Y-43968596D01*
X25617086Y-43918354D01*
X25617093Y-43918350D01*
X25732187Y-43832190D01*
X25732189Y-43832188D01*
X25740522Y-43821057D01*
X25740523Y-43821056D01*
X25818353Y-43717088D01*
X25818354Y-43717086D01*
X25868596Y-43582379D01*
X25868598Y-43582372D01*
X25874999Y-43522844D01*
X25875000Y-43522827D01*
X25875000Y-43200000D01*
X25237500Y-43200000D01*
X25237500Y-43975000D01*
X24837500Y-43975000D01*
X24837500Y-43200000D01*
X24200000Y-43200000D01*
X24200000Y-43442456D01*
X24193761Y-43463701D01*
X24192182Y-43485790D01*
X24184109Y-43496573D01*
X24180315Y-43509495D01*
X24163581Y-43523994D01*
X24150310Y-43541723D01*
X24137689Y-43546430D01*
X24127511Y-43555250D01*
X24105593Y-43558401D01*
X24084846Y-43566140D01*
X24071685Y-43563277D01*
X24058353Y-43565194D01*
X24038209Y-43555994D01*
X24016573Y-43551288D01*
X23998847Y-43538019D01*
X23994797Y-43536169D01*
X23988319Y-43530137D01*
X23836818Y-43378636D01*
X23803333Y-43317313D01*
X23800499Y-43290955D01*
X23800499Y-42477155D01*
X24200000Y-42477155D01*
X24200000Y-42800000D01*
X24837500Y-42800000D01*
X25237500Y-42800000D01*
X25875000Y-42800000D01*
X25875000Y-42477172D01*
X25874999Y-42477155D01*
X25868598Y-42417627D01*
X25868596Y-42417620D01*
X25818354Y-42282913D01*
X25818350Y-42282906D01*
X25732190Y-42167812D01*
X25732187Y-42167809D01*
X25617093Y-42081649D01*
X25617086Y-42081645D01*
X25482379Y-42031403D01*
X25482372Y-42031401D01*
X25422844Y-42025000D01*
X25237500Y-42025000D01*
X25237500Y-42800000D01*
X24837500Y-42800000D01*
X24837500Y-42025000D01*
X24652155Y-42025000D01*
X24592627Y-42031401D01*
X24592620Y-42031403D01*
X24457913Y-42081645D01*
X24457906Y-42081649D01*
X24342812Y-42167809D01*
X24342809Y-42167812D01*
X24256649Y-42282906D01*
X24256645Y-42282913D01*
X24206403Y-42417620D01*
X24206401Y-42417627D01*
X24200000Y-42477155D01*
X23800499Y-42477155D01*
X23800499Y-42477129D01*
X23800498Y-42477123D01*
X23800497Y-42477116D01*
X23794091Y-42417517D01*
X23743884Y-42282906D01*
X23743797Y-42282671D01*
X23743793Y-42282664D01*
X23657547Y-42167455D01*
X23657544Y-42167452D01*
X23542335Y-42081206D01*
X23542328Y-42081202D01*
X23407486Y-42030910D01*
X23407485Y-42030909D01*
X23407483Y-42030909D01*
X23347873Y-42024500D01*
X23347863Y-42024500D01*
X22577129Y-42024500D01*
X22577123Y-42024501D01*
X22517516Y-42030908D01*
X22382671Y-42081202D01*
X22382664Y-42081206D01*
X22267455Y-42167452D01*
X22267452Y-42167455D01*
X22181206Y-42282664D01*
X22181202Y-42282671D01*
X22130908Y-42417517D01*
X22128881Y-42436377D01*
X22124501Y-42477123D01*
X22124500Y-42477135D01*
X22124500Y-43290955D01*
X22115855Y-43320395D01*
X22109332Y-43350382D01*
X22105577Y-43355397D01*
X22104815Y-43357994D01*
X22088181Y-43378636D01*
X22086681Y-43380136D01*
X22025358Y-43413621D01*
X21955666Y-43408637D01*
X21899733Y-43366765D01*
X21875316Y-43301301D01*
X21875000Y-43292455D01*
X21875000Y-43200000D01*
X20200000Y-43200000D01*
X20200000Y-43442456D01*
X20193761Y-43463701D01*
X20192182Y-43485790D01*
X20184109Y-43496573D01*
X20180315Y-43509495D01*
X20163581Y-43523994D01*
X20150310Y-43541723D01*
X20137689Y-43546430D01*
X20127511Y-43555250D01*
X20105593Y-43558401D01*
X20084846Y-43566140D01*
X20071685Y-43563277D01*
X20058353Y-43565194D01*
X20038209Y-43555994D01*
X20016573Y-43551288D01*
X19998847Y-43538019D01*
X19994797Y-43536169D01*
X19988319Y-43530137D01*
X19836818Y-43378636D01*
X19803333Y-43317313D01*
X19800499Y-43290955D01*
X19800499Y-42709044D01*
X19820184Y-42642005D01*
X19836818Y-42621363D01*
X19988319Y-42469862D01*
X20049642Y-42436377D01*
X20119334Y-42441361D01*
X20175267Y-42483233D01*
X20199684Y-42548697D01*
X20200000Y-42557543D01*
X20200000Y-42800000D01*
X20837500Y-42800000D01*
X21237500Y-42800000D01*
X21875000Y-42800000D01*
X21875000Y-42477172D01*
X21874999Y-42477155D01*
X21868598Y-42417627D01*
X21868596Y-42417620D01*
X21818354Y-42282913D01*
X21818350Y-42282906D01*
X21732190Y-42167812D01*
X21732187Y-42167809D01*
X21617093Y-42081649D01*
X21617086Y-42081645D01*
X21482379Y-42031403D01*
X21482372Y-42031401D01*
X21422844Y-42025000D01*
X21237500Y-42025000D01*
X21237500Y-42800000D01*
X20837500Y-42800000D01*
X20837500Y-42025000D01*
X20732544Y-42025000D01*
X20665505Y-42005315D01*
X20619750Y-41952511D01*
X20609806Y-41883353D01*
X20638831Y-41819797D01*
X20644863Y-41813319D01*
X21103163Y-41355019D01*
X21164486Y-41321534D01*
X21190844Y-41318700D01*
X37077942Y-41318700D01*
X37077944Y-41318700D01*
X37167088Y-41294814D01*
X37247012Y-41248670D01*
X43508979Y-34986701D01*
X43570300Y-34953218D01*
X43598806Y-34950928D01*
X43598806Y-34950500D01*
X43602126Y-34950499D01*
X43602127Y-34950500D01*
X44397872Y-34950499D01*
X44457483Y-34944091D01*
X44592331Y-34893796D01*
X44707546Y-34807546D01*
X44793796Y-34692331D01*
X44844091Y-34557483D01*
X44850500Y-34497873D01*
X44850499Y-33696542D01*
X44859145Y-33667096D01*
X44865667Y-33637116D01*
X44869419Y-33632102D01*
X44870183Y-33629504D01*
X44886814Y-33608866D01*
X44937820Y-33557860D01*
X44999142Y-33524376D01*
X45068834Y-33529360D01*
X45124767Y-33571232D01*
X45149184Y-33636696D01*
X45149500Y-33645542D01*
X45149500Y-34497870D01*
X45149501Y-34497876D01*
X45155908Y-34557483D01*
X45206202Y-34692328D01*
X45206206Y-34692335D01*
X45292452Y-34807544D01*
X45292455Y-34807547D01*
X45407664Y-34893793D01*
X45407671Y-34893797D01*
X45542517Y-34944091D01*
X45542516Y-34944091D01*
X45549444Y-34944835D01*
X45602127Y-34950500D01*
X46397872Y-34950499D01*
X46457483Y-34944091D01*
X46592331Y-34893796D01*
X46707546Y-34807546D01*
X46793796Y-34692331D01*
X46844091Y-34557483D01*
X46850500Y-34497873D01*
X46850500Y-34474500D01*
X46870185Y-34407461D01*
X46922989Y-34361706D01*
X46974500Y-34350500D01*
X47430142Y-34350500D01*
X47430144Y-34350500D01*
X47519288Y-34326614D01*
X47599212Y-34280470D01*
X50349370Y-31530312D01*
X50395514Y-31450388D01*
X50401499Y-31428050D01*
X50419400Y-31361244D01*
X50419400Y-30674499D01*
X50439085Y-30607460D01*
X50491889Y-30561705D01*
X50543400Y-30550499D01*
X50940955Y-30550499D01*
X51007994Y-30570184D01*
X51028636Y-30586818D01*
X52692988Y-32251170D01*
X52772912Y-32297314D01*
X52862056Y-32321200D01*
X52862057Y-32321200D01*
X52954344Y-32321200D01*
X55003218Y-32321200D01*
X55070257Y-32340885D01*
X55116012Y-32393689D01*
X55126508Y-32458451D01*
X55124501Y-32477123D01*
X55124500Y-32477130D01*
X55124500Y-33290956D01*
X55104815Y-33357995D01*
X55088181Y-33378637D01*
X49719531Y-38747286D01*
X49719527Y-38747291D01*
X49673387Y-38827209D01*
X49673385Y-38827214D01*
X49665244Y-38857596D01*
X49628878Y-38917256D01*
X49566031Y-38947784D01*
X49545471Y-38949500D01*
X49402130Y-38949500D01*
X49402123Y-38949501D01*
X49342516Y-38955908D01*
X49207671Y-39006202D01*
X49207664Y-39006206D01*
X49092455Y-39092452D01*
X49092452Y-39092455D01*
X49006206Y-39207664D01*
X49006202Y-39207671D01*
X48955908Y-39342517D01*
X48949501Y-39402116D01*
X48949501Y-39402123D01*
X48949500Y-39402135D01*
X48949500Y-40597870D01*
X48949501Y-40597876D01*
X48955908Y-40657483D01*
X49006202Y-40792328D01*
X49006206Y-40792335D01*
X49092452Y-40907544D01*
X49092455Y-40907547D01*
X49207664Y-40993793D01*
X49207671Y-40993797D01*
X49342517Y-41044091D01*
X49342516Y-41044091D01*
X49349444Y-41044835D01*
X49402127Y-41050500D01*
X50597872Y-41050499D01*
X50657483Y-41044091D01*
X50792331Y-40993796D01*
X50907546Y-40907546D01*
X50993796Y-40792331D01*
X51044091Y-40657483D01*
X51050500Y-40597873D01*
X51050499Y-39896579D01*
X51450000Y-39896579D01*
X51450000Y-40103420D01*
X51490348Y-40306266D01*
X51490350Y-40306274D01*
X51569500Y-40497358D01*
X51569505Y-40497367D01*
X51629701Y-40587455D01*
X52113629Y-40103528D01*
X52127259Y-40154394D01*
X52179920Y-40245606D01*
X52254394Y-40320080D01*
X52345606Y-40372741D01*
X52396471Y-40386370D01*
X51912542Y-40870298D01*
X52002640Y-40930499D01*
X52193725Y-41009649D01*
X52193733Y-41009651D01*
X52396579Y-41049999D01*
X52396583Y-41050000D01*
X52603417Y-41050000D01*
X52603420Y-41049999D01*
X52806266Y-41009651D01*
X52806274Y-41009649D01*
X52997359Y-40930499D01*
X53087456Y-40870298D01*
X52603528Y-40386370D01*
X52654394Y-40372741D01*
X52745606Y-40320080D01*
X52820080Y-40245606D01*
X52872741Y-40154394D01*
X52886370Y-40103528D01*
X53370298Y-40587456D01*
X53430499Y-40497359D01*
X53509649Y-40306274D01*
X53509651Y-40306266D01*
X53549999Y-40103420D01*
X53550000Y-40103417D01*
X53550000Y-39896583D01*
X53549999Y-39896579D01*
X53509651Y-39693733D01*
X53509649Y-39693725D01*
X53430499Y-39502640D01*
X53370298Y-39412542D01*
X52886370Y-39896470D01*
X52872741Y-39845606D01*
X52820080Y-39754394D01*
X52745606Y-39679920D01*
X52654394Y-39627259D01*
X52603528Y-39613629D01*
X53087455Y-39129701D01*
X53087455Y-39129700D01*
X52997367Y-39069505D01*
X52997358Y-39069500D01*
X52806274Y-38990350D01*
X52806266Y-38990348D01*
X52603420Y-38950000D01*
X52396579Y-38950000D01*
X52193733Y-38990348D01*
X52193725Y-38990350D01*
X52002639Y-39069500D01*
X51912543Y-39129700D01*
X51912543Y-39129701D01*
X52396471Y-39613629D01*
X52345606Y-39627259D01*
X52254394Y-39679920D01*
X52179920Y-39754394D01*
X52127259Y-39845606D01*
X52113629Y-39896471D01*
X51629701Y-39412543D01*
X51629700Y-39412543D01*
X51569500Y-39502639D01*
X51490350Y-39693725D01*
X51490348Y-39693733D01*
X51450000Y-39896579D01*
X51050499Y-39896579D01*
X51050499Y-39402128D01*
X51044091Y-39342517D01*
X50993796Y-39207669D01*
X50993795Y-39207668D01*
X50993793Y-39207664D01*
X50907547Y-39092455D01*
X50907544Y-39092452D01*
X50792335Y-39006206D01*
X50792330Y-39006203D01*
X50725218Y-38981172D01*
X50669285Y-38939300D01*
X50644868Y-38873836D01*
X50659720Y-38805563D01*
X50680868Y-38777312D01*
X55449900Y-34008279D01*
X55511221Y-33974796D01*
X55550833Y-33972673D01*
X55577127Y-33975500D01*
X56347872Y-33975499D01*
X56407483Y-33969091D01*
X56542331Y-33918796D01*
X56657546Y-33832546D01*
X56743796Y-33717331D01*
X56794091Y-33582483D01*
X56800500Y-33522873D01*
X56800500Y-33522844D01*
X57200000Y-33522844D01*
X57206401Y-33582372D01*
X57206403Y-33582379D01*
X57256645Y-33717086D01*
X57256649Y-33717093D01*
X57342809Y-33832187D01*
X57342812Y-33832190D01*
X57457906Y-33918350D01*
X57457913Y-33918354D01*
X57592620Y-33968596D01*
X57592627Y-33968598D01*
X57652155Y-33974999D01*
X57652172Y-33975000D01*
X57837500Y-33975000D01*
X58237500Y-33975000D01*
X58422828Y-33975000D01*
X58422844Y-33974999D01*
X58482372Y-33968598D01*
X58482379Y-33968596D01*
X58617086Y-33918354D01*
X58617093Y-33918350D01*
X58732187Y-33832190D01*
X58732190Y-33832187D01*
X58818350Y-33717093D01*
X58818354Y-33717086D01*
X58868596Y-33582379D01*
X58868598Y-33582372D01*
X58874999Y-33522844D01*
X58875000Y-33522827D01*
X58875000Y-33200000D01*
X58237500Y-33200000D01*
X58237500Y-33975000D01*
X57837500Y-33975000D01*
X57837500Y-33200000D01*
X57200000Y-33200000D01*
X57200000Y-33522844D01*
X56800500Y-33522844D01*
X56800499Y-32977555D01*
X56800499Y-32477129D01*
X56800498Y-32477118D01*
X56798492Y-32458451D01*
X56801271Y-32443046D01*
X56799044Y-32427553D01*
X56807349Y-32409366D01*
X56810900Y-32389692D01*
X56821566Y-32378236D01*
X56828069Y-32363997D01*
X56844888Y-32353187D01*
X56858512Y-32338556D01*
X56874466Y-32334179D01*
X56886847Y-32326223D01*
X56921782Y-32321200D01*
X57078723Y-32321200D01*
X57145762Y-32340885D01*
X57191517Y-32393689D01*
X57202012Y-32458459D01*
X57200000Y-32477163D01*
X57200000Y-32800000D01*
X58875000Y-32800000D01*
X58875000Y-32477172D01*
X58874999Y-32477163D01*
X58872988Y-32458459D01*
X58885391Y-32389699D01*
X58933000Y-32338560D01*
X58996277Y-32321200D01*
X59736656Y-32321200D01*
X59803695Y-32340885D01*
X59824337Y-32357519D01*
X60088181Y-32621363D01*
X60121666Y-32682686D01*
X60124500Y-32709044D01*
X60124500Y-33522870D01*
X60124501Y-33522876D01*
X60130908Y-33582483D01*
X60181202Y-33717328D01*
X60181206Y-33717335D01*
X60267452Y-33832544D01*
X60267455Y-33832547D01*
X60382664Y-33918793D01*
X60382671Y-33918797D01*
X60427618Y-33935561D01*
X60517517Y-33969091D01*
X60577127Y-33975500D01*
X61347872Y-33975499D01*
X61407483Y-33969091D01*
X61542331Y-33918796D01*
X61657546Y-33832546D01*
X61743796Y-33717331D01*
X61794091Y-33582483D01*
X61800500Y-33522873D01*
X61800500Y-33522844D01*
X62200000Y-33522844D01*
X62206401Y-33582372D01*
X62206403Y-33582379D01*
X62256645Y-33717086D01*
X62256649Y-33717093D01*
X62342809Y-33832187D01*
X62342812Y-33832190D01*
X62457906Y-33918350D01*
X62457913Y-33918354D01*
X62592620Y-33968596D01*
X62592627Y-33968598D01*
X62652155Y-33974999D01*
X62652172Y-33975000D01*
X62837500Y-33975000D01*
X63237500Y-33975000D01*
X63422828Y-33975000D01*
X63422844Y-33974999D01*
X63482372Y-33968598D01*
X63482379Y-33968596D01*
X63617086Y-33918354D01*
X63617093Y-33918350D01*
X63732187Y-33832190D01*
X63732190Y-33832187D01*
X63818350Y-33717093D01*
X63818354Y-33717086D01*
X63868596Y-33582379D01*
X63868598Y-33582372D01*
X63874999Y-33522844D01*
X63875000Y-33522827D01*
X63875000Y-33200000D01*
X63237500Y-33200000D01*
X63237500Y-33975000D01*
X62837500Y-33975000D01*
X62837500Y-33200000D01*
X62200000Y-33200000D01*
X62200000Y-33522844D01*
X61800500Y-33522844D01*
X61800499Y-32977555D01*
X61800499Y-32477155D01*
X62200000Y-32477155D01*
X62200000Y-32800000D01*
X62837500Y-32800000D01*
X63237500Y-32800000D01*
X63875000Y-32800000D01*
X63875000Y-32477172D01*
X63874999Y-32477155D01*
X63868598Y-32417627D01*
X63868596Y-32417620D01*
X63818354Y-32282913D01*
X63818350Y-32282906D01*
X63732190Y-32167812D01*
X63732187Y-32167809D01*
X63617093Y-32081649D01*
X63617086Y-32081645D01*
X63482379Y-32031403D01*
X63482372Y-32031401D01*
X63422844Y-32025000D01*
X63237500Y-32025000D01*
X63237500Y-32800000D01*
X62837500Y-32800000D01*
X62837500Y-32025000D01*
X62652155Y-32025000D01*
X62592627Y-32031401D01*
X62592620Y-32031403D01*
X62457913Y-32081645D01*
X62457906Y-32081649D01*
X62342812Y-32167809D01*
X62342809Y-32167812D01*
X62256649Y-32282906D01*
X62256645Y-32282913D01*
X62206403Y-32417620D01*
X62206401Y-32417627D01*
X62200000Y-32477155D01*
X61800499Y-32477155D01*
X61800499Y-32477129D01*
X61800498Y-32477123D01*
X61800497Y-32477118D01*
X61794091Y-32417517D01*
X61774129Y-32363997D01*
X61743797Y-32282671D01*
X61743793Y-32282664D01*
X61657547Y-32167455D01*
X61657544Y-32167452D01*
X61542335Y-32081206D01*
X61542328Y-32081202D01*
X61407486Y-32030910D01*
X61407485Y-32030909D01*
X61407483Y-32030909D01*
X61347873Y-32024500D01*
X61347863Y-32024500D01*
X60577129Y-32024500D01*
X60577120Y-32024501D01*
X60550833Y-32027327D01*
X60482074Y-32014919D01*
X60449900Y-31991718D01*
X60148413Y-31690231D01*
X60148408Y-31690227D01*
X60068490Y-31644087D01*
X60068489Y-31644086D01*
X60068488Y-31644086D01*
X59979344Y-31620200D01*
X59979343Y-31620200D01*
X53104744Y-31620200D01*
X53037705Y-31600515D01*
X53017063Y-31583881D01*
X51906112Y-30472930D01*
X51872627Y-30411607D01*
X51877611Y-30341915D01*
X51883297Y-30328978D01*
X51910646Y-30275304D01*
X51925500Y-30181519D01*
X51925499Y-29818482D01*
X51910646Y-29724696D01*
X51853050Y-29611658D01*
X51853046Y-29611654D01*
X51853045Y-29611652D01*
X51763347Y-29521954D01*
X51763344Y-29521952D01*
X51763342Y-29521950D01*
X51664276Y-29471473D01*
X51650301Y-29464352D01*
X51556524Y-29449500D01*
X50318482Y-29449500D01*
X50224696Y-29464354D01*
X50210724Y-29471473D01*
X50142055Y-29484367D01*
X50077315Y-29458088D01*
X50037060Y-29400981D01*
X50034232Y-29334960D01*
X50034120Y-29334943D01*
X50034207Y-29334389D01*
X50034070Y-29331175D01*
X50035519Y-29326105D01*
X50045794Y-29261229D01*
X50050500Y-29231519D01*
X50050499Y-28868482D01*
X50035646Y-28774696D01*
X49978050Y-28661658D01*
X49978046Y-28661654D01*
X49978045Y-28661652D01*
X49888347Y-28571954D01*
X49888344Y-28571952D01*
X49888342Y-28571950D01*
X49811517Y-28532805D01*
X49775301Y-28514352D01*
X49681524Y-28499500D01*
X48443482Y-28499500D01*
X48362519Y-28512323D01*
X48349696Y-28514354D01*
X48236658Y-28571950D01*
X48236657Y-28571951D01*
X48236652Y-28571954D01*
X48145426Y-28663181D01*
X48084103Y-28696666D01*
X48057745Y-28699500D01*
X43841356Y-28699500D01*
X43752212Y-28723386D01*
X43752209Y-28723387D01*
X43672291Y-28769527D01*
X43672286Y-28769531D01*
X43028635Y-29413181D01*
X42967312Y-29446666D01*
X42940954Y-29449500D01*
X42318482Y-29449500D01*
X42224696Y-29464354D01*
X42210724Y-29471473D01*
X42142055Y-29484367D01*
X42077315Y-29458088D01*
X42037060Y-29400981D01*
X42034232Y-29334960D01*
X42034120Y-29334943D01*
X42034207Y-29334389D01*
X42034070Y-29331175D01*
X42035519Y-29326105D01*
X42045794Y-29261229D01*
X42050500Y-29231519D01*
X42050499Y-28868482D01*
X42035646Y-28774696D01*
X41978050Y-28661658D01*
X41978046Y-28661654D01*
X41978045Y-28661652D01*
X41888347Y-28571954D01*
X41888344Y-28571952D01*
X41888342Y-28571950D01*
X41811517Y-28532805D01*
X41775301Y-28514352D01*
X41681524Y-28499500D01*
X40443482Y-28499500D01*
X40362519Y-28512323D01*
X40349696Y-28514354D01*
X40236658Y-28571950D01*
X40236657Y-28571951D01*
X40236652Y-28571954D01*
X40146954Y-28661652D01*
X40146951Y-28661657D01*
X40089352Y-28774698D01*
X40074500Y-28868475D01*
X40074500Y-29231517D01*
X40085292Y-29299657D01*
X40089354Y-29325304D01*
X40116691Y-29378956D01*
X40129587Y-29447623D01*
X40103311Y-29512364D01*
X40093887Y-29522930D01*
X38719531Y-30897286D01*
X38719530Y-30897288D01*
X38680667Y-30964601D01*
X38673386Y-30977212D01*
X38649500Y-31066356D01*
X38649500Y-32933023D01*
X38629815Y-33000062D01*
X38577011Y-33045817D01*
X38549865Y-33053266D01*
X38550068Y-33054124D01*
X38542520Y-33055907D01*
X38407671Y-33106202D01*
X38407664Y-33106206D01*
X38292455Y-33192452D01*
X38292452Y-33192455D01*
X38206206Y-33307664D01*
X38206202Y-33307671D01*
X38155908Y-33442517D01*
X38151168Y-33486610D01*
X38149501Y-33502123D01*
X38149500Y-33502135D01*
X38149500Y-34497870D01*
X38149501Y-34497876D01*
X38155908Y-34557483D01*
X38206202Y-34692328D01*
X38206206Y-34692335D01*
X38292452Y-34807544D01*
X38292455Y-34807547D01*
X38407664Y-34893793D01*
X38407671Y-34893797D01*
X38542517Y-34944091D01*
X38542516Y-34944091D01*
X38549444Y-34944835D01*
X38602127Y-34950500D01*
X39397872Y-34950499D01*
X39457483Y-34944091D01*
X39592331Y-34893796D01*
X39707546Y-34807546D01*
X39793796Y-34692331D01*
X39844091Y-34557483D01*
X39850500Y-34497873D01*
X39850499Y-33502128D01*
X39844091Y-33442517D01*
X39820265Y-33378637D01*
X39793797Y-33307671D01*
X39793793Y-33307664D01*
X39707547Y-33192455D01*
X39707544Y-33192452D01*
X39592335Y-33106206D01*
X39592328Y-33106202D01*
X39457482Y-33055908D01*
X39449938Y-33054126D01*
X39450474Y-33051853D01*
X39396688Y-33029571D01*
X39356843Y-32972177D01*
X39350500Y-32933024D01*
X39350500Y-31309043D01*
X39370185Y-31242004D01*
X39386814Y-31221367D01*
X39458181Y-31150000D01*
X40077935Y-31150000D01*
X40089835Y-31225149D01*
X40089837Y-31225155D01*
X40147356Y-31338041D01*
X40147363Y-31338050D01*
X40236949Y-31427636D01*
X40236953Y-31427639D01*
X40349855Y-31485166D01*
X40443514Y-31499999D01*
X40862499Y-31499999D01*
X41262500Y-31499999D01*
X41681479Y-31499999D01*
X41775149Y-31485164D01*
X41775155Y-31485162D01*
X41888041Y-31427643D01*
X41888050Y-31427636D01*
X41977636Y-31338050D01*
X41977639Y-31338046D01*
X42035166Y-31225144D01*
X42047068Y-31150000D01*
X41262500Y-31150000D01*
X41262500Y-31499999D01*
X40862499Y-31499999D01*
X40862500Y-31499998D01*
X40862500Y-31150000D01*
X40077935Y-31150000D01*
X39458181Y-31150000D01*
X39881854Y-30726326D01*
X39943174Y-30692844D01*
X40012865Y-30697828D01*
X40063823Y-30733479D01*
X40077933Y-30750000D01*
X40862500Y-30750000D01*
X40862500Y-30400000D01*
X40507542Y-30400000D01*
X40440503Y-30380315D01*
X40394748Y-30327511D01*
X40384804Y-30258353D01*
X40413829Y-30194797D01*
X40419842Y-30188338D01*
X40971363Y-29636817D01*
X41032686Y-29603333D01*
X41059044Y-29600499D01*
X41681517Y-29600499D01*
X41681518Y-29600499D01*
X41775304Y-29585646D01*
X41789273Y-29578528D01*
X41857938Y-29565632D01*
X41922679Y-29591907D01*
X41962937Y-29649012D01*
X41965768Y-29715039D01*
X41965880Y-29715057D01*
X41965793Y-29715605D01*
X41965931Y-29718818D01*
X41964481Y-29723888D01*
X41949500Y-29818475D01*
X41949500Y-30181517D01*
X41960090Y-30248384D01*
X41964353Y-30275300D01*
X41965881Y-30284943D01*
X41964055Y-30285232D01*
X41965712Y-30343178D01*
X41929633Y-30403011D01*
X41866933Y-30433841D01*
X41797519Y-30425879D01*
X41789492Y-30422144D01*
X41775145Y-30414834D01*
X41775144Y-30414833D01*
X41681486Y-30400000D01*
X41262500Y-30400000D01*
X41262500Y-30750000D01*
X42047065Y-30750000D01*
X42033638Y-30665213D01*
X42035519Y-30664915D01*
X42033870Y-30607166D01*
X42069951Y-30547333D01*
X42132652Y-30516505D01*
X42202066Y-30524470D01*
X42210083Y-30528200D01*
X42224694Y-30535645D01*
X42224698Y-30535647D01*
X42318475Y-30550499D01*
X42318481Y-30550500D01*
X43556518Y-30550499D01*
X43650304Y-30535646D01*
X43763342Y-30478050D01*
X43853050Y-30388342D01*
X43910646Y-30275304D01*
X43910646Y-30275302D01*
X43910647Y-30275301D01*
X43925499Y-30181524D01*
X43925500Y-30181519D01*
X43925499Y-29818482D01*
X43910646Y-29724696D01*
X43883308Y-29671043D01*
X43878746Y-29646754D01*
X43870109Y-29623595D01*
X43872410Y-29613016D01*
X43870412Y-29602377D01*
X43879706Y-29579475D01*
X43884961Y-29555323D01*
X43894896Y-29542050D01*
X43896688Y-29537636D01*
X43906095Y-29527086D01*
X43996365Y-29436816D01*
X44057687Y-29403334D01*
X44084044Y-29400500D01*
X48057745Y-29400500D01*
X48124784Y-29420185D01*
X48145426Y-29436819D01*
X48236652Y-29528045D01*
X48236654Y-29528046D01*
X48236658Y-29528050D01*
X48337585Y-29579475D01*
X48349698Y-29585647D01*
X48443475Y-29600499D01*
X48443481Y-29600500D01*
X48614696Y-29600499D01*
X48681735Y-29620183D01*
X48727490Y-29672987D01*
X48734468Y-29692398D01*
X48735434Y-29696003D01*
X48735886Y-29697689D01*
X48735887Y-29697690D01*
X48782027Y-29777608D01*
X48782031Y-29777613D01*
X49192237Y-30187819D01*
X49225722Y-30249142D01*
X49220738Y-30318834D01*
X49178866Y-30374767D01*
X49113402Y-30399184D01*
X49104556Y-30399500D01*
X48443482Y-30399500D01*
X48367041Y-30411607D01*
X48349696Y-30414354D01*
X48236658Y-30471950D01*
X48236657Y-30471951D01*
X48236652Y-30471954D01*
X48145426Y-30563181D01*
X48084103Y-30596666D01*
X48057745Y-30599500D01*
X47003856Y-30599500D01*
X46914712Y-30623386D01*
X46914711Y-30623386D01*
X46914709Y-30623387D01*
X46914706Y-30623388D01*
X46834794Y-30669526D01*
X46834785Y-30669533D01*
X44491021Y-33013296D01*
X44429698Y-33046781D01*
X44401194Y-33049075D01*
X44401194Y-33049500D01*
X43602129Y-33049500D01*
X43602123Y-33049501D01*
X43542516Y-33055908D01*
X43407671Y-33106202D01*
X43407664Y-33106206D01*
X43292455Y-33192452D01*
X43292452Y-33192455D01*
X43206206Y-33307664D01*
X43206202Y-33307671D01*
X43155908Y-33442517D01*
X43151168Y-33486610D01*
X43149501Y-33502123D01*
X43149500Y-33502135D01*
X43149500Y-34303455D01*
X43129815Y-34370494D01*
X43113181Y-34391136D01*
X36922937Y-40581381D01*
X36861614Y-40614866D01*
X36835256Y-40617700D01*
X20948156Y-40617700D01*
X20859012Y-40641586D01*
X20859009Y-40641587D01*
X20779091Y-40687727D01*
X20779086Y-40687731D01*
X19475098Y-41991718D01*
X19413775Y-42025203D01*
X19374165Y-42027326D01*
X19347873Y-42024500D01*
X19347865Y-42024500D01*
X18577129Y-42024500D01*
X18577123Y-42024501D01*
X18517516Y-42030908D01*
X18382671Y-42081202D01*
X18382664Y-42081206D01*
X18267455Y-42167452D01*
X18267452Y-42167455D01*
X18181206Y-42282664D01*
X18181202Y-42282671D01*
X18130908Y-42417517D01*
X18128881Y-42436377D01*
X18124501Y-42477123D01*
X18124500Y-42477135D01*
X18124500Y-43522870D01*
X18124501Y-43522876D01*
X18130908Y-43582483D01*
X18181202Y-43717328D01*
X18181206Y-43717335D01*
X18267452Y-43832544D01*
X18267455Y-43832547D01*
X18382664Y-43918793D01*
X18382671Y-43918797D01*
X18427618Y-43935561D01*
X18517517Y-43969091D01*
X18577127Y-43975500D01*
X19347872Y-43975499D01*
X19347874Y-43975498D01*
X19347887Y-43975498D01*
X19374162Y-43972673D01*
X19442921Y-43985077D01*
X19475099Y-44008281D01*
X19724988Y-44258170D01*
X19783298Y-44291835D01*
X19804912Y-44304314D01*
X19894056Y-44328200D01*
X19894057Y-44328200D01*
X19894058Y-44328200D01*
X22030942Y-44328200D01*
X22030944Y-44328200D01*
X22120088Y-44304314D01*
X22141702Y-44291835D01*
X22200012Y-44258170D01*
X22449902Y-44008278D01*
X22511221Y-43974796D01*
X22550834Y-43972673D01*
X22577127Y-43975500D01*
X23347872Y-43975499D01*
X23347874Y-43975498D01*
X23347887Y-43975498D01*
X23374163Y-43972673D01*
X23442923Y-43985078D01*
X23475100Y-44008281D01*
X28082031Y-48615212D01*
X28147288Y-48680469D01*
X28173998Y-48695890D01*
X28216564Y-48720467D01*
X28264779Y-48771034D01*
X28278563Y-48827852D01*
X28278563Y-48997869D01*
X28278564Y-48997876D01*
X28284971Y-49057483D01*
X28335265Y-49192328D01*
X28335269Y-49192335D01*
X28421515Y-49307544D01*
X28421518Y-49307547D01*
X28536727Y-49393793D01*
X28536734Y-49393797D01*
X28578348Y-49409318D01*
X28634282Y-49451189D01*
X28658699Y-49516653D01*
X28643848Y-49584926D01*
X28594443Y-49634332D01*
X28535015Y-49649500D01*
X19581956Y-49649500D01*
X19492812Y-49673386D01*
X19492809Y-49673387D01*
X19412891Y-49719527D01*
X19412886Y-49719531D01*
X15251329Y-53881087D01*
X15190006Y-53914572D01*
X15120314Y-53909588D01*
X15064381Y-53867716D01*
X15041174Y-53812800D01*
X15035164Y-53774851D01*
X15035162Y-53774844D01*
X14977643Y-53661958D01*
X14977636Y-53661949D01*
X14888050Y-53572363D01*
X14888046Y-53572360D01*
X14775144Y-53514833D01*
X14681486Y-53500000D01*
X14262500Y-53500000D01*
X14262500Y-54599999D01*
X14274739Y-54612238D01*
X14300095Y-54619684D01*
X14345850Y-54672488D01*
X14355794Y-54741646D01*
X14326769Y-54805202D01*
X14320737Y-54811680D01*
X13782026Y-55350390D01*
X13781565Y-55350992D01*
X13781046Y-55351370D01*
X13776283Y-55356134D01*
X13775539Y-55355390D01*
X13725135Y-55392192D01*
X13683195Y-55399500D01*
X13443482Y-55399500D01*
X13362519Y-55412323D01*
X13349696Y-55414354D01*
X13236658Y-55471950D01*
X13236657Y-55471951D01*
X13236652Y-55471954D01*
X13146954Y-55561652D01*
X13146951Y-55561657D01*
X13146950Y-55561658D01*
X13127751Y-55599337D01*
X13089352Y-55674698D01*
X13074500Y-55768475D01*
X13074500Y-56131517D01*
X13085292Y-56199657D01*
X13089354Y-56225304D01*
X13146950Y-56338342D01*
X13146952Y-56338344D01*
X13146954Y-56338347D01*
X13236652Y-56428045D01*
X13236654Y-56428046D01*
X13236658Y-56428050D01*
X13349694Y-56485645D01*
X13349698Y-56485647D01*
X13443475Y-56500499D01*
X13443481Y-56500500D01*
X14681518Y-56500499D01*
X14775304Y-56485646D01*
X14888342Y-56428050D01*
X14978050Y-56338342D01*
X15035646Y-56225304D01*
X15035646Y-56225302D01*
X15035647Y-56225301D01*
X15050499Y-56131524D01*
X15050500Y-56131519D01*
X15050499Y-55768482D01*
X15035646Y-55674696D01*
X15035645Y-55674694D01*
X15034119Y-55665057D01*
X15036142Y-55664736D01*
X15034506Y-55607494D01*
X15070584Y-55547660D01*
X15133284Y-55516830D01*
X15202698Y-55524792D01*
X15210708Y-55528519D01*
X15224696Y-55535646D01*
X15224698Y-55535646D01*
X15224700Y-55535647D01*
X15224698Y-55535647D01*
X15318475Y-55550499D01*
X15318481Y-55550500D01*
X15463000Y-55550499D01*
X15530039Y-55570183D01*
X15575794Y-55622987D01*
X15587000Y-55674499D01*
X15587000Y-60865955D01*
X15567315Y-60932994D01*
X15550681Y-60953636D01*
X14641136Y-61863181D01*
X14579813Y-61896666D01*
X14553455Y-61899500D01*
X13202129Y-61899500D01*
X13202123Y-61899501D01*
X13142516Y-61905908D01*
X13007671Y-61956202D01*
X13007664Y-61956206D01*
X12892455Y-62042452D01*
X12892452Y-62042455D01*
X12806206Y-62157664D01*
X12806202Y-62157671D01*
X12755908Y-62292517D01*
X12753540Y-62314547D01*
X12749501Y-62352125D01*
X12749500Y-62352135D01*
X500500Y-62352135D01*
X500500Y-54250000D01*
X13077935Y-54250000D01*
X13089835Y-54325149D01*
X13089837Y-54325155D01*
X13147356Y-54438041D01*
X13147363Y-54438050D01*
X13236949Y-54527636D01*
X13236953Y-54527639D01*
X13349855Y-54585166D01*
X13443514Y-54599999D01*
X13862499Y-54599999D01*
X13862500Y-54599998D01*
X13862500Y-54250000D01*
X13077935Y-54250000D01*
X500500Y-54250000D01*
X500500Y-53850000D01*
X13077932Y-53850000D01*
X13862500Y-53850000D01*
X13862500Y-53500000D01*
X13443520Y-53500000D01*
X13349850Y-53514835D01*
X13349844Y-53514837D01*
X13236958Y-53572356D01*
X13236949Y-53572363D01*
X13147363Y-53661949D01*
X13147360Y-53661953D01*
X13089833Y-53774855D01*
X13077932Y-53850000D01*
X500500Y-53850000D01*
X500500Y-35853389D01*
X13899500Y-35853389D01*
X13899500Y-36026611D01*
X13926598Y-36197701D01*
X13980127Y-36362445D01*
X14058768Y-36516788D01*
X14160586Y-36656928D01*
X14283072Y-36779414D01*
X14423212Y-36881232D01*
X14577555Y-36959873D01*
X14742299Y-37013402D01*
X14913389Y-37040500D01*
X14913390Y-37040500D01*
X15086610Y-37040500D01*
X15086611Y-37040500D01*
X15257701Y-37013402D01*
X15422445Y-36959873D01*
X15576788Y-36881232D01*
X15716928Y-36779414D01*
X15839414Y-36656928D01*
X15941232Y-36516788D01*
X16019873Y-36362445D01*
X16073402Y-36197701D01*
X16100500Y-36026611D01*
X16100500Y-35853389D01*
X29139500Y-35853389D01*
X29139500Y-36026611D01*
X29166598Y-36197701D01*
X29220127Y-36362445D01*
X29298768Y-36516788D01*
X29400586Y-36656928D01*
X29523072Y-36779414D01*
X29663212Y-36881232D01*
X29817555Y-36959873D01*
X29982299Y-37013402D01*
X30153389Y-37040500D01*
X30153390Y-37040500D01*
X30326610Y-37040500D01*
X30326611Y-37040500D01*
X30497701Y-37013402D01*
X30662445Y-36959873D01*
X30816788Y-36881232D01*
X30956928Y-36779414D01*
X31079414Y-36656928D01*
X31181232Y-36516788D01*
X31259873Y-36362445D01*
X31313402Y-36197701D01*
X31340500Y-36026611D01*
X31340500Y-35853389D01*
X31313402Y-35682299D01*
X31259873Y-35517555D01*
X31181232Y-35363212D01*
X31079414Y-35223072D01*
X30956928Y-35100586D01*
X30816788Y-34998768D01*
X30662445Y-34920127D01*
X30497701Y-34866598D01*
X30497699Y-34866597D01*
X30497698Y-34866597D01*
X30366271Y-34845781D01*
X30326611Y-34839500D01*
X30153389Y-34839500D01*
X30113728Y-34845781D01*
X29982302Y-34866597D01*
X29817552Y-34920128D01*
X29663211Y-34998768D01*
X29583256Y-35056859D01*
X29523072Y-35100586D01*
X29523070Y-35100588D01*
X29523069Y-35100588D01*
X29400588Y-35223069D01*
X29400588Y-35223070D01*
X29400586Y-35223072D01*
X29356859Y-35283256D01*
X29298768Y-35363211D01*
X29220128Y-35517552D01*
X29166597Y-35682302D01*
X29139500Y-35853389D01*
X16100500Y-35853389D01*
X16073402Y-35682299D01*
X16019873Y-35517555D01*
X15941232Y-35363212D01*
X15839414Y-35223072D01*
X15716928Y-35100586D01*
X15576788Y-34998768D01*
X15422445Y-34920127D01*
X15257701Y-34866598D01*
X15257699Y-34866597D01*
X15257698Y-34866597D01*
X15126271Y-34845781D01*
X15086611Y-34839500D01*
X14913389Y-34839500D01*
X14873728Y-34845781D01*
X14742302Y-34866597D01*
X14577552Y-34920128D01*
X14423211Y-34998768D01*
X14343256Y-35056859D01*
X14283072Y-35100586D01*
X14283070Y-35100588D01*
X14283069Y-35100588D01*
X14160588Y-35223069D01*
X14160588Y-35223070D01*
X14160586Y-35223072D01*
X14116859Y-35283256D01*
X14058768Y-35363211D01*
X13980128Y-35517552D01*
X13926597Y-35682302D01*
X13899500Y-35853389D01*
X500500Y-35853389D01*
X500500Y-26875756D01*
X13507600Y-26875756D01*
X13507600Y-31353843D01*
X13529812Y-31436743D01*
X13529827Y-31436794D01*
X13531486Y-31442990D01*
X13577627Y-31522908D01*
X13577631Y-31522913D01*
X14372836Y-32318118D01*
X14406321Y-32379441D01*
X14401337Y-32449133D01*
X14359465Y-32505066D01*
X14358042Y-32506116D01*
X14283072Y-32560585D01*
X14160588Y-32683069D01*
X14160588Y-32683070D01*
X14160586Y-32683072D01*
X14141716Y-32709044D01*
X14058768Y-32823211D01*
X13980128Y-32977552D01*
X13926597Y-33142302D01*
X13918654Y-33192454D01*
X13899500Y-33313389D01*
X13899500Y-33486611D01*
X13901958Y-33502128D01*
X13924644Y-33645368D01*
X13926598Y-33657701D01*
X13980127Y-33822445D01*
X14058768Y-33976788D01*
X14160586Y-34116928D01*
X14283072Y-34239414D01*
X14423212Y-34341232D01*
X14577555Y-34419873D01*
X14742299Y-34473402D01*
X14913389Y-34500500D01*
X14913390Y-34500500D01*
X15086610Y-34500500D01*
X15086611Y-34500500D01*
X15257701Y-34473402D01*
X15422445Y-34419873D01*
X15576788Y-34341232D01*
X15716928Y-34239414D01*
X15839414Y-34116928D01*
X15941232Y-33976788D01*
X16019873Y-33822445D01*
X16073402Y-33657701D01*
X16100500Y-33486611D01*
X16100500Y-33313389D01*
X16073402Y-33142299D01*
X16019873Y-32977555D01*
X15941232Y-32823212D01*
X15839414Y-32683072D01*
X15839411Y-32683069D01*
X15836550Y-32679131D01*
X15837975Y-32678094D01*
X15812515Y-32621255D01*
X15822961Y-32552171D01*
X15869098Y-32499700D01*
X15935378Y-32480500D01*
X29304622Y-32480500D01*
X29371661Y-32500185D01*
X29417416Y-32552989D01*
X29427360Y-32622147D01*
X29402046Y-32678111D01*
X29403450Y-32679131D01*
X29400588Y-32683069D01*
X29400586Y-32683072D01*
X29352587Y-32749135D01*
X29298768Y-32823211D01*
X29220128Y-32977552D01*
X29166597Y-33142302D01*
X29158654Y-33192454D01*
X29139500Y-33313389D01*
X29139500Y-33486611D01*
X29141958Y-33502128D01*
X29164644Y-33645368D01*
X29166598Y-33657701D01*
X29220127Y-33822445D01*
X29298768Y-33976788D01*
X29400586Y-34116928D01*
X29523072Y-34239414D01*
X29663212Y-34341232D01*
X29817555Y-34419873D01*
X29982299Y-34473402D01*
X30153389Y-34500500D01*
X30153390Y-34500500D01*
X30326610Y-34500500D01*
X30326611Y-34500500D01*
X30497701Y-34473402D01*
X30662445Y-34419873D01*
X30816788Y-34341232D01*
X30956928Y-34239414D01*
X31079414Y-34116928D01*
X31181232Y-33976788D01*
X31259873Y-33822445D01*
X31313402Y-33657701D01*
X31340500Y-33486611D01*
X31340500Y-33313389D01*
X31313402Y-33142299D01*
X31259873Y-32977555D01*
X31181232Y-32823212D01*
X31079414Y-32683072D01*
X31079411Y-32683069D01*
X31076550Y-32679131D01*
X31077975Y-32678094D01*
X31052515Y-32621255D01*
X31062961Y-32552171D01*
X31109098Y-32499700D01*
X31175378Y-32480500D01*
X34933456Y-32480500D01*
X35000495Y-32500185D01*
X35021137Y-32516819D01*
X36113181Y-33608862D01*
X36146666Y-33670185D01*
X36149500Y-33696543D01*
X36149500Y-34497870D01*
X36149501Y-34497876D01*
X36155908Y-34557483D01*
X36206202Y-34692328D01*
X36206206Y-34692335D01*
X36292452Y-34807544D01*
X36292455Y-34807547D01*
X36407664Y-34893793D01*
X36407671Y-34893797D01*
X36542517Y-34944091D01*
X36542516Y-34944091D01*
X36549444Y-34944835D01*
X36602127Y-34950500D01*
X37397872Y-34950499D01*
X37457483Y-34944091D01*
X37592331Y-34893796D01*
X37707546Y-34807546D01*
X37793796Y-34692331D01*
X37844091Y-34557483D01*
X37850500Y-34497873D01*
X37850499Y-33502128D01*
X37844091Y-33442517D01*
X37820265Y-33378637D01*
X37793797Y-33307671D01*
X37793793Y-33307664D01*
X37707547Y-33192455D01*
X37707544Y-33192452D01*
X37592335Y-33106206D01*
X37592328Y-33106202D01*
X37457482Y-33055908D01*
X37457483Y-33055908D01*
X37397883Y-33049501D01*
X37397881Y-33049500D01*
X37397873Y-33049500D01*
X37397864Y-33049500D01*
X36598808Y-33049501D01*
X36598808Y-33048380D01*
X36535290Y-33033365D01*
X36508978Y-33013297D01*
X35944814Y-32449133D01*
X35345212Y-31849530D01*
X35345211Y-31849529D01*
X35345208Y-31849527D01*
X35265290Y-31803387D01*
X35265285Y-31803385D01*
X35257246Y-31801231D01*
X35257245Y-31801230D01*
X35194310Y-31784367D01*
X35176144Y-31779500D01*
X35176143Y-31779500D01*
X31175378Y-31779500D01*
X31108339Y-31759815D01*
X31062584Y-31707011D01*
X31052640Y-31637853D01*
X31077953Y-31581888D01*
X31076550Y-31580869D01*
X31079411Y-31576930D01*
X31079414Y-31576928D01*
X31181232Y-31436788D01*
X31259873Y-31282445D01*
X31313402Y-31117701D01*
X31340500Y-30946611D01*
X31340500Y-30773389D01*
X31313402Y-30602299D01*
X31259873Y-30437555D01*
X31181232Y-30283212D01*
X31079414Y-30143072D01*
X30956928Y-30020586D01*
X30816788Y-29918768D01*
X30662445Y-29840127D01*
X30497701Y-29786598D01*
X30497699Y-29786597D01*
X30497698Y-29786597D01*
X30366271Y-29765781D01*
X30326611Y-29759500D01*
X30153389Y-29759500D01*
X30113728Y-29765781D01*
X29982302Y-29786597D01*
X29817552Y-29840128D01*
X29663211Y-29918768D01*
X29583256Y-29976859D01*
X29523072Y-30020586D01*
X29523070Y-30020588D01*
X29523069Y-30020588D01*
X29400588Y-30143069D01*
X29400588Y-30143070D01*
X29400586Y-30143072D01*
X29356859Y-30203256D01*
X29298768Y-30283211D01*
X29220128Y-30437552D01*
X29166597Y-30602302D01*
X29145821Y-30733479D01*
X29139500Y-30773389D01*
X29139500Y-30946611D01*
X29166598Y-31117701D01*
X29220127Y-31282445D01*
X29298768Y-31436788D01*
X29400586Y-31576928D01*
X29400588Y-31576930D01*
X29403450Y-31580869D01*
X29402024Y-31581905D01*
X29427485Y-31638745D01*
X29417039Y-31707829D01*
X29370902Y-31760300D01*
X29304622Y-31779500D01*
X15935378Y-31779500D01*
X15868339Y-31759815D01*
X15822584Y-31707011D01*
X15812640Y-31637853D01*
X15837953Y-31581888D01*
X15836550Y-31580869D01*
X15839411Y-31576930D01*
X15839414Y-31576928D01*
X15941232Y-31436788D01*
X16019873Y-31282445D01*
X16073402Y-31117701D01*
X16100500Y-30946611D01*
X16100500Y-30773389D01*
X16073402Y-30602299D01*
X16019873Y-30437555D01*
X16019869Y-30437547D01*
X16018401Y-30433029D01*
X16016406Y-30363188D01*
X16048649Y-30307031D01*
X18918863Y-27436819D01*
X18980186Y-27403334D01*
X19006544Y-27400500D01*
X29304622Y-27400500D01*
X29371661Y-27420185D01*
X29417416Y-27472989D01*
X29427360Y-27542147D01*
X29402046Y-27598111D01*
X29403450Y-27599131D01*
X29400588Y-27603069D01*
X29400586Y-27603072D01*
X29352587Y-27669135D01*
X29298768Y-27743211D01*
X29220128Y-27897552D01*
X29166597Y-28062302D01*
X29139500Y-28233389D01*
X29139500Y-28406610D01*
X29165687Y-28571954D01*
X29166598Y-28577701D01*
X29220127Y-28742445D01*
X29298768Y-28896788D01*
X29400586Y-29036928D01*
X29523072Y-29159414D01*
X29663212Y-29261232D01*
X29817555Y-29339873D01*
X29982299Y-29393402D01*
X30153389Y-29420500D01*
X30153390Y-29420500D01*
X30326610Y-29420500D01*
X30326611Y-29420500D01*
X30497701Y-29393402D01*
X30662445Y-29339873D01*
X30816788Y-29261232D01*
X30956928Y-29159414D01*
X31079414Y-29036928D01*
X31181232Y-28896788D01*
X31259873Y-28742445D01*
X31313402Y-28577701D01*
X31340500Y-28406611D01*
X31340500Y-28233389D01*
X31313402Y-28062299D01*
X31259873Y-27897555D01*
X31181232Y-27743212D01*
X31079414Y-27603072D01*
X31079411Y-27603069D01*
X31076550Y-27599131D01*
X31077975Y-27598094D01*
X31052515Y-27541255D01*
X31062961Y-27472171D01*
X31109098Y-27419700D01*
X31175378Y-27400500D01*
X47996142Y-27400500D01*
X47996144Y-27400500D01*
X48085288Y-27376614D01*
X48165212Y-27330470D01*
X50582292Y-24913389D01*
X53899500Y-24913389D01*
X53899500Y-25086610D01*
X53917967Y-25203211D01*
X53926598Y-25257701D01*
X53980127Y-25422445D01*
X54058768Y-25576788D01*
X54160586Y-25716928D01*
X54283072Y-25839414D01*
X54423212Y-25941232D01*
X54577555Y-26019873D01*
X54742299Y-26073402D01*
X54913389Y-26100500D01*
X54913390Y-26100500D01*
X55086610Y-26100500D01*
X55086611Y-26100500D01*
X55257701Y-26073402D01*
X55422445Y-26019873D01*
X55576788Y-25941232D01*
X55716928Y-25839414D01*
X55839414Y-25716928D01*
X55941232Y-25576788D01*
X56019873Y-25422445D01*
X56073402Y-25257701D01*
X56100500Y-25086611D01*
X56100500Y-24913428D01*
X74400000Y-24913428D01*
X74400000Y-25086571D01*
X74427085Y-25257584D01*
X74480591Y-25422257D01*
X74559195Y-25576523D01*
X74559196Y-25576525D01*
X74593463Y-25623691D01*
X74593464Y-25623691D01*
X75031980Y-25185176D01*
X75034075Y-25192993D01*
X75099901Y-25307007D01*
X75192993Y-25400099D01*
X75307007Y-25465925D01*
X75314822Y-25468019D01*
X74876307Y-25906534D01*
X74923478Y-25940805D01*
X75077742Y-26019408D01*
X75242415Y-26072914D01*
X75413429Y-26100000D01*
X75586571Y-26100000D01*
X75757584Y-26072914D01*
X75922257Y-26019408D01*
X76076525Y-25940803D01*
X76123691Y-25906534D01*
X76123692Y-25906533D01*
X75685178Y-25468019D01*
X75692993Y-25465925D01*
X75807007Y-25400099D01*
X75900099Y-25307007D01*
X75965925Y-25192993D01*
X75968019Y-25185177D01*
X76406533Y-25623692D01*
X76406534Y-25623691D01*
X76440803Y-25576525D01*
X76519408Y-25422257D01*
X76572914Y-25257584D01*
X76600000Y-25086571D01*
X76600000Y-24913428D01*
X76572914Y-24742415D01*
X76519408Y-24577742D01*
X76440805Y-24423478D01*
X76406534Y-24376307D01*
X75968019Y-24814822D01*
X75965925Y-24807007D01*
X75900099Y-24692993D01*
X75807007Y-24599901D01*
X75692993Y-24534075D01*
X75685176Y-24531980D01*
X76123691Y-24093464D01*
X76123691Y-24093463D01*
X76076525Y-24059196D01*
X76076523Y-24059195D01*
X75922257Y-23980591D01*
X75757584Y-23927085D01*
X75586571Y-23900000D01*
X75413429Y-23900000D01*
X75242415Y-23927085D01*
X75077740Y-23980592D01*
X74923475Y-24059196D01*
X74876307Y-24093463D01*
X74876307Y-24093464D01*
X75314823Y-24531980D01*
X75307007Y-24534075D01*
X75192993Y-24599901D01*
X75099901Y-24692993D01*
X75034075Y-24807007D01*
X75031980Y-24814823D01*
X74593464Y-24376307D01*
X74593463Y-24376307D01*
X74559196Y-24423475D01*
X74480592Y-24577740D01*
X74427085Y-24742415D01*
X74400000Y-24913428D01*
X56100500Y-24913428D01*
X56100500Y-24913389D01*
X56073402Y-24742299D01*
X56019873Y-24577555D01*
X55941232Y-24423212D01*
X55839414Y-24283072D01*
X55716928Y-24160586D01*
X55576788Y-24058768D01*
X55422445Y-23980127D01*
X55257701Y-23926598D01*
X55257699Y-23926597D01*
X55257698Y-23926597D01*
X55126271Y-23905781D01*
X55086611Y-23899500D01*
X54913389Y-23899500D01*
X54873728Y-23905781D01*
X54742302Y-23926597D01*
X54577552Y-23980128D01*
X54423211Y-24058768D01*
X54375457Y-24093464D01*
X54283072Y-24160586D01*
X54283070Y-24160588D01*
X54283069Y-24160588D01*
X54160588Y-24283069D01*
X54160588Y-24283070D01*
X54160586Y-24283072D01*
X54138550Y-24313402D01*
X54058768Y-24423211D01*
X53980128Y-24577552D01*
X53926597Y-24742302D01*
X53899500Y-24913389D01*
X50582292Y-24913389D01*
X53082291Y-22413389D01*
X53899500Y-22413389D01*
X53899500Y-22586611D01*
X53926598Y-22757701D01*
X53980127Y-22922445D01*
X54058768Y-23076788D01*
X54160586Y-23216928D01*
X54283072Y-23339414D01*
X54423212Y-23441232D01*
X54577555Y-23519873D01*
X54742299Y-23573402D01*
X54913389Y-23600500D01*
X54913390Y-23600500D01*
X55086610Y-23600500D01*
X55086611Y-23600500D01*
X55257701Y-23573402D01*
X55422445Y-23519873D01*
X55576788Y-23441232D01*
X55716928Y-23339414D01*
X55839414Y-23216928D01*
X55941232Y-23076788D01*
X56019873Y-22922445D01*
X56073402Y-22757701D01*
X56100500Y-22586611D01*
X56100500Y-22413389D01*
X74399500Y-22413389D01*
X74399500Y-22586611D01*
X74426598Y-22757701D01*
X74480127Y-22922445D01*
X74558768Y-23076788D01*
X74660586Y-23216928D01*
X74783072Y-23339414D01*
X74923212Y-23441232D01*
X75077555Y-23519873D01*
X75242299Y-23573402D01*
X75413389Y-23600500D01*
X75413390Y-23600500D01*
X75586610Y-23600500D01*
X75586611Y-23600500D01*
X75757701Y-23573402D01*
X75922445Y-23519873D01*
X76076788Y-23441232D01*
X76216928Y-23339414D01*
X76339414Y-23216928D01*
X76441232Y-23076788D01*
X76519873Y-22922445D01*
X76573402Y-22757701D01*
X76600500Y-22586611D01*
X76600500Y-22413389D01*
X76573402Y-22242299D01*
X76519873Y-22077555D01*
X76441232Y-21923212D01*
X76339414Y-21783072D01*
X76216928Y-21660586D01*
X76076788Y-21558768D01*
X75922445Y-21480127D01*
X75757701Y-21426598D01*
X75757699Y-21426597D01*
X75757698Y-21426597D01*
X75626271Y-21405781D01*
X75586611Y-21399500D01*
X75413389Y-21399500D01*
X75373728Y-21405781D01*
X75242302Y-21426597D01*
X75077552Y-21480128D01*
X74923211Y-21558768D01*
X74889610Y-21583181D01*
X74783072Y-21660586D01*
X74783070Y-21660588D01*
X74783069Y-21660588D01*
X74660588Y-21783069D01*
X74660588Y-21783070D01*
X74660586Y-21783072D01*
X74647924Y-21800500D01*
X74558768Y-21923211D01*
X74480128Y-22077552D01*
X74426597Y-22242302D01*
X74417995Y-22296614D01*
X74399500Y-22413389D01*
X56100500Y-22413389D01*
X56073402Y-22242299D01*
X56019873Y-22077555D01*
X55941232Y-21923212D01*
X55839414Y-21783072D01*
X55716928Y-21660586D01*
X55576788Y-21558768D01*
X55422445Y-21480127D01*
X55257701Y-21426598D01*
X55257699Y-21426597D01*
X55257698Y-21426597D01*
X55126271Y-21405781D01*
X55086611Y-21399500D01*
X54913389Y-21399500D01*
X54873728Y-21405781D01*
X54742302Y-21426597D01*
X54577552Y-21480128D01*
X54423211Y-21558768D01*
X54389610Y-21583181D01*
X54283072Y-21660586D01*
X54283070Y-21660588D01*
X54283069Y-21660588D01*
X54160588Y-21783069D01*
X54160588Y-21783070D01*
X54160586Y-21783072D01*
X54147924Y-21800500D01*
X54058768Y-21923211D01*
X53980128Y-22077552D01*
X53926597Y-22242302D01*
X53917995Y-22296614D01*
X53899500Y-22413389D01*
X53082291Y-22413389D01*
X54447031Y-21048649D01*
X54508352Y-21015166D01*
X54573029Y-21018401D01*
X54577547Y-21019869D01*
X54577555Y-21019873D01*
X54742299Y-21073402D01*
X54913389Y-21100500D01*
X54913390Y-21100500D01*
X55086610Y-21100500D01*
X55086611Y-21100500D01*
X55257701Y-21073402D01*
X55422445Y-21019873D01*
X55576788Y-20941232D01*
X55716928Y-20839414D01*
X55839414Y-20716928D01*
X55941232Y-20576788D01*
X56019873Y-20422445D01*
X56073402Y-20257701D01*
X56100500Y-20086611D01*
X56100500Y-19913389D01*
X74399500Y-19913389D01*
X74399500Y-20086610D01*
X74426597Y-20257697D01*
X74426597Y-20257699D01*
X74426598Y-20257701D01*
X74480127Y-20422445D01*
X74558768Y-20576788D01*
X74660586Y-20716928D01*
X74783072Y-20839414D01*
X74923212Y-20941232D01*
X75077555Y-21019873D01*
X75242299Y-21073402D01*
X75413389Y-21100500D01*
X75413390Y-21100500D01*
X75586610Y-21100500D01*
X75586611Y-21100500D01*
X75757701Y-21073402D01*
X75922445Y-21019873D01*
X76076788Y-20941232D01*
X76216928Y-20839414D01*
X76339414Y-20716928D01*
X76441232Y-20576788D01*
X76519873Y-20422445D01*
X76573402Y-20257701D01*
X76600500Y-20086611D01*
X76600500Y-19913389D01*
X76573402Y-19742299D01*
X76519873Y-19577555D01*
X76441232Y-19423212D01*
X76339414Y-19283072D01*
X76216928Y-19160586D01*
X76076788Y-19058768D01*
X75922445Y-18980127D01*
X75757701Y-18926598D01*
X75757699Y-18926597D01*
X75757698Y-18926597D01*
X75626271Y-18905781D01*
X75586611Y-18899500D01*
X75413389Y-18899500D01*
X75373728Y-18905781D01*
X75242302Y-18926597D01*
X75077552Y-18980128D01*
X74923211Y-19058768D01*
X74843256Y-19116859D01*
X74783072Y-19160586D01*
X74783070Y-19160588D01*
X74783069Y-19160588D01*
X74660588Y-19283069D01*
X74660588Y-19283070D01*
X74660586Y-19283072D01*
X74616859Y-19343256D01*
X74558768Y-19423211D01*
X74480128Y-19577552D01*
X74426597Y-19742302D01*
X74399500Y-19913389D01*
X56100500Y-19913389D01*
X56073402Y-19742299D01*
X56019873Y-19577555D01*
X55941232Y-19423212D01*
X55839414Y-19283072D01*
X55716928Y-19160586D01*
X55576788Y-19058768D01*
X55422445Y-18980127D01*
X55257701Y-18926598D01*
X55257699Y-18926597D01*
X55257698Y-18926597D01*
X55126271Y-18905781D01*
X55086611Y-18899500D01*
X54913389Y-18899500D01*
X54873728Y-18905781D01*
X54742302Y-18926597D01*
X54577552Y-18980128D01*
X54423211Y-19058768D01*
X54343256Y-19116859D01*
X54283072Y-19160586D01*
X54283070Y-19160588D01*
X54283069Y-19160588D01*
X54160588Y-19283069D01*
X54160588Y-19283070D01*
X54160586Y-19283072D01*
X54116859Y-19343256D01*
X54058768Y-19423211D01*
X53980128Y-19577552D01*
X53926597Y-19742302D01*
X53899500Y-19913389D01*
X53899500Y-20086610D01*
X53926597Y-20257698D01*
X53981597Y-20426970D01*
X53983592Y-20496811D01*
X53951347Y-20552969D01*
X47841137Y-26663181D01*
X47779814Y-26696666D01*
X47753456Y-26699500D01*
X31175378Y-26699500D01*
X31108339Y-26679815D01*
X31062584Y-26627011D01*
X31052640Y-26557853D01*
X31077953Y-26501888D01*
X31076550Y-26500869D01*
X31079413Y-26496929D01*
X31079414Y-26496928D01*
X31181232Y-26356788D01*
X31259873Y-26202445D01*
X31313402Y-26037701D01*
X31340500Y-25866611D01*
X31340500Y-25693389D01*
X31313402Y-25522299D01*
X31259873Y-25357555D01*
X31181232Y-25203212D01*
X31079414Y-25063072D01*
X30956928Y-24940586D01*
X30816788Y-24838768D01*
X30662445Y-24760127D01*
X30497701Y-24706598D01*
X30497699Y-24706597D01*
X30497698Y-24706597D01*
X30366271Y-24685781D01*
X30326611Y-24679500D01*
X30153389Y-24679500D01*
X30113728Y-24685781D01*
X29982302Y-24706597D01*
X29982299Y-24706598D01*
X29872067Y-24742415D01*
X29817552Y-24760128D01*
X29663211Y-24838768D01*
X29583256Y-24896859D01*
X29523072Y-24940586D01*
X29523070Y-24940588D01*
X29523069Y-24940588D01*
X29400588Y-25063069D01*
X29400588Y-25063070D01*
X29400586Y-25063072D01*
X29383513Y-25086571D01*
X29298768Y-25203211D01*
X29220128Y-25357552D01*
X29166597Y-25522302D01*
X29139500Y-25693389D01*
X29139500Y-25866610D01*
X29166597Y-26037697D01*
X29166597Y-26037699D01*
X29166598Y-26037701D01*
X29220127Y-26202445D01*
X29298768Y-26356788D01*
X29400586Y-26496928D01*
X29400587Y-26496929D01*
X29403450Y-26500869D01*
X29402024Y-26501905D01*
X29427485Y-26558745D01*
X29417039Y-26627829D01*
X29370902Y-26680300D01*
X29304622Y-26699500D01*
X18763856Y-26699500D01*
X18682753Y-26721230D01*
X18682754Y-26721231D01*
X18674713Y-26723385D01*
X18674709Y-26723387D01*
X18594791Y-26769527D01*
X18594788Y-26769530D01*
X15552969Y-29811347D01*
X15491646Y-29844832D01*
X15426970Y-29841597D01*
X15257698Y-29786597D01*
X15126271Y-29765781D01*
X15086611Y-29759500D01*
X14913389Y-29759500D01*
X14873728Y-29765781D01*
X14742302Y-29786597D01*
X14577552Y-29840128D01*
X14423209Y-29918769D01*
X14405483Y-29931648D01*
X14339676Y-29955126D01*
X14271623Y-29939299D01*
X14222929Y-29889192D01*
X14208600Y-29831328D01*
X14208600Y-29348671D01*
X14228285Y-29281632D01*
X14281089Y-29235877D01*
X14350247Y-29225933D01*
X14405486Y-29248354D01*
X14423207Y-29261229D01*
X14423209Y-29261230D01*
X14423212Y-29261232D01*
X14577555Y-29339873D01*
X14742299Y-29393402D01*
X14913389Y-29420500D01*
X14913390Y-29420500D01*
X15086610Y-29420500D01*
X15086611Y-29420500D01*
X15257701Y-29393402D01*
X15422445Y-29339873D01*
X15576788Y-29261232D01*
X15716928Y-29159414D01*
X15839414Y-29036928D01*
X15941232Y-28896788D01*
X16019873Y-28742445D01*
X16073402Y-28577701D01*
X16100500Y-28406611D01*
X16100500Y-28233389D01*
X16073402Y-28062299D01*
X16019873Y-27897555D01*
X16019869Y-27897547D01*
X16018401Y-27893029D01*
X16016406Y-27823188D01*
X16048649Y-27767031D01*
X21458863Y-22356819D01*
X21520186Y-22323334D01*
X21546544Y-22320500D01*
X29304622Y-22320500D01*
X29371661Y-22340185D01*
X29417416Y-22392989D01*
X29427360Y-22462147D01*
X29402046Y-22518111D01*
X29403450Y-22519131D01*
X29400588Y-22523069D01*
X29400586Y-22523072D01*
X29354423Y-22586610D01*
X29298768Y-22663211D01*
X29220128Y-22817552D01*
X29166597Y-22982302D01*
X29151632Y-23076788D01*
X29139500Y-23153389D01*
X29139500Y-23326611D01*
X29166598Y-23497701D01*
X29220127Y-23662445D01*
X29298768Y-23816788D01*
X29400586Y-23956928D01*
X29523072Y-24079414D01*
X29663212Y-24181232D01*
X29817555Y-24259873D01*
X29982299Y-24313402D01*
X30153389Y-24340500D01*
X30153390Y-24340500D01*
X30326610Y-24340500D01*
X30326611Y-24340500D01*
X30497701Y-24313402D01*
X30662445Y-24259873D01*
X30816788Y-24181232D01*
X30956928Y-24079414D01*
X31079414Y-23956928D01*
X31181232Y-23816788D01*
X31259873Y-23662445D01*
X31313402Y-23497701D01*
X31340500Y-23326611D01*
X31340500Y-23153389D01*
X31313402Y-22982299D01*
X31259873Y-22817555D01*
X31181232Y-22663212D01*
X31079414Y-22523072D01*
X31079411Y-22523069D01*
X31076550Y-22519131D01*
X31077975Y-22518094D01*
X31052515Y-22461255D01*
X31062961Y-22392171D01*
X31109098Y-22339700D01*
X31175378Y-22320500D01*
X32041042Y-22320500D01*
X32041044Y-22320500D01*
X32130188Y-22296614D01*
X32210112Y-22250470D01*
X37047193Y-17413389D01*
X53899500Y-17413389D01*
X53899500Y-17586610D01*
X53923406Y-17737552D01*
X53926598Y-17757701D01*
X53980127Y-17922445D01*
X54058768Y-18076788D01*
X54160586Y-18216928D01*
X54283072Y-18339414D01*
X54423212Y-18441232D01*
X54577555Y-18519873D01*
X54742299Y-18573402D01*
X54913389Y-18600500D01*
X54913390Y-18600500D01*
X55086610Y-18600500D01*
X55086611Y-18600500D01*
X55257701Y-18573402D01*
X55422445Y-18519873D01*
X55576788Y-18441232D01*
X55716928Y-18339414D01*
X55839414Y-18216928D01*
X55941232Y-18076788D01*
X56019873Y-17922445D01*
X56073402Y-17757701D01*
X56100500Y-17586611D01*
X56100500Y-17413389D01*
X74399500Y-17413389D01*
X74399500Y-17586610D01*
X74423406Y-17737552D01*
X74426598Y-17757701D01*
X74480127Y-17922445D01*
X74558768Y-18076788D01*
X74660586Y-18216928D01*
X74783072Y-18339414D01*
X74923212Y-18441232D01*
X75077555Y-18519873D01*
X75242299Y-18573402D01*
X75413389Y-18600500D01*
X75413390Y-18600500D01*
X75586610Y-18600500D01*
X75586611Y-18600500D01*
X75757701Y-18573402D01*
X75922445Y-18519873D01*
X76076788Y-18441232D01*
X76216928Y-18339414D01*
X76339414Y-18216928D01*
X76441232Y-18076788D01*
X76519873Y-17922445D01*
X76573402Y-17757701D01*
X76600500Y-17586611D01*
X76600500Y-17413389D01*
X76573402Y-17242299D01*
X76519873Y-17077555D01*
X76441232Y-16923212D01*
X76339414Y-16783072D01*
X76216928Y-16660586D01*
X76076788Y-16558768D01*
X75922445Y-16480127D01*
X75757701Y-16426598D01*
X75757699Y-16426597D01*
X75757698Y-16426597D01*
X75626271Y-16405781D01*
X75586611Y-16399500D01*
X75413389Y-16399500D01*
X75373728Y-16405781D01*
X75242302Y-16426597D01*
X75077552Y-16480128D01*
X74923211Y-16558768D01*
X74843256Y-16616859D01*
X74783072Y-16660586D01*
X74783070Y-16660588D01*
X74783069Y-16660588D01*
X74660588Y-16783069D01*
X74660588Y-16783070D01*
X74660586Y-16783072D01*
X74616859Y-16843256D01*
X74558768Y-16923211D01*
X74480128Y-17077552D01*
X74426597Y-17242302D01*
X74399500Y-17413389D01*
X56100500Y-17413389D01*
X56073402Y-17242299D01*
X56019873Y-17077555D01*
X55941232Y-16923212D01*
X55839414Y-16783072D01*
X55716928Y-16660586D01*
X55576788Y-16558768D01*
X55422445Y-16480127D01*
X55257701Y-16426598D01*
X55257699Y-16426597D01*
X55257698Y-16426597D01*
X55126271Y-16405781D01*
X55086611Y-16399500D01*
X54913389Y-16399500D01*
X54873728Y-16405781D01*
X54742302Y-16426597D01*
X54577552Y-16480128D01*
X54423211Y-16558768D01*
X54343256Y-16616859D01*
X54283072Y-16660586D01*
X54283070Y-16660588D01*
X54283069Y-16660588D01*
X54160588Y-16783069D01*
X54160588Y-16783070D01*
X54160586Y-16783072D01*
X54116859Y-16843256D01*
X54058768Y-16923211D01*
X53980128Y-17077552D01*
X53926597Y-17242302D01*
X53899500Y-17413389D01*
X37047193Y-17413389D01*
X39547193Y-14913389D01*
X53899500Y-14913389D01*
X53899500Y-15086611D01*
X53926598Y-15257701D01*
X53980127Y-15422445D01*
X54058768Y-15576788D01*
X54160586Y-15716928D01*
X54283072Y-15839414D01*
X54423212Y-15941232D01*
X54577555Y-16019873D01*
X54742299Y-16073402D01*
X54913389Y-16100500D01*
X54913390Y-16100500D01*
X55086610Y-16100500D01*
X55086611Y-16100500D01*
X55257701Y-16073402D01*
X55422445Y-16019873D01*
X55576788Y-15941232D01*
X55716928Y-15839414D01*
X55839414Y-15716928D01*
X55941232Y-15576788D01*
X56019873Y-15422445D01*
X56073402Y-15257701D01*
X56100500Y-15086611D01*
X56100500Y-14913389D01*
X74399500Y-14913389D01*
X74399500Y-15086611D01*
X74426598Y-15257701D01*
X74480127Y-15422445D01*
X74558768Y-15576788D01*
X74660586Y-15716928D01*
X74783072Y-15839414D01*
X74923212Y-15941232D01*
X75077555Y-16019873D01*
X75242299Y-16073402D01*
X75413389Y-16100500D01*
X75413390Y-16100500D01*
X75586610Y-16100500D01*
X75586611Y-16100500D01*
X75757701Y-16073402D01*
X75922445Y-16019873D01*
X76076788Y-15941232D01*
X76216928Y-15839414D01*
X76339414Y-15716928D01*
X76441232Y-15576788D01*
X76519873Y-15422445D01*
X76573402Y-15257701D01*
X76600500Y-15086611D01*
X76600500Y-14913389D01*
X76573402Y-14742299D01*
X76519873Y-14577555D01*
X76441232Y-14423212D01*
X76339414Y-14283072D01*
X76216928Y-14160586D01*
X76076788Y-14058768D01*
X75922445Y-13980127D01*
X75757701Y-13926598D01*
X75757699Y-13926597D01*
X75757698Y-13926597D01*
X75626271Y-13905781D01*
X75586611Y-13899500D01*
X75413389Y-13899500D01*
X75373728Y-13905781D01*
X75242302Y-13926597D01*
X75077552Y-13980128D01*
X74923211Y-14058768D01*
X74866636Y-14099873D01*
X74783072Y-14160586D01*
X74783070Y-14160588D01*
X74783069Y-14160588D01*
X74660588Y-14283069D01*
X74660588Y-14283070D01*
X74660586Y-14283072D01*
X74616859Y-14343256D01*
X74558768Y-14423211D01*
X74480128Y-14577552D01*
X74426597Y-14742302D01*
X74401134Y-14903070D01*
X74399500Y-14913389D01*
X56100500Y-14913389D01*
X56073402Y-14742299D01*
X56019873Y-14577555D01*
X55941232Y-14423212D01*
X55839414Y-14283072D01*
X55716928Y-14160586D01*
X55576788Y-14058768D01*
X55422445Y-13980127D01*
X55257701Y-13926598D01*
X55257699Y-13926597D01*
X55257698Y-13926597D01*
X55126271Y-13905781D01*
X55086611Y-13899500D01*
X54913389Y-13899500D01*
X54873728Y-13905781D01*
X54742302Y-13926597D01*
X54577552Y-13980128D01*
X54423211Y-14058768D01*
X54366636Y-14099873D01*
X54283072Y-14160586D01*
X54283070Y-14160588D01*
X54283069Y-14160588D01*
X54160588Y-14283069D01*
X54160588Y-14283070D01*
X54160586Y-14283072D01*
X54116859Y-14343256D01*
X54058768Y-14423211D01*
X53980128Y-14577552D01*
X53926597Y-14742302D01*
X53901134Y-14903070D01*
X53899500Y-14913389D01*
X39547193Y-14913389D01*
X42047193Y-12413389D01*
X53899500Y-12413389D01*
X53899500Y-12586611D01*
X53926598Y-12757701D01*
X53980127Y-12922445D01*
X54058768Y-13076788D01*
X54160586Y-13216928D01*
X54283072Y-13339414D01*
X54423212Y-13441232D01*
X54577555Y-13519873D01*
X54742299Y-13573402D01*
X54913389Y-13600500D01*
X54913390Y-13600500D01*
X55086610Y-13600500D01*
X55086611Y-13600500D01*
X55257701Y-13573402D01*
X55422445Y-13519873D01*
X55576788Y-13441232D01*
X55716928Y-13339414D01*
X55839414Y-13216928D01*
X55941232Y-13076788D01*
X56019873Y-12922445D01*
X56073402Y-12757701D01*
X56100500Y-12586611D01*
X56100500Y-12413389D01*
X74399500Y-12413389D01*
X74399500Y-12586611D01*
X74426598Y-12757701D01*
X74480127Y-12922445D01*
X74558768Y-13076788D01*
X74660586Y-13216928D01*
X74783072Y-13339414D01*
X74923212Y-13441232D01*
X75077555Y-13519873D01*
X75242299Y-13573402D01*
X75413389Y-13600500D01*
X75413390Y-13600500D01*
X75586610Y-13600500D01*
X75586611Y-13600500D01*
X75757701Y-13573402D01*
X75922445Y-13519873D01*
X76076788Y-13441232D01*
X76216928Y-13339414D01*
X76339414Y-13216928D01*
X76441232Y-13076788D01*
X76519873Y-12922445D01*
X76573402Y-12757701D01*
X76600500Y-12586611D01*
X76600500Y-12413389D01*
X76573402Y-12242299D01*
X76519873Y-12077555D01*
X76441232Y-11923212D01*
X76339414Y-11783072D01*
X76216928Y-11660586D01*
X76076788Y-11558768D01*
X75922445Y-11480127D01*
X75757701Y-11426598D01*
X75757699Y-11426597D01*
X75757698Y-11426597D01*
X75626271Y-11405781D01*
X75586611Y-11399500D01*
X75413389Y-11399500D01*
X75373728Y-11405781D01*
X75242302Y-11426597D01*
X75077552Y-11480128D01*
X74923211Y-11558768D01*
X74848687Y-11612914D01*
X74783072Y-11660586D01*
X74783070Y-11660588D01*
X74783069Y-11660588D01*
X74660588Y-11783069D01*
X74660588Y-11783070D01*
X74660586Y-11783072D01*
X74616859Y-11843256D01*
X74558768Y-11923211D01*
X74480128Y-12077552D01*
X74426597Y-12242302D01*
X74407470Y-12363069D01*
X74399500Y-12413389D01*
X56100500Y-12413389D01*
X56073402Y-12242299D01*
X56019873Y-12077555D01*
X55941232Y-11923212D01*
X55839414Y-11783072D01*
X55716928Y-11660586D01*
X55576788Y-11558768D01*
X55422445Y-11480127D01*
X55257701Y-11426598D01*
X55257699Y-11426597D01*
X55257698Y-11426597D01*
X55126271Y-11405781D01*
X55086611Y-11399500D01*
X54913389Y-11399500D01*
X54873728Y-11405781D01*
X54742302Y-11426597D01*
X54577552Y-11480128D01*
X54423211Y-11558768D01*
X54348687Y-11612914D01*
X54283072Y-11660586D01*
X54283070Y-11660588D01*
X54283069Y-11660588D01*
X54160588Y-11783069D01*
X54160588Y-11783070D01*
X54160586Y-11783072D01*
X54116859Y-11843256D01*
X54058768Y-11923211D01*
X53980128Y-12077552D01*
X53926597Y-12242302D01*
X53907470Y-12363069D01*
X53899500Y-12413389D01*
X42047193Y-12413389D01*
X44547193Y-9913389D01*
X53899500Y-9913389D01*
X53899500Y-10086610D01*
X53926511Y-10257157D01*
X53926598Y-10257701D01*
X53980127Y-10422445D01*
X54058768Y-10576788D01*
X54160586Y-10716928D01*
X54283072Y-10839414D01*
X54423212Y-10941232D01*
X54577555Y-11019873D01*
X54742299Y-11073402D01*
X54913389Y-11100500D01*
X54913390Y-11100500D01*
X55086610Y-11100500D01*
X55086611Y-11100500D01*
X55257701Y-11073402D01*
X55422445Y-11019873D01*
X55576788Y-10941232D01*
X55716928Y-10839414D01*
X55839414Y-10716928D01*
X55941232Y-10576788D01*
X56019873Y-10422445D01*
X56073402Y-10257701D01*
X56100500Y-10086611D01*
X56100500Y-9913389D01*
X74399500Y-9913389D01*
X74399500Y-10086610D01*
X74426511Y-10257157D01*
X74426598Y-10257701D01*
X74480127Y-10422445D01*
X74558768Y-10576788D01*
X74660586Y-10716928D01*
X74783072Y-10839414D01*
X74923212Y-10941232D01*
X75077555Y-11019873D01*
X75242299Y-11073402D01*
X75413389Y-11100500D01*
X75413390Y-11100500D01*
X75586610Y-11100500D01*
X75586611Y-11100500D01*
X75757701Y-11073402D01*
X75922445Y-11019873D01*
X76076788Y-10941232D01*
X76216928Y-10839414D01*
X76339414Y-10716928D01*
X76441232Y-10576788D01*
X76519873Y-10422445D01*
X76573402Y-10257701D01*
X76600500Y-10086611D01*
X76600500Y-9913389D01*
X76573402Y-9742299D01*
X76519873Y-9577555D01*
X76441232Y-9423212D01*
X76339414Y-9283072D01*
X76216928Y-9160586D01*
X76076788Y-9058768D01*
X75922445Y-8980127D01*
X75757701Y-8926598D01*
X75757699Y-8926597D01*
X75757698Y-8926597D01*
X75626271Y-8905781D01*
X75586611Y-8899500D01*
X75413389Y-8899500D01*
X75373728Y-8905781D01*
X75242302Y-8926597D01*
X75077552Y-8980128D01*
X74923211Y-9058768D01*
X74865774Y-9100499D01*
X74783072Y-9160586D01*
X74783070Y-9160588D01*
X74783069Y-9160588D01*
X74660588Y-9283069D01*
X74660588Y-9283070D01*
X74660586Y-9283072D01*
X74616859Y-9343256D01*
X74558768Y-9423211D01*
X74480128Y-9577552D01*
X74426597Y-9742302D01*
X74399500Y-9913389D01*
X56100500Y-9913389D01*
X56073402Y-9742299D01*
X56019873Y-9577555D01*
X55941232Y-9423212D01*
X55839414Y-9283072D01*
X55716928Y-9160586D01*
X55576788Y-9058768D01*
X55422445Y-8980127D01*
X55257701Y-8926598D01*
X55257699Y-8926597D01*
X55257698Y-8926597D01*
X55126271Y-8905781D01*
X55086611Y-8899500D01*
X54913389Y-8899500D01*
X54873728Y-8905781D01*
X54742302Y-8926597D01*
X54577552Y-8980128D01*
X54423211Y-9058768D01*
X54365774Y-9100499D01*
X54283072Y-9160586D01*
X54283070Y-9160588D01*
X54283069Y-9160588D01*
X54160588Y-9283069D01*
X54160588Y-9283070D01*
X54160586Y-9283072D01*
X54116859Y-9343256D01*
X54058768Y-9423211D01*
X53980128Y-9577552D01*
X53926597Y-9742302D01*
X53899500Y-9913389D01*
X44547193Y-9913389D01*
X47972063Y-6488519D01*
X48033386Y-6455034D01*
X48059744Y-6452200D01*
X54192096Y-6452200D01*
X54259135Y-6471885D01*
X54304890Y-6524689D01*
X54314834Y-6593847D01*
X54285809Y-6657403D01*
X54279777Y-6663881D01*
X54160588Y-6783069D01*
X54160588Y-6783070D01*
X54160586Y-6783072D01*
X54116859Y-6843256D01*
X54058768Y-6923211D01*
X53980128Y-7077552D01*
X53926597Y-7242302D01*
X53899500Y-7413389D01*
X53899500Y-7586611D01*
X53926598Y-7757701D01*
X53980127Y-7922445D01*
X54058768Y-8076788D01*
X54160586Y-8216928D01*
X54283072Y-8339414D01*
X54423212Y-8441232D01*
X54577555Y-8519873D01*
X54742299Y-8573402D01*
X54913389Y-8600500D01*
X54913390Y-8600500D01*
X55086610Y-8600500D01*
X55086611Y-8600500D01*
X55257701Y-8573402D01*
X55422445Y-8519873D01*
X55576788Y-8441232D01*
X55716928Y-8339414D01*
X55839414Y-8216928D01*
X55941232Y-8076788D01*
X56019873Y-7922445D01*
X56073402Y-7757701D01*
X56100500Y-7586611D01*
X56100500Y-7413389D01*
X74399500Y-7413389D01*
X74399500Y-7586611D01*
X74426598Y-7757701D01*
X74480127Y-7922445D01*
X74558768Y-8076788D01*
X74660586Y-8216928D01*
X74783072Y-8339414D01*
X74923212Y-8441232D01*
X75077555Y-8519873D01*
X75242299Y-8573402D01*
X75413389Y-8600500D01*
X75413390Y-8600500D01*
X75586610Y-8600500D01*
X75586611Y-8600500D01*
X75757701Y-8573402D01*
X75922445Y-8519873D01*
X76076788Y-8441232D01*
X76216928Y-8339414D01*
X76339414Y-8216928D01*
X76441232Y-8076788D01*
X76519873Y-7922445D01*
X76573402Y-7757701D01*
X76600500Y-7586611D01*
X76600500Y-7413389D01*
X76573402Y-7242299D01*
X76519873Y-7077555D01*
X76441232Y-6923212D01*
X76339414Y-6783072D01*
X76216928Y-6660586D01*
X76076788Y-6558768D01*
X75922445Y-6480127D01*
X75757701Y-6426598D01*
X75757699Y-6426597D01*
X75757698Y-6426597D01*
X75626271Y-6405781D01*
X75586611Y-6399500D01*
X75413389Y-6399500D01*
X75381192Y-6404599D01*
X75242301Y-6426597D01*
X75242302Y-6426597D01*
X75077552Y-6480128D01*
X74923211Y-6558768D01*
X74874930Y-6593847D01*
X74783072Y-6660586D01*
X74783070Y-6660588D01*
X74783069Y-6660588D01*
X74660588Y-6783069D01*
X74660588Y-6783070D01*
X74660586Y-6783072D01*
X74616859Y-6843256D01*
X74558768Y-6923211D01*
X74480128Y-7077552D01*
X74426597Y-7242302D01*
X74399500Y-7413389D01*
X56100500Y-7413389D01*
X56073402Y-7242299D01*
X56019873Y-7077555D01*
X55941232Y-6923212D01*
X55839414Y-6783072D01*
X55720223Y-6663881D01*
X55686738Y-6602558D01*
X55691722Y-6532866D01*
X55733594Y-6476933D01*
X55799058Y-6452516D01*
X55807904Y-6452200D01*
X73342742Y-6452200D01*
X73342744Y-6452200D01*
X73431888Y-6428314D01*
X73434860Y-6426598D01*
X73511812Y-6382170D01*
X74187819Y-5706163D01*
X74249142Y-5672678D01*
X74318834Y-5677662D01*
X74374767Y-5719534D01*
X74399184Y-5784998D01*
X74399500Y-5793844D01*
X74399500Y-5874678D01*
X74414032Y-5947735D01*
X74414033Y-5947739D01*
X74414034Y-5947740D01*
X74469399Y-6030601D01*
X74552260Y-6085966D01*
X74552264Y-6085967D01*
X74625321Y-6100499D01*
X74625324Y-6100500D01*
X74625326Y-6100500D01*
X76374676Y-6100500D01*
X76374677Y-6100499D01*
X76447740Y-6085966D01*
X76530601Y-6030601D01*
X76585966Y-5947740D01*
X76600500Y-5874674D01*
X76600500Y-4125326D01*
X76600500Y-4125323D01*
X76600499Y-4125321D01*
X76585967Y-4052264D01*
X76585966Y-4052260D01*
X76530601Y-3969399D01*
X76447740Y-3914034D01*
X76447739Y-3914033D01*
X76447735Y-3914032D01*
X76374677Y-3899500D01*
X76374674Y-3899500D01*
X74625326Y-3899500D01*
X74625323Y-3899500D01*
X74552264Y-3914032D01*
X74552260Y-3914033D01*
X74469399Y-3969399D01*
X74414033Y-4052260D01*
X74414032Y-4052264D01*
X74399500Y-4125321D01*
X74399500Y-4541665D01*
X74379815Y-4608704D01*
X74327011Y-4654459D01*
X74307595Y-4661439D01*
X74263016Y-4673384D01*
X74263009Y-4673387D01*
X74183091Y-4719527D01*
X74183086Y-4719531D01*
X73187737Y-5714881D01*
X73126414Y-5748366D01*
X73100056Y-5751200D01*
X56224500Y-5751200D01*
X56157461Y-5731515D01*
X56111706Y-5678711D01*
X56100500Y-5627200D01*
X56100500Y-4125323D01*
X56100499Y-4125321D01*
X56085967Y-4052264D01*
X56085966Y-4052260D01*
X56030601Y-3969399D01*
X55947740Y-3914034D01*
X55947739Y-3914033D01*
X55947735Y-3914032D01*
X55874677Y-3899500D01*
X55874674Y-3899500D01*
X54125326Y-3899500D01*
X54125323Y-3899500D01*
X54052264Y-3914032D01*
X54052260Y-3914033D01*
X53969399Y-3969399D01*
X53914033Y-4052260D01*
X53914032Y-4052264D01*
X53899500Y-4125321D01*
X53899500Y-5627200D01*
X53879815Y-5694239D01*
X53827011Y-5739994D01*
X53775500Y-5751200D01*
X47817056Y-5751200D01*
X47727912Y-5775086D01*
X47727909Y-5775087D01*
X47647991Y-5821227D01*
X47647986Y-5821231D01*
X31886037Y-21583181D01*
X31824714Y-21616666D01*
X31798356Y-21619500D01*
X31175378Y-21619500D01*
X31108339Y-21599815D01*
X31062584Y-21547011D01*
X31052640Y-21477853D01*
X31077953Y-21421888D01*
X31076550Y-21420869D01*
X31079413Y-21416929D01*
X31079414Y-21416928D01*
X31181232Y-21276788D01*
X31259873Y-21122445D01*
X31313402Y-20957701D01*
X31340500Y-20786611D01*
X31340500Y-20613389D01*
X31313402Y-20442299D01*
X31259873Y-20277555D01*
X31181232Y-20123212D01*
X31079414Y-19983072D01*
X30956928Y-19860586D01*
X30816788Y-19758768D01*
X30662445Y-19680127D01*
X30497701Y-19626598D01*
X30497699Y-19626597D01*
X30497698Y-19626597D01*
X30366271Y-19605781D01*
X30326611Y-19599500D01*
X30153389Y-19599500D01*
X30113728Y-19605781D01*
X29982302Y-19626597D01*
X29817552Y-19680128D01*
X29663211Y-19758768D01*
X29583256Y-19816859D01*
X29523072Y-19860586D01*
X29523070Y-19860588D01*
X29523069Y-19860588D01*
X29400588Y-19983069D01*
X29400588Y-19983070D01*
X29400586Y-19983072D01*
X29356859Y-20043256D01*
X29298768Y-20123211D01*
X29220128Y-20277552D01*
X29166597Y-20442302D01*
X29139500Y-20613389D01*
X29139500Y-20786610D01*
X29163989Y-20941232D01*
X29166598Y-20957701D01*
X29220127Y-21122445D01*
X29298768Y-21276788D01*
X29400586Y-21416928D01*
X29400587Y-21416929D01*
X29403450Y-21420869D01*
X29402024Y-21421905D01*
X29427485Y-21478745D01*
X29417039Y-21547829D01*
X29370902Y-21600300D01*
X29304622Y-21619500D01*
X21303856Y-21619500D01*
X21222753Y-21641230D01*
X21222754Y-21641231D01*
X21214713Y-21643385D01*
X21214709Y-21643387D01*
X21134791Y-21689527D01*
X21134786Y-21689531D01*
X15552969Y-27271347D01*
X15491646Y-27304832D01*
X15426970Y-27301597D01*
X15257698Y-27246597D01*
X15126271Y-27225781D01*
X15086611Y-27219500D01*
X14913389Y-27219500D01*
X14873728Y-27225781D01*
X14742302Y-27246597D01*
X14577552Y-27300128D01*
X14423209Y-27378769D01*
X14405483Y-27391648D01*
X14393623Y-27395878D01*
X14384111Y-27404122D01*
X14361343Y-27407395D01*
X14339676Y-27415126D01*
X14327414Y-27412274D01*
X14314953Y-27414066D01*
X14294027Y-27404509D01*
X14271623Y-27399299D01*
X14262849Y-27390271D01*
X14251397Y-27385041D01*
X14238959Y-27365687D01*
X14222929Y-27349192D01*
X14219525Y-27335447D01*
X14213623Y-27326263D01*
X14208600Y-27291328D01*
X14208600Y-27118443D01*
X14228285Y-27051404D01*
X14244915Y-27030766D01*
X14447031Y-26828649D01*
X14508352Y-26795166D01*
X14573029Y-26798401D01*
X14577547Y-26799869D01*
X14577555Y-26799873D01*
X14742299Y-26853402D01*
X14913389Y-26880500D01*
X14913390Y-26880500D01*
X15086610Y-26880500D01*
X15086611Y-26880500D01*
X15257701Y-26853402D01*
X15422445Y-26799873D01*
X15576788Y-26721232D01*
X15716928Y-26619414D01*
X15839414Y-26496928D01*
X15941232Y-26356788D01*
X16019873Y-26202445D01*
X16073402Y-26037701D01*
X16100500Y-25866611D01*
X16100500Y-25693389D01*
X16073402Y-25522299D01*
X16019873Y-25357555D01*
X15941232Y-25203212D01*
X15839414Y-25063072D01*
X15716928Y-24940586D01*
X15576788Y-24838768D01*
X15422445Y-24760127D01*
X15257701Y-24706598D01*
X15257699Y-24706597D01*
X15257698Y-24706597D01*
X15126271Y-24685781D01*
X15086611Y-24679500D01*
X14913389Y-24679500D01*
X14873728Y-24685781D01*
X14742302Y-24706597D01*
X14742299Y-24706598D01*
X14632067Y-24742415D01*
X14577552Y-24760128D01*
X14423211Y-24838768D01*
X14343256Y-24896859D01*
X14283072Y-24940586D01*
X14283070Y-24940588D01*
X14283069Y-24940588D01*
X14160588Y-25063069D01*
X14160588Y-25063070D01*
X14160586Y-25063072D01*
X14143513Y-25086571D01*
X14058768Y-25203211D01*
X13980128Y-25357552D01*
X13926597Y-25522302D01*
X13899500Y-25693389D01*
X13899500Y-25866610D01*
X13926597Y-26037698D01*
X13981597Y-26206970D01*
X13983592Y-26276811D01*
X13951347Y-26332969D01*
X13577632Y-26706685D01*
X13577628Y-26706691D01*
X13541348Y-26769529D01*
X13541348Y-26769530D01*
X13531486Y-26786612D01*
X13531485Y-26786615D01*
X13507600Y-26875756D01*
X500500Y-26875756D01*
X500500Y-23153389D01*
X13899500Y-23153389D01*
X13899500Y-23326611D01*
X13926598Y-23497701D01*
X13980127Y-23662445D01*
X14058768Y-23816788D01*
X14160586Y-23956928D01*
X14283072Y-24079414D01*
X14423212Y-24181232D01*
X14577555Y-24259873D01*
X14742299Y-24313402D01*
X14913389Y-24340500D01*
X14913390Y-24340500D01*
X15086610Y-24340500D01*
X15086611Y-24340500D01*
X15257701Y-24313402D01*
X15422445Y-24259873D01*
X15576788Y-24181232D01*
X15716928Y-24079414D01*
X15839414Y-23956928D01*
X15941232Y-23816788D01*
X16019873Y-23662445D01*
X16073402Y-23497701D01*
X16100500Y-23326611D01*
X16100500Y-23153389D01*
X16073402Y-22982299D01*
X16019873Y-22817555D01*
X15941232Y-22663212D01*
X15839414Y-22523072D01*
X15716928Y-22400586D01*
X15576788Y-22298768D01*
X15422445Y-22220127D01*
X15257701Y-22166598D01*
X15257699Y-22166597D01*
X15257698Y-22166597D01*
X15126271Y-22145781D01*
X15086611Y-22139500D01*
X14913389Y-22139500D01*
X14873728Y-22145781D01*
X14742302Y-22166597D01*
X14577552Y-22220128D01*
X14423211Y-22298768D01*
X14343312Y-22356819D01*
X14283072Y-22400586D01*
X14283070Y-22400588D01*
X14283069Y-22400588D01*
X14160588Y-22523069D01*
X14160588Y-22523070D01*
X14160586Y-22523072D01*
X14116859Y-22583256D01*
X14058768Y-22663211D01*
X13980128Y-22817552D01*
X13926597Y-22982302D01*
X13911632Y-23076788D01*
X13899500Y-23153389D01*
X500500Y-23153389D01*
X500500Y-20613389D01*
X13899500Y-20613389D01*
X13899500Y-20786610D01*
X13923989Y-20941232D01*
X13926598Y-20957701D01*
X13980127Y-21122445D01*
X14058768Y-21276788D01*
X14160586Y-21416928D01*
X14283072Y-21539414D01*
X14423212Y-21641232D01*
X14577555Y-21719873D01*
X14742299Y-21773402D01*
X14913389Y-21800500D01*
X14913390Y-21800500D01*
X15086610Y-21800500D01*
X15086611Y-21800500D01*
X15257701Y-21773402D01*
X15422445Y-21719873D01*
X15576788Y-21641232D01*
X15716928Y-21539414D01*
X15839414Y-21416928D01*
X15941232Y-21276788D01*
X16019873Y-21122445D01*
X16073402Y-20957701D01*
X16100500Y-20786611D01*
X16100500Y-20613389D01*
X16073402Y-20442299D01*
X16019873Y-20277555D01*
X15941232Y-20123212D01*
X15839414Y-19983072D01*
X15716928Y-19860586D01*
X15576788Y-19758768D01*
X15422445Y-19680127D01*
X15257701Y-19626598D01*
X15257699Y-19626597D01*
X15257698Y-19626597D01*
X15126271Y-19605781D01*
X15086611Y-19599500D01*
X14913389Y-19599500D01*
X14873728Y-19605781D01*
X14742302Y-19626597D01*
X14577552Y-19680128D01*
X14423211Y-19758768D01*
X14343256Y-19816859D01*
X14283072Y-19860586D01*
X14283070Y-19860588D01*
X14283069Y-19860588D01*
X14160588Y-19983069D01*
X14160588Y-19983070D01*
X14160586Y-19983072D01*
X14116859Y-20043256D01*
X14058768Y-20123211D01*
X13980128Y-20277552D01*
X13926597Y-20442302D01*
X13899500Y-20613389D01*
X500500Y-20613389D01*
X500500Y-18073389D01*
X13899500Y-18073389D01*
X13899500Y-18246610D01*
X13914198Y-18339414D01*
X13926598Y-18417701D01*
X13980127Y-18582445D01*
X14058768Y-18736788D01*
X14160586Y-18876928D01*
X14283072Y-18999414D01*
X14423212Y-19101232D01*
X14577555Y-19179873D01*
X14742299Y-19233402D01*
X14913389Y-19260500D01*
X14913390Y-19260500D01*
X15086610Y-19260500D01*
X15086611Y-19260500D01*
X15257701Y-19233402D01*
X15422445Y-19179873D01*
X15576788Y-19101232D01*
X15716928Y-18999414D01*
X15839414Y-18876928D01*
X15941232Y-18736788D01*
X16019873Y-18582445D01*
X16073402Y-18417701D01*
X16100500Y-18246611D01*
X16100500Y-18073389D01*
X29139500Y-18073389D01*
X29139500Y-18246610D01*
X29154198Y-18339414D01*
X29166598Y-18417701D01*
X29220127Y-18582445D01*
X29298768Y-18736788D01*
X29400586Y-18876928D01*
X29523072Y-18999414D01*
X29663212Y-19101232D01*
X29817555Y-19179873D01*
X29982299Y-19233402D01*
X30153389Y-19260500D01*
X30153390Y-19260500D01*
X30326610Y-19260500D01*
X30326611Y-19260500D01*
X30497701Y-19233402D01*
X30662445Y-19179873D01*
X30816788Y-19101232D01*
X30956928Y-18999414D01*
X31079414Y-18876928D01*
X31181232Y-18736788D01*
X31259873Y-18582445D01*
X31313402Y-18417701D01*
X31340500Y-18246611D01*
X31340500Y-18073389D01*
X31313402Y-17902299D01*
X31259873Y-17737555D01*
X31181232Y-17583212D01*
X31079414Y-17443072D01*
X30956928Y-17320586D01*
X30816788Y-17218768D01*
X30662445Y-17140127D01*
X30497701Y-17086598D01*
X30497699Y-17086597D01*
X30497698Y-17086597D01*
X30366271Y-17065781D01*
X30326611Y-17059500D01*
X30153389Y-17059500D01*
X30113728Y-17065781D01*
X29982302Y-17086597D01*
X29817552Y-17140128D01*
X29663211Y-17218768D01*
X29630824Y-17242299D01*
X29523072Y-17320586D01*
X29523070Y-17320588D01*
X29523069Y-17320588D01*
X29400588Y-17443069D01*
X29400588Y-17443070D01*
X29400586Y-17443072D01*
X29356859Y-17503256D01*
X29298768Y-17583211D01*
X29220128Y-17737552D01*
X29166597Y-17902302D01*
X29139500Y-18073389D01*
X16100500Y-18073389D01*
X16073402Y-17902299D01*
X16019873Y-17737555D01*
X15941232Y-17583212D01*
X15839414Y-17443072D01*
X15716928Y-17320586D01*
X15576788Y-17218768D01*
X15422445Y-17140127D01*
X15257701Y-17086598D01*
X15257699Y-17086597D01*
X15257698Y-17086597D01*
X15126271Y-17065781D01*
X15086611Y-17059500D01*
X14913389Y-17059500D01*
X14873728Y-17065781D01*
X14742302Y-17086597D01*
X14577552Y-17140128D01*
X14423211Y-17218768D01*
X14390824Y-17242299D01*
X14283072Y-17320586D01*
X14283070Y-17320588D01*
X14283069Y-17320588D01*
X14160588Y-17443069D01*
X14160588Y-17443070D01*
X14160586Y-17443072D01*
X14116859Y-17503256D01*
X14058768Y-17583211D01*
X13980128Y-17737552D01*
X13926597Y-17902302D01*
X13899500Y-18073389D01*
X500500Y-18073389D01*
X500500Y-15533428D01*
X13900000Y-15533428D01*
X13900000Y-15706571D01*
X13927085Y-15877584D01*
X13980591Y-16042257D01*
X14059195Y-16196523D01*
X14059196Y-16196525D01*
X14093463Y-16243691D01*
X14093464Y-16243691D01*
X14531980Y-15805176D01*
X14534075Y-15812993D01*
X14599901Y-15927007D01*
X14692993Y-16020099D01*
X14807007Y-16085925D01*
X14814822Y-16088019D01*
X14376307Y-16526534D01*
X14423478Y-16560805D01*
X14577742Y-16639408D01*
X14742415Y-16692914D01*
X14913429Y-16720000D01*
X15086571Y-16720000D01*
X15257584Y-16692914D01*
X15422257Y-16639408D01*
X15576525Y-16560803D01*
X15623691Y-16526534D01*
X15623692Y-16526533D01*
X15185178Y-16088019D01*
X15192993Y-16085925D01*
X15307007Y-16020099D01*
X15400099Y-15927007D01*
X15465925Y-15812993D01*
X15468019Y-15805177D01*
X15906533Y-16243692D01*
X15906534Y-16243691D01*
X15940803Y-16196525D01*
X16019408Y-16042257D01*
X16072914Y-15877584D01*
X16100000Y-15706571D01*
X16100000Y-15533428D01*
X16099994Y-15533389D01*
X29139500Y-15533389D01*
X29139500Y-15706611D01*
X29166598Y-15877701D01*
X29220127Y-16042445D01*
X29298768Y-16196788D01*
X29400586Y-16336928D01*
X29523072Y-16459414D01*
X29663212Y-16561232D01*
X29817555Y-16639873D01*
X29982299Y-16693402D01*
X30153389Y-16720500D01*
X30153390Y-16720500D01*
X30326610Y-16720500D01*
X30326611Y-16720500D01*
X30497701Y-16693402D01*
X30662445Y-16639873D01*
X30816788Y-16561232D01*
X30956928Y-16459414D01*
X31079414Y-16336928D01*
X31181232Y-16196788D01*
X31259873Y-16042445D01*
X31313402Y-15877701D01*
X31340500Y-15706611D01*
X31340500Y-15533389D01*
X31313402Y-15362299D01*
X31259873Y-15197555D01*
X31181232Y-15043212D01*
X31079414Y-14903072D01*
X30956928Y-14780586D01*
X30816788Y-14678768D01*
X30662445Y-14600127D01*
X30497701Y-14546598D01*
X30497699Y-14546597D01*
X30497698Y-14546597D01*
X30366271Y-14525781D01*
X30326611Y-14519500D01*
X30153389Y-14519500D01*
X30113728Y-14525781D01*
X29982302Y-14546597D01*
X29817552Y-14600128D01*
X29663211Y-14678768D01*
X29615457Y-14713464D01*
X29523072Y-14780586D01*
X29523070Y-14780588D01*
X29523069Y-14780588D01*
X29400588Y-14903069D01*
X29400588Y-14903070D01*
X29400586Y-14903072D01*
X29356859Y-14963256D01*
X29298768Y-15043211D01*
X29220128Y-15197552D01*
X29166597Y-15362302D01*
X29157071Y-15422447D01*
X29139500Y-15533389D01*
X16099994Y-15533389D01*
X16072914Y-15362415D01*
X16019408Y-15197742D01*
X15940805Y-15043478D01*
X15906534Y-14996307D01*
X15468019Y-15434822D01*
X15465925Y-15427007D01*
X15400099Y-15312993D01*
X15307007Y-15219901D01*
X15192993Y-15154075D01*
X15185176Y-15151980D01*
X15623691Y-14713464D01*
X15623691Y-14713463D01*
X15576525Y-14679196D01*
X15576523Y-14679195D01*
X15422257Y-14600591D01*
X15257584Y-14547085D01*
X15086571Y-14520000D01*
X14913429Y-14520000D01*
X14742415Y-14547085D01*
X14577740Y-14600592D01*
X14423475Y-14679196D01*
X14376307Y-14713463D01*
X14376307Y-14713464D01*
X14814823Y-15151980D01*
X14807007Y-15154075D01*
X14692993Y-15219901D01*
X14599901Y-15312993D01*
X14534075Y-15427007D01*
X14531980Y-15434823D01*
X14093464Y-14996307D01*
X14093463Y-14996307D01*
X14059196Y-15043475D01*
X13980592Y-15197740D01*
X13927085Y-15362415D01*
X13900000Y-15533428D01*
X500500Y-15533428D01*
X500500Y-12993389D01*
X13899500Y-12993389D01*
X13899500Y-13166611D01*
X13926598Y-13337701D01*
X13980127Y-13502445D01*
X14058768Y-13656788D01*
X14160586Y-13796928D01*
X14283072Y-13919414D01*
X14423212Y-14021232D01*
X14577555Y-14099873D01*
X14742299Y-14153402D01*
X14913389Y-14180500D01*
X14913390Y-14180500D01*
X15086610Y-14180500D01*
X15086611Y-14180500D01*
X15257701Y-14153402D01*
X15422445Y-14099873D01*
X15576788Y-14021232D01*
X15716928Y-13919414D01*
X15839414Y-13796928D01*
X15941232Y-13656788D01*
X16019873Y-13502445D01*
X16073402Y-13337701D01*
X16100500Y-13166611D01*
X16100500Y-12993389D01*
X29139500Y-12993389D01*
X29139500Y-13166611D01*
X29166598Y-13337701D01*
X29220127Y-13502445D01*
X29298768Y-13656788D01*
X29400586Y-13796928D01*
X29523072Y-13919414D01*
X29663212Y-14021232D01*
X29817555Y-14099873D01*
X29982299Y-14153402D01*
X30153389Y-14180500D01*
X30153390Y-14180500D01*
X30326610Y-14180500D01*
X30326611Y-14180500D01*
X30497701Y-14153402D01*
X30662445Y-14099873D01*
X30816788Y-14021232D01*
X30956928Y-13919414D01*
X31079414Y-13796928D01*
X31181232Y-13656788D01*
X31259873Y-13502445D01*
X31313402Y-13337701D01*
X31340500Y-13166611D01*
X31340500Y-12993389D01*
X31313402Y-12822299D01*
X31259873Y-12657555D01*
X31181232Y-12503212D01*
X31079414Y-12363072D01*
X30956928Y-12240586D01*
X30816788Y-12138768D01*
X30662445Y-12060127D01*
X30497701Y-12006598D01*
X30497699Y-12006597D01*
X30497698Y-12006597D01*
X30366271Y-11985781D01*
X30326611Y-11979500D01*
X30153389Y-11979500D01*
X30113728Y-11985781D01*
X29982302Y-12006597D01*
X29817552Y-12060128D01*
X29663211Y-12138768D01*
X29583256Y-12196859D01*
X29523072Y-12240586D01*
X29523070Y-12240588D01*
X29523069Y-12240588D01*
X29400588Y-12363069D01*
X29400588Y-12363070D01*
X29400586Y-12363072D01*
X29356859Y-12423256D01*
X29298768Y-12503211D01*
X29220128Y-12657552D01*
X29166597Y-12822302D01*
X29150736Y-12922445D01*
X29139500Y-12993389D01*
X16100500Y-12993389D01*
X16073402Y-12822299D01*
X16019873Y-12657555D01*
X15941232Y-12503212D01*
X15839414Y-12363072D01*
X15716928Y-12240586D01*
X15576788Y-12138768D01*
X15422445Y-12060127D01*
X15257701Y-12006598D01*
X15257699Y-12006597D01*
X15257698Y-12006597D01*
X15126271Y-11985781D01*
X15086611Y-11979500D01*
X14913389Y-11979500D01*
X14873728Y-11985781D01*
X14742302Y-12006597D01*
X14577552Y-12060128D01*
X14423211Y-12138768D01*
X14343256Y-12196859D01*
X14283072Y-12240586D01*
X14283070Y-12240588D01*
X14283069Y-12240588D01*
X14160588Y-12363069D01*
X14160588Y-12363070D01*
X14160586Y-12363072D01*
X14116859Y-12423256D01*
X14058768Y-12503211D01*
X13980128Y-12657552D01*
X13926597Y-12822302D01*
X13910736Y-12922445D01*
X13899500Y-12993389D01*
X500500Y-12993389D01*
X500500Y-10453389D01*
X13899500Y-10453389D01*
X13899500Y-10626611D01*
X13926598Y-10797701D01*
X13980127Y-10962445D01*
X14058768Y-11116788D01*
X14160586Y-11256928D01*
X14283072Y-11379414D01*
X14423212Y-11481232D01*
X14577555Y-11559873D01*
X14742299Y-11613402D01*
X14913389Y-11640500D01*
X14913390Y-11640500D01*
X15086610Y-11640500D01*
X15086611Y-11640500D01*
X15257701Y-11613402D01*
X15422445Y-11559873D01*
X15576788Y-11481232D01*
X15716928Y-11379414D01*
X15839414Y-11256928D01*
X15941232Y-11116788D01*
X16019873Y-10962445D01*
X16073402Y-10797701D01*
X16100500Y-10626611D01*
X16100500Y-10453428D01*
X29140000Y-10453428D01*
X29140000Y-10626571D01*
X29167085Y-10797584D01*
X29220591Y-10962257D01*
X29299195Y-11116523D01*
X29299196Y-11116525D01*
X29333463Y-11163691D01*
X29333464Y-11163691D01*
X29771980Y-10725176D01*
X29774075Y-10732993D01*
X29839901Y-10847007D01*
X29932993Y-10940099D01*
X30047007Y-11005925D01*
X30054822Y-11008019D01*
X29616307Y-11446534D01*
X29663478Y-11480805D01*
X29817742Y-11559408D01*
X29982415Y-11612914D01*
X30153429Y-11640000D01*
X30326571Y-11640000D01*
X30497584Y-11612914D01*
X30662257Y-11559408D01*
X30816525Y-11480803D01*
X30863691Y-11446534D01*
X30863692Y-11446533D01*
X30425178Y-11008019D01*
X30432993Y-11005925D01*
X30547007Y-10940099D01*
X30640099Y-10847007D01*
X30705925Y-10732993D01*
X30708019Y-10725177D01*
X31146533Y-11163692D01*
X31146534Y-11163691D01*
X31180803Y-11116525D01*
X31259408Y-10962257D01*
X31312914Y-10797584D01*
X31340000Y-10626571D01*
X31340000Y-10453428D01*
X31312914Y-10282415D01*
X31259408Y-10117742D01*
X31180805Y-9963478D01*
X31146534Y-9916307D01*
X30708019Y-10354822D01*
X30705925Y-10347007D01*
X30640099Y-10232993D01*
X30547007Y-10139901D01*
X30432993Y-10074075D01*
X30425176Y-10071980D01*
X30863691Y-9633464D01*
X30863691Y-9633463D01*
X30816525Y-9599196D01*
X30816523Y-9599195D01*
X30662257Y-9520591D01*
X30497584Y-9467085D01*
X30326571Y-9440000D01*
X30153429Y-9440000D01*
X29982415Y-9467085D01*
X29817740Y-9520592D01*
X29663475Y-9599196D01*
X29616307Y-9633463D01*
X29616307Y-9633464D01*
X30054823Y-10071980D01*
X30047007Y-10074075D01*
X29932993Y-10139901D01*
X29839901Y-10232993D01*
X29774075Y-10347007D01*
X29771980Y-10354823D01*
X29333464Y-9916307D01*
X29333463Y-9916307D01*
X29299196Y-9963475D01*
X29220592Y-10117740D01*
X29167085Y-10282415D01*
X29140000Y-10453428D01*
X16100500Y-10453428D01*
X16100500Y-10453389D01*
X16073402Y-10282299D01*
X16019873Y-10117555D01*
X15941232Y-9963212D01*
X15839414Y-9823072D01*
X15716928Y-9700586D01*
X15576788Y-9598768D01*
X15422445Y-9520127D01*
X15257701Y-9466598D01*
X15257699Y-9466597D01*
X15257698Y-9466597D01*
X15126271Y-9445781D01*
X15086611Y-9439500D01*
X14913389Y-9439500D01*
X14873728Y-9445781D01*
X14742302Y-9466597D01*
X14577552Y-9520128D01*
X14423211Y-9598768D01*
X14375457Y-9633464D01*
X14283072Y-9700586D01*
X14283070Y-9700588D01*
X14283069Y-9700588D01*
X14160588Y-9823069D01*
X14160588Y-9823070D01*
X14160586Y-9823072D01*
X14116859Y-9883256D01*
X14058768Y-9963211D01*
X13980128Y-10117552D01*
X13926597Y-10282302D01*
X13916349Y-10347007D01*
X13899500Y-10453389D01*
X500500Y-10453389D01*
X500500Y-7125321D01*
X13899500Y-7125321D01*
X13899500Y-8874678D01*
X13914032Y-8947735D01*
X13914033Y-8947739D01*
X13914034Y-8947740D01*
X13969399Y-9030601D01*
X14011555Y-9058768D01*
X14052260Y-9085966D01*
X14052264Y-9085967D01*
X14125321Y-9100499D01*
X14125324Y-9100500D01*
X14125326Y-9100500D01*
X15874676Y-9100500D01*
X15874677Y-9100499D01*
X15947740Y-9085966D01*
X16030601Y-9030601D01*
X16085966Y-8947740D01*
X16100500Y-8874674D01*
X16100500Y-7125326D01*
X16100500Y-7125323D01*
X16100499Y-7125321D01*
X29139500Y-7125321D01*
X29139500Y-8874678D01*
X29154032Y-8947735D01*
X29154033Y-8947739D01*
X29154034Y-8947740D01*
X29209399Y-9030601D01*
X29251555Y-9058768D01*
X29292260Y-9085966D01*
X29292264Y-9085967D01*
X29365321Y-9100499D01*
X29365324Y-9100500D01*
X29365326Y-9100500D01*
X31114676Y-9100500D01*
X31114677Y-9100499D01*
X31187740Y-9085966D01*
X31270601Y-9030601D01*
X31325966Y-8947740D01*
X31340500Y-8874674D01*
X31340500Y-7125326D01*
X31340500Y-7125323D01*
X31340499Y-7125321D01*
X31325967Y-7052264D01*
X31325966Y-7052260D01*
X31270601Y-6969399D01*
X31187740Y-6914034D01*
X31187739Y-6914033D01*
X31187735Y-6914032D01*
X31114677Y-6899500D01*
X31114674Y-6899500D01*
X29365326Y-6899500D01*
X29365323Y-6899500D01*
X29292264Y-6914032D01*
X29292260Y-6914033D01*
X29209399Y-6969399D01*
X29154033Y-7052260D01*
X29154032Y-7052264D01*
X29139500Y-7125321D01*
X16100499Y-7125321D01*
X16085967Y-7052264D01*
X16085966Y-7052260D01*
X16030601Y-6969399D01*
X15947740Y-6914034D01*
X15947739Y-6914033D01*
X15947735Y-6914032D01*
X15874677Y-6899500D01*
X15874674Y-6899500D01*
X14125326Y-6899500D01*
X14125323Y-6899500D01*
X14052264Y-6914032D01*
X14052260Y-6914033D01*
X13969399Y-6969399D01*
X13914033Y-7052260D01*
X13914032Y-7052264D01*
X13899500Y-7125321D01*
X500500Y-7125321D01*
X500500Y-3003750D01*
X500726Y-2996263D01*
X518271Y-2706205D01*
X520076Y-2691340D01*
X571780Y-2409202D01*
X575364Y-2394664D01*
X660699Y-2120812D01*
X665997Y-2106842D01*
X783727Y-1845258D01*
X790680Y-1832012D01*
X830959Y-1765381D01*
X939075Y-1586534D01*
X947567Y-1574230D01*
X1124481Y-1348417D01*
X1134396Y-1337226D01*
X1337226Y-1134396D01*
X1348417Y-1124481D01*
X1574230Y-947567D01*
X1586534Y-939075D01*
X1832012Y-790680D01*
X1845258Y-783727D01*
X2106842Y-665997D01*
X2120812Y-660699D01*
X2394668Y-575362D01*
X2409198Y-571780D01*
X2691344Y-520075D01*
X2706201Y-518271D01*
X2996264Y-500726D01*
X3003751Y-500500D01*
X3065892Y-500500D01*
X86934108Y-500500D01*
X86996249Y-500500D01*
X87003736Y-500726D01*
G37*
%TD.AperFunction*%
%TD*%
M02*
