M48
; DRILL file KiCad 10.0.1 date 2026-05-13T19:50:39
; FORMAT={-:-/ absolute / metric / decimal}
; #@! TF.CreationDate,2026-05-13T19:50:39-06:00
; #@! TF.GenerationSoftware,Kicad,Pcbnew,10.0.1
; #@! TF.FileFunction,MixedPlating,1,2
FMAT,2
METRIC
; #@! TA.AperFunction,Plated,PTH,ViaDrill
T1C0.400
; #@! TA.AperFunction,Plated,PTH,ComponentDrill
T2C0.800
; #@! TA.AperFunction,Plated,PTH,ComponentDrill
T3C1.000
; #@! TA.AperFunction,Plated,PTH,ComponentDrill
T4C3.200
%
G90
G05
T1
X27.0Y-33.4
T2
X29.329Y-48.4
X30.0Y-50.0
X32.5Y-50.0
X33.171Y-51.6
X60.0Y-14.0
X62.5Y-14.0
T3
X14.0Y-63.0
X14.0Y-65.5
X15.0Y-8.0
X15.0Y-10.54
X15.0Y-13.08
X15.0Y-15.62
X15.0Y-18.16
X15.0Y-20.7
X15.0Y-23.24
X15.0Y-25.78
X15.0Y-28.32
X15.0Y-30.86
X15.0Y-33.4
X15.0Y-35.94
X28.0Y-63.0
X28.0Y-65.5
X30.24Y-8.0
X30.24Y-10.54
X30.24Y-13.08
X30.24Y-15.62
X30.24Y-18.16
X30.24Y-20.7
X30.24Y-23.24
X30.24Y-25.78
X30.24Y-28.32
X30.24Y-30.86
X30.24Y-33.4
X30.24Y-35.94
X45.0Y-50.0
X47.54Y-50.0
X50.08Y-50.0
X55.0Y-5.0
X55.0Y-7.54
X55.0Y-10.08
X55.0Y-12.62
X55.0Y-15.16
X55.0Y-17.7
X55.0Y-20.24
X55.0Y-22.78
X55.0Y-50.0
X57.54Y-50.0
X60.08Y-50.0
X65.0Y-50.0
X67.54Y-50.0
X70.08Y-50.0
X72.78Y-5.0
X72.78Y-7.54
X72.78Y-10.08
X72.78Y-12.62
X72.78Y-15.16
X72.78Y-17.7
X72.78Y-20.24
X72.78Y-22.78
X74.0Y-63.0
X74.0Y-65.5
T4
X5.0Y-5.0
X5.0Y-65.0
X85.0Y-5.0
X85.0Y-65.0
M30
