%TF.GenerationSoftware,KiCad,Pcbnew,10.0.1*%
%TF.CreationDate,2026-05-13T19:50:33-06:00*%
%TF.ProjectId,ahmygroin,61686d79-6772-46f6-996e-2e6b69636164,rev?*%
%TF.SameCoordinates,Original*%
%TF.FileFunction,Copper,L2,Bot*%
%TF.FilePolarity,Positive*%
%FSLAX46Y46*%
G04 Gerber Fmt 4.6, Leading zero omitted, Abs format (unit mm)*
G04 Created by KiCad (PCBNEW 10.0.1) date 2026-05-13 19:50:33*
%MOMM*%
%LPD*%
G01*
G04 APERTURE LIST*
G04 Aperture macros list*
%AMRoundRect*
0 Rectangle with rounded corners*
0 $1 Rounding radius*
0 $2 $3 $4 $5 $6 $7 $8 $9 X,Y pos of 4 corners*
0 Add a 4 corners polygon primitive as box body*
4,1,4,$2,$3,$4,$5,$6,$7,$8,$9,$2,$3,0*
0 Add four circle primitives for the rounded corners*
1,1,$1+$1,$2,$3*
1,1,$1+$1,$4,$5*
1,1,$1+$1,$6,$7*
1,1,$1+$1,$8,$9*
0 Add four rect primitives between the rounded corners*
20,1,$1+$1,$2,$3,$4,$5,0*
20,1,$1+$1,$4,$5,$6,$7,0*
20,1,$1+$1,$6,$7,$8,$9,0*
20,1,$1+$1,$8,$9,$2,$3,0*%
G04 Aperture macros list end*
%TA.AperFunction,ComponentPad*%
%ADD10RoundRect,0.250000X-0.750000X0.600000X-0.750000X-0.600000X0.750000X-0.600000X0.750000X0.600000X0*%
%TD*%
%TA.AperFunction,ComponentPad*%
%ADD11O,2.000000X1.700000*%
%TD*%
%TA.AperFunction,ComponentPad*%
%ADD12RoundRect,0.250000X-0.550000X-0.550000X0.550000X-0.550000X0.550000X0.550000X-0.550000X0.550000X0*%
%TD*%
%TA.AperFunction,ComponentPad*%
%ADD13C,1.600000*%
%TD*%
%TA.AperFunction,ComponentPad*%
%ADD14R,1.700000X1.700000*%
%TD*%
%TA.AperFunction,ComponentPad*%
%ADD15C,1.700000*%
%TD*%
%TA.AperFunction,ComponentPad*%
%ADD16C,3.600000*%
%TD*%
%TA.AperFunction,ConnectorPad*%
%ADD17C,6.400000*%
%TD*%
%TA.AperFunction,ViaPad*%
%ADD18C,0.800000*%
%TD*%
%TA.AperFunction,Conductor*%
%ADD19C,0.500000*%
%TD*%
%TA.AperFunction,Conductor*%
%ADD20C,0.250000*%
%TD*%
%TA.AperFunction,Conductor*%
%ADD21C,0.400000*%
%TD*%
G04 APERTURE END LIST*
D10*
%TO.P,J3,1*%
%TO.N,/SPK_P*%
X74000000Y-63000000D03*
D11*
%TO.P,J3,2*%
%TO.N,/SPK_N*%
X74000000Y-65500000D03*
%TD*%
D12*
%TO.P,C1,1*%
%TO.N,/VSYS*%
X29329063Y-48400000D03*
X30000000Y-50000000D03*
D13*
%TO.P,C1,2*%
%TO.N,/GND*%
X32500000Y-50000000D03*
X33170937Y-51600000D03*
%TD*%
D14*
%TO.P,J4,1*%
%TO.N,N/C*%
X15000000Y-8000000D03*
D15*
%TO.P,J4,2*%
X15000000Y-10540000D03*
%TO.P,J4,3*%
X15000000Y-13080000D03*
%TO.P,J4,4*%
%TO.N,/GND*%
X15000000Y-15620000D03*
%TO.P,J4,5*%
%TO.N,/BTN_IN*%
X15000000Y-18160000D03*
%TO.P,J4,6*%
%TO.N,N/C*%
X15000000Y-20700000D03*
%TO.P,J4,7*%
X15000000Y-23240000D03*
%TO.P,J4,8*%
%TO.N,/GATE_CTRL*%
X15000000Y-25780000D03*
%TO.P,J4,9*%
%TO.N,/TRIG_OUT*%
X15000000Y-28320000D03*
%TO.P,J4,10*%
%TO.N,/BUSY_IN*%
X15000000Y-30860000D03*
%TO.P,J4,11*%
%TO.N,N/C*%
X15000000Y-33400000D03*
%TO.P,J4,12*%
X15000000Y-35940000D03*
%TD*%
D16*
%TO.P,H4,1*%
%TO.N,/GND*%
X85000000Y-65000000D03*
D17*
X85000000Y-65000000D03*
%TD*%
D16*
%TO.P,H1,1*%
%TO.N,/GND*%
X5000000Y-5000000D03*
D17*
X5000000Y-5000000D03*
%TD*%
D10*
%TO.P,J1,1*%
%TO.N,/VBATT*%
X14000000Y-63000000D03*
D11*
%TO.P,J1,2*%
%TO.N,/GND*%
X14000000Y-65500000D03*
%TD*%
D14*
%TO.P,J7,1*%
%TO.N,N/C*%
X72780000Y-5000000D03*
D15*
%TO.P,J7,2*%
%TO.N,/VDFP*%
X72780000Y-7540000D03*
%TO.P,J7,3*%
%TO.N,/GND*%
X72780000Y-10080000D03*
%TO.P,J7,4*%
%TO.N,N/C*%
X72780000Y-12620000D03*
%TO.P,J7,5*%
%TO.N,/BUSY_IN*%
X72780000Y-15160000D03*
%TO.P,J7,6*%
%TO.N,N/C*%
X72780000Y-17700000D03*
%TO.P,J7,7*%
%TO.N,/SPK_N*%
X72780000Y-20240000D03*
%TO.P,J7,8*%
%TO.N,/SPK_P*%
X72780000Y-22780000D03*
%TD*%
D14*
%TO.P,J6,1*%
%TO.N,N/C*%
X55000000Y-5000000D03*
D15*
%TO.P,J6,2*%
%TO.N,/TRIG_OUT*%
X55000000Y-7540000D03*
%TO.P,J6,3*%
%TO.N,N/C*%
X55000000Y-10080000D03*
%TO.P,J6,4*%
X55000000Y-12620000D03*
%TO.P,J6,5*%
X55000000Y-15160000D03*
%TO.P,J6,6*%
X55000000Y-17700000D03*
%TO.P,J6,7*%
X55000000Y-20240000D03*
%TO.P,J6,8*%
X55000000Y-22780000D03*
%TD*%
D14*
%TO.P,J5,1*%
%TO.N,N/C*%
X30240000Y-8000000D03*
D15*
%TO.P,J5,2*%
X30240000Y-10540000D03*
%TO.P,J5,3*%
X30240000Y-13080000D03*
%TO.P,J5,4*%
X30240000Y-15620000D03*
%TO.P,J5,5*%
X30240000Y-18160000D03*
%TO.P,J5,6*%
X30240000Y-20700000D03*
%TO.P,J5,7*%
X30240000Y-23240000D03*
%TO.P,J5,8*%
X30240000Y-25780000D03*
%TO.P,J5,9*%
X30240000Y-28320000D03*
%TO.P,J5,10*%
X30240000Y-30860000D03*
%TO.P,J5,11*%
%TO.N,/V33*%
X30240000Y-33400000D03*
%TO.P,J5,12*%
%TO.N,/VSYS*%
X30240000Y-35940000D03*
%TD*%
D14*
%TO.P,J8,1*%
%TO.N,/GND*%
X45000000Y-50000000D03*
D15*
%TO.P,J8,2*%
%TO.N,/CON1*%
X47540000Y-50000000D03*
%TO.P,J8,3*%
%TO.N,/V33*%
X50080000Y-50000000D03*
%TD*%
D16*
%TO.P,H2,1*%
%TO.N,/GND*%
X85000000Y-5000000D03*
D17*
X85000000Y-5000000D03*
%TD*%
D10*
%TO.P,J2,1*%
%TO.N,/BTN_IN*%
X28000000Y-63000000D03*
D11*
%TO.P,J2,2*%
%TO.N,/GND*%
X28000000Y-65500000D03*
%TD*%
D16*
%TO.P,H3,1*%
%TO.N,/GND*%
X5000000Y-65000000D03*
D17*
X5000000Y-65000000D03*
%TD*%
D14*
%TO.P,J9,1*%
%TO.N,/GND*%
X55000000Y-50000000D03*
D15*
%TO.P,J9,2*%
%TO.N,/CON2*%
X57540000Y-50000000D03*
%TO.P,J9,3*%
%TO.N,/V33*%
X60080000Y-50000000D03*
%TD*%
D12*
%TO.P,C4,1*%
%TO.N,/VDFP*%
X60000000Y-14000000D03*
D13*
%TO.P,C4,2*%
%TO.N,/GND*%
X62500000Y-14000000D03*
%TD*%
D14*
%TO.P,J10,1*%
%TO.N,/GND*%
X65000000Y-50000000D03*
D15*
%TO.P,J10,2*%
%TO.N,/CON3*%
X67540000Y-50000000D03*
%TO.P,J10,3*%
%TO.N,/V33*%
X70080000Y-50000000D03*
%TD*%
D18*
%TO.N,/V33*%
X27000000Y-33400000D03*
%TD*%
%TO.N,/SPK_N*%
D19*
X78000000Y-66000000D02*
X74000000Y-66000000D01*
X72780000Y-20240000D02*
X78000000Y-20240000D01*
X78000000Y-20240000D02*
X78000000Y-66000000D01*
X74000000Y-66000000D02*
X74000000Y-65500000D01*
%TO.N,/BTN_IN*%
D20*
X15000000Y-18160000D02*
X12000000Y-18160000D01*
X12000000Y-18160000D02*
X12000000Y-60000000D01*
X28000000Y-60000000D02*
X28000000Y-63000000D01*
X12000000Y-60000000D02*
X28000000Y-60000000D01*
%TO.N,/TRIG_OUT*%
X17000000Y-28320000D02*
X17000000Y-27000000D01*
X53500000Y-7540000D02*
X55000000Y-7540000D01*
X17000000Y-27000000D02*
X53500000Y-27000000D01*
X15000000Y-28320000D02*
X17000000Y-28320000D01*
X53500000Y-27000000D02*
X53500000Y-7540000D01*
%TO.N,/BUSY_IN*%
X70000000Y-15160000D02*
X72780000Y-15160000D01*
X15000000Y-30860000D02*
X17000000Y-30860000D01*
X70000000Y-32130000D02*
X70000000Y-15160000D01*
X17000000Y-30860000D02*
X17000000Y-32130000D01*
X17000000Y-32130000D02*
X70000000Y-32130000D01*
%TO.N,/V33*%
D21*
X50080000Y-53000000D02*
X50080000Y-50000000D01*
X60080000Y-53000000D02*
X60080000Y-50000000D01*
X27000000Y-53000000D02*
X50080000Y-53000000D01*
X50080000Y-53000000D02*
X60080000Y-53000000D01*
X60080000Y-53000000D02*
X70080000Y-53000000D01*
X70080000Y-53000000D02*
X70080000Y-50000000D01*
X27000000Y-33400000D02*
X27000000Y-53000000D01*
%TD*%
%TA.AperFunction,Conductor*%
%TO.N,/GND*%
G36*
X87003736Y-500726D02*
G01*
X87293796Y-518271D01*
X87308659Y-520076D01*
X87590797Y-571780D01*
X87605334Y-575363D01*
X87879182Y-660698D01*
X87893163Y-666000D01*
X88154734Y-783724D01*
X88167987Y-790680D01*
X88413458Y-939071D01*
X88425776Y-947573D01*
X88651573Y-1124474D01*
X88662781Y-1134404D01*
X88865595Y-1337218D01*
X88875525Y-1348426D01*
X89052422Y-1574217D01*
X89060928Y-1586541D01*
X89209319Y-1832012D01*
X89216277Y-1845269D01*
X89333994Y-2106823D01*
X89339304Y-2120825D01*
X89424635Y-2394664D01*
X89428219Y-2409202D01*
X89479923Y-2691340D01*
X89481728Y-2706205D01*
X89499274Y-2996263D01*
X89499500Y-3003750D01*
X89499500Y-66996249D01*
X89499274Y-67003736D01*
X89481728Y-67293794D01*
X89479923Y-67308659D01*
X89428219Y-67590797D01*
X89424635Y-67605335D01*
X89339304Y-67879174D01*
X89333994Y-67893176D01*
X89216277Y-68154730D01*
X89209319Y-68167987D01*
X89060928Y-68413458D01*
X89052422Y-68425782D01*
X88875525Y-68651573D01*
X88865595Y-68662781D01*
X88662781Y-68865595D01*
X88651573Y-68875525D01*
X88425782Y-69052422D01*
X88413458Y-69060928D01*
X88167987Y-69209319D01*
X88154730Y-69216277D01*
X87893176Y-69333994D01*
X87879174Y-69339304D01*
X87605335Y-69424635D01*
X87590797Y-69428219D01*
X87308659Y-69479923D01*
X87293794Y-69481728D01*
X87003736Y-69499274D01*
X86996249Y-69499500D01*
X3003751Y-69499500D01*
X2996264Y-69499274D01*
X2706205Y-69481728D01*
X2691340Y-69479923D01*
X2409202Y-69428219D01*
X2394664Y-69424635D01*
X2120825Y-69339304D01*
X2106827Y-69333995D01*
X1954096Y-69265256D01*
X1845269Y-69216277D01*
X1832012Y-69209319D01*
X1586541Y-69060928D01*
X1574217Y-69052422D01*
X1348426Y-68875525D01*
X1337218Y-68865595D01*
X1134404Y-68662781D01*
X1124474Y-68651573D01*
X947573Y-68425776D01*
X939071Y-68413458D01*
X790680Y-68167987D01*
X783722Y-68154730D01*
X666000Y-67893163D01*
X660698Y-67879182D01*
X575363Y-67605334D01*
X571780Y-67590797D01*
X520076Y-67308659D01*
X518271Y-67293794D01*
X500726Y-67003736D01*
X500500Y-66996249D01*
X500500Y-65299999D01*
X12767965Y-65299999D01*
X12767965Y-65300000D01*
X13538120Y-65300000D01*
X13534075Y-65307007D01*
X13500000Y-65434174D01*
X13500000Y-65565826D01*
X13534075Y-65692993D01*
X13538120Y-65700000D01*
X12767965Y-65700000D01*
X12777085Y-65757580D01*
X12830591Y-65922255D01*
X12909195Y-66076524D01*
X13010967Y-66216602D01*
X13133397Y-66339032D01*
X13273475Y-66440804D01*
X13427742Y-66519408D01*
X13592415Y-66572914D01*
X13763429Y-66600000D01*
X13800000Y-66600000D01*
X13800000Y-65961879D01*
X13807007Y-65965925D01*
X13934174Y-66000000D01*
X14065826Y-66000000D01*
X14192993Y-65965925D01*
X14200000Y-65961879D01*
X14200000Y-66600000D01*
X14236571Y-66600000D01*
X14407584Y-66572914D01*
X14572257Y-66519408D01*
X14726524Y-66440804D01*
X14866602Y-66339032D01*
X14989032Y-66216602D01*
X15090804Y-66076524D01*
X15169408Y-65922255D01*
X15222914Y-65757580D01*
X15232034Y-65700000D01*
X14461880Y-65700000D01*
X14465925Y-65692993D01*
X14500000Y-65565826D01*
X14500000Y-65434174D01*
X14465925Y-65307007D01*
X14461880Y-65300000D01*
X15232035Y-65300000D01*
X15232034Y-65299999D01*
X26767965Y-65299999D01*
X26767965Y-65300000D01*
X27538120Y-65300000D01*
X27534075Y-65307007D01*
X27500000Y-65434174D01*
X27500000Y-65565826D01*
X27534075Y-65692993D01*
X27538120Y-65700000D01*
X26767965Y-65700000D01*
X26777085Y-65757580D01*
X26830591Y-65922255D01*
X26909195Y-66076524D01*
X27010967Y-66216602D01*
X27133397Y-66339032D01*
X27273475Y-66440804D01*
X27427742Y-66519408D01*
X27592415Y-66572914D01*
X27763429Y-66600000D01*
X27800000Y-66600000D01*
X27800000Y-65961879D01*
X27807007Y-65965925D01*
X27934174Y-66000000D01*
X28065826Y-66000000D01*
X28192993Y-65965925D01*
X28200000Y-65961879D01*
X28200000Y-66600000D01*
X28236571Y-66600000D01*
X28407584Y-66572914D01*
X28572257Y-66519408D01*
X28726524Y-66440804D01*
X28866602Y-66339032D01*
X28989032Y-66216602D01*
X29090804Y-66076524D01*
X29169408Y-65922255D01*
X29222914Y-65757580D01*
X29232034Y-65700000D01*
X28461880Y-65700000D01*
X28465925Y-65692993D01*
X28500000Y-65565826D01*
X28500000Y-65434174D01*
X28465925Y-65307007D01*
X28461880Y-65300000D01*
X29232035Y-65300000D01*
X29232034Y-65299999D01*
X29222914Y-65242419D01*
X29169408Y-65077744D01*
X29090804Y-64923475D01*
X28989032Y-64783397D01*
X28866602Y-64660967D01*
X28726524Y-64559195D01*
X28572257Y-64480591D01*
X28407584Y-64427085D01*
X28236571Y-64400000D01*
X28200000Y-64400000D01*
X28200000Y-65038120D01*
X28192993Y-65034075D01*
X28065826Y-65000000D01*
X27934174Y-65000000D01*
X27807007Y-65034075D01*
X27800000Y-65038120D01*
X27800000Y-64400000D01*
X27763429Y-64400000D01*
X27592415Y-64427085D01*
X27427742Y-64480591D01*
X27273475Y-64559195D01*
X27133397Y-64660967D01*
X27010967Y-64783397D01*
X26909195Y-64923475D01*
X26830591Y-65077744D01*
X26777085Y-65242419D01*
X26767965Y-65299999D01*
X15232034Y-65299999D01*
X15222914Y-65242419D01*
X15169408Y-65077744D01*
X15090804Y-64923475D01*
X14989032Y-64783397D01*
X14866602Y-64660967D01*
X14726524Y-64559195D01*
X14572257Y-64480591D01*
X14407584Y-64427085D01*
X14236571Y-64400000D01*
X14200000Y-64400000D01*
X14200000Y-65038120D01*
X14192993Y-65034075D01*
X14065826Y-65000000D01*
X13934174Y-65000000D01*
X13807007Y-65034075D01*
X13800000Y-65038120D01*
X13800000Y-64400000D01*
X13763429Y-64400000D01*
X13592415Y-64427085D01*
X13427742Y-64480591D01*
X13273475Y-64559195D01*
X13133397Y-64660967D01*
X13010967Y-64783397D01*
X12909195Y-64923475D01*
X12830591Y-65077744D01*
X12777085Y-65242419D01*
X12767965Y-65299999D01*
X500500Y-65299999D01*
X500500Y-62352135D01*
X12749500Y-62352135D01*
X12749500Y-63647870D01*
X12749501Y-63647876D01*
X12755908Y-63707483D01*
X12806202Y-63842328D01*
X12806206Y-63842335D01*
X12892452Y-63957544D01*
X12892455Y-63957547D01*
X13007664Y-64043793D01*
X13007671Y-64043797D01*
X13142517Y-64094091D01*
X13142516Y-64094091D01*
X13149444Y-64094835D01*
X13202127Y-64100500D01*
X14797872Y-64100499D01*
X14857483Y-64094091D01*
X14992331Y-64043796D01*
X15107546Y-63957546D01*
X15193796Y-63842331D01*
X15244091Y-63707483D01*
X15250500Y-63647873D01*
X15250499Y-62352128D01*
X15244091Y-62292517D01*
X15193796Y-62157669D01*
X15193795Y-62157668D01*
X15193793Y-62157664D01*
X15107547Y-62042455D01*
X15107544Y-62042452D01*
X14992335Y-61956206D01*
X14992328Y-61956202D01*
X14857482Y-61905908D01*
X14857483Y-61905908D01*
X14797883Y-61899501D01*
X14797881Y-61899500D01*
X14797873Y-61899500D01*
X14797864Y-61899500D01*
X13202129Y-61899500D01*
X13202123Y-61899501D01*
X13142516Y-61905908D01*
X13007671Y-61956202D01*
X13007664Y-61956206D01*
X12892455Y-62042452D01*
X12892452Y-62042455D01*
X12806206Y-62157664D01*
X12806202Y-62157671D01*
X12755908Y-62292517D01*
X12749501Y-62352116D01*
X12749501Y-62352123D01*
X12749500Y-62352135D01*
X500500Y-62352135D01*
X500500Y-18110565D01*
X11624500Y-18110565D01*
X11624500Y-59950565D01*
X11624500Y-60049435D01*
X11650090Y-60144938D01*
X11699525Y-60230562D01*
X11769438Y-60300475D01*
X11855062Y-60349910D01*
X11950565Y-60375500D01*
X27500500Y-60375500D01*
X27567539Y-60395185D01*
X27613294Y-60447989D01*
X27624500Y-60499500D01*
X27624500Y-61775500D01*
X27604815Y-61842539D01*
X27552011Y-61888294D01*
X27500500Y-61899500D01*
X27202130Y-61899500D01*
X27202123Y-61899501D01*
X27142516Y-61905908D01*
X27007671Y-61956202D01*
X27007664Y-61956206D01*
X26892455Y-62042452D01*
X26892452Y-62042455D01*
X26806206Y-62157664D01*
X26806202Y-62157671D01*
X26755908Y-62292517D01*
X26749501Y-62352116D01*
X26749501Y-62352123D01*
X26749500Y-62352135D01*
X26749500Y-63647870D01*
X26749501Y-63647876D01*
X26755908Y-63707483D01*
X26806202Y-63842328D01*
X26806206Y-63842335D01*
X26892452Y-63957544D01*
X26892455Y-63957547D01*
X27007664Y-64043793D01*
X27007671Y-64043797D01*
X27142517Y-64094091D01*
X27142516Y-64094091D01*
X27149444Y-64094835D01*
X27202127Y-64100500D01*
X28797872Y-64100499D01*
X28857483Y-64094091D01*
X28992331Y-64043796D01*
X29107546Y-63957546D01*
X29193796Y-63842331D01*
X29244091Y-63707483D01*
X29250500Y-63647873D01*
X29250499Y-62352135D01*
X72749500Y-62352135D01*
X72749500Y-63647870D01*
X72749501Y-63647876D01*
X72755908Y-63707483D01*
X72806202Y-63842328D01*
X72806206Y-63842335D01*
X72892452Y-63957544D01*
X72892455Y-63957547D01*
X73007664Y-64043793D01*
X73007671Y-64043797D01*
X73142517Y-64094091D01*
X73142516Y-64094091D01*
X73149444Y-64094835D01*
X73202127Y-64100500D01*
X74797872Y-64100499D01*
X74857483Y-64094091D01*
X74992331Y-64043796D01*
X75107546Y-63957546D01*
X75193796Y-63842331D01*
X75244091Y-63707483D01*
X75250500Y-63647873D01*
X75250499Y-62352128D01*
X75244091Y-62292517D01*
X75193796Y-62157669D01*
X75193795Y-62157668D01*
X75193793Y-62157664D01*
X75107547Y-62042455D01*
X75107544Y-62042452D01*
X74992335Y-61956206D01*
X74992328Y-61956202D01*
X74857482Y-61905908D01*
X74857483Y-61905908D01*
X74797883Y-61899501D01*
X74797881Y-61899500D01*
X74797873Y-61899500D01*
X74797864Y-61899500D01*
X73202129Y-61899500D01*
X73202123Y-61899501D01*
X73142516Y-61905908D01*
X73007671Y-61956202D01*
X73007664Y-61956206D01*
X72892455Y-62042452D01*
X72892452Y-62042455D01*
X72806206Y-62157664D01*
X72806202Y-62157671D01*
X72755908Y-62292517D01*
X72749501Y-62352116D01*
X72749501Y-62352123D01*
X72749500Y-62352135D01*
X29250499Y-62352135D01*
X29250499Y-62352128D01*
X29244091Y-62292517D01*
X29193796Y-62157669D01*
X29193795Y-62157668D01*
X29193793Y-62157664D01*
X29107547Y-62042455D01*
X29107544Y-62042452D01*
X28992335Y-61956206D01*
X28992328Y-61956202D01*
X28857482Y-61905908D01*
X28857483Y-61905908D01*
X28797883Y-61899501D01*
X28797881Y-61899500D01*
X28797873Y-61899500D01*
X28797865Y-61899500D01*
X28499500Y-61899500D01*
X28432461Y-61879815D01*
X28386706Y-61827011D01*
X28375500Y-61775500D01*
X28375500Y-59950567D01*
X28375500Y-59950565D01*
X28349910Y-59855062D01*
X28300475Y-59769438D01*
X28230562Y-59699525D01*
X28144938Y-59650090D01*
X28049435Y-59624500D01*
X28049433Y-59624500D01*
X12499500Y-59624500D01*
X12432461Y-59604815D01*
X12386706Y-59552011D01*
X12375500Y-59500500D01*
X12375500Y-35853389D01*
X13899500Y-35853389D01*
X13899500Y-36026611D01*
X13926598Y-36197701D01*
X13980127Y-36362445D01*
X14058768Y-36516788D01*
X14160586Y-36656928D01*
X14283072Y-36779414D01*
X14423212Y-36881232D01*
X14577555Y-36959873D01*
X14742299Y-37013402D01*
X14913389Y-37040500D01*
X14913390Y-37040500D01*
X15086610Y-37040500D01*
X15086611Y-37040500D01*
X15257701Y-37013402D01*
X15422445Y-36959873D01*
X15576788Y-36881232D01*
X15716928Y-36779414D01*
X15839414Y-36656928D01*
X15941232Y-36516788D01*
X16019873Y-36362445D01*
X16073402Y-36197701D01*
X16100500Y-36026611D01*
X16100500Y-35853389D01*
X16073402Y-35682299D01*
X16019873Y-35517555D01*
X15941232Y-35363212D01*
X15839414Y-35223072D01*
X15716928Y-35100586D01*
X15576788Y-34998768D01*
X15422445Y-34920127D01*
X15257701Y-34866598D01*
X15257699Y-34866597D01*
X15257698Y-34866597D01*
X15126271Y-34845781D01*
X15086611Y-34839500D01*
X14913389Y-34839500D01*
X14873728Y-34845781D01*
X14742302Y-34866597D01*
X14577552Y-34920128D01*
X14423211Y-34998768D01*
X14343256Y-35056859D01*
X14283072Y-35100586D01*
X14283070Y-35100588D01*
X14283069Y-35100588D01*
X14160588Y-35223069D01*
X14160588Y-35223070D01*
X14160586Y-35223072D01*
X14116859Y-35283256D01*
X14058768Y-35363211D01*
X13980128Y-35517552D01*
X13926597Y-35682302D01*
X13899500Y-35853389D01*
X12375500Y-35853389D01*
X12375500Y-33313389D01*
X13899500Y-33313389D01*
X13899500Y-33486611D01*
X13926598Y-33657701D01*
X13977600Y-33814669D01*
X13980128Y-33822447D01*
X14058768Y-33976788D01*
X14160586Y-34116928D01*
X14283072Y-34239414D01*
X14423212Y-34341232D01*
X14577555Y-34419873D01*
X14742299Y-34473402D01*
X14913389Y-34500500D01*
X14913390Y-34500500D01*
X15086610Y-34500500D01*
X15086611Y-34500500D01*
X15257701Y-34473402D01*
X15422445Y-34419873D01*
X15576788Y-34341232D01*
X15716928Y-34239414D01*
X15839414Y-34116928D01*
X15941232Y-33976788D01*
X16019873Y-33822445D01*
X16073402Y-33657701D01*
X16100500Y-33486611D01*
X16100500Y-33464071D01*
X26349499Y-33464071D01*
X26374497Y-33589738D01*
X26374499Y-33589744D01*
X26423533Y-33708124D01*
X26423538Y-33708133D01*
X26494723Y-33814668D01*
X26494725Y-33814671D01*
X26513179Y-33833124D01*
X26546666Y-33894446D01*
X26549500Y-33920807D01*
X26549500Y-53059309D01*
X26580201Y-53173886D01*
X26639511Y-53276613D01*
X26723387Y-53360489D01*
X26826114Y-53419799D01*
X26940691Y-53450500D01*
X26940694Y-53450500D01*
X70139306Y-53450500D01*
X70139309Y-53450500D01*
X70253886Y-53419799D01*
X70356613Y-53360489D01*
X70440489Y-53276613D01*
X70499799Y-53173886D01*
X70530500Y-53059309D01*
X70530500Y-51081565D01*
X70550185Y-51014526D01*
X70598204Y-50971081D01*
X70656788Y-50941232D01*
X70796928Y-50839414D01*
X70919414Y-50716928D01*
X71021232Y-50576788D01*
X71099873Y-50422445D01*
X71153402Y-50257701D01*
X71180500Y-50086611D01*
X71180500Y-49913389D01*
X71153402Y-49742299D01*
X71099873Y-49577555D01*
X71021232Y-49423212D01*
X70919414Y-49283072D01*
X70796928Y-49160586D01*
X70656788Y-49058768D01*
X70502445Y-48980127D01*
X70337701Y-48926598D01*
X70337699Y-48926597D01*
X70337698Y-48926597D01*
X70206271Y-48905781D01*
X70166611Y-48899500D01*
X69993389Y-48899500D01*
X69953728Y-48905781D01*
X69822302Y-48926597D01*
X69657552Y-48980128D01*
X69503211Y-49058768D01*
X69456850Y-49092452D01*
X69363072Y-49160586D01*
X69363070Y-49160588D01*
X69363069Y-49160588D01*
X69240588Y-49283069D01*
X69240588Y-49283070D01*
X69240586Y-49283072D01*
X69222806Y-49307544D01*
X69138768Y-49423211D01*
X69060128Y-49577552D01*
X69006597Y-49742302D01*
X69004682Y-49754394D01*
X68979500Y-49913389D01*
X68979500Y-50086611D01*
X68985493Y-50124448D01*
X69006597Y-50257697D01*
X69006597Y-50257699D01*
X69006598Y-50257701D01*
X69060127Y-50422445D01*
X69138768Y-50576788D01*
X69240586Y-50716928D01*
X69363072Y-50839414D01*
X69411537Y-50874626D01*
X69503207Y-50941229D01*
X69503211Y-50941231D01*
X69503212Y-50941232D01*
X69561795Y-50971081D01*
X69612590Y-51019053D01*
X69629500Y-51081565D01*
X69629500Y-52425500D01*
X69609815Y-52492539D01*
X69557011Y-52538294D01*
X69505500Y-52549500D01*
X60654500Y-52549500D01*
X60587461Y-52529815D01*
X60541706Y-52477011D01*
X60530500Y-52425500D01*
X60530500Y-51081565D01*
X60550185Y-51014526D01*
X60598204Y-50971081D01*
X60656788Y-50941232D01*
X60796928Y-50839414D01*
X60919414Y-50716928D01*
X61021232Y-50576788D01*
X61099873Y-50422445D01*
X61153402Y-50257701D01*
X61180500Y-50086611D01*
X61180500Y-49913389D01*
X61153402Y-49742299D01*
X61099873Y-49577555D01*
X61021232Y-49423212D01*
X60919414Y-49283072D01*
X60796928Y-49160586D01*
X60748459Y-49125371D01*
X63900000Y-49125371D01*
X63900000Y-49800000D01*
X64538120Y-49800000D01*
X64534075Y-49807007D01*
X64500000Y-49934174D01*
X64500000Y-50065826D01*
X64534075Y-50192993D01*
X64538120Y-50200000D01*
X63900000Y-50200000D01*
X63900000Y-50874628D01*
X63914503Y-50947540D01*
X63914505Y-50947544D01*
X63969760Y-51030239D01*
X64052455Y-51085494D01*
X64052459Y-51085496D01*
X64125371Y-51099999D01*
X64125374Y-51100000D01*
X64800000Y-51100000D01*
X64800000Y-50461879D01*
X64807007Y-50465925D01*
X64934174Y-50500000D01*
X65065826Y-50500000D01*
X65192993Y-50465925D01*
X65200000Y-50461879D01*
X65200000Y-51100000D01*
X65874626Y-51100000D01*
X65874628Y-51099999D01*
X65947540Y-51085496D01*
X65947544Y-51085494D01*
X66030239Y-51030239D01*
X66085494Y-50947544D01*
X66085496Y-50947540D01*
X66099999Y-50874628D01*
X66100000Y-50874626D01*
X66100000Y-50200000D01*
X65461880Y-50200000D01*
X65465925Y-50192993D01*
X65500000Y-50065826D01*
X65500000Y-49934174D01*
X65494431Y-49913389D01*
X66439500Y-49913389D01*
X66439500Y-50086611D01*
X66445493Y-50124448D01*
X66466597Y-50257697D01*
X66466597Y-50257699D01*
X66466598Y-50257701D01*
X66520127Y-50422445D01*
X66598768Y-50576788D01*
X66700586Y-50716928D01*
X66823072Y-50839414D01*
X66963212Y-50941232D01*
X67117555Y-51019873D01*
X67282299Y-51073402D01*
X67453389Y-51100500D01*
X67453390Y-51100500D01*
X67626610Y-51100500D01*
X67626611Y-51100500D01*
X67797701Y-51073402D01*
X67962445Y-51019873D01*
X68116788Y-50941232D01*
X68256928Y-50839414D01*
X68379414Y-50716928D01*
X68481232Y-50576788D01*
X68559873Y-50422445D01*
X68613402Y-50257701D01*
X68640500Y-50086611D01*
X68640500Y-49913389D01*
X68613402Y-49742299D01*
X68559873Y-49577555D01*
X68481232Y-49423212D01*
X68379414Y-49283072D01*
X68256928Y-49160586D01*
X68116788Y-49058768D01*
X67962445Y-48980127D01*
X67797701Y-48926598D01*
X67797699Y-48926597D01*
X67797698Y-48926597D01*
X67666271Y-48905781D01*
X67626611Y-48899500D01*
X67453389Y-48899500D01*
X67413728Y-48905781D01*
X67282302Y-48926597D01*
X67117552Y-48980128D01*
X66963211Y-49058768D01*
X66916850Y-49092452D01*
X66823072Y-49160586D01*
X66823070Y-49160588D01*
X66823069Y-49160588D01*
X66700588Y-49283069D01*
X66700588Y-49283070D01*
X66700586Y-49283072D01*
X66682806Y-49307544D01*
X66598768Y-49423211D01*
X66520128Y-49577552D01*
X66466597Y-49742302D01*
X66464682Y-49754394D01*
X66439500Y-49913389D01*
X65494431Y-49913389D01*
X65465925Y-49807007D01*
X65461880Y-49800000D01*
X66100000Y-49800000D01*
X66100000Y-49125373D01*
X66099999Y-49125371D01*
X66085496Y-49052459D01*
X66085494Y-49052455D01*
X66030239Y-48969760D01*
X65947544Y-48914505D01*
X65947540Y-48914503D01*
X65874627Y-48900000D01*
X65200000Y-48900000D01*
X65200000Y-49538120D01*
X65192993Y-49534075D01*
X65065826Y-49500000D01*
X64934174Y-49500000D01*
X64807007Y-49534075D01*
X64800000Y-49538120D01*
X64800000Y-48900000D01*
X64125373Y-48900000D01*
X64052459Y-48914503D01*
X64052455Y-48914505D01*
X63969760Y-48969760D01*
X63914505Y-49052455D01*
X63914503Y-49052459D01*
X63900000Y-49125371D01*
X60748459Y-49125371D01*
X60656788Y-49058768D01*
X60502445Y-48980127D01*
X60337701Y-48926598D01*
X60337699Y-48926597D01*
X60337698Y-48926597D01*
X60206271Y-48905781D01*
X60166611Y-48899500D01*
X59993389Y-48899500D01*
X59953728Y-48905781D01*
X59822302Y-48926597D01*
X59657552Y-48980128D01*
X59503211Y-49058768D01*
X59456850Y-49092452D01*
X59363072Y-49160586D01*
X59363070Y-49160588D01*
X59363069Y-49160588D01*
X59240588Y-49283069D01*
X59240588Y-49283070D01*
X59240586Y-49283072D01*
X59222806Y-49307544D01*
X59138768Y-49423211D01*
X59060128Y-49577552D01*
X59006597Y-49742302D01*
X59004682Y-49754394D01*
X58979500Y-49913389D01*
X58979500Y-50086611D01*
X58985493Y-50124448D01*
X59006597Y-50257697D01*
X59006597Y-50257699D01*
X59006598Y-50257701D01*
X59060127Y-50422445D01*
X59138768Y-50576788D01*
X59240586Y-50716928D01*
X59363072Y-50839414D01*
X59411537Y-50874626D01*
X59503207Y-50941229D01*
X59503211Y-50941231D01*
X59503212Y-50941232D01*
X59561795Y-50971081D01*
X59612590Y-51019053D01*
X59629500Y-51081565D01*
X59629500Y-52425500D01*
X59609815Y-52492539D01*
X59557011Y-52538294D01*
X59505500Y-52549500D01*
X50654500Y-52549500D01*
X50587461Y-52529815D01*
X50541706Y-52477011D01*
X50530500Y-52425500D01*
X50530500Y-51081565D01*
X50550185Y-51014526D01*
X50598204Y-50971081D01*
X50656788Y-50941232D01*
X50796928Y-50839414D01*
X50919414Y-50716928D01*
X51021232Y-50576788D01*
X51099873Y-50422445D01*
X51153402Y-50257701D01*
X51180500Y-50086611D01*
X51180500Y-49913389D01*
X51153402Y-49742299D01*
X51099873Y-49577555D01*
X51021232Y-49423212D01*
X50919414Y-49283072D01*
X50796928Y-49160586D01*
X50748459Y-49125371D01*
X53900000Y-49125371D01*
X53900000Y-49800000D01*
X54538120Y-49800000D01*
X54534075Y-49807007D01*
X54500000Y-49934174D01*
X54500000Y-50065826D01*
X54534075Y-50192993D01*
X54538120Y-50200000D01*
X53900000Y-50200000D01*
X53900000Y-50874628D01*
X53914503Y-50947540D01*
X53914505Y-50947544D01*
X53969760Y-51030239D01*
X54052455Y-51085494D01*
X54052459Y-51085496D01*
X54125371Y-51099999D01*
X54125374Y-51100000D01*
X54800000Y-51100000D01*
X54800000Y-50461879D01*
X54807007Y-50465925D01*
X54934174Y-50500000D01*
X55065826Y-50500000D01*
X55192993Y-50465925D01*
X55200000Y-50461879D01*
X55200000Y-51100000D01*
X55874626Y-51100000D01*
X55874628Y-51099999D01*
X55947540Y-51085496D01*
X55947544Y-51085494D01*
X56030239Y-51030239D01*
X56085494Y-50947544D01*
X56085496Y-50947540D01*
X56099999Y-50874628D01*
X56100000Y-50874626D01*
X56100000Y-50200000D01*
X55461880Y-50200000D01*
X55465925Y-50192993D01*
X55500000Y-50065826D01*
X55500000Y-49934174D01*
X55494431Y-49913389D01*
X56439500Y-49913389D01*
X56439500Y-50086611D01*
X56445493Y-50124448D01*
X56466597Y-50257697D01*
X56466597Y-50257699D01*
X56466598Y-50257701D01*
X56520127Y-50422445D01*
X56598768Y-50576788D01*
X56700586Y-50716928D01*
X56823072Y-50839414D01*
X56963212Y-50941232D01*
X57117555Y-51019873D01*
X57282299Y-51073402D01*
X57453389Y-51100500D01*
X57453390Y-51100500D01*
X57626610Y-51100500D01*
X57626611Y-51100500D01*
X57797701Y-51073402D01*
X57962445Y-51019873D01*
X58116788Y-50941232D01*
X58256928Y-50839414D01*
X58379414Y-50716928D01*
X58481232Y-50576788D01*
X58559873Y-50422445D01*
X58613402Y-50257701D01*
X58640500Y-50086611D01*
X58640500Y-49913389D01*
X58613402Y-49742299D01*
X58559873Y-49577555D01*
X58481232Y-49423212D01*
X58379414Y-49283072D01*
X58256928Y-49160586D01*
X58116788Y-49058768D01*
X57962445Y-48980127D01*
X57797701Y-48926598D01*
X57797699Y-48926597D01*
X57797698Y-48926597D01*
X57666271Y-48905781D01*
X57626611Y-48899500D01*
X57453389Y-48899500D01*
X57413728Y-48905781D01*
X57282302Y-48926597D01*
X57117552Y-48980128D01*
X56963211Y-49058768D01*
X56916850Y-49092452D01*
X56823072Y-49160586D01*
X56823070Y-49160588D01*
X56823069Y-49160588D01*
X56700588Y-49283069D01*
X56700588Y-49283070D01*
X56700586Y-49283072D01*
X56682806Y-49307544D01*
X56598768Y-49423211D01*
X56520128Y-49577552D01*
X56466597Y-49742302D01*
X56464682Y-49754394D01*
X56439500Y-49913389D01*
X55494431Y-49913389D01*
X55465925Y-49807007D01*
X55461880Y-49800000D01*
X56100000Y-49800000D01*
X56100000Y-49125373D01*
X56099999Y-49125371D01*
X56085496Y-49052459D01*
X56085494Y-49052455D01*
X56030239Y-48969760D01*
X55947544Y-48914505D01*
X55947540Y-48914503D01*
X55874627Y-48900000D01*
X55200000Y-48900000D01*
X55200000Y-49538120D01*
X55192993Y-49534075D01*
X55065826Y-49500000D01*
X54934174Y-49500000D01*
X54807007Y-49534075D01*
X54800000Y-49538120D01*
X54800000Y-48900000D01*
X54125373Y-48900000D01*
X54052459Y-48914503D01*
X54052455Y-48914505D01*
X53969760Y-48969760D01*
X53914505Y-49052455D01*
X53914503Y-49052459D01*
X53900000Y-49125371D01*
X50748459Y-49125371D01*
X50656788Y-49058768D01*
X50502445Y-48980127D01*
X50337701Y-48926598D01*
X50337699Y-48926597D01*
X50337698Y-48926597D01*
X50206271Y-48905781D01*
X50166611Y-48899500D01*
X49993389Y-48899500D01*
X49953728Y-48905781D01*
X49822302Y-48926597D01*
X49657552Y-48980128D01*
X49503211Y-49058768D01*
X49456850Y-49092452D01*
X49363072Y-49160586D01*
X49363070Y-49160588D01*
X49363069Y-49160588D01*
X49240588Y-49283069D01*
X49240588Y-49283070D01*
X49240586Y-49283072D01*
X49222806Y-49307544D01*
X49138768Y-49423211D01*
X49060128Y-49577552D01*
X49006597Y-49742302D01*
X49004682Y-49754394D01*
X48979500Y-49913389D01*
X48979500Y-50086611D01*
X48985493Y-50124448D01*
X49006597Y-50257697D01*
X49006597Y-50257699D01*
X49006598Y-50257701D01*
X49060127Y-50422445D01*
X49138768Y-50576788D01*
X49240586Y-50716928D01*
X49363072Y-50839414D01*
X49411537Y-50874626D01*
X49503207Y-50941229D01*
X49503211Y-50941231D01*
X49503212Y-50941232D01*
X49561795Y-50971081D01*
X49612590Y-51019053D01*
X49629500Y-51081565D01*
X49629500Y-52425500D01*
X49609815Y-52492539D01*
X49557011Y-52538294D01*
X49505500Y-52549500D01*
X33887405Y-52549500D01*
X33820366Y-52529815D01*
X33802469Y-52509161D01*
X33799863Y-52511768D01*
X33274465Y-51986370D01*
X33325331Y-51972741D01*
X33416543Y-51920080D01*
X33491017Y-51845606D01*
X33543678Y-51754394D01*
X33557307Y-51703528D01*
X34041235Y-52187456D01*
X34101436Y-52097359D01*
X34180586Y-51906274D01*
X34180588Y-51906266D01*
X34220936Y-51703420D01*
X34220937Y-51703417D01*
X34220937Y-51496583D01*
X34220936Y-51496579D01*
X34180588Y-51293733D01*
X34180586Y-51293725D01*
X34101436Y-51102640D01*
X34041235Y-51012542D01*
X33557307Y-51496470D01*
X33543678Y-51445606D01*
X33491017Y-51354394D01*
X33416543Y-51279920D01*
X33325331Y-51227259D01*
X33274464Y-51213629D01*
X33758392Y-50729701D01*
X33758392Y-50729700D01*
X33668304Y-50669505D01*
X33668295Y-50669500D01*
X33519023Y-50607669D01*
X33464620Y-50563828D01*
X33442555Y-50497533D01*
X33451915Y-50445654D01*
X33509649Y-50306272D01*
X33545816Y-50124448D01*
X33545816Y-50124446D01*
X33549999Y-50103417D01*
X33550000Y-50103417D01*
X33550000Y-49896583D01*
X33549999Y-49896579D01*
X33509651Y-49693733D01*
X33509649Y-49693725D01*
X33430499Y-49502640D01*
X33370298Y-49412542D01*
X32886370Y-49896471D01*
X32872741Y-49845606D01*
X32820080Y-49754394D01*
X32745606Y-49679920D01*
X32654394Y-49627259D01*
X32603528Y-49613629D01*
X33087455Y-49129701D01*
X33080975Y-49125371D01*
X43900000Y-49125371D01*
X43900000Y-49800000D01*
X44538120Y-49800000D01*
X44534075Y-49807007D01*
X44500000Y-49934174D01*
X44500000Y-50065826D01*
X44534075Y-50192993D01*
X44538120Y-50200000D01*
X43900000Y-50200000D01*
X43900000Y-50874628D01*
X43914503Y-50947540D01*
X43914505Y-50947544D01*
X43969760Y-51030239D01*
X44052455Y-51085494D01*
X44052459Y-51085496D01*
X44125371Y-51099999D01*
X44125374Y-51100000D01*
X44800000Y-51100000D01*
X44800000Y-50461879D01*
X44807007Y-50465925D01*
X44934174Y-50500000D01*
X45065826Y-50500000D01*
X45192993Y-50465925D01*
X45200000Y-50461879D01*
X45200000Y-51100000D01*
X45874626Y-51100000D01*
X45874628Y-51099999D01*
X45947540Y-51085496D01*
X45947544Y-51085494D01*
X46030239Y-51030239D01*
X46085494Y-50947544D01*
X46085496Y-50947540D01*
X46099999Y-50874628D01*
X46100000Y-50874626D01*
X46100000Y-50200000D01*
X45461880Y-50200000D01*
X45465925Y-50192993D01*
X45500000Y-50065826D01*
X45500000Y-49934174D01*
X45494431Y-49913389D01*
X46439500Y-49913389D01*
X46439500Y-50086611D01*
X46445493Y-50124448D01*
X46466597Y-50257697D01*
X46466597Y-50257699D01*
X46466598Y-50257701D01*
X46520127Y-50422445D01*
X46598768Y-50576788D01*
X46700586Y-50716928D01*
X46823072Y-50839414D01*
X46963212Y-50941232D01*
X47117555Y-51019873D01*
X47282299Y-51073402D01*
X47453389Y-51100500D01*
X47453390Y-51100500D01*
X47626610Y-51100500D01*
X47626611Y-51100500D01*
X47797701Y-51073402D01*
X47962445Y-51019873D01*
X48116788Y-50941232D01*
X48256928Y-50839414D01*
X48379414Y-50716928D01*
X48481232Y-50576788D01*
X48559873Y-50422445D01*
X48613402Y-50257701D01*
X48640500Y-50086611D01*
X48640500Y-49913389D01*
X48613402Y-49742299D01*
X48559873Y-49577555D01*
X48481232Y-49423212D01*
X48379414Y-49283072D01*
X48256928Y-49160586D01*
X48116788Y-49058768D01*
X47962445Y-48980127D01*
X47797701Y-48926598D01*
X47797699Y-48926597D01*
X47797698Y-48926597D01*
X47666271Y-48905781D01*
X47626611Y-48899500D01*
X47453389Y-48899500D01*
X47413728Y-48905781D01*
X47282302Y-48926597D01*
X47117552Y-48980128D01*
X46963211Y-49058768D01*
X46916850Y-49092452D01*
X46823072Y-49160586D01*
X46823070Y-49160588D01*
X46823069Y-49160588D01*
X46700588Y-49283069D01*
X46700588Y-49283070D01*
X46700586Y-49283072D01*
X46682806Y-49307544D01*
X46598768Y-49423211D01*
X46520128Y-49577552D01*
X46466597Y-49742302D01*
X46464682Y-49754394D01*
X46439500Y-49913389D01*
X45494431Y-49913389D01*
X45465925Y-49807007D01*
X45461880Y-49800000D01*
X46100000Y-49800000D01*
X46100000Y-49125373D01*
X46099999Y-49125371D01*
X46085496Y-49052459D01*
X46085494Y-49052455D01*
X46030239Y-48969760D01*
X45947544Y-48914505D01*
X45947540Y-48914503D01*
X45874627Y-48900000D01*
X45200000Y-48900000D01*
X45200000Y-49538120D01*
X45192993Y-49534075D01*
X45065826Y-49500000D01*
X44934174Y-49500000D01*
X44807007Y-49534075D01*
X44800000Y-49538120D01*
X44800000Y-48900000D01*
X44125373Y-48900000D01*
X44052459Y-48914503D01*
X44052455Y-48914505D01*
X43969760Y-48969760D01*
X43914505Y-49052455D01*
X43914503Y-49052459D01*
X43900000Y-49125371D01*
X33080975Y-49125371D01*
X32997367Y-49069505D01*
X32997358Y-49069500D01*
X32806274Y-48990350D01*
X32806266Y-48990348D01*
X32603420Y-48950000D01*
X32396579Y-48950000D01*
X32193733Y-48990348D01*
X32193725Y-48990350D01*
X32002639Y-49069500D01*
X31912543Y-49129700D01*
X31912543Y-49129701D01*
X32396471Y-49613629D01*
X32345606Y-49627259D01*
X32254394Y-49679920D01*
X32179920Y-49754394D01*
X32127259Y-49845606D01*
X32113629Y-49896471D01*
X31629701Y-49412543D01*
X31629700Y-49412543D01*
X31569500Y-49502639D01*
X31490350Y-49693725D01*
X31490348Y-49693733D01*
X31450000Y-49896579D01*
X31450000Y-50103420D01*
X31490348Y-50306266D01*
X31490350Y-50306274D01*
X31569500Y-50497358D01*
X31569505Y-50497367D01*
X31629701Y-50587455D01*
X32113629Y-50103528D01*
X32127259Y-50154394D01*
X32179920Y-50245606D01*
X32254394Y-50320080D01*
X32345606Y-50372741D01*
X32396471Y-50386370D01*
X31912542Y-50870298D01*
X32002640Y-50930499D01*
X32151913Y-50992330D01*
X32206316Y-51036171D01*
X32228381Y-51102465D01*
X32219021Y-51154344D01*
X32161287Y-51293725D01*
X32161285Y-51293733D01*
X32120937Y-51496579D01*
X32120937Y-51703420D01*
X32161285Y-51906266D01*
X32161287Y-51906274D01*
X32240437Y-52097358D01*
X32240442Y-52097367D01*
X32300638Y-52187455D01*
X32784566Y-51703527D01*
X32798196Y-51754394D01*
X32850857Y-51845606D01*
X32925331Y-51920080D01*
X33016543Y-51972741D01*
X33067408Y-51986370D01*
X32542010Y-52511768D01*
X32539247Y-52509005D01*
X32516775Y-52532710D01*
X32454468Y-52549500D01*
X27574500Y-52549500D01*
X27507461Y-52529815D01*
X27461706Y-52477011D01*
X27450500Y-52425500D01*
X27450500Y-47802135D01*
X28278563Y-47802135D01*
X28278563Y-48997870D01*
X28278564Y-48997876D01*
X28284971Y-49057483D01*
X28335265Y-49192328D01*
X28335269Y-49192335D01*
X28421515Y-49307544D01*
X28421518Y-49307547D01*
X28536727Y-49393793D01*
X28536734Y-49393797D01*
X28559058Y-49402123D01*
X28671580Y-49444091D01*
X28731190Y-49450500D01*
X28825500Y-49450499D01*
X28892538Y-49470183D01*
X28938294Y-49522986D01*
X28949500Y-49574499D01*
X28949500Y-50597870D01*
X28949501Y-50597876D01*
X28955908Y-50657483D01*
X29006202Y-50792328D01*
X29006206Y-50792335D01*
X29092452Y-50907544D01*
X29092455Y-50907547D01*
X29207664Y-50993793D01*
X29207671Y-50993797D01*
X29342517Y-51044091D01*
X29342516Y-51044091D01*
X29349444Y-51044835D01*
X29402127Y-51050500D01*
X30597872Y-51050499D01*
X30657483Y-51044091D01*
X30792331Y-50993796D01*
X30907546Y-50907546D01*
X30993796Y-50792331D01*
X31044091Y-50657483D01*
X31050500Y-50597873D01*
X31050499Y-49402128D01*
X31044091Y-49342517D01*
X31031047Y-49307544D01*
X30998114Y-49219245D01*
X30993797Y-49207671D01*
X30993793Y-49207664D01*
X30907547Y-49092455D01*
X30907544Y-49092452D01*
X30792335Y-49006206D01*
X30792328Y-49006202D01*
X30657482Y-48955908D01*
X30657483Y-48955908D01*
X30597883Y-48949501D01*
X30597881Y-48949500D01*
X30597873Y-48949500D01*
X30597865Y-48949500D01*
X30503562Y-48949500D01*
X30436523Y-48929815D01*
X30390768Y-48877011D01*
X30379562Y-48825500D01*
X30379562Y-47802129D01*
X30379561Y-47802123D01*
X30379560Y-47802116D01*
X30373154Y-47742517D01*
X30322859Y-47607669D01*
X30322858Y-47607668D01*
X30322856Y-47607664D01*
X30236610Y-47492455D01*
X30236607Y-47492452D01*
X30121398Y-47406206D01*
X30121391Y-47406202D01*
X29986545Y-47355908D01*
X29986546Y-47355908D01*
X29926946Y-47349501D01*
X29926944Y-47349500D01*
X29926936Y-47349500D01*
X29926927Y-47349500D01*
X28731192Y-47349500D01*
X28731186Y-47349501D01*
X28671579Y-47355908D01*
X28536734Y-47406202D01*
X28536727Y-47406206D01*
X28421518Y-47492452D01*
X28421515Y-47492455D01*
X28335269Y-47607664D01*
X28335265Y-47607671D01*
X28284971Y-47742517D01*
X28278564Y-47802116D01*
X28278564Y-47802123D01*
X28278563Y-47802135D01*
X27450500Y-47802135D01*
X27450500Y-35853389D01*
X29139500Y-35853389D01*
X29139500Y-36026611D01*
X29166598Y-36197701D01*
X29220127Y-36362445D01*
X29298768Y-36516788D01*
X29400586Y-36656928D01*
X29523072Y-36779414D01*
X29663212Y-36881232D01*
X29817555Y-36959873D01*
X29982299Y-37013402D01*
X30153389Y-37040500D01*
X30153390Y-37040500D01*
X30326610Y-37040500D01*
X30326611Y-37040500D01*
X30497701Y-37013402D01*
X30662445Y-36959873D01*
X30816788Y-36881232D01*
X30956928Y-36779414D01*
X31079414Y-36656928D01*
X31181232Y-36516788D01*
X31259873Y-36362445D01*
X31313402Y-36197701D01*
X31340500Y-36026611D01*
X31340500Y-35853389D01*
X31313402Y-35682299D01*
X31259873Y-35517555D01*
X31181232Y-35363212D01*
X31079414Y-35223072D01*
X30956928Y-35100586D01*
X30816788Y-34998768D01*
X30662445Y-34920127D01*
X30497701Y-34866598D01*
X30497699Y-34866597D01*
X30497698Y-34866597D01*
X30366271Y-34845781D01*
X30326611Y-34839500D01*
X30153389Y-34839500D01*
X30113728Y-34845781D01*
X29982302Y-34866597D01*
X29817552Y-34920128D01*
X29663211Y-34998768D01*
X29583256Y-35056859D01*
X29523072Y-35100586D01*
X29523070Y-35100588D01*
X29523069Y-35100588D01*
X29400588Y-35223069D01*
X29400588Y-35223070D01*
X29400586Y-35223072D01*
X29356859Y-35283256D01*
X29298768Y-35363211D01*
X29220128Y-35517552D01*
X29166597Y-35682302D01*
X29139500Y-35853389D01*
X27450500Y-35853389D01*
X27450500Y-33920807D01*
X27470185Y-33853768D01*
X27486821Y-33833124D01*
X27505274Y-33814671D01*
X27505276Y-33814669D01*
X27576465Y-33708127D01*
X27625501Y-33589744D01*
X27650500Y-33464069D01*
X27650500Y-33335931D01*
X27650500Y-33335928D01*
X27625502Y-33210261D01*
X27625501Y-33210260D01*
X27625501Y-33210256D01*
X27576465Y-33091873D01*
X27576464Y-33091872D01*
X27576461Y-33091866D01*
X27505276Y-32985331D01*
X27505273Y-32985327D01*
X27414672Y-32894726D01*
X27414668Y-32894723D01*
X27308133Y-32823538D01*
X27308124Y-32823533D01*
X27189744Y-32774499D01*
X27189738Y-32774497D01*
X27084180Y-32753500D01*
X27084178Y-32753500D01*
X27064069Y-32749500D01*
X26935931Y-32749500D01*
X26915822Y-32753500D01*
X26915820Y-32753500D01*
X26810261Y-32774497D01*
X26810255Y-32774499D01*
X26691875Y-32823533D01*
X26691866Y-32823538D01*
X26585331Y-32894723D01*
X26585327Y-32894726D01*
X26494726Y-32985327D01*
X26494723Y-32985331D01*
X26423538Y-33091866D01*
X26423533Y-33091875D01*
X26374499Y-33210255D01*
X26374497Y-33210261D01*
X26349500Y-33335928D01*
X26349500Y-33335931D01*
X26349500Y-33464069D01*
X26349500Y-33464071D01*
X26349499Y-33464071D01*
X16100500Y-33464071D01*
X16100500Y-33313389D01*
X16073402Y-33142299D01*
X16019873Y-32977555D01*
X15941232Y-32823212D01*
X15839414Y-32683072D01*
X15716928Y-32560586D01*
X15576788Y-32458768D01*
X15422445Y-32380127D01*
X15257701Y-32326598D01*
X15257699Y-32326597D01*
X15257698Y-32326597D01*
X15126271Y-32305781D01*
X15086611Y-32299500D01*
X14913389Y-32299500D01*
X14873728Y-32305781D01*
X14742302Y-32326597D01*
X14577552Y-32380128D01*
X14423211Y-32458768D01*
X14358891Y-32505500D01*
X14283072Y-32560586D01*
X14283070Y-32560588D01*
X14283069Y-32560588D01*
X14160588Y-32683069D01*
X14160588Y-32683070D01*
X14160586Y-32683072D01*
X14146554Y-32702386D01*
X14058768Y-32823211D01*
X13980128Y-32977552D01*
X13926597Y-33142302D01*
X13915834Y-33210261D01*
X13899500Y-33313389D01*
X12375500Y-33313389D01*
X12375500Y-30773389D01*
X13899500Y-30773389D01*
X13899500Y-30946611D01*
X13926598Y-31117701D01*
X13980127Y-31282445D01*
X14058768Y-31436788D01*
X14160586Y-31576928D01*
X14283072Y-31699414D01*
X14423212Y-31801232D01*
X14577555Y-31879873D01*
X14742299Y-31933402D01*
X14913389Y-31960500D01*
X14913390Y-31960500D01*
X15086610Y-31960500D01*
X15086611Y-31960500D01*
X15257701Y-31933402D01*
X15422445Y-31879873D01*
X15576788Y-31801232D01*
X15716928Y-31699414D01*
X15839414Y-31576928D01*
X15941232Y-31436788D01*
X16009295Y-31303206D01*
X16057269Y-31252409D01*
X16119780Y-31235500D01*
X16500500Y-31235500D01*
X16567539Y-31255185D01*
X16613294Y-31307989D01*
X16624500Y-31359500D01*
X16624500Y-32080565D01*
X16624500Y-32179435D01*
X16650090Y-32274938D01*
X16699525Y-32360562D01*
X16769438Y-32430475D01*
X16855062Y-32479910D01*
X16950565Y-32505500D01*
X29286236Y-32505500D01*
X29353275Y-32525185D01*
X29399030Y-32577989D01*
X29408974Y-32647147D01*
X29386554Y-32702386D01*
X29298768Y-32823211D01*
X29220128Y-32977552D01*
X29166597Y-33142302D01*
X29155834Y-33210261D01*
X29139500Y-33313389D01*
X29139500Y-33486611D01*
X29166598Y-33657701D01*
X29217600Y-33814669D01*
X29220128Y-33822447D01*
X29298768Y-33976788D01*
X29400586Y-34116928D01*
X29523072Y-34239414D01*
X29663212Y-34341232D01*
X29817555Y-34419873D01*
X29982299Y-34473402D01*
X30153389Y-34500500D01*
X30153390Y-34500500D01*
X30326610Y-34500500D01*
X30326611Y-34500500D01*
X30497701Y-34473402D01*
X30662445Y-34419873D01*
X30816788Y-34341232D01*
X30956928Y-34239414D01*
X31079414Y-34116928D01*
X31181232Y-33976788D01*
X31259873Y-33822445D01*
X31313402Y-33657701D01*
X31340500Y-33486611D01*
X31340500Y-33313389D01*
X31313402Y-33142299D01*
X31259873Y-32977555D01*
X31181232Y-32823212D01*
X31093445Y-32702384D01*
X31069966Y-32636579D01*
X31085791Y-32568526D01*
X31135897Y-32519831D01*
X31193764Y-32505500D01*
X70049432Y-32505500D01*
X70049435Y-32505500D01*
X70144938Y-32479910D01*
X70230562Y-32430475D01*
X70300475Y-32360562D01*
X70349910Y-32274938D01*
X70375500Y-32179435D01*
X70375500Y-22693389D01*
X71679500Y-22693389D01*
X71679500Y-22866610D01*
X71697823Y-22982302D01*
X71706598Y-23037701D01*
X71760127Y-23202445D01*
X71838768Y-23356788D01*
X71940586Y-23496928D01*
X72063072Y-23619414D01*
X72203212Y-23721232D01*
X72357555Y-23799873D01*
X72522299Y-23853402D01*
X72693389Y-23880500D01*
X72693390Y-23880500D01*
X72866610Y-23880500D01*
X72866611Y-23880500D01*
X73037701Y-23853402D01*
X73202445Y-23799873D01*
X73356788Y-23721232D01*
X73496928Y-23619414D01*
X73619414Y-23496928D01*
X73721232Y-23356788D01*
X73799873Y-23202445D01*
X73853402Y-23037701D01*
X73880500Y-22866611D01*
X73880500Y-22693389D01*
X73853402Y-22522299D01*
X73799873Y-22357555D01*
X73721232Y-22203212D01*
X73619414Y-22063072D01*
X73496928Y-21940586D01*
X73356788Y-21838768D01*
X73202445Y-21760127D01*
X73037701Y-21706598D01*
X73037699Y-21706597D01*
X73037698Y-21706597D01*
X72906271Y-21685781D01*
X72866611Y-21679500D01*
X72693389Y-21679500D01*
X72653728Y-21685781D01*
X72522302Y-21706597D01*
X72357552Y-21760128D01*
X72203211Y-21838768D01*
X72123256Y-21896859D01*
X72063072Y-21940586D01*
X72063070Y-21940588D01*
X72063069Y-21940588D01*
X71940588Y-22063069D01*
X71940588Y-22063070D01*
X71940586Y-22063072D01*
X71932773Y-22073826D01*
X71838768Y-22203211D01*
X71760128Y-22357552D01*
X71706597Y-22522302D01*
X71679500Y-22693389D01*
X70375500Y-22693389D01*
X70375500Y-20153389D01*
X71679500Y-20153389D01*
X71679500Y-20326610D01*
X71697823Y-20442302D01*
X71706598Y-20497701D01*
X71760127Y-20662445D01*
X71838768Y-20816788D01*
X71940586Y-20956928D01*
X72063072Y-21079414D01*
X72203212Y-21181232D01*
X72357555Y-21259873D01*
X72522299Y-21313402D01*
X72693389Y-21340500D01*
X72693390Y-21340500D01*
X72866610Y-21340500D01*
X72866611Y-21340500D01*
X73037701Y-21313402D01*
X73202445Y-21259873D01*
X73356788Y-21181232D01*
X73496928Y-21079414D01*
X73619414Y-20956928D01*
X73721232Y-20816788D01*
X73725607Y-20808202D01*
X73773582Y-20757408D01*
X73836090Y-20740500D01*
X77375500Y-20740500D01*
X77442539Y-20760185D01*
X77488294Y-20812989D01*
X77499500Y-20864500D01*
X77499500Y-65375500D01*
X77479815Y-65442539D01*
X77427011Y-65488294D01*
X77375500Y-65499500D01*
X75370044Y-65499500D01*
X75303005Y-65479815D01*
X75257250Y-65427011D01*
X75247571Y-65394898D01*
X75244499Y-65375500D01*
X75223402Y-65242299D01*
X75169873Y-65077555D01*
X75091232Y-64923212D01*
X74989414Y-64783072D01*
X74866928Y-64660586D01*
X74726788Y-64558768D01*
X74572445Y-64480127D01*
X74407701Y-64426598D01*
X74407699Y-64426597D01*
X74407698Y-64426597D01*
X74276271Y-64405781D01*
X74236611Y-64399500D01*
X73763389Y-64399500D01*
X73723728Y-64405781D01*
X73592302Y-64426597D01*
X73427552Y-64480128D01*
X73273211Y-64558768D01*
X73193256Y-64616859D01*
X73133072Y-64660586D01*
X73133070Y-64660588D01*
X73133069Y-64660588D01*
X73010588Y-64783069D01*
X73010588Y-64783070D01*
X73010586Y-64783072D01*
X73010350Y-64783397D01*
X72908768Y-64923211D01*
X72830128Y-65077552D01*
X72776597Y-65242302D01*
X72749500Y-65413389D01*
X72749500Y-65586610D01*
X72776578Y-65757580D01*
X72776598Y-65757701D01*
X72830127Y-65922445D01*
X72908768Y-66076788D01*
X73010586Y-66216928D01*
X73133072Y-66339414D01*
X73273212Y-66441232D01*
X73427555Y-66519873D01*
X73592299Y-66573402D01*
X73763389Y-66600500D01*
X73763390Y-66600500D01*
X74236610Y-66600500D01*
X74236611Y-66600500D01*
X74407701Y-66573402D01*
X74572445Y-66519873D01*
X74573358Y-66519408D01*
X74583941Y-66514016D01*
X74640237Y-66500500D01*
X78065890Y-66500500D01*
X78065892Y-66500500D01*
X78193186Y-66466392D01*
X78307314Y-66400500D01*
X78400500Y-66307314D01*
X78466392Y-66193186D01*
X78500500Y-66065892D01*
X78500500Y-20174108D01*
X78466392Y-20046814D01*
X78400500Y-19932686D01*
X78307314Y-19839500D01*
X78250250Y-19806554D01*
X78193187Y-19773608D01*
X78129539Y-19756554D01*
X78065892Y-19739500D01*
X78065891Y-19739500D01*
X73836090Y-19739500D01*
X73769051Y-19719815D01*
X73725607Y-19671798D01*
X73721234Y-19663216D01*
X73721229Y-19663207D01*
X73674942Y-19599500D01*
X73619414Y-19523072D01*
X73496928Y-19400586D01*
X73356788Y-19298768D01*
X73202445Y-19220127D01*
X73037701Y-19166598D01*
X73037699Y-19166597D01*
X73037698Y-19166597D01*
X72906271Y-19145781D01*
X72866611Y-19139500D01*
X72693389Y-19139500D01*
X72653728Y-19145781D01*
X72522302Y-19166597D01*
X72357552Y-19220128D01*
X72203211Y-19298768D01*
X72123256Y-19356859D01*
X72063072Y-19400586D01*
X72063070Y-19400588D01*
X72063069Y-19400588D01*
X71940588Y-19523069D01*
X71940588Y-19523070D01*
X71940586Y-19523072D01*
X71932773Y-19533826D01*
X71838768Y-19663211D01*
X71760128Y-19817552D01*
X71706597Y-19982302D01*
X71679500Y-20153389D01*
X70375500Y-20153389D01*
X70375500Y-17613389D01*
X71679500Y-17613389D01*
X71679500Y-17786610D01*
X71702121Y-17929438D01*
X71706598Y-17957701D01*
X71760127Y-18122445D01*
X71838768Y-18276788D01*
X71940586Y-18416928D01*
X72063072Y-18539414D01*
X72203212Y-18641232D01*
X72357555Y-18719873D01*
X72522299Y-18773402D01*
X72693389Y-18800500D01*
X72693390Y-18800500D01*
X72866610Y-18800500D01*
X72866611Y-18800500D01*
X73037701Y-18773402D01*
X73202445Y-18719873D01*
X73356788Y-18641232D01*
X73496928Y-18539414D01*
X73619414Y-18416928D01*
X73721232Y-18276788D01*
X73799873Y-18122445D01*
X73853402Y-17957701D01*
X73880500Y-17786611D01*
X73880500Y-17613389D01*
X73853402Y-17442299D01*
X73799873Y-17277555D01*
X73721232Y-17123212D01*
X73619414Y-16983072D01*
X73496928Y-16860586D01*
X73356788Y-16758768D01*
X73202445Y-16680127D01*
X73037701Y-16626598D01*
X73037699Y-16626597D01*
X73037698Y-16626597D01*
X72906271Y-16605781D01*
X72866611Y-16599500D01*
X72693389Y-16599500D01*
X72653728Y-16605781D01*
X72522302Y-16626597D01*
X72357552Y-16680128D01*
X72203211Y-16758768D01*
X72123256Y-16816859D01*
X72063072Y-16860586D01*
X72063070Y-16860588D01*
X72063069Y-16860588D01*
X71940588Y-16983069D01*
X71940588Y-16983070D01*
X71940586Y-16983072D01*
X71932773Y-16993826D01*
X71838768Y-17123211D01*
X71760128Y-17277552D01*
X71706597Y-17442302D01*
X71679500Y-17613389D01*
X70375500Y-17613389D01*
X70375500Y-15659500D01*
X70395185Y-15592461D01*
X70447989Y-15546706D01*
X70499500Y-15535500D01*
X71660220Y-15535500D01*
X71727259Y-15555185D01*
X71770705Y-15603206D01*
X71838766Y-15736786D01*
X71843597Y-15743435D01*
X71940586Y-15876928D01*
X72063072Y-15999414D01*
X72203212Y-16101232D01*
X72357555Y-16179873D01*
X72522299Y-16233402D01*
X72693389Y-16260500D01*
X72693390Y-16260500D01*
X72866610Y-16260500D01*
X72866611Y-16260500D01*
X73037701Y-16233402D01*
X73202445Y-16179873D01*
X73356788Y-16101232D01*
X73496928Y-15999414D01*
X73619414Y-15876928D01*
X73721232Y-15736788D01*
X73799873Y-15582445D01*
X73853402Y-15417701D01*
X73880500Y-15246611D01*
X73880500Y-15073389D01*
X73853402Y-14902299D01*
X73799873Y-14737555D01*
X73721232Y-14583212D01*
X73619414Y-14443072D01*
X73496928Y-14320586D01*
X73356788Y-14218768D01*
X73202445Y-14140127D01*
X73037701Y-14086598D01*
X73037699Y-14086597D01*
X73037698Y-14086597D01*
X72906271Y-14065781D01*
X72866611Y-14059500D01*
X72693389Y-14059500D01*
X72653728Y-14065781D01*
X72522302Y-14086597D01*
X72357552Y-14140128D01*
X72203211Y-14218768D01*
X72123256Y-14276859D01*
X72063072Y-14320586D01*
X72063070Y-14320588D01*
X72063069Y-14320588D01*
X71940588Y-14443069D01*
X71940588Y-14443070D01*
X71940586Y-14443072D01*
X71932773Y-14453826D01*
X71838766Y-14583213D01*
X71770705Y-14716794D01*
X71722731Y-14767591D01*
X71660220Y-14784500D01*
X70049435Y-14784500D01*
X69950565Y-14784500D01*
X69855062Y-14810090D01*
X69855060Y-14810091D01*
X69855059Y-14810091D01*
X69769436Y-14859526D01*
X69699526Y-14929436D01*
X69650091Y-15015059D01*
X69650091Y-15015060D01*
X69650090Y-15015062D01*
X69624500Y-15110565D01*
X69624500Y-15110567D01*
X69624500Y-31630500D01*
X69604815Y-31697539D01*
X69552011Y-31743294D01*
X69500500Y-31754500D01*
X31193764Y-31754500D01*
X31126725Y-31734815D01*
X31080970Y-31682011D01*
X31071026Y-31612853D01*
X31093446Y-31557614D01*
X31181232Y-31436788D01*
X31259873Y-31282445D01*
X31313402Y-31117701D01*
X31340500Y-30946611D01*
X31340500Y-30773389D01*
X31313402Y-30602299D01*
X31259873Y-30437555D01*
X31181232Y-30283212D01*
X31079414Y-30143072D01*
X30956928Y-30020586D01*
X30816788Y-29918768D01*
X30662445Y-29840127D01*
X30497701Y-29786598D01*
X30497699Y-29786597D01*
X30497698Y-29786597D01*
X30366271Y-29765781D01*
X30326611Y-29759500D01*
X30153389Y-29759500D01*
X30113728Y-29765781D01*
X29982302Y-29786597D01*
X29817552Y-29840128D01*
X29663211Y-29918768D01*
X29583256Y-29976859D01*
X29523072Y-30020586D01*
X29523070Y-30020588D01*
X29523069Y-30020588D01*
X29400588Y-30143069D01*
X29400588Y-30143070D01*
X29400586Y-30143072D01*
X29356859Y-30203256D01*
X29298768Y-30283211D01*
X29220128Y-30437552D01*
X29166597Y-30602302D01*
X29139500Y-30773389D01*
X29139500Y-30946610D01*
X29166597Y-31117697D01*
X29220128Y-31282447D01*
X29298768Y-31436788D01*
X29386554Y-31557614D01*
X29410034Y-31623421D01*
X29394209Y-31691474D01*
X29344103Y-31740169D01*
X29286236Y-31754500D01*
X17499500Y-31754500D01*
X17432461Y-31734815D01*
X17386706Y-31682011D01*
X17375500Y-31630500D01*
X17375500Y-30810567D01*
X17375500Y-30810565D01*
X17349910Y-30715062D01*
X17300475Y-30629438D01*
X17230562Y-30559525D01*
X17144938Y-30510090D01*
X17049435Y-30484500D01*
X17049433Y-30484500D01*
X16119780Y-30484500D01*
X16052741Y-30464815D01*
X16009295Y-30416794D01*
X15941233Y-30283213D01*
X15925937Y-30262160D01*
X15839414Y-30143072D01*
X15716928Y-30020586D01*
X15576788Y-29918768D01*
X15422445Y-29840127D01*
X15257701Y-29786598D01*
X15257699Y-29786597D01*
X15257698Y-29786597D01*
X15126271Y-29765781D01*
X15086611Y-29759500D01*
X14913389Y-29759500D01*
X14873728Y-29765781D01*
X14742302Y-29786597D01*
X14577552Y-29840128D01*
X14423211Y-29918768D01*
X14343256Y-29976859D01*
X14283072Y-30020586D01*
X14283070Y-30020588D01*
X14283069Y-30020588D01*
X14160588Y-30143069D01*
X14160588Y-30143070D01*
X14160586Y-30143072D01*
X14116859Y-30203256D01*
X14058768Y-30283211D01*
X13980128Y-30437552D01*
X13926597Y-30602302D01*
X13908738Y-30715060D01*
X13899500Y-30773389D01*
X12375500Y-30773389D01*
X12375500Y-28233389D01*
X13899500Y-28233389D01*
X13899500Y-28406610D01*
X13922299Y-28550563D01*
X13926598Y-28577701D01*
X13980127Y-28742445D01*
X14058768Y-28896788D01*
X14160586Y-29036928D01*
X14283072Y-29159414D01*
X14423212Y-29261232D01*
X14577555Y-29339873D01*
X14742299Y-29393402D01*
X14913389Y-29420500D01*
X14913390Y-29420500D01*
X15086610Y-29420500D01*
X15086611Y-29420500D01*
X15257701Y-29393402D01*
X15422445Y-29339873D01*
X15576788Y-29261232D01*
X15716928Y-29159414D01*
X15839414Y-29036928D01*
X15941232Y-28896788D01*
X16009295Y-28763206D01*
X16057269Y-28712409D01*
X16119780Y-28695500D01*
X17049432Y-28695500D01*
X17049435Y-28695500D01*
X17144938Y-28669910D01*
X17230562Y-28620475D01*
X17300475Y-28550562D01*
X17349910Y-28464938D01*
X17375500Y-28369435D01*
X17375500Y-27499500D01*
X17395185Y-27432461D01*
X17447989Y-27386706D01*
X17499500Y-27375500D01*
X29328796Y-27375500D01*
X29395835Y-27395185D01*
X29441590Y-27447989D01*
X29451534Y-27517147D01*
X29422509Y-27580703D01*
X29416477Y-27587181D01*
X29400588Y-27603069D01*
X29400588Y-27603070D01*
X29400586Y-27603072D01*
X29356859Y-27663256D01*
X29298768Y-27743211D01*
X29220128Y-27897552D01*
X29166597Y-28062302D01*
X29139500Y-28233389D01*
X29139500Y-28406610D01*
X29162299Y-28550563D01*
X29166598Y-28577701D01*
X29220127Y-28742445D01*
X29298768Y-28896788D01*
X29400586Y-29036928D01*
X29523072Y-29159414D01*
X29663212Y-29261232D01*
X29817555Y-29339873D01*
X29982299Y-29393402D01*
X30153389Y-29420500D01*
X30153390Y-29420500D01*
X30326610Y-29420500D01*
X30326611Y-29420500D01*
X30497701Y-29393402D01*
X30662445Y-29339873D01*
X30816788Y-29261232D01*
X30956928Y-29159414D01*
X31079414Y-29036928D01*
X31181232Y-28896788D01*
X31259873Y-28742445D01*
X31313402Y-28577701D01*
X31340500Y-28406611D01*
X31340500Y-28233389D01*
X31313402Y-28062299D01*
X31259873Y-27897555D01*
X31181232Y-27743212D01*
X31079414Y-27603072D01*
X31063523Y-27587181D01*
X31030038Y-27525858D01*
X31035022Y-27456166D01*
X31076894Y-27400233D01*
X31142358Y-27375816D01*
X31151204Y-27375500D01*
X53549432Y-27375500D01*
X53549435Y-27375500D01*
X53644938Y-27349910D01*
X53730562Y-27300475D01*
X53800475Y-27230562D01*
X53849910Y-27144938D01*
X53875500Y-27049435D01*
X53875500Y-23486173D01*
X53895185Y-23419134D01*
X53947989Y-23373379D01*
X54017147Y-23363435D01*
X54080703Y-23392460D01*
X54099816Y-23413286D01*
X54160586Y-23496928D01*
X54283072Y-23619414D01*
X54423212Y-23721232D01*
X54577555Y-23799873D01*
X54742299Y-23853402D01*
X54913389Y-23880500D01*
X54913390Y-23880500D01*
X55086610Y-23880500D01*
X55086611Y-23880500D01*
X55257701Y-23853402D01*
X55422445Y-23799873D01*
X55576788Y-23721232D01*
X55716928Y-23619414D01*
X55839414Y-23496928D01*
X55941232Y-23356788D01*
X56019873Y-23202445D01*
X56073402Y-23037701D01*
X56100500Y-22866611D01*
X56100500Y-22693389D01*
X56073402Y-22522299D01*
X56019873Y-22357555D01*
X55941232Y-22203212D01*
X55839414Y-22063072D01*
X55716928Y-21940586D01*
X55576788Y-21838768D01*
X55422445Y-21760127D01*
X55257701Y-21706598D01*
X55257699Y-21706597D01*
X55257698Y-21706597D01*
X55126271Y-21685781D01*
X55086611Y-21679500D01*
X54913389Y-21679500D01*
X54873728Y-21685781D01*
X54742302Y-21706597D01*
X54577552Y-21760128D01*
X54423211Y-21838768D01*
X54343256Y-21896859D01*
X54283072Y-21940586D01*
X54283070Y-21940588D01*
X54283069Y-21940588D01*
X54160588Y-22063069D01*
X54160588Y-22063070D01*
X54160586Y-22063072D01*
X54152773Y-22073826D01*
X54099818Y-22146712D01*
X54044488Y-22189377D01*
X53974874Y-22195356D01*
X53913079Y-22162750D01*
X53878722Y-22101911D01*
X53875500Y-22073826D01*
X53875500Y-20946173D01*
X53895185Y-20879134D01*
X53947989Y-20833379D01*
X54017147Y-20823435D01*
X54080703Y-20852460D01*
X54099816Y-20873286D01*
X54160586Y-20956928D01*
X54283072Y-21079414D01*
X54423212Y-21181232D01*
X54577555Y-21259873D01*
X54742299Y-21313402D01*
X54913389Y-21340500D01*
X54913390Y-21340500D01*
X55086610Y-21340500D01*
X55086611Y-21340500D01*
X55257701Y-21313402D01*
X55422445Y-21259873D01*
X55576788Y-21181232D01*
X55716928Y-21079414D01*
X55839414Y-20956928D01*
X55941232Y-20816788D01*
X56019873Y-20662445D01*
X56073402Y-20497701D01*
X56100500Y-20326611D01*
X56100500Y-20153389D01*
X56073402Y-19982299D01*
X56019873Y-19817555D01*
X55941232Y-19663212D01*
X55839414Y-19523072D01*
X55716928Y-19400586D01*
X55576788Y-19298768D01*
X55422445Y-19220127D01*
X55257701Y-19166598D01*
X55257699Y-19166597D01*
X55257698Y-19166597D01*
X55126271Y-19145781D01*
X55086611Y-19139500D01*
X54913389Y-19139500D01*
X54873728Y-19145781D01*
X54742302Y-19166597D01*
X54577552Y-19220128D01*
X54423211Y-19298768D01*
X54343256Y-19356859D01*
X54283072Y-19400586D01*
X54283070Y-19400588D01*
X54283069Y-19400588D01*
X54160588Y-19523069D01*
X54160588Y-19523070D01*
X54160586Y-19523072D01*
X54152773Y-19533826D01*
X54099818Y-19606712D01*
X54044488Y-19649377D01*
X53974874Y-19655356D01*
X53913079Y-19622750D01*
X53878722Y-19561911D01*
X53875500Y-19533826D01*
X53875500Y-18406173D01*
X53895185Y-18339134D01*
X53947989Y-18293379D01*
X54017147Y-18283435D01*
X54080703Y-18312460D01*
X54099816Y-18333286D01*
X54160586Y-18416928D01*
X54283072Y-18539414D01*
X54423212Y-18641232D01*
X54577555Y-18719873D01*
X54742299Y-18773402D01*
X54913389Y-18800500D01*
X54913390Y-18800500D01*
X55086610Y-18800500D01*
X55086611Y-18800500D01*
X55257701Y-18773402D01*
X55422445Y-18719873D01*
X55576788Y-18641232D01*
X55716928Y-18539414D01*
X55839414Y-18416928D01*
X55941232Y-18276788D01*
X56019873Y-18122445D01*
X56073402Y-17957701D01*
X56100500Y-17786611D01*
X56100500Y-17613389D01*
X56073402Y-17442299D01*
X56019873Y-17277555D01*
X55941232Y-17123212D01*
X55839414Y-16983072D01*
X55716928Y-16860586D01*
X55576788Y-16758768D01*
X55422445Y-16680127D01*
X55257701Y-16626598D01*
X55257699Y-16626597D01*
X55257698Y-16626597D01*
X55126271Y-16605781D01*
X55086611Y-16599500D01*
X54913389Y-16599500D01*
X54873728Y-16605781D01*
X54742302Y-16626597D01*
X54577552Y-16680128D01*
X54423211Y-16758768D01*
X54343256Y-16816859D01*
X54283072Y-16860586D01*
X54283070Y-16860588D01*
X54283069Y-16860588D01*
X54160588Y-16983069D01*
X54160588Y-16983070D01*
X54160586Y-16983072D01*
X54152773Y-16993826D01*
X54099818Y-17066712D01*
X54044488Y-17109377D01*
X53974874Y-17115356D01*
X53913079Y-17082750D01*
X53878722Y-17021911D01*
X53875500Y-16993826D01*
X53875500Y-15866173D01*
X53895185Y-15799134D01*
X53947989Y-15753379D01*
X54017147Y-15743435D01*
X54080703Y-15772460D01*
X54099816Y-15793286D01*
X54160586Y-15876928D01*
X54283072Y-15999414D01*
X54423212Y-16101232D01*
X54577555Y-16179873D01*
X54742299Y-16233402D01*
X54913389Y-16260500D01*
X54913390Y-16260500D01*
X55086610Y-16260500D01*
X55086611Y-16260500D01*
X55257701Y-16233402D01*
X55422445Y-16179873D01*
X55576788Y-16101232D01*
X55716928Y-15999414D01*
X55839414Y-15876928D01*
X55941232Y-15736788D01*
X56019873Y-15582445D01*
X56073402Y-15417701D01*
X56100500Y-15246611D01*
X56100500Y-15073389D01*
X56073402Y-14902299D01*
X56019873Y-14737555D01*
X55941232Y-14583212D01*
X55839414Y-14443072D01*
X55716928Y-14320586D01*
X55576788Y-14218768D01*
X55422445Y-14140127D01*
X55257701Y-14086598D01*
X55257699Y-14086597D01*
X55257698Y-14086597D01*
X55126271Y-14065781D01*
X55086611Y-14059500D01*
X54913389Y-14059500D01*
X54873728Y-14065781D01*
X54742302Y-14086597D01*
X54577552Y-14140128D01*
X54423211Y-14218768D01*
X54343256Y-14276859D01*
X54283072Y-14320586D01*
X54283070Y-14320588D01*
X54283069Y-14320588D01*
X54160588Y-14443069D01*
X54160588Y-14443070D01*
X54160586Y-14443072D01*
X54099818Y-14526712D01*
X54044488Y-14569377D01*
X53974874Y-14575356D01*
X53913079Y-14542750D01*
X53878722Y-14481911D01*
X53875500Y-14453826D01*
X53875500Y-13326173D01*
X53895185Y-13259134D01*
X53947989Y-13213379D01*
X54017147Y-13203435D01*
X54080703Y-13232460D01*
X54099816Y-13253286D01*
X54160586Y-13336928D01*
X54283072Y-13459414D01*
X54423212Y-13561232D01*
X54577555Y-13639873D01*
X54742299Y-13693402D01*
X54913389Y-13720500D01*
X54913390Y-13720500D01*
X55086610Y-13720500D01*
X55086611Y-13720500D01*
X55257701Y-13693402D01*
X55422445Y-13639873D01*
X55576788Y-13561232D01*
X55716928Y-13459414D01*
X55774207Y-13402135D01*
X58949500Y-13402135D01*
X58949500Y-14597870D01*
X58949501Y-14597876D01*
X58955908Y-14657483D01*
X59006202Y-14792328D01*
X59006206Y-14792335D01*
X59092452Y-14907544D01*
X59092455Y-14907547D01*
X59207664Y-14993793D01*
X59207671Y-14993797D01*
X59342517Y-15044091D01*
X59342516Y-15044091D01*
X59349444Y-15044835D01*
X59402127Y-15050500D01*
X60597872Y-15050499D01*
X60657483Y-15044091D01*
X60792331Y-14993796D01*
X60907546Y-14907546D01*
X60993796Y-14792331D01*
X61044091Y-14657483D01*
X61050500Y-14597873D01*
X61050499Y-13896579D01*
X61450000Y-13896579D01*
X61450000Y-14103420D01*
X61490348Y-14306266D01*
X61490350Y-14306274D01*
X61569500Y-14497358D01*
X61569505Y-14497367D01*
X61629701Y-14587455D01*
X62113629Y-14103528D01*
X62127259Y-14154394D01*
X62179920Y-14245606D01*
X62254394Y-14320080D01*
X62345606Y-14372741D01*
X62396471Y-14386370D01*
X61912542Y-14870298D01*
X62002640Y-14930499D01*
X62193725Y-15009649D01*
X62193733Y-15009651D01*
X62396579Y-15049999D01*
X62396583Y-15050000D01*
X62603417Y-15050000D01*
X62603420Y-15049999D01*
X62806266Y-15009651D01*
X62806274Y-15009649D01*
X62997359Y-14930499D01*
X63087456Y-14870298D01*
X62603528Y-14386370D01*
X62654394Y-14372741D01*
X62745606Y-14320080D01*
X62820080Y-14245606D01*
X62872741Y-14154394D01*
X62886370Y-14103528D01*
X63370298Y-14587456D01*
X63430499Y-14497359D01*
X63509649Y-14306274D01*
X63509651Y-14306266D01*
X63549999Y-14103420D01*
X63550000Y-14103417D01*
X63550000Y-13896583D01*
X63549999Y-13896579D01*
X63509651Y-13693733D01*
X63509649Y-13693725D01*
X63430499Y-13502640D01*
X63370298Y-13412542D01*
X62886370Y-13896470D01*
X62872741Y-13845606D01*
X62820080Y-13754394D01*
X62745606Y-13679920D01*
X62654394Y-13627259D01*
X62603528Y-13613629D01*
X63087455Y-13129701D01*
X63087455Y-13129700D01*
X62997367Y-13069505D01*
X62997358Y-13069500D01*
X62806274Y-12990350D01*
X62806266Y-12990348D01*
X62603420Y-12950000D01*
X62396579Y-12950000D01*
X62193733Y-12990348D01*
X62193725Y-12990350D01*
X62002639Y-13069500D01*
X61912543Y-13129700D01*
X61912543Y-13129701D01*
X62396471Y-13613629D01*
X62345606Y-13627259D01*
X62254394Y-13679920D01*
X62179920Y-13754394D01*
X62127259Y-13845606D01*
X62113629Y-13896471D01*
X61629701Y-13412543D01*
X61629700Y-13412543D01*
X61569500Y-13502639D01*
X61490350Y-13693725D01*
X61490348Y-13693733D01*
X61450000Y-13896579D01*
X61050499Y-13896579D01*
X61050499Y-13402128D01*
X61044091Y-13342517D01*
X61042295Y-13337701D01*
X60998114Y-13219245D01*
X60993797Y-13207671D01*
X60993793Y-13207664D01*
X60907547Y-13092455D01*
X60907544Y-13092452D01*
X60792335Y-13006206D01*
X60792328Y-13006202D01*
X60657482Y-12955908D01*
X60657483Y-12955908D01*
X60597883Y-12949501D01*
X60597881Y-12949500D01*
X60597873Y-12949500D01*
X60597864Y-12949500D01*
X59402129Y-12949500D01*
X59402123Y-12949501D01*
X59342516Y-12955908D01*
X59207671Y-13006202D01*
X59207664Y-13006206D01*
X59092455Y-13092452D01*
X59092452Y-13092455D01*
X59006206Y-13207664D01*
X59006202Y-13207671D01*
X58955910Y-13342513D01*
X58955908Y-13342516D01*
X58949501Y-13402116D01*
X58949501Y-13402123D01*
X58949500Y-13402135D01*
X55774207Y-13402135D01*
X55839414Y-13336928D01*
X55941232Y-13196788D01*
X56019873Y-13042445D01*
X56073402Y-12877701D01*
X56100500Y-12706611D01*
X56100500Y-12533389D01*
X71679500Y-12533389D01*
X71679500Y-12706610D01*
X71697823Y-12822302D01*
X71706598Y-12877701D01*
X71760127Y-13042445D01*
X71838768Y-13196788D01*
X71940586Y-13336928D01*
X72063072Y-13459414D01*
X72203212Y-13561232D01*
X72357555Y-13639873D01*
X72522299Y-13693402D01*
X72693389Y-13720500D01*
X72693390Y-13720500D01*
X72866610Y-13720500D01*
X72866611Y-13720500D01*
X73037701Y-13693402D01*
X73202445Y-13639873D01*
X73356788Y-13561232D01*
X73496928Y-13459414D01*
X73619414Y-13336928D01*
X73721232Y-13196788D01*
X73799873Y-13042445D01*
X73853402Y-12877701D01*
X73880500Y-12706611D01*
X73880500Y-12533389D01*
X73853402Y-12362299D01*
X73799873Y-12197555D01*
X73721232Y-12043212D01*
X73619414Y-11903072D01*
X73496928Y-11780586D01*
X73356788Y-11678768D01*
X73202445Y-11600127D01*
X73037701Y-11546598D01*
X73037699Y-11546597D01*
X73037698Y-11546597D01*
X72906271Y-11525781D01*
X72866611Y-11519500D01*
X72693389Y-11519500D01*
X72653728Y-11525781D01*
X72522302Y-11546597D01*
X72357552Y-11600128D01*
X72203211Y-11678768D01*
X72123256Y-11736859D01*
X72063072Y-11780586D01*
X72063070Y-11780588D01*
X72063069Y-11780588D01*
X71940588Y-11903069D01*
X71940588Y-11903070D01*
X71940586Y-11903072D01*
X71932773Y-11913826D01*
X71838768Y-12043211D01*
X71760128Y-12197552D01*
X71706597Y-12362302D01*
X71679500Y-12533389D01*
X56100500Y-12533389D01*
X56073402Y-12362299D01*
X56019873Y-12197555D01*
X55941232Y-12043212D01*
X55839414Y-11903072D01*
X55716928Y-11780586D01*
X55576788Y-11678768D01*
X55422445Y-11600127D01*
X55257701Y-11546598D01*
X55257699Y-11546597D01*
X55257698Y-11546597D01*
X55126271Y-11525781D01*
X55086611Y-11519500D01*
X54913389Y-11519500D01*
X54873728Y-11525781D01*
X54742302Y-11546597D01*
X54577552Y-11600128D01*
X54423211Y-11678768D01*
X54343256Y-11736859D01*
X54283072Y-11780586D01*
X54283070Y-11780588D01*
X54283069Y-11780588D01*
X54160588Y-11903069D01*
X54160588Y-11903070D01*
X54160586Y-11903072D01*
X54152773Y-11913826D01*
X54099818Y-11986712D01*
X54044488Y-12029377D01*
X53974874Y-12035356D01*
X53913079Y-12002750D01*
X53878722Y-11941911D01*
X53875500Y-11913826D01*
X53875500Y-10786173D01*
X53895185Y-10719134D01*
X53947989Y-10673379D01*
X54017147Y-10663435D01*
X54080703Y-10692460D01*
X54099816Y-10713286D01*
X54160586Y-10796928D01*
X54283072Y-10919414D01*
X54423212Y-11021232D01*
X54577555Y-11099873D01*
X54742299Y-11153402D01*
X54913389Y-11180500D01*
X54913390Y-11180500D01*
X55086610Y-11180500D01*
X55086611Y-11180500D01*
X55257701Y-11153402D01*
X55422445Y-11099873D01*
X55576788Y-11021232D01*
X55716928Y-10919414D01*
X55839414Y-10796928D01*
X55941232Y-10656788D01*
X56019873Y-10502445D01*
X56073402Y-10337701D01*
X56100500Y-10166611D01*
X56100500Y-9993428D01*
X71680000Y-9993428D01*
X71680000Y-10166571D01*
X71707085Y-10337584D01*
X71760591Y-10502257D01*
X71839195Y-10656523D01*
X71839196Y-10656525D01*
X71873463Y-10703691D01*
X71873464Y-10703691D01*
X72311980Y-10265176D01*
X72314075Y-10272993D01*
X72379901Y-10387007D01*
X72472993Y-10480099D01*
X72587007Y-10545925D01*
X72594822Y-10548019D01*
X72156307Y-10986534D01*
X72203478Y-11020805D01*
X72357742Y-11099408D01*
X72522415Y-11152914D01*
X72693429Y-11180000D01*
X72866571Y-11180000D01*
X73037584Y-11152914D01*
X73202257Y-11099408D01*
X73356525Y-11020803D01*
X73403691Y-10986534D01*
X73403692Y-10986533D01*
X72965178Y-10548019D01*
X72972993Y-10545925D01*
X73087007Y-10480099D01*
X73180099Y-10387007D01*
X73245925Y-10272993D01*
X73248019Y-10265177D01*
X73686533Y-10703692D01*
X73686534Y-10703691D01*
X73720803Y-10656525D01*
X73799408Y-10502257D01*
X73852914Y-10337584D01*
X73880000Y-10166571D01*
X73880000Y-9993428D01*
X73852914Y-9822415D01*
X73799408Y-9657742D01*
X73720805Y-9503478D01*
X73686534Y-9456307D01*
X73248019Y-9894822D01*
X73245925Y-9887007D01*
X73180099Y-9772993D01*
X73087007Y-9679901D01*
X72972993Y-9614075D01*
X72965176Y-9611980D01*
X73403691Y-9173464D01*
X73403691Y-9173463D01*
X73356525Y-9139196D01*
X73356523Y-9139195D01*
X73202257Y-9060591D01*
X73037584Y-9007085D01*
X72866571Y-8980000D01*
X72693429Y-8980000D01*
X72522415Y-9007085D01*
X72357740Y-9060592D01*
X72203475Y-9139196D01*
X72156307Y-9173463D01*
X72156307Y-9173464D01*
X72594823Y-9611980D01*
X72587007Y-9614075D01*
X72472993Y-9679901D01*
X72379901Y-9772993D01*
X72314075Y-9887007D01*
X72311980Y-9894823D01*
X71873464Y-9456307D01*
X71873463Y-9456307D01*
X71839196Y-9503475D01*
X71760592Y-9657740D01*
X71707085Y-9822415D01*
X71680000Y-9993428D01*
X56100500Y-9993428D01*
X56100500Y-9993389D01*
X56073402Y-9822299D01*
X56019873Y-9657555D01*
X55941232Y-9503212D01*
X55839414Y-9363072D01*
X55716928Y-9240586D01*
X55576788Y-9138768D01*
X55422445Y-9060127D01*
X55257701Y-9006598D01*
X55257699Y-9006597D01*
X55257698Y-9006597D01*
X55126271Y-8985781D01*
X55086611Y-8979500D01*
X54913389Y-8979500D01*
X54873728Y-8985781D01*
X54742302Y-9006597D01*
X54577552Y-9060128D01*
X54423211Y-9138768D01*
X54375457Y-9173464D01*
X54283072Y-9240586D01*
X54283070Y-9240588D01*
X54283069Y-9240588D01*
X54160588Y-9363069D01*
X54160588Y-9363070D01*
X54160586Y-9363072D01*
X54152773Y-9373826D01*
X54099818Y-9446712D01*
X54044488Y-9489377D01*
X53974874Y-9495356D01*
X53913079Y-9462750D01*
X53878722Y-9401911D01*
X53875500Y-9373826D01*
X53875500Y-8246173D01*
X53895185Y-8179134D01*
X53947989Y-8133379D01*
X54017147Y-8123435D01*
X54080703Y-8152460D01*
X54099816Y-8173286D01*
X54160586Y-8256928D01*
X54283072Y-8379414D01*
X54423212Y-8481232D01*
X54577555Y-8559873D01*
X54742299Y-8613402D01*
X54913389Y-8640500D01*
X54913390Y-8640500D01*
X55086610Y-8640500D01*
X55086611Y-8640500D01*
X55257701Y-8613402D01*
X55422445Y-8559873D01*
X55576788Y-8481232D01*
X55716928Y-8379414D01*
X55839414Y-8256928D01*
X55941232Y-8116788D01*
X56019873Y-7962445D01*
X56073402Y-7797701D01*
X56100500Y-7626611D01*
X56100500Y-7453389D01*
X71679500Y-7453389D01*
X71679500Y-7626611D01*
X71706598Y-7797701D01*
X71760127Y-7962445D01*
X71838768Y-8116788D01*
X71940586Y-8256928D01*
X72063072Y-8379414D01*
X72203212Y-8481232D01*
X72357555Y-8559873D01*
X72522299Y-8613402D01*
X72693389Y-8640500D01*
X72693390Y-8640500D01*
X72866610Y-8640500D01*
X72866611Y-8640500D01*
X73037701Y-8613402D01*
X73202445Y-8559873D01*
X73356788Y-8481232D01*
X73496928Y-8379414D01*
X73619414Y-8256928D01*
X73721232Y-8116788D01*
X73799873Y-7962445D01*
X73853402Y-7797701D01*
X73880500Y-7626611D01*
X73880500Y-7453389D01*
X73853402Y-7282299D01*
X73799873Y-7117555D01*
X73721232Y-6963212D01*
X73619414Y-6823072D01*
X73496928Y-6700586D01*
X73356788Y-6598768D01*
X73202445Y-6520127D01*
X73037701Y-6466598D01*
X73037699Y-6466597D01*
X73037698Y-6466597D01*
X72906271Y-6445781D01*
X72866611Y-6439500D01*
X72693389Y-6439500D01*
X72653728Y-6445781D01*
X72522302Y-6466597D01*
X72357552Y-6520128D01*
X72203211Y-6598768D01*
X72123256Y-6656859D01*
X72063072Y-6700586D01*
X72063070Y-6700588D01*
X72063069Y-6700588D01*
X71940588Y-6823069D01*
X71940588Y-6823070D01*
X71940586Y-6823072D01*
X71896859Y-6883256D01*
X71838768Y-6963211D01*
X71760128Y-7117552D01*
X71706597Y-7282302D01*
X71688738Y-7395060D01*
X71679500Y-7453389D01*
X56100500Y-7453389D01*
X56073402Y-7282299D01*
X56019873Y-7117555D01*
X55941232Y-6963212D01*
X55839414Y-6823072D01*
X55716928Y-6700586D01*
X55576788Y-6598768D01*
X55422445Y-6520127D01*
X55257701Y-6466598D01*
X55257699Y-6466597D01*
X55257698Y-6466597D01*
X55126271Y-6445781D01*
X55086611Y-6439500D01*
X54913389Y-6439500D01*
X54873728Y-6445781D01*
X54742302Y-6466597D01*
X54577552Y-6520128D01*
X54423211Y-6598768D01*
X54343256Y-6656859D01*
X54283072Y-6700586D01*
X54283070Y-6700588D01*
X54283069Y-6700588D01*
X54160588Y-6823069D01*
X54160588Y-6823070D01*
X54160586Y-6823072D01*
X54129996Y-6865174D01*
X54058766Y-6963213D01*
X53990705Y-7096794D01*
X53942731Y-7147591D01*
X53880220Y-7164500D01*
X53549435Y-7164500D01*
X53450565Y-7164500D01*
X53355062Y-7190090D01*
X53355060Y-7190091D01*
X53355059Y-7190091D01*
X53269436Y-7239526D01*
X53199526Y-7309436D01*
X53150091Y-7395059D01*
X53150091Y-7395060D01*
X53150090Y-7395062D01*
X53124500Y-7490565D01*
X53124500Y-7490567D01*
X53124500Y-26500500D01*
X53104815Y-26567539D01*
X53052011Y-26613294D01*
X53000500Y-26624500D01*
X31230091Y-26624500D01*
X31163052Y-26604815D01*
X31117297Y-26552011D01*
X31107353Y-26482853D01*
X31129772Y-26427616D01*
X31181232Y-26356788D01*
X31259873Y-26202445D01*
X31313402Y-26037701D01*
X31340500Y-25866611D01*
X31340500Y-25693389D01*
X31313402Y-25522299D01*
X31259873Y-25357555D01*
X31181232Y-25203212D01*
X31079414Y-25063072D01*
X30956928Y-24940586D01*
X30816788Y-24838768D01*
X30662445Y-24760127D01*
X30497701Y-24706598D01*
X30497699Y-24706597D01*
X30497698Y-24706597D01*
X30366271Y-24685781D01*
X30326611Y-24679500D01*
X30153389Y-24679500D01*
X30113728Y-24685781D01*
X29982302Y-24706597D01*
X29817552Y-24760128D01*
X29663211Y-24838768D01*
X29583256Y-24896859D01*
X29523072Y-24940586D01*
X29523070Y-24940588D01*
X29523069Y-24940588D01*
X29400588Y-25063069D01*
X29400588Y-25063070D01*
X29400586Y-25063072D01*
X29356859Y-25123256D01*
X29298768Y-25203211D01*
X29220128Y-25357552D01*
X29166597Y-25522302D01*
X29139500Y-25693389D01*
X29139500Y-25866611D01*
X29166598Y-26037701D01*
X29220127Y-26202445D01*
X29298768Y-26356788D01*
X29350227Y-26427615D01*
X29373707Y-26493420D01*
X29357882Y-26561474D01*
X29307777Y-26610169D01*
X29249909Y-26624500D01*
X17049435Y-26624500D01*
X16950565Y-26624500D01*
X16855062Y-26650090D01*
X16855060Y-26650091D01*
X16855059Y-26650091D01*
X16769436Y-26699526D01*
X16699526Y-26769436D01*
X16650091Y-26855059D01*
X16650091Y-26855060D01*
X16650090Y-26855062D01*
X16624500Y-26950565D01*
X16624500Y-26950567D01*
X16624500Y-27820500D01*
X16604815Y-27887539D01*
X16552011Y-27933294D01*
X16500500Y-27944500D01*
X16119780Y-27944500D01*
X16052741Y-27924815D01*
X16009295Y-27876794D01*
X15941233Y-27743213D01*
X15925937Y-27722160D01*
X15839414Y-27603072D01*
X15716928Y-27480586D01*
X15576788Y-27378768D01*
X15570374Y-27375500D01*
X15422447Y-27300128D01*
X15422446Y-27300127D01*
X15422445Y-27300127D01*
X15257701Y-27246598D01*
X15257699Y-27246597D01*
X15257698Y-27246597D01*
X15126271Y-27225781D01*
X15086611Y-27219500D01*
X14913389Y-27219500D01*
X14873728Y-27225781D01*
X14742302Y-27246597D01*
X14577552Y-27300128D01*
X14423211Y-27378768D01*
X14349310Y-27432461D01*
X14283072Y-27480586D01*
X14283070Y-27480588D01*
X14283069Y-27480588D01*
X14160588Y-27603069D01*
X14160588Y-27603070D01*
X14160586Y-27603072D01*
X14116859Y-27663256D01*
X14058768Y-27743211D01*
X13980128Y-27897552D01*
X13926597Y-28062302D01*
X13899500Y-28233389D01*
X12375500Y-28233389D01*
X12375500Y-25693389D01*
X13899500Y-25693389D01*
X13899500Y-25866611D01*
X13926598Y-26037701D01*
X13980127Y-26202445D01*
X14058768Y-26356788D01*
X14160586Y-26496928D01*
X14283072Y-26619414D01*
X14423212Y-26721232D01*
X14577555Y-26799873D01*
X14742299Y-26853402D01*
X14913389Y-26880500D01*
X14913390Y-26880500D01*
X15086610Y-26880500D01*
X15086611Y-26880500D01*
X15257701Y-26853402D01*
X15422445Y-26799873D01*
X15576788Y-26721232D01*
X15716928Y-26619414D01*
X15839414Y-26496928D01*
X15941232Y-26356788D01*
X16019873Y-26202445D01*
X16073402Y-26037701D01*
X16100500Y-25866611D01*
X16100500Y-25693389D01*
X16073402Y-25522299D01*
X16019873Y-25357555D01*
X15941232Y-25203212D01*
X15839414Y-25063072D01*
X15716928Y-24940586D01*
X15576788Y-24838768D01*
X15422445Y-24760127D01*
X15257701Y-24706598D01*
X15257699Y-24706597D01*
X15257698Y-24706597D01*
X15126271Y-24685781D01*
X15086611Y-24679500D01*
X14913389Y-24679500D01*
X14873728Y-24685781D01*
X14742302Y-24706597D01*
X14577552Y-24760128D01*
X14423211Y-24838768D01*
X14343256Y-24896859D01*
X14283072Y-24940586D01*
X14283070Y-24940588D01*
X14283069Y-24940588D01*
X14160588Y-25063069D01*
X14160588Y-25063070D01*
X14160586Y-25063072D01*
X14116859Y-25123256D01*
X14058768Y-25203211D01*
X13980128Y-25357552D01*
X13926597Y-25522302D01*
X13899500Y-25693389D01*
X12375500Y-25693389D01*
X12375500Y-23153389D01*
X13899500Y-23153389D01*
X13899500Y-23326610D01*
X13926475Y-23496929D01*
X13926598Y-23497701D01*
X13980127Y-23662445D01*
X14058768Y-23816788D01*
X14160586Y-23956928D01*
X14283072Y-24079414D01*
X14423212Y-24181232D01*
X14577555Y-24259873D01*
X14742299Y-24313402D01*
X14913389Y-24340500D01*
X14913390Y-24340500D01*
X15086610Y-24340500D01*
X15086611Y-24340500D01*
X15257701Y-24313402D01*
X15422445Y-24259873D01*
X15576788Y-24181232D01*
X15716928Y-24079414D01*
X15839414Y-23956928D01*
X15941232Y-23816788D01*
X16019873Y-23662445D01*
X16073402Y-23497701D01*
X16100500Y-23326611D01*
X16100500Y-23153389D01*
X29139500Y-23153389D01*
X29139500Y-23326610D01*
X29166475Y-23496929D01*
X29166598Y-23497701D01*
X29220127Y-23662445D01*
X29298768Y-23816788D01*
X29400586Y-23956928D01*
X29523072Y-24079414D01*
X29663212Y-24181232D01*
X29817555Y-24259873D01*
X29982299Y-24313402D01*
X30153389Y-24340500D01*
X30153390Y-24340500D01*
X30326610Y-24340500D01*
X30326611Y-24340500D01*
X30497701Y-24313402D01*
X30662445Y-24259873D01*
X30816788Y-24181232D01*
X30956928Y-24079414D01*
X31079414Y-23956928D01*
X31181232Y-23816788D01*
X31259873Y-23662445D01*
X31313402Y-23497701D01*
X31340500Y-23326611D01*
X31340500Y-23153389D01*
X31313402Y-22982299D01*
X31259873Y-22817555D01*
X31181232Y-22663212D01*
X31079414Y-22523072D01*
X30956928Y-22400586D01*
X30816788Y-22298768D01*
X30662445Y-22220127D01*
X30497701Y-22166598D01*
X30497699Y-22166597D01*
X30497698Y-22166597D01*
X30366271Y-22145781D01*
X30326611Y-22139500D01*
X30153389Y-22139500D01*
X30113728Y-22145781D01*
X29982302Y-22166597D01*
X29817552Y-22220128D01*
X29663211Y-22298768D01*
X29583256Y-22356859D01*
X29523072Y-22400586D01*
X29523070Y-22400588D01*
X29523069Y-22400588D01*
X29400588Y-22523069D01*
X29400588Y-22523070D01*
X29400586Y-22523072D01*
X29356859Y-22583256D01*
X29298768Y-22663211D01*
X29220128Y-22817552D01*
X29166597Y-22982302D01*
X29139500Y-23153389D01*
X16100500Y-23153389D01*
X16073402Y-22982299D01*
X16019873Y-22817555D01*
X15941232Y-22663212D01*
X15839414Y-22523072D01*
X15716928Y-22400586D01*
X15576788Y-22298768D01*
X15422445Y-22220127D01*
X15257701Y-22166598D01*
X15257699Y-22166597D01*
X15257698Y-22166597D01*
X15126271Y-22145781D01*
X15086611Y-22139500D01*
X14913389Y-22139500D01*
X14873728Y-22145781D01*
X14742302Y-22166597D01*
X14577552Y-22220128D01*
X14423211Y-22298768D01*
X14343256Y-22356859D01*
X14283072Y-22400586D01*
X14283070Y-22400588D01*
X14283069Y-22400588D01*
X14160588Y-22523069D01*
X14160588Y-22523070D01*
X14160586Y-22523072D01*
X14116859Y-22583256D01*
X14058768Y-22663211D01*
X13980128Y-22817552D01*
X13926597Y-22982302D01*
X13899500Y-23153389D01*
X12375500Y-23153389D01*
X12375500Y-20613389D01*
X13899500Y-20613389D01*
X13899500Y-20786610D01*
X13926475Y-20956929D01*
X13926598Y-20957701D01*
X13980127Y-21122445D01*
X14058768Y-21276788D01*
X14160586Y-21416928D01*
X14283072Y-21539414D01*
X14423212Y-21641232D01*
X14577555Y-21719873D01*
X14742299Y-21773402D01*
X14913389Y-21800500D01*
X14913390Y-21800500D01*
X15086610Y-21800500D01*
X15086611Y-21800500D01*
X15257701Y-21773402D01*
X15422445Y-21719873D01*
X15576788Y-21641232D01*
X15716928Y-21539414D01*
X15839414Y-21416928D01*
X15941232Y-21276788D01*
X16019873Y-21122445D01*
X16073402Y-20957701D01*
X16100500Y-20786611D01*
X16100500Y-20613389D01*
X29139500Y-20613389D01*
X29139500Y-20786610D01*
X29166475Y-20956929D01*
X29166598Y-20957701D01*
X29220127Y-21122445D01*
X29298768Y-21276788D01*
X29400586Y-21416928D01*
X29523072Y-21539414D01*
X29663212Y-21641232D01*
X29817555Y-21719873D01*
X29982299Y-21773402D01*
X30153389Y-21800500D01*
X30153390Y-21800500D01*
X30326610Y-21800500D01*
X30326611Y-21800500D01*
X30497701Y-21773402D01*
X30662445Y-21719873D01*
X30816788Y-21641232D01*
X30956928Y-21539414D01*
X31079414Y-21416928D01*
X31181232Y-21276788D01*
X31259873Y-21122445D01*
X31313402Y-20957701D01*
X31340500Y-20786611D01*
X31340500Y-20613389D01*
X31313402Y-20442299D01*
X31259873Y-20277555D01*
X31181232Y-20123212D01*
X31079414Y-19983072D01*
X30956928Y-19860586D01*
X30816788Y-19758768D01*
X30662445Y-19680127D01*
X30497701Y-19626598D01*
X30497699Y-19626597D01*
X30497698Y-19626597D01*
X30366271Y-19605781D01*
X30326611Y-19599500D01*
X30153389Y-19599500D01*
X30113728Y-19605781D01*
X29982302Y-19626597D01*
X29817552Y-19680128D01*
X29663211Y-19758768D01*
X29583256Y-19816859D01*
X29523072Y-19860586D01*
X29523070Y-19860588D01*
X29523069Y-19860588D01*
X29400588Y-19983069D01*
X29400588Y-19983070D01*
X29400586Y-19983072D01*
X29356859Y-20043256D01*
X29298768Y-20123211D01*
X29220128Y-20277552D01*
X29166597Y-20442302D01*
X29139500Y-20613389D01*
X16100500Y-20613389D01*
X16073402Y-20442299D01*
X16019873Y-20277555D01*
X15941232Y-20123212D01*
X15839414Y-19983072D01*
X15716928Y-19860586D01*
X15576788Y-19758768D01*
X15422445Y-19680127D01*
X15257701Y-19626598D01*
X15257699Y-19626597D01*
X15257698Y-19626597D01*
X15126271Y-19605781D01*
X15086611Y-19599500D01*
X14913389Y-19599500D01*
X14873728Y-19605781D01*
X14742302Y-19626597D01*
X14577552Y-19680128D01*
X14423211Y-19758768D01*
X14343256Y-19816859D01*
X14283072Y-19860586D01*
X14283070Y-19860588D01*
X14283069Y-19860588D01*
X14160588Y-19983069D01*
X14160588Y-19983070D01*
X14160586Y-19983072D01*
X14116859Y-20043256D01*
X14058768Y-20123211D01*
X13980128Y-20277552D01*
X13926597Y-20442302D01*
X13899500Y-20613389D01*
X12375500Y-20613389D01*
X12375500Y-18659500D01*
X12395185Y-18592461D01*
X12447989Y-18546706D01*
X12499500Y-18535500D01*
X13880220Y-18535500D01*
X13947259Y-18555185D01*
X13990705Y-18603206D01*
X14058766Y-18736786D01*
X14085370Y-18773402D01*
X14160586Y-18876928D01*
X14283072Y-18999414D01*
X14423212Y-19101232D01*
X14577555Y-19179873D01*
X14742299Y-19233402D01*
X14913389Y-19260500D01*
X14913390Y-19260500D01*
X15086610Y-19260500D01*
X15086611Y-19260500D01*
X15257701Y-19233402D01*
X15422445Y-19179873D01*
X15576788Y-19101232D01*
X15716928Y-18999414D01*
X15839414Y-18876928D01*
X15941232Y-18736788D01*
X16019873Y-18582445D01*
X16073402Y-18417701D01*
X16100500Y-18246611D01*
X16100500Y-18073389D01*
X29139500Y-18073389D01*
X29139500Y-18246610D01*
X29166475Y-18416929D01*
X29166598Y-18417701D01*
X29220127Y-18582445D01*
X29298768Y-18736788D01*
X29400586Y-18876928D01*
X29523072Y-18999414D01*
X29663212Y-19101232D01*
X29817555Y-19179873D01*
X29982299Y-19233402D01*
X30153389Y-19260500D01*
X30153390Y-19260500D01*
X30326610Y-19260500D01*
X30326611Y-19260500D01*
X30497701Y-19233402D01*
X30662445Y-19179873D01*
X30816788Y-19101232D01*
X30956928Y-18999414D01*
X31079414Y-18876928D01*
X31181232Y-18736788D01*
X31259873Y-18582445D01*
X31313402Y-18417701D01*
X31340500Y-18246611D01*
X31340500Y-18073389D01*
X31313402Y-17902299D01*
X31259873Y-17737555D01*
X31181232Y-17583212D01*
X31079414Y-17443072D01*
X30956928Y-17320586D01*
X30816788Y-17218768D01*
X30662445Y-17140127D01*
X30497701Y-17086598D01*
X30497699Y-17086597D01*
X30497698Y-17086597D01*
X30366271Y-17065781D01*
X30326611Y-17059500D01*
X30153389Y-17059500D01*
X30113728Y-17065781D01*
X29982302Y-17086597D01*
X29817552Y-17140128D01*
X29663211Y-17218768D01*
X29583256Y-17276859D01*
X29523072Y-17320586D01*
X29523070Y-17320588D01*
X29523069Y-17320588D01*
X29400588Y-17443069D01*
X29400588Y-17443070D01*
X29400586Y-17443072D01*
X29356859Y-17503256D01*
X29298768Y-17583211D01*
X29220128Y-17737552D01*
X29166597Y-17902302D01*
X29139500Y-18073389D01*
X16100500Y-18073389D01*
X16073402Y-17902299D01*
X16019873Y-17737555D01*
X15941232Y-17583212D01*
X15839414Y-17443072D01*
X15716928Y-17320586D01*
X15576788Y-17218768D01*
X15422445Y-17140127D01*
X15257701Y-17086598D01*
X15257699Y-17086597D01*
X15257698Y-17086597D01*
X15126271Y-17065781D01*
X15086611Y-17059500D01*
X14913389Y-17059500D01*
X14873728Y-17065781D01*
X14742302Y-17086597D01*
X14577552Y-17140128D01*
X14423211Y-17218768D01*
X14343256Y-17276859D01*
X14283072Y-17320586D01*
X14283070Y-17320588D01*
X14283069Y-17320588D01*
X14160588Y-17443069D01*
X14160588Y-17443070D01*
X14160586Y-17443072D01*
X14129996Y-17485174D01*
X14058766Y-17583213D01*
X13990705Y-17716794D01*
X13942731Y-17767591D01*
X13880220Y-17784500D01*
X12049435Y-17784500D01*
X11950565Y-17784500D01*
X11855062Y-17810090D01*
X11855060Y-17810091D01*
X11855059Y-17810091D01*
X11769436Y-17859526D01*
X11699526Y-17929436D01*
X11650091Y-18015059D01*
X11650091Y-18015060D01*
X11650090Y-18015062D01*
X11624500Y-18110565D01*
X500500Y-18110565D01*
X500500Y-15533428D01*
X13900000Y-15533428D01*
X13900000Y-15706571D01*
X13927085Y-15877584D01*
X13980591Y-16042257D01*
X14059195Y-16196523D01*
X14059196Y-16196525D01*
X14093463Y-16243691D01*
X14093464Y-16243691D01*
X14531980Y-15805176D01*
X14534075Y-15812993D01*
X14599901Y-15927007D01*
X14692993Y-16020099D01*
X14807007Y-16085925D01*
X14814822Y-16088019D01*
X14376307Y-16526534D01*
X14423478Y-16560805D01*
X14577742Y-16639408D01*
X14742415Y-16692914D01*
X14913429Y-16720000D01*
X15086571Y-16720000D01*
X15257584Y-16692914D01*
X15422257Y-16639408D01*
X15576525Y-16560803D01*
X15623691Y-16526534D01*
X15623692Y-16526533D01*
X15185178Y-16088019D01*
X15192993Y-16085925D01*
X15307007Y-16020099D01*
X15400099Y-15927007D01*
X15465925Y-15812993D01*
X15468019Y-15805177D01*
X15906533Y-16243692D01*
X15906534Y-16243691D01*
X15940803Y-16196525D01*
X16019408Y-16042257D01*
X16072914Y-15877584D01*
X16100000Y-15706571D01*
X16100000Y-15533428D01*
X16099994Y-15533389D01*
X29139500Y-15533389D01*
X29139500Y-15706610D01*
X29166475Y-15876929D01*
X29166598Y-15877701D01*
X29220127Y-16042445D01*
X29298768Y-16196788D01*
X29400586Y-16336928D01*
X29523072Y-16459414D01*
X29663212Y-16561232D01*
X29817555Y-16639873D01*
X29982299Y-16693402D01*
X30153389Y-16720500D01*
X30153390Y-16720500D01*
X30326610Y-16720500D01*
X30326611Y-16720500D01*
X30497701Y-16693402D01*
X30662445Y-16639873D01*
X30816788Y-16561232D01*
X30956928Y-16459414D01*
X31079414Y-16336928D01*
X31181232Y-16196788D01*
X31259873Y-16042445D01*
X31313402Y-15877701D01*
X31340500Y-15706611D01*
X31340500Y-15533389D01*
X31313402Y-15362299D01*
X31259873Y-15197555D01*
X31181232Y-15043212D01*
X31079414Y-14903072D01*
X30956928Y-14780586D01*
X30816788Y-14678768D01*
X30662445Y-14600127D01*
X30497701Y-14546598D01*
X30497699Y-14546597D01*
X30497698Y-14546597D01*
X30366271Y-14525781D01*
X30326611Y-14519500D01*
X30153389Y-14519500D01*
X30113728Y-14525781D01*
X29982302Y-14546597D01*
X29817552Y-14600128D01*
X29663211Y-14678768D01*
X29615457Y-14713464D01*
X29523072Y-14780586D01*
X29523070Y-14780588D01*
X29523069Y-14780588D01*
X29400588Y-14903069D01*
X29400588Y-14903070D01*
X29400586Y-14903072D01*
X29381430Y-14929438D01*
X29298768Y-15043211D01*
X29220128Y-15197552D01*
X29166597Y-15362302D01*
X29139500Y-15533389D01*
X16099994Y-15533389D01*
X16072914Y-15362415D01*
X16019408Y-15197742D01*
X15940805Y-15043478D01*
X15906534Y-14996307D01*
X15468019Y-15434822D01*
X15465925Y-15427007D01*
X15400099Y-15312993D01*
X15307007Y-15219901D01*
X15192993Y-15154075D01*
X15185176Y-15151980D01*
X15623691Y-14713464D01*
X15623691Y-14713463D01*
X15576525Y-14679196D01*
X15576523Y-14679195D01*
X15422257Y-14600591D01*
X15257584Y-14547085D01*
X15086571Y-14520000D01*
X14913429Y-14520000D01*
X14742415Y-14547085D01*
X14577740Y-14600592D01*
X14423475Y-14679196D01*
X14376307Y-14713463D01*
X14376307Y-14713464D01*
X14814823Y-15151980D01*
X14807007Y-15154075D01*
X14692993Y-15219901D01*
X14599901Y-15312993D01*
X14534075Y-15427007D01*
X14531980Y-15434823D01*
X14093464Y-14996307D01*
X14093463Y-14996307D01*
X14059196Y-15043475D01*
X13980592Y-15197740D01*
X13927085Y-15362415D01*
X13900000Y-15533428D01*
X500500Y-15533428D01*
X500500Y-12993389D01*
X13899500Y-12993389D01*
X13899500Y-13166610D01*
X13926475Y-13336929D01*
X13926598Y-13337701D01*
X13980127Y-13502445D01*
X14058768Y-13656788D01*
X14160586Y-13796928D01*
X14283072Y-13919414D01*
X14423212Y-14021232D01*
X14577555Y-14099873D01*
X14742299Y-14153402D01*
X14913389Y-14180500D01*
X14913390Y-14180500D01*
X15086610Y-14180500D01*
X15086611Y-14180500D01*
X15257701Y-14153402D01*
X15422445Y-14099873D01*
X15576788Y-14021232D01*
X15716928Y-13919414D01*
X15839414Y-13796928D01*
X15941232Y-13656788D01*
X16019873Y-13502445D01*
X16073402Y-13337701D01*
X16100500Y-13166611D01*
X16100500Y-12993389D01*
X29139500Y-12993389D01*
X29139500Y-13166610D01*
X29166475Y-13336929D01*
X29166598Y-13337701D01*
X29220127Y-13502445D01*
X29298768Y-13656788D01*
X29400586Y-13796928D01*
X29523072Y-13919414D01*
X29663212Y-14021232D01*
X29817555Y-14099873D01*
X29982299Y-14153402D01*
X30153389Y-14180500D01*
X30153390Y-14180500D01*
X30326610Y-14180500D01*
X30326611Y-14180500D01*
X30497701Y-14153402D01*
X30662445Y-14099873D01*
X30816788Y-14021232D01*
X30956928Y-13919414D01*
X31079414Y-13796928D01*
X31181232Y-13656788D01*
X31259873Y-13502445D01*
X31313402Y-13337701D01*
X31340500Y-13166611D01*
X31340500Y-12993389D01*
X31313402Y-12822299D01*
X31259873Y-12657555D01*
X31181232Y-12503212D01*
X31079414Y-12363072D01*
X30956928Y-12240586D01*
X30816788Y-12138768D01*
X30662445Y-12060127D01*
X30497701Y-12006598D01*
X30497699Y-12006597D01*
X30497698Y-12006597D01*
X30366271Y-11985781D01*
X30326611Y-11979500D01*
X30153389Y-11979500D01*
X30113728Y-11985781D01*
X29982302Y-12006597D01*
X29817552Y-12060128D01*
X29663211Y-12138768D01*
X29583256Y-12196859D01*
X29523072Y-12240586D01*
X29523070Y-12240588D01*
X29523069Y-12240588D01*
X29400588Y-12363069D01*
X29400588Y-12363070D01*
X29400586Y-12363072D01*
X29356859Y-12423256D01*
X29298768Y-12503211D01*
X29220128Y-12657552D01*
X29166597Y-12822302D01*
X29139500Y-12993389D01*
X16100500Y-12993389D01*
X16073402Y-12822299D01*
X16019873Y-12657555D01*
X15941232Y-12503212D01*
X15839414Y-12363072D01*
X15716928Y-12240586D01*
X15576788Y-12138768D01*
X15422445Y-12060127D01*
X15257701Y-12006598D01*
X15257699Y-12006597D01*
X15257698Y-12006597D01*
X15126271Y-11985781D01*
X15086611Y-11979500D01*
X14913389Y-11979500D01*
X14873728Y-11985781D01*
X14742302Y-12006597D01*
X14577552Y-12060128D01*
X14423211Y-12138768D01*
X14343256Y-12196859D01*
X14283072Y-12240586D01*
X14283070Y-12240588D01*
X14283069Y-12240588D01*
X14160588Y-12363069D01*
X14160588Y-12363070D01*
X14160586Y-12363072D01*
X14116859Y-12423256D01*
X14058768Y-12503211D01*
X13980128Y-12657552D01*
X13926597Y-12822302D01*
X13899500Y-12993389D01*
X500500Y-12993389D01*
X500500Y-10453389D01*
X13899500Y-10453389D01*
X13899500Y-10626610D01*
X13926475Y-10796929D01*
X13926598Y-10797701D01*
X13980127Y-10962445D01*
X14058768Y-11116788D01*
X14160586Y-11256928D01*
X14283072Y-11379414D01*
X14423212Y-11481232D01*
X14577555Y-11559873D01*
X14742299Y-11613402D01*
X14913389Y-11640500D01*
X14913390Y-11640500D01*
X15086610Y-11640500D01*
X15086611Y-11640500D01*
X15257701Y-11613402D01*
X15422445Y-11559873D01*
X15576788Y-11481232D01*
X15716928Y-11379414D01*
X15839414Y-11256928D01*
X15941232Y-11116788D01*
X16019873Y-10962445D01*
X16073402Y-10797701D01*
X16100500Y-10626611D01*
X16100500Y-10453389D01*
X29139500Y-10453389D01*
X29139500Y-10626610D01*
X29166475Y-10796929D01*
X29166598Y-10797701D01*
X29220127Y-10962445D01*
X29298768Y-11116788D01*
X29400586Y-11256928D01*
X29523072Y-11379414D01*
X29663212Y-11481232D01*
X29817555Y-11559873D01*
X29982299Y-11613402D01*
X30153389Y-11640500D01*
X30153390Y-11640500D01*
X30326610Y-11640500D01*
X30326611Y-11640500D01*
X30497701Y-11613402D01*
X30662445Y-11559873D01*
X30816788Y-11481232D01*
X30956928Y-11379414D01*
X31079414Y-11256928D01*
X31181232Y-11116788D01*
X31259873Y-10962445D01*
X31313402Y-10797701D01*
X31340500Y-10626611D01*
X31340500Y-10453389D01*
X31313402Y-10282299D01*
X31259873Y-10117555D01*
X31181232Y-9963212D01*
X31079414Y-9823072D01*
X30956928Y-9700586D01*
X30816788Y-9598768D01*
X30662445Y-9520127D01*
X30497701Y-9466598D01*
X30497699Y-9466597D01*
X30497698Y-9466597D01*
X30366271Y-9445781D01*
X30326611Y-9439500D01*
X30153389Y-9439500D01*
X30113728Y-9445781D01*
X29982302Y-9466597D01*
X29817552Y-9520128D01*
X29663211Y-9598768D01*
X29583256Y-9656859D01*
X29523072Y-9700586D01*
X29523070Y-9700588D01*
X29523069Y-9700588D01*
X29400588Y-9823069D01*
X29400588Y-9823070D01*
X29400586Y-9823072D01*
X29356859Y-9883256D01*
X29298768Y-9963211D01*
X29220128Y-10117552D01*
X29166597Y-10282302D01*
X29139500Y-10453389D01*
X16100500Y-10453389D01*
X16073402Y-10282299D01*
X16019873Y-10117555D01*
X15941232Y-9963212D01*
X15839414Y-9823072D01*
X15716928Y-9700586D01*
X15576788Y-9598768D01*
X15422445Y-9520127D01*
X15257701Y-9466598D01*
X15257699Y-9466597D01*
X15257698Y-9466597D01*
X15126271Y-9445781D01*
X15086611Y-9439500D01*
X14913389Y-9439500D01*
X14873728Y-9445781D01*
X14742302Y-9466597D01*
X14577552Y-9520128D01*
X14423211Y-9598768D01*
X14343256Y-9656859D01*
X14283072Y-9700586D01*
X14283070Y-9700588D01*
X14283069Y-9700588D01*
X14160588Y-9823069D01*
X14160588Y-9823070D01*
X14160586Y-9823072D01*
X14116859Y-9883256D01*
X14058768Y-9963211D01*
X13980128Y-10117552D01*
X13926597Y-10282302D01*
X13899500Y-10453389D01*
X500500Y-10453389D01*
X500500Y-7125321D01*
X13899500Y-7125321D01*
X13899500Y-8874678D01*
X13914032Y-8947735D01*
X13914033Y-8947739D01*
X13914034Y-8947740D01*
X13969399Y-9030601D01*
X14052260Y-9085966D01*
X14052264Y-9085967D01*
X14125321Y-9100499D01*
X14125324Y-9100500D01*
X14125326Y-9100500D01*
X15874676Y-9100500D01*
X15874677Y-9100499D01*
X15947740Y-9085966D01*
X16030601Y-9030601D01*
X16085966Y-8947740D01*
X16100500Y-8874674D01*
X16100500Y-7125326D01*
X16100500Y-7125323D01*
X16100499Y-7125321D01*
X29139500Y-7125321D01*
X29139500Y-8874678D01*
X29154032Y-8947735D01*
X29154033Y-8947739D01*
X29154034Y-8947740D01*
X29209399Y-9030601D01*
X29292260Y-9085966D01*
X29292264Y-9085967D01*
X29365321Y-9100499D01*
X29365324Y-9100500D01*
X29365326Y-9100500D01*
X31114676Y-9100500D01*
X31114677Y-9100499D01*
X31187740Y-9085966D01*
X31270601Y-9030601D01*
X31325966Y-8947740D01*
X31340500Y-8874674D01*
X31340500Y-7125326D01*
X31340500Y-7125323D01*
X31340499Y-7125321D01*
X31325967Y-7052264D01*
X31325966Y-7052260D01*
X31270601Y-6969399D01*
X31187740Y-6914034D01*
X31187739Y-6914033D01*
X31187735Y-6914032D01*
X31114677Y-6899500D01*
X31114674Y-6899500D01*
X29365326Y-6899500D01*
X29365323Y-6899500D01*
X29292264Y-6914032D01*
X29292260Y-6914033D01*
X29209399Y-6969399D01*
X29154033Y-7052260D01*
X29154032Y-7052264D01*
X29139500Y-7125321D01*
X16100499Y-7125321D01*
X16085967Y-7052264D01*
X16085966Y-7052260D01*
X16030601Y-6969399D01*
X15947740Y-6914034D01*
X15947739Y-6914033D01*
X15947735Y-6914032D01*
X15874677Y-6899500D01*
X15874674Y-6899500D01*
X14125326Y-6899500D01*
X14125323Y-6899500D01*
X14052264Y-6914032D01*
X14052260Y-6914033D01*
X13969399Y-6969399D01*
X13914033Y-7052260D01*
X13914032Y-7052264D01*
X13899500Y-7125321D01*
X500500Y-7125321D01*
X500500Y-4125321D01*
X53899500Y-4125321D01*
X53899500Y-5874678D01*
X53914032Y-5947735D01*
X53914033Y-5947739D01*
X53914034Y-5947740D01*
X53969399Y-6030601D01*
X54052260Y-6085966D01*
X54052264Y-6085967D01*
X54125321Y-6100499D01*
X54125324Y-6100500D01*
X54125326Y-6100500D01*
X55874676Y-6100500D01*
X55874677Y-6100499D01*
X55947740Y-6085966D01*
X56030601Y-6030601D01*
X56085966Y-5947740D01*
X56100500Y-5874674D01*
X56100500Y-4125326D01*
X56100500Y-4125323D01*
X56100499Y-4125321D01*
X71679500Y-4125321D01*
X71679500Y-5874678D01*
X71694032Y-5947735D01*
X71694033Y-5947739D01*
X71694034Y-5947740D01*
X71749399Y-6030601D01*
X71832260Y-6085966D01*
X71832264Y-6085967D01*
X71905321Y-6100499D01*
X71905324Y-6100500D01*
X71905326Y-6100500D01*
X73654676Y-6100500D01*
X73654677Y-6100499D01*
X73727740Y-6085966D01*
X73810601Y-6030601D01*
X73865966Y-5947740D01*
X73880500Y-5874674D01*
X73880500Y-4125326D01*
X73880500Y-4125323D01*
X73880499Y-4125321D01*
X73865967Y-4052264D01*
X73865966Y-4052260D01*
X73810601Y-3969399D01*
X73727740Y-3914034D01*
X73727739Y-3914033D01*
X73727735Y-3914032D01*
X73654677Y-3899500D01*
X73654674Y-3899500D01*
X71905326Y-3899500D01*
X71905323Y-3899500D01*
X71832264Y-3914032D01*
X71832260Y-3914033D01*
X71749399Y-3969399D01*
X71694033Y-4052260D01*
X71694032Y-4052264D01*
X71679500Y-4125321D01*
X56100499Y-4125321D01*
X56085967Y-4052264D01*
X56085966Y-4052260D01*
X56030601Y-3969399D01*
X55947740Y-3914034D01*
X55947739Y-3914033D01*
X55947735Y-3914032D01*
X55874677Y-3899500D01*
X55874674Y-3899500D01*
X54125326Y-3899500D01*
X54125323Y-3899500D01*
X54052264Y-3914032D01*
X54052260Y-3914033D01*
X53969399Y-3969399D01*
X53914033Y-4052260D01*
X53914032Y-4052264D01*
X53899500Y-4125321D01*
X500500Y-4125321D01*
X500500Y-3003750D01*
X500726Y-2996263D01*
X518271Y-2706205D01*
X520076Y-2691340D01*
X571780Y-2409202D01*
X575364Y-2394664D01*
X660699Y-2120812D01*
X665997Y-2106842D01*
X783727Y-1845258D01*
X790680Y-1832012D01*
X830959Y-1765381D01*
X939075Y-1586534D01*
X947567Y-1574230D01*
X1124481Y-1348417D01*
X1134396Y-1337226D01*
X1337226Y-1134396D01*
X1348417Y-1124481D01*
X1574230Y-947567D01*
X1586534Y-939075D01*
X1832012Y-790680D01*
X1845258Y-783727D01*
X2106842Y-665997D01*
X2120812Y-660699D01*
X2394668Y-575362D01*
X2409198Y-571780D01*
X2691344Y-520075D01*
X2706201Y-518271D01*
X2996264Y-500726D01*
X3003751Y-500500D01*
X3065892Y-500500D01*
X86934108Y-500500D01*
X86996249Y-500500D01*
X87003736Y-500726D01*
G37*
%TD.AperFunction*%
%TD*%
M02*
